<svg width="9" height="16" viewBox="0 0 9 16" fill="none" xmlns="http://www.w3.org/2000/svg">
<g clip-path="url(#clip0_2436_2014)">
<path d="M4.88958 7.99358C4.94432 8.04832 4.97168 8.11126 4.97168 8.18242C4.97168 8.25357 4.94432 8.31652 4.88958 8.37125L1.06364 12.1972C1.0089 12.2519 0.945959 12.2793 0.874804 12.2793C0.803649 12.2793 0.740705 12.2519 0.68597 12.1972L0.275461 11.7867C0.220727 11.732 0.193359 11.669 0.193359 11.5979C0.193359 11.5267 0.220727 11.4638 0.275461 11.409L3.50206 8.18242L0.275461 4.95582C0.220727 4.90108 0.193359 4.83814 0.193359 4.76698C0.193359 4.69583 0.220727 4.63288 0.275461 4.57815L0.68597 4.16764C0.740705 4.1129 0.803649 4.08554 0.874804 4.08554C0.945959 4.08554 1.0089 4.1129 1.06364 4.16764L4.88958 7.99358ZM8.04229 7.99358C8.09703 8.04832 8.12439 8.11126 8.12439 8.18242C8.12439 8.25357 8.09703 8.31652 8.04229 8.37125L4.21635 12.1972C4.16161 12.2519 4.09867 12.2793 4.02751 12.2793C3.95636 12.2793 3.89341 12.2519 3.83868 12.1972L3.42817 11.7867C3.37344 11.732 3.34607 11.669 3.34607 11.5979C3.34607 11.5267 3.37344 11.4638 3.42817 11.409L6.65477 8.18242L3.42817 4.95582C3.37344 4.90108 3.34607 4.83814 3.34607 4.76698C3.34607 4.69583 3.37344 4.63288 3.42817 4.57815L3.83868 4.16764C3.89341 4.1129 3.95636 4.08554 4.02751 4.08554C4.09867 4.08554 4.16161 4.1129 4.21635 4.16764L8.04229 7.99358Z" fill="white"/>
</g>
<defs>
<clipPath id="clip0_2436_2014">
<rect width="8.58" height="15" fill="white" transform="matrix(1 0 0 -1 0 15.3008)"/>
</clipPath>
</defs>
</svg>
