<svg width="38" height="38" viewBox="0 0 38 38" fill="none" xmlns="http://www.w3.org/2000/svg">
<path d="M19 20.9001C20.2598 20.9001 21.468 20.3997 22.3588 19.5089C23.2496 18.6181 23.75 17.4099 23.75 16.1501C23.75 14.8903 23.2496 13.6821 22.3588 12.7913C21.468 11.9005 20.2598 11.4001 19 11.4001C17.7403 11.4001 16.5321 11.9005 15.6413 12.7913C14.7505 13.6821 14.25 14.8903 14.25 16.1501C14.25 17.4099 14.7505 18.6181 15.6413 19.5089C16.5321 20.3997 17.7403 20.9001 19 20.9001ZM19 19.0001C18.2442 19.0001 17.5193 18.6998 16.9848 18.1654C16.4503 17.6309 16.15 16.906 16.15 16.1501C16.15 15.3942 16.4503 14.6693 16.9848 14.1348C17.5193 13.6004 18.2442 13.3001 19 13.3001C19.7559 13.3001 20.4808 13.6004 21.0153 14.1348C21.5498 14.6693 21.85 15.3942 21.85 16.1501C21.85 16.906 21.5498 17.6309 21.0153 18.1654C20.4808 18.6998 19.7559 19.0001 19 19.0001ZM3.80005 10.4501C3.80005 9.69423 4.10032 8.96932 4.63479 8.43484C5.16927 7.90036 5.89418 7.6001 6.65005 7.6001H31.35C32.1059 7.6001 32.8308 7.90036 33.3653 8.43484C33.8998 8.96932 34.2 9.69423 34.2 10.4501V15.5516C33.6006 15.2954 32.9514 15.1766 32.3 15.2039V10.4501C32.3 10.1981 32.2 9.95651 32.0218 9.77835C31.8436 9.60019 31.602 9.5001 31.35 9.5001H6.65005C6.39809 9.5001 6.15646 9.60019 5.9783 9.77835C5.80014 9.95651 5.70005 10.1981 5.70005 10.4501V27.5501C5.70005 27.8021 5.80014 28.0437 5.9783 28.2219C6.15646 28.4 6.39809 28.5001 6.65005 28.5001H11.4V25.6501C11.4 24.8942 11.7003 24.1693 12.2348 23.6348C12.7693 23.1004 13.4942 22.8001 14.25 22.8001H23.75C24.5059 22.8001 25.2308 23.1004 25.7653 23.6348C26.2998 24.1693 26.6 24.8942 26.6 25.6501V26.0681C25.9642 25.9627 25.3123 26.0129 24.7 26.2144V25.6501C24.7 25.3981 24.6 25.1565 24.4218 24.9783C24.2436 24.8002 24.002 24.7001 23.75 24.7001H14.25C13.9981 24.7001 13.7565 24.8002 13.5783 24.9783C13.4001 25.1565 13.3 25.3981 13.3 25.6501V28.5001H21.9583C21.4605 29.0644 21.1413 29.7199 20.995 30.4001H6.65005C5.89418 30.4001 5.16927 30.0998 4.63479 29.5654C4.10032 29.0309 3.80005 28.306 3.80005 27.5501V10.4501ZM29.6096 20.1059L30.1473 18.6809C30.6375 17.387 32.1651 16.7486 33.4534 17.2977L34.1905 17.6131C35.0893 17.9969 35.8321 18.6923 35.9898 19.6271C36.8581 24.8046 32.3646 32.169 27.1928 34.0481C26.258 34.3863 25.2491 34.1241 24.4473 33.5807L23.7899 33.1342C23.52 32.9524 23.2928 32.7142 23.1239 32.4361C22.955 32.1579 22.8484 31.8464 22.8116 31.5231C22.7747 31.1998 22.8085 30.8723 22.9105 30.5633C23.0125 30.2543 23.1803 29.9711 23.4023 29.7332L24.4378 28.5799C24.6811 28.312 24.9914 28.1139 25.3367 28.0061C25.6821 27.8982 26.05 27.8844 26.4024 27.9662L28.7299 28.5172C30.5755 27.3645 31.5647 25.7432 31.6978 23.6532L30.0295 22.0211C29.7804 21.7776 29.6079 21.4666 29.5333 21.1263C29.4587 20.786 29.4852 20.4313 29.6096 20.1059Z" fill="#CDEED3"/>
</svg>
