<svg width="35" height="35" viewBox="0 0 35 35" fill="none" xmlns="http://www.w3.org/2000/svg">
<path d="M15.7135 25.2994H8.46709C8.41112 25.2961 8.35506 25.3042 8.30236 25.3233C8.24965 25.3424 8.20141 25.3721 8.1606 25.4106C8.11979 25.449 8.08728 25.4954 8.06505 25.5469C8.04283 25.5984 8.03136 25.6538 8.03136 25.7099C8.03136 25.766 8.04283 25.8215 8.06505 25.8729C8.08728 25.9244 8.11979 25.9708 8.1606 26.0092C8.20141 26.0477 8.24965 26.0774 8.30236 26.0965C8.35506 26.1156 8.41112 26.1238 8.46709 26.1204H15.715C15.771 26.1238 15.827 26.1156 15.8797 26.0965C15.9325 26.0774 15.9807 26.0477 16.0215 26.0092C16.0623 25.9708 16.0948 25.9244 16.117 25.8729C16.1393 25.8215 16.1507 25.766 16.1507 25.7099C16.1507 25.6538 16.1393 25.5984 16.117 25.5469C16.0948 25.4954 16.0623 25.449 16.0215 25.4106C15.9807 25.3721 15.9325 25.3424 15.8797 25.3233C15.827 25.3042 15.771 25.2961 15.715 25.2994M26.39 25.2994H19.1436C19.0876 25.2961 19.0315 25.3042 18.9788 25.3233C18.9261 25.3424 18.8779 25.3721 18.8371 25.4106C18.7963 25.449 18.7637 25.4954 18.7415 25.5469C18.7193 25.5984 18.7078 25.6538 18.7078 25.7099C18.7078 25.766 18.7193 25.8215 18.7415 25.8729C18.7637 25.9244 18.7963 25.9708 18.8371 26.0092C18.8779 26.0477 18.9261 26.0774 18.9788 26.0965C19.0315 26.1156 19.0876 26.1238 19.1436 26.1204H26.39C26.4947 26.1142 26.593 26.0682 26.6649 25.9919C26.7367 25.9156 26.7768 25.8147 26.7768 25.7099C26.7768 25.6051 26.7367 25.5042 26.6649 25.4279C26.593 25.3516 26.4947 25.3056 26.39 25.2994ZM15.6946 15.8567H8.46855C8.41258 15.8533 8.35652 15.8615 8.30382 15.8806C8.25111 15.8997 8.20287 15.9294 8.16206 15.9679C8.12125 16.0063 8.08874 16.0527 8.06651 16.1042C8.04429 16.1557 8.03282 16.2111 8.03282 16.2672C8.03282 16.3233 8.04429 16.3787 8.06651 16.4302C8.08874 16.4817 8.12125 16.5281 8.16206 16.5665C8.20287 16.605 8.25111 16.6347 8.30382 16.6538C8.35652 16.6729 8.41258 16.6811 8.46855 16.6777H15.6931C15.7491 16.6811 15.8052 16.6729 15.8579 16.6538C15.9106 16.6347 15.9588 16.605 15.9996 16.5665C16.0404 16.5281 16.0729 16.4817 16.0952 16.4302C16.1174 16.3787 16.1289 16.3233 16.1289 16.2672C16.1289 16.2111 16.1174 16.1557 16.0952 16.1042C16.0729 16.0527 16.0404 16.0063 15.9996 15.9679C15.9588 15.9294 15.9106 15.8997 15.8579 15.8806C15.8052 15.8615 15.7491 15.8533 15.6931 15.8567M26.3681 15.8567H19.1421C19.0861 15.8533 19.0301 15.8615 18.9774 15.8806C18.9247 15.8997 18.8764 15.9294 18.8356 15.9679C18.7948 16.0063 18.7623 16.0527 18.7401 16.1042C18.7178 16.1557 18.7064 16.2111 18.7064 16.2672C18.7064 16.3233 18.7178 16.3787 18.7401 16.4302C18.7623 16.4817 18.7948 16.5281 18.8356 16.5665C18.8764 16.605 18.9247 16.6347 18.9774 16.6538C19.0301 16.6729 19.0861 16.6811 19.1421 16.6777H26.3681C26.4728 16.6715 26.5711 16.6255 26.643 16.5492C26.7149 16.4729 26.7549 16.372 26.7549 16.2672C26.7549 16.1624 26.7149 16.0615 26.643 15.9852C26.5711 15.9089 26.4728 15.8629 26.3681 15.8567ZM27.1731 2.44002H20.8425C20.6163 1.73193 20.1709 1.11407 19.5706 0.675655C18.9704 0.237244 18.2463 0.000976562 17.5029 0.000976562C16.7596 0.000976563 16.0355 0.237244 15.4352 0.675655C14.8349 1.11407 14.3895 1.73193 14.1633 2.44002H7.82543C6.62809 2.4404 5.47991 2.91621 4.63326 3.76285C3.78662 4.6095 3.31081 5.75768 3.31042 6.95501V30.4838C3.31042 31.6816 3.78626 32.8304 4.63327 33.6774C5.48027 34.5244 6.62904 35.0002 7.82688 35.0002H27.1731C28.3707 34.9998 29.5191 34.5238 30.3658 33.6769C31.2125 32.8299 31.6881 31.6813 31.6881 30.4838V6.95647C31.6877 5.75914 31.2119 4.61096 30.3653 3.76431C29.5186 2.91767 28.3705 2.44186 27.1731 2.44147M14.4783 3.26252C14.5739 3.26485 14.6673 3.23358 14.7422 3.17416C14.817 3.11473 14.8687 3.03091 14.8881 2.93731C15.0183 2.33829 15.3496 1.80186 15.8269 1.41718C16.3041 1.0325 16.8987 0.822722 17.5117 0.822722C18.1247 0.822722 18.7192 1.0325 19.1965 1.41718C19.6738 1.80186 20.005 2.33829 20.1352 2.93731C20.1547 3.03116 20.2066 3.11518 20.2818 3.17463C20.3569 3.23409 20.4506 3.2652 20.5465 3.26252H22.7544V5.95022C22.754 6.27654 22.6242 6.58939 22.3935 6.82013C22.1627 7.05087 21.8499 7.18067 21.5236 7.18106H13.4969C13.1706 7.18067 12.8577 7.05087 12.627 6.82013C12.3962 6.58939 12.2664 6.27654 12.2661 5.95022V3.26106L14.4783 3.26252ZM30.8671 30.4852C30.8671 32.5269 29.2133 34.1806 27.1731 34.1806H7.82688C6.84705 34.1803 5.90748 33.7907 5.21477 33.0978C4.52206 32.4048 4.13292 31.4651 4.13293 30.4852V6.95647C4.13293 5.97677 4.52211 5.0372 5.21486 4.34445C5.90761 3.6517 6.84718 3.26252 7.82688 3.26252H11.4436V5.95022C11.4436 7.08335 12.3623 8.0021 13.4969 8.0021H21.5031C22.6363 8.0021 23.555 7.08335 23.555 5.95022V3.26106H27.1717C29.2133 3.26106 30.8671 4.91481 30.8671 6.95501V30.4852Z" fill="#CDEED3"/>
</svg>
