<svg width="16" height="15" viewBox="0 0 16 15" fill="none" xmlns="http://www.w3.org/2000/svg">
<g clip-path="url(#clip0_2436_2002)">
<path d="M3.59921 4.92702C3.59921 4.92702 3.6471 4.87913 3.74289 4.78335C3.83867 4.68756 3.88656 4.50429 3.88656 4.23354C3.88656 3.96278 3.79078 3.73162 3.59921 3.54005C3.40764 3.34848 3.17647 3.2527 2.90572 3.2527C2.63497 3.2527 2.4038 3.34848 2.21223 3.54005C2.02066 3.73162 1.92488 3.96278 1.92488 4.23354C1.92488 4.50429 2.02066 4.73545 2.21223 4.92702C2.4038 5.1186 2.63497 5.21438 2.90572 5.21438C3.17647 5.21438 3.40764 5.1186 3.59921 4.92702ZM12.0628 8.64733C12.0628 8.91808 11.9683 9.14797 11.7793 9.33699L8.01683 13.1071C7.8176 13.2961 7.58516 13.3906 7.31951 13.3906C7.04876 13.3906 6.81887 13.2961 6.62986 13.1071L1.15093 7.62051C0.956806 7.43149 0.792055 7.17351 0.656678 6.84656C0.521302 6.51962 0.453613 6.22077 0.453613 5.95001V2.76227C0.453613 2.49663 0.550676 2.26674 0.744801 2.07262C0.938926 1.87849 1.16881 1.78143 1.43446 1.78143H4.6222C4.89295 1.78143 5.1918 1.84912 5.51875 1.9845C5.8457 2.11987 6.10623 2.28462 6.30036 2.47875L11.7793 7.95001C11.9683 8.14925 12.0628 8.38169 12.0628 8.64733ZM15.0053 8.64733C15.0053 8.91808 14.9108 9.14797 14.7218 9.33699L10.9594 13.1071C10.7601 13.2961 10.5277 13.3906 10.262 13.3906C10.0781 13.3906 9.92743 13.3549 9.80993 13.2833C9.69244 13.2118 9.55706 13.0969 9.4038 12.9385L13.0053 9.33699C13.1944 9.14797 13.2889 8.91808 13.2889 8.64733C13.2889 8.38169 13.1944 8.14925 13.0053 7.95001L7.52641 2.47875C7.33228 2.28462 7.07175 2.11987 6.7448 1.9845C6.41785 1.84912 6.119 1.78143 5.84825 1.78143H7.56472C7.83548 1.78143 8.13433 1.84912 8.46128 1.9845C8.78822 2.11987 9.04876 2.28462 9.24288 2.47875L14.7218 7.95001C14.9108 8.14925 15.0053 8.38169 15.0053 8.64733Z" fill="#757575"/>
</g>
<defs>
<clipPath id="clip0_2436_2002">
<rect width="15" height="14" fill="white" transform="matrix(1 0 0 -1 0.310059 14.8008)"/>
</clipPath>
</defs>
</svg>
