<svg width="15" height="15" viewBox="0 0 15 15" fill="none" xmlns="http://www.w3.org/2000/svg">
<g clip-path="url(#clip0_2436_1997)">
<path d="M13.8162 5.2033C13.8162 5.2033 13.9694 5.39167 14.2759 5.76843C14.5824 6.14519 14.7357 6.77801 14.7357 7.6669C14.7357 8.55579 14.4292 9.37699 13.8162 10.1305C13.2031 10.884 12.3704 11.4792 11.3181 11.9159C10.2657 12.3527 9.11629 12.5711 7.86981 12.5711C7.51221 12.5711 7.14184 12.5507 6.7587 12.5098C5.7472 13.4038 4.57223 14.0219 3.23379 14.3642C2.98347 14.4357 2.69228 14.4919 2.36023 14.5328C2.27338 14.543 2.19548 14.52 2.12651 14.4638C2.05755 14.4076 2.01285 14.3336 1.99241 14.2416V14.2339C1.97709 14.2135 1.97581 14.1829 1.98858 14.142C2.00135 14.1011 2.00646 14.0756 2.00391 14.0654C2.00135 14.0551 2.01285 14.0309 2.03839 13.9926C2.06393 13.9543 2.07926 13.9313 2.08437 13.9236C2.08947 13.9159 2.10735 13.8942 2.13801 13.8585C2.16866 13.8227 2.18909 13.7997 2.19931 13.7895C2.23507 13.7486 2.31425 13.6605 2.43686 13.5251C2.55946 13.3898 2.64758 13.2927 2.70122 13.2339C2.75486 13.1752 2.83405 13.0743 2.93877 12.9313C3.0435 12.7882 3.12651 12.658 3.18781 12.5405C3.24912 12.423 3.31808 12.2723 3.39471 12.0884C3.47134 11.9044 3.53775 11.7103 3.59394 11.506C2.7919 11.0513 2.15972 10.4894 1.69739 9.82016C1.23507 9.15093 1.00391 8.43318 1.00391 7.6669C1.00391 7.00279 1.18526 6.36805 1.54797 5.76268C1.91068 5.15732 2.39854 4.63497 3.01157 4.19563C3.6246 3.7563 4.35512 3.40764 5.20314 3.14966C6.05116 2.89167 6.94005 2.76268 7.86981 2.76268C9.11629 2.76268 10.2657 2.98108 11.3181 3.41786C12.3704 3.85464 13.2031 4.44979 13.8162 5.2033Z" fill="#757575"/>
</g>
<defs>
<clipPath id="clip0_2436_1997">
<rect width="14" height="14" fill="white" transform="matrix(1 0 0 -1 0.869629 14.8008)"/>
</clipPath>
</defs>
</svg>
