<svg width="39" height="39" viewBox="0 0 39 39" fill="none" xmlns="http://www.w3.org/2000/svg">
<path d="M8.125 14.7599C8.125 12.8651 9.75 12.1875 10.5625 12.1875C12.1778 12.1875 13 13.4128 13 14.7599C13 17.901 10.8176 19.5 8.125 19.5C5.43238 19.5 3.25 16.9536 3.25 13.8125C3.25 10.6714 5.43238 8.125 8.125 8.125M8.125 8.125H30.875M8.125 8.125C8.125 5.82563 8.125 4.67675 8.84 3.965C9.55338 3.25 10.7022 3.25 13 3.25H26C28.2994 3.25 29.4482 3.25 30.16 3.965C30.875 4.67838 30.875 5.82725 30.875 8.125M30.875 8.125C33.5676 8.125 35.75 10.6714 35.75 13.8125C35.75 16.9536 33.5676 19.5 30.875 19.5C28.1824 19.5 26 17.901 26 14.7599C26 13.4111 26.8222 12.1875 28.4375 12.1875C29.25 12.1875 30.875 12.8651 30.875 14.7599M21.125 14.625H17.875M15.4375 30.875V24.375M23.5625 30.875V24.375M4.875 32.5C4.875 32.069 5.0462 31.6557 5.35095 31.351C5.6557 31.0462 6.06902 30.875 6.5 30.875H32.5C32.931 30.875 33.3443 31.0462 33.649 31.351C33.9538 31.6557 34.125 32.069 34.125 32.5V34.125C34.125 34.556 33.9538 34.9693 33.649 35.274C33.3443 35.5788 32.931 35.75 32.5 35.75H6.5C6.06902 35.75 5.6557 35.5788 5.35095 35.274C5.0462 34.9693 4.875 34.556 4.875 34.125V32.5Z" stroke="#CDEED3" stroke-width="1.5" stroke-linecap="round" stroke-linejoin="round"/>
<path d="M8.125 19.5V30.875H30.875V19.5" stroke="#CDEED3" stroke-width="1.5" stroke-linecap="round" stroke-linejoin="round"/>
</svg>
