<svg width="28" height="24" viewBox="0 0 28 24" fill="none" xmlns="http://www.w3.org/2000/svg">
<path d="M13.9877 13C14.6025 13 15.1008 12.5523 15.1008 12C15.1008 11.4477 14.6025 11 13.9877 11C13.373 11 12.8746 11.4477 12.8746 12C12.8746 12.5523 13.373 13 13.9877 13Z" stroke="#718096" stroke-width="2" stroke-linecap="round" stroke-linejoin="round"/>
<path d="M21.7794 13C22.3941 13 22.8925 12.5523 22.8925 12C22.8925 11.4477 22.3941 11 21.7794 11C21.1646 11 20.6663 11.4477 20.6663 12C20.6663 12.5523 21.1646 13 21.7794 13Z" stroke="#718096" stroke-width="2" stroke-linecap="round" stroke-linejoin="round"/>
<path d="M6.19599 13C6.81074 13 7.30909 12.5523 7.30909 12C7.30909 11.4477 6.81074 11 6.19599 11C5.58124 11 5.08289 11.4477 5.08289 12C5.08289 12.5523 5.58124 13 6.19599 13Z" stroke="#718096" stroke-width="2" stroke-linecap="round" stroke-linejoin="round"/>
</svg>
