<svg width="14" height="15" viewBox="0 0 14 15" fill="none" xmlns="http://www.w3.org/2000/svg">
<path d="M12.8852 8.15652C12.1087 6.9509 11.1356 6.04924 9.96569 5.45154C10.2773 5.98283 10.4331 6.55754 10.4331 7.17568C10.4331 8.12076 10.0972 8.92919 9.42546 9.60096C8.75369 10.2727 7.94526 10.6086 7.00018 10.6086C6.05509 10.6086 5.24667 10.2727 4.57489 9.60096C3.90312 8.92919 3.56723 8.12076 3.56723 7.17568C3.56723 6.55754 3.72304 5.98283 4.03466 5.45154C2.8648 6.04924 1.89162 6.9509 1.11512 8.15652C1.79456 9.20377 2.64641 10.0377 3.67068 10.6584C4.69494 11.2791 5.80478 11.5895 7.00018 11.5895C8.19558 11.5895 9.30541 11.2791 10.3297 10.6584C11.3539 10.0377 12.2058 9.20377 12.8852 8.15652ZM7.26071 5.47453C7.26071 5.47453 7.27859 5.45665 7.31435 5.42089C7.35011 5.38513 7.36799 5.31616 7.36799 5.21399C7.36799 5.11182 7.33223 5.02497 7.26071 4.95345C7.18919 4.88193 7.10235 4.84617 7.00018 4.84617C6.36161 4.84617 5.81372 5.07478 5.3565 5.532C4.89928 5.98921 4.67068 6.53711 4.67068 7.17568C4.67068 7.27785 4.70644 7.36469 4.77796 7.43621C4.84948 7.50773 4.93632 7.54349 5.03849 7.54349C5.14066 7.54349 5.22751 7.50773 5.29903 7.43621C5.37055 7.36469 5.40631 7.27785 5.40631 7.17568C5.40631 6.73634 5.56212 6.36086 5.87374 6.04924C6.18536 5.73762 6.56084 5.58181 7.00018 5.58181C7.10235 5.58181 7.18919 5.54605 7.26071 5.47453ZM13.7128 7.62778C13.815 7.80658 13.8661 7.98283 13.8661 8.15652C13.8661 8.33021 13.815 8.50646 13.7128 8.68526C12.9976 9.86022 12.0359 10.8015 10.8278 11.509C9.61959 12.2165 8.34373 12.5703 7.00018 12.5703C5.65663 12.5703 4.38076 12.2153 3.17259 11.5052C1.96442 10.7951 1.00273 9.85511 0.287534 8.68526C0.185363 8.50646 0.134277 8.33021 0.134277 8.15652C0.134277 7.98283 0.185363 7.80658 0.287534 7.62778C1.00273 6.45792 1.96442 5.51795 3.17259 4.80786C4.38076 4.09777 5.65663 3.74273 7.00018 3.74273C8.34373 3.74273 9.61959 4.09777 10.8278 4.80786C12.0359 5.51795 12.9976 6.45792 13.7128 7.62778Z" fill="#757575"/>
</svg>
