<svg width="36" height="37" viewBox="0 0 36 37" fill="none" xmlns="http://www.w3.org/2000/svg">
<rect x="2" y="2.5" width="32" height="32" rx="16" fill="#BFDEF2"/>
<rect x="2" y="2.5" width="32" height="32" rx="16" stroke="#DFEEF8" stroke-width="4"/>
<path d="M13.3333 24.5H22.6667C23.403 24.5 24 23.903 24 23.1667V13.8333C24 13.097 23.403 12.5 22.6667 12.5H13.3333C12.597 12.5 12 13.097 12 13.8333V23.1667C12 23.903 12.597 24.5 13.3333 24.5ZM13.3333 24.5L20.6667 17.1667L24 20.5M16.6667 16.1667C16.6667 16.719 16.219 17.1667 15.6667 17.1667C15.1144 17.1667 14.6667 16.719 14.6667 16.1667C14.6667 15.6144 15.1144 15.1667 15.6667 15.1667C16.219 15.1667 16.6667 15.6144 16.6667 16.1667Z" stroke="#08043F" stroke-width="1.33333" stroke-linecap="round" stroke-linejoin="round"/>
</svg>
