<svg width="991" height="431" viewBox="0 0 991 431" fill="none" xmlns="http://www.w3.org/2000/svg">
<path d="M403.499 295.376C242.936 325.481 65.5065 109.301 -0.00128174 0.586121C31.358 96.7509 31.358 153.202 154.708 289.099C228.233 370.103 434.859 387.364 579.116 341.37C694.521 304.574 691.315 204.779 675.287 159.481C651.593 192.235 564.063 265.27 403.499 295.376Z" fill="url(#paint0_linear_1414_764)"/>
<path d="M405.589 362.267C268.441 368.957 146.346 275.852 102.442 228.464C101.048 227.071 104.533 231.811 129.621 261.917C154.709 292.023 215.339 343.453 259.243 368.538C294.784 393.626 405.59 440.875 564.481 429.167C763.095 414.533 907.351 280.73 957.527 209.647C1007.7 138.564 995.159 67.4811 957.527 38.2116C919.895 8.94223 846.721 -5.69247 744.278 84.2065C641.835 174.105 577.024 353.904 405.589 362.267Z" fill="url(#paint1_linear_1414_764)"/>
<defs>
<linearGradient id="paint0_linear_1414_764" x1="196.522" y1="251.467" x2="612.566" y2="213.835" gradientUnits="userSpaceOnUse">
<stop stop-color="#00009E"/>
<stop offset="1" stop-color="#000052"/>
</linearGradient>
<linearGradient id="paint1_linear_1414_764" x1="382.593" y1="406.173" x2="957.528" y2="31.9429" gradientUnits="userSpaceOnUse">
<stop offset="0.132958" stop-color="#0054FF"/>
<stop offset="0.796046" stop-color="#4FAFFF"/>
</linearGradient>
</defs>
</svg>
