<svg width="13" height="15" viewBox="0 0 13 15" fill="none" xmlns="http://www.w3.org/2000/svg">
<g clip-path="url(#clip0_2436_1992)">
<path d="M3.55651 12.5699L4.25383 11.8726L2.45306 10.0719L1.75575 10.7692V11.5891H2.73659V12.5699H3.55651ZM7.56417 5.45883C7.56417 5.34644 7.50798 5.29025 7.39559 5.29025C7.34451 5.29025 7.30108 5.30813 7.26532 5.34389L3.11207 9.49714C3.07631 9.5329 3.05843 9.57632 3.05843 9.62741C3.05843 9.7398 3.11462 9.79599 3.22701 9.79599C3.2781 9.79599 3.32152 9.77811 3.35728 9.74235L7.51053 5.5891C7.54629 5.55334 7.56417 5.50991 7.56417 5.45883ZM7.15038 3.98756L10.3381 7.1753L3.96264 13.5508H0.774902V10.363L7.15038 3.98756ZM12.3841 4.7232C12.3841 4.99395 12.2896 5.22383 12.1006 5.41285L10.8285 6.68488L7.6408 3.49714L8.91283 2.23277C9.09674 2.03865 9.32663 1.94159 9.60249 1.94159C9.87324 1.94159 10.1057 2.03865 10.2998 2.23277L12.1006 4.02588C12.2896 4.22511 12.3841 4.45755 12.3841 4.7232Z" fill="#757575"/>
</g>
<defs>
<clipPath id="clip0_2436_1992">
<rect width="12" height="14" fill="white" transform="matrix(1 0 0 -1 0.660156 14.8008)"/>
</clipPath>
</defs>
</svg>
