<svg width="12" height="15" viewBox="0 0 12 15" fill="none" xmlns="http://www.w3.org/2000/svg">
<g clip-path="url(#clip0_2197_2505)">
<path d="M11.4497 5.89024V7.3615C11.4497 7.56585 11.3782 7.73954 11.2351 7.88258C11.0921 8.02562 10.9184 8.09714 10.714 8.09714H7.5263V11.2849C7.5263 11.4892 7.45478 11.6629 7.31174 11.8059C7.1687 11.949 6.99501 12.0205 6.79067 12.0205H5.3194C5.11506 12.0205 4.94137 11.949 4.79833 11.8059C4.65529 11.6629 4.58377 11.4892 4.58377 11.2849V8.09714H1.39603C1.19169 8.09714 1.018 8.02562 0.87496 7.88258C0.73192 7.73954 0.6604 7.56585 0.6604 7.3615V5.89024C0.6604 5.6859 0.73192 5.51221 0.87496 5.36917C1.018 5.22613 1.19169 5.15461 1.39603 5.15461H4.58377V1.96687C4.58377 1.76253 4.65529 1.58884 4.79833 1.4458C4.94137 1.30276 5.11506 1.23124 5.3194 1.23124H6.79067C6.99501 1.23124 7.1687 1.30276 7.31174 1.4458C7.45478 1.58884 7.5263 1.76253 7.5263 1.96687V5.15461H10.714C10.9184 5.15461 11.0921 5.22613 11.2351 5.36917C11.3782 5.51221 11.4497 5.6859 11.4497 5.89024Z" fill="white"/>
</g>
<defs>
<clipPath id="clip0_2197_2505">
<rect width="11.11" height="14" fill="white" transform="matrix(1 0 0 -1 0.5 14.25)"/>
</clipPath>
</defs>
</svg>
