<svg width="35" height="35" viewBox="0 0 35 35" fill="none" xmlns="http://www.w3.org/2000/svg">
<path d="M24.0625 29.7283L21.2297 26.8955L19.6875 28.4377L24.0625 32.8127L32.8125 24.0627L31.2703 22.5205L24.0625 29.7283Z" fill="#CDEED3"/>
<path d="M27.3438 5.46875H24.0625V4.375C24.0608 3.79537 23.8297 3.23998 23.4199 2.83012C23.01 2.42026 22.4546 2.18923 21.875 2.1875H13.125C12.5454 2.18923 11.99 2.42026 11.5801 2.83012C11.1703 3.23998 10.9392 3.79537 10.9375 4.375V5.46875H7.65625C7.07662 5.47048 6.52123 5.70151 6.11137 6.11137C5.70151 6.52123 5.47048 7.07662 5.46875 7.65625V30.625C5.47048 31.2046 5.70151 31.76 6.11137 32.1699C6.52123 32.5797 7.07662 32.8108 7.65625 32.8125H17.5V30.625H7.65625V7.65625H10.9375V10.9375H24.0625V7.65625H27.3438V19.6875H29.5312V7.65625C29.5295 7.07662 29.2985 6.52123 28.8886 6.11137C28.4788 5.70151 27.9234 5.47048 27.3438 5.46875ZM21.875 8.75H13.125V4.375H21.875V8.75Z" fill="#CDEED3"/>
</svg>
