<svg width="14" height="15" viewBox="0 0 14 15" fill="none" xmlns="http://www.w3.org/2000/svg">
<path d="M13.7716 13.4952C13.7625 13.4681 13.7219 13.3325 13.6496 13.0885C13.5773 12.8446 13.4372 12.5689 13.2294 12.2617C13.0215 11.9545 12.7324 11.6563 12.3619 11.3671C11.9914 11.0779 11.5079 10.8746 10.9115 10.7571C10.0079 10.5854 9.4815 10.3979 9.3324 10.1946C9.1833 9.99129 9.10875 9.81734 9.10875 9.67275V9.60498C9.33466 9.37907 9.53572 9.12153 9.71193 8.83236C9.88814 8.5432 10.035 8.23144 10.1525 7.89709C10.5862 7.73443 10.846 7.37072 10.9319 6.80594C11.0177 6.24116 11.0606 5.94522 11.0606 5.91811C11.0606 5.80967 11.0448 5.63797 11.0132 5.40303C10.9816 5.16808 10.8754 4.95572 10.6946 4.76596C10.6675 4.74788 10.6404 4.72755 10.6133 4.70496C10.5862 4.68237 10.5546 4.66204 10.5184 4.64396C10.7443 3.83972 10.7737 3.11228 10.6065 2.46166C10.4394 1.81104 10.0937 1.27337 9.56961 0.848652C9.2443 0.595632 8.87832 0.414903 8.47168 0.306465C8.06504 0.188991 7.64484 0.137032 7.21109 0.150586C6.77734 0.164141 6.33456 0.24321 5.88273 0.387793C5.43995 0.541412 5.01072 0.75377 4.59504 1.02486C4.41431 1.0339 4.24488 1.08134 4.08674 1.16719C3.9286 1.25303 3.79531 1.36825 3.68688 1.51283C3.37964 1.91044 3.23505 2.41648 3.25312 3.03096C3.2712 3.64544 3.3209 4.16955 3.40223 4.6033C3.37512 4.62137 3.34123 4.64171 3.30057 4.6643C3.2599 4.68689 3.23053 4.71626 3.21246 4.7524C3.0227 4.93313 2.91426 5.14323 2.88715 5.3827C2.86004 5.62216 2.84648 5.80063 2.84648 5.91811C2.84648 5.92714 2.89167 6.21179 2.98203 6.77205C3.0724 7.33231 3.32993 7.69829 3.75465 7.86998C3.86309 8.20433 4.00541 8.51609 4.18162 8.80525C4.35783 9.09442 4.56341 9.35648 4.79836 9.59143V9.67275C4.79836 9.82637 4.72155 10.0048 4.56793 10.2082C4.41431 10.4115 3.88116 10.5945 2.96848 10.7571C2.37207 10.8656 1.8841 11.0644 1.50457 11.3535C1.13408 11.6427 0.844909 11.9432 0.63707 12.2549C0.429232 12.5667 0.289167 12.8446 0.216875 13.0885C0.144583 13.3325 0.108438 13.4681 0.108438 13.4952L0 14.0103H13.88L13.7716 13.4952ZM1.12504 13.1428C1.26059 12.8717 1.47746 12.578 1.77566 12.2617C2.07387 11.9454 2.52117 11.7331 3.11758 11.6246C4.22906 11.4168 4.92713 11.1344 5.21178 10.7775C5.49643 10.4205 5.63875 10.0523 5.63875 9.67275V9.21189L5.48965 9.0899C5.26374 8.88206 5.06493 8.6313 4.89324 8.33762C4.72155 8.04393 4.586 7.72992 4.4866 7.39557L4.41883 7.07025H4.07996C4.01671 7.06122 3.9399 6.92793 3.84953 6.67039C3.75917 6.41285 3.71398 6.16209 3.71398 5.91811V5.90455C3.71398 5.72382 3.72528 5.59279 3.74787 5.51147C3.77046 5.43014 3.79531 5.38044 3.82242 5.36236C3.82242 5.36236 3.8292 5.35785 3.84275 5.34881C3.85631 5.33977 3.88568 5.33525 3.93086 5.33525H4.4866L4.3375 4.79307C4.18388 4.17859 4.10933 3.62059 4.11385 3.11906C4.11837 2.61754 4.20195 2.25834 4.36461 2.04146C4.40076 1.97821 4.45271 1.93303 4.52049 1.90592C4.58826 1.87881 4.66281 1.86525 4.74414 1.86525H4.87969L4.98812 1.79748C5.33151 1.56253 5.68845 1.37729 6.05895 1.24174C6.42944 1.10619 6.79316 1.02712 7.1501 1.00453C7.50704 0.98194 7.84816 1.01131 8.17348 1.09264C8.49879 1.183 8.78796 1.32307 9.04098 1.51283C9.46569 1.83814 9.72323 2.28545 9.81359 2.85475C9.90396 3.42404 9.82263 4.05659 9.56961 4.7524L9.35273 5.33525H9.97625C10.0124 5.33525 10.0372 5.33977 10.0508 5.34881C10.0644 5.35785 10.0757 5.36236 10.0847 5.36236C10.1028 5.38044 10.1254 5.43014 10.1525 5.51147C10.1796 5.59279 10.1931 5.72834 10.1931 5.91811C10.1931 6.14402 10.1479 6.388 10.0576 6.65006C9.96721 6.91212 9.8904 7.05218 9.82715 7.07025H9.47473L9.3934 7.39557C9.294 7.73895 9.15845 8.05523 8.98676 8.34439C8.81507 8.63356 8.61626 8.88206 8.39035 9.0899L8.24125 9.21189V9.67275C8.24125 10.0523 8.38357 10.4183 8.66822 10.7707C8.95287 11.1231 9.65094 11.4078 10.7624 11.6246C11.3408 11.7331 11.7835 11.9477 12.0908 12.2685C12.398 12.5893 12.6194 12.8807 12.755 13.1428H1.12504Z" fill="white"/>
</svg>
