<svg width="130" height="64" viewBox="0 0 130 64" fill="none" xmlns="http://www.w3.org/2000/svg">
<path fill-rule="evenodd" clip-rule="evenodd" d="M85.087 30.844C84.442 30.844 83.885 30.704 83.417 30.424C82.9508 30.1429 82.5758 29.7332 82.337 29.244C82.086 28.74 81.96 28.154 81.96 27.484C81.96 26.815 82.086 26.228 82.337 25.724C82.5759 25.2352 82.951 24.8258 83.417 24.545C83.885 24.265 84.442 24.125 85.087 24.125C85.733 24.125 86.288 24.265 86.754 24.545C87.223 24.826 87.583 25.219 87.834 25.724C88.088 26.228 88.214 26.815 88.214 27.484C88.214 28.154 88.088 28.74 87.834 29.244C87.583 29.75 87.223 30.142 86.754 30.424C86.288 30.704 85.732 30.844 85.087 30.844ZM85.087 29.697C85.497 29.703 85.837 29.615 86.109 29.433C86.387 29.2434 86.6 28.9728 86.719 28.658C86.856 28.324 86.924 27.932 86.924 27.484C86.924 27.036 86.856 26.648 86.718 26.319C86.5972 26.0076 86.3844 25.7404 86.108 25.553C85.838 25.371 85.497 25.277 85.088 25.271C84.678 25.265 84.338 25.353 84.066 25.536C83.794 25.718 83.59 25.976 83.452 26.31C83.318 26.645 83.251 27.036 83.251 27.484C83.251 27.932 83.318 28.321 83.452 28.649C83.59 28.978 83.794 29.233 84.066 29.415C84.338 29.597 84.677 29.691 85.087 29.697ZM90.988 24.259L92.878 30.709H94.079L95.329 26.355L96.579 30.71H97.779L99.67 24.259H98.39L97.18 28.694L95.97 24.259L94.69 24.268L93.48 28.694L92.27 24.259H90.988ZM103.077 30.709V24.259H107.289V25.397H104.296V26.777H106.751V27.914H104.296V29.572H107.289V30.71L103.077 30.709ZM111.05 30.709V24.259H113.774C113.837 24.259 113.921 24.262 114.025 24.268C114.133 24.271 114.228 24.28 114.312 24.295C114.697 24.355 115.012 24.481 115.257 24.675C115.505 24.869 115.687 25.115 115.804 25.41C115.92 25.703 115.978 26.03 115.978 26.391C115.978 26.931 115.844 27.395 115.575 27.78C115.409 28.016 115.185 28.196 114.903 28.32L116.068 30.71H114.688L113.629 28.524H112.269V30.71L111.05 30.709ZM112.269 27.386H113.72C113.783 27.386 113.852 27.383 113.926 27.376C114.001 27.371 114.07 27.359 114.133 27.341C114.279 27.3068 114.412 27.2286 114.513 27.117C114.6 27.0144 114.663 26.8934 114.697 26.763C114.732 26.642 114.75 26.5169 114.751 26.391C114.751 26.275 114.733 26.152 114.697 26.024C114.664 25.8931 114.601 25.7718 114.513 25.67C114.413 25.5558 114.28 25.4757 114.133 25.441C114.065 25.4226 113.996 25.4109 113.926 25.406C113.857 25.4 113.789 25.3966 113.72 25.396H112.269V27.386ZM75.659 25.396V30.71H76.877V25.397H78.911V24.259H73.624V25.397H75.658L75.659 25.396ZM67.609 30.71V24.259H68.827V29.572H71.605V30.71H67.609ZM60.073 24.259V30.709H64.069V29.572H61.292V24.259H60.073ZM52.011 30.709V24.259H56.221V25.397H53.23V26.777H55.685V27.914H53.23V29.572H56.223V30.71H52.01L52.011 30.709ZM43.618 24.259V30.709H46.476C46.915 30.709 47.279 30.628 47.569 30.464C47.859 30.296 48.074 30.066 48.214 29.774C48.357 29.481 48.429 29.142 48.429 28.757C48.429 28.398 48.327 28.074 48.124 27.784C47.9763 27.5718 47.7683 27.4088 47.527 27.316C47.669 27.229 47.789 27.114 47.887 26.969C48.051 26.73 48.133 26.43 48.133 26.069C48.133 25.785 48.068 25.504 47.936 25.226C47.7986 24.9414 47.5828 24.702 47.314 24.536C47.03 24.351 46.658 24.259 46.198 24.259H43.618ZM46.35 29.563H44.854V27.914H46.35C46.538 27.914 46.695 27.95 46.82 28.022C46.9427 28.0842 47.0432 28.1827 47.108 28.304C47.17 28.424 47.202 28.56 47.202 28.712C47.2057 28.87 47.167 29.026 47.09 29.164C47.0194 29.2886 46.9155 29.3911 46.79 29.46C46.6542 29.5305 46.503 29.566 46.35 29.563ZM46.18 26.776H44.854V25.396H46.18C46.413 25.396 46.59 25.464 46.713 25.598C46.8362 25.7337 46.9021 25.9118 46.897 26.095C46.9027 26.2312 46.8701 26.3663 46.803 26.485C46.7418 26.5825 46.6526 26.6592 46.547 26.705C46.431 26.7542 46.3059 26.7784 46.18 26.776ZM75.84 39.466C76.159 39.654 76.539 39.747 76.98 39.747C77.266 39.747 77.55 39.715 77.832 39.649C78.118 39.579 78.385 39.459 78.634 39.289V37.354H76.924V38.1H77.797V38.797C77.674 38.877 77.543 38.933 77.402 38.966C77.262 38.999 77.121 39.016 76.98 39.016C76.618 39.016 76.325 38.884 76.1 38.621C75.875 38.358 75.762 37.959 75.762 37.424C75.762 37.068 75.818 36.784 75.931 36.572C76.0301 36.375 76.1871 36.2131 76.381 36.108C76.569 36.009 76.771 35.96 76.987 35.96C77.3214 35.9522 77.647 36.0675 77.902 36.284C77.9378 36.3271 77.9686 36.374 77.994 36.424C78.0078 36.4576 78.0147 36.4937 78.014 36.53L78.071 36.58L78.113 36.53L78.62 35.981C78.4493 35.7278 78.2065 35.5316 77.923 35.418C77.623 35.282 77.303 35.214 76.966 35.214C76.811 35.214 76.64 35.234 76.452 35.277C76.2555 35.3177 76.0659 35.3864 75.889 35.481C75.6929 35.5861 75.5166 35.7245 75.368 35.89C75.213 36.058 75.088 36.277 74.994 36.544C74.901 36.807 74.854 37.124 74.854 37.494C74.854 37.945 74.938 38.339 75.107 38.677C75.281 39.015 75.526 39.278 75.84 39.466ZM87.985 39.156C88.328 39.555 88.815 39.754 89.449 39.754C90.079 39.754 90.561 39.555 90.899 39.156C91.242 38.757 91.413 38.199 91.413 37.481C91.413 36.776 91.243 36.225 90.899 35.826C90.561 35.422 90.079 35.221 89.449 35.221C88.816 35.221 88.328 35.422 87.985 35.826C87.647 36.225 87.478 36.776 87.478 37.48C87.478 38.199 87.647 38.757 87.985 39.156ZM90.224 38.636C90.041 38.888 89.782 39.016 89.449 39.016C89.107 39.016 88.844 38.888 88.661 38.636C88.478 38.382 88.386 37.994 88.386 37.473C88.386 36.985 88.478 36.61 88.661 36.347C88.844 36.084 89.107 35.953 89.449 35.953C89.782 35.953 90.041 36.084 90.224 36.347C90.411 36.61 90.505 36.985 90.505 37.474C90.505 37.994 90.411 38.383 90.224 38.636ZM95.768 39.762C95.191 39.762 94.745 39.614 94.431 39.318C94.121 39.022 93.966 38.609 93.966 38.079V35.284H94.938V35.354C94.915 35.3808 94.898 35.4121 94.888 35.446C94.884 35.479 94.881 35.536 94.881 35.615V38.086C94.881 38.377 94.949 38.607 95.085 38.776C95.226 38.945 95.456 39.029 95.775 39.029C96.109 39.029 96.343 38.945 96.479 38.776C96.62 38.602 96.691 38.366 96.691 38.065V35.285H97.591V38.058C97.591 38.448 97.514 38.768 97.359 39.022C97.205 39.272 96.989 39.457 96.712 39.579C96.4139 39.7062 96.0921 39.7686 95.768 39.762ZM100.391 39.67V35.284H102.242C102.632 35.284 102.953 35.343 103.207 35.46C103.465 35.577 103.655 35.735 103.777 35.932C103.904 36.129 103.967 36.347 103.967 36.586C103.967 36.957 103.819 37.265 103.524 37.509C103.228 37.753 102.815 37.875 102.285 37.875H101.32V39.67H100.391ZM101.32 37.129H102.214C102.477 37.129 102.679 37.079 102.82 36.981C102.886 36.9387 102.94 36.8802 102.977 36.811C103.014 36.7419 103.033 36.6644 103.031 36.586C103.032 36.508 103.013 36.431 102.974 36.363C102.936 36.295 102.88 36.2384 102.813 36.199C102.672 36.101 102.477 36.051 102.228 36.051H101.32V37.129ZM81.363 39.67V35.284H83.151C83.733 35.284 84.167 35.404 84.454 35.644C84.744 35.882 84.89 36.197 84.89 36.586C84.89 36.859 84.796 37.108 84.608 37.333C84.425 37.558 84.181 37.713 83.876 37.797L85.031 39.67H84.045L82.954 37.889H82.292V39.67H81.363ZM82.293 37.143H83.2C83.454 37.143 83.642 37.096 83.764 37.002C83.825 36.9564 83.8741 36.8968 83.9072 36.8282C83.9402 36.7596 83.9563 36.6841 83.954 36.608C83.9544 36.5321 83.9375 36.457 83.9046 36.3886C83.8717 36.3201 83.8236 36.2601 83.764 36.213C83.642 36.105 83.449 36.052 83.186 36.052H82.292V37.142L82.293 37.143ZM62.334 39.67V35.284H63.7C64.16 35.284 64.517 35.338 64.77 35.446C65.028 35.554 65.244 35.704 65.418 35.896C65.596 36.094 65.737 36.328 65.84 36.601C65.943 36.868 65.995 37.171 65.995 37.509C65.985 37.955 65.896 38.339 65.727 38.663C65.5588 38.9906 65.2865 39.253 64.953 39.409C64.606 39.583 64.153 39.67 63.594 39.67H62.334ZM63.235 38.952H63.573C63.949 38.952 64.247 38.891 64.467 38.769C64.693 38.647 64.854 38.48 64.953 38.269C65.052 38.053 65.101 37.802 65.101 37.516C65.101 37.216 65.054 36.953 64.96 36.727C64.87 36.497 64.72 36.321 64.51 36.199C64.303 36.073 64.021 36.009 63.665 36.009H63.235V38.952ZM56.916 35.284H55.966V39.67H56.796V36.657L58.711 39.67H59.563V35.615C59.563 35.535 59.565 35.479 59.57 35.446C59.58 35.4121 59.597 35.3808 59.62 35.354V35.284H58.725L58.768 38.121L56.916 35.284ZM51.435 39.762C50.857 39.762 50.412 39.614 50.097 39.318C49.787 39.022 49.632 38.609 49.632 38.079V35.284H50.604V35.354C50.581 35.3808 50.564 35.4121 50.554 35.446C50.55 35.479 50.548 35.536 50.548 35.615V38.086C50.548 38.377 50.616 38.607 50.752 38.776C50.892 38.945 51.122 39.029 51.442 39.029C51.775 39.029 52.01 38.945 52.146 38.776C52.286 38.602 52.356 38.366 52.356 38.065V35.285H53.258V38.058C53.258 38.448 53.18 38.768 53.026 39.022C52.871 39.272 52.655 39.457 52.378 39.579C52.0802 39.7061 51.7587 39.7685 51.435 39.762ZM43.525 35.284V39.67H44.348V37.67H46.383V36.946H44.348V36.009H46.848V35.284H43.525Z" fill="#002A7F"/>
<path d="M31.185 28.079C31.197 28.11 31.225 28.108 31.25 28.105C31.325 28.095 31.391 28.132 31.454 28.164C31.584 28.149 31.695 28.239 31.823 28.237C31.946 28.315 32.1 28.31 32.232 28.359C32.356 28.34 32.453 28.442 32.575 28.429C32.66 28.427 32.738 28.477 32.818 28.491C32.996 28.475 33.153 28.584 33.331 28.553C33.376 28.548 33.407 28.51 33.424 28.473C33.612 28.139 33.819 27.774 34.202 27.643C34.2572 27.63 34.3145 27.6287 34.3703 27.639C34.4261 27.6493 34.4791 27.6711 34.526 27.703C34.538 27.715 34.565 27.714 34.584 27.72C34.669 27.736 34.704 27.805 34.796 27.785C34.847 27.785 34.896 27.784 34.938 27.827C35.008 27.867 35.108 27.842 35.188 27.847C35.258 27.832 35.281 27.913 35.345 27.916H35.732C35.678 27.845 35.634 27.844 35.561 27.848C35.319 27.85 35.087 27.77 34.856 27.72C34.685 27.676 34.528 27.597 34.363 27.531C34.316 27.513 34.313 27.48 34.314 27.441C34.326 27.464 34.35 27.458 34.37 27.463C34.437 27.474 34.469 27.546 34.54 27.53C34.606 27.518 34.628 27.598 34.697 27.588C34.806 27.572 34.879 27.676 34.987 27.658C35.076 27.636 35.127 27.72 35.214 27.719C35.334 27.736 35.469 27.687 35.578 27.751C35.621 27.785 35.672 27.787 35.724 27.786H35.981C36.015 27.894 35.877 27.875 35.811 27.904C35.857 27.927 35.934 27.897 35.963 27.938C35.996 28.018 35.984 28.043 35.903 28.042C35.833 28.042 35.759 28.058 35.69 28.02C35.605 28.002 35.515 28.026 35.429 27.984C35.358 27.9565 35.2821 27.9439 35.206 27.947C35.058 27.969 34.943 27.837 34.806 27.855C34.756 27.895 34.837 27.952 34.869 27.971C34.999 28.027 35.043 28.159 35.134 28.252C35.335 28.402 35.494 28.778 35.79 28.664C35.8431 28.6439 35.9019 28.6454 35.954 28.668C35.91 28.788 35.784 28.724 35.696 28.758C35.666 28.806 35.72 28.828 35.716 28.864C35.791 28.903 36.044 28.831 35.977 28.978C35.852 29.045 35.921 29.091 36 29.155C36.053 29.21 36.05 29.23 35.985 29.289C35.902 29.292 35.816 29.208 35.774 29.129C35.551 28.873 35.312 28.639 35.094 28.379C35.0507 28.3152 34.9927 28.2628 34.925 28.226C34.814 28.143 34.718 28.026 34.603 27.946C34.417 27.805 34.15 27.742 33.973 27.938C33.967 28.347 34.04 28.766 34.204 29.148C34.32 29.443 34.599 29.628 34.744 29.906C34.816 29.972 34.918 30.207 34.742 30.193C34.492 30.133 34.296 29.98 34.129 29.786C33.983 29.668 33.802 29.844 33.723 29.993C33.627 30.173 33.583 30.383 33.557 30.583C33.57 30.792 33.36 30.845 33.226 30.943C32.463 31.351 31.696 31.753 30.909 32.115C30.802 32.152 30.696 32.195 30.593 32.242C30.496 32.284 30.386 32.281 30.294 32.342C30.254 32.36 30.183 32.345 30.14 32.32C30.068 32.52 30.2 32.665 30.182 32.859C30.174 32.962 30.205 33.059 30.232 33.156C30.257 33.284 30.235 33.42 30.281 33.545C30.313 33.76 30.303 33.929 30.388 34.145L30.473 34.023C30.641 34.095 30.773 34.171 30.936 34.24C31.095 34.273 31.406 34.429 31.529 34.295C31.513 34.106 31.741 34.029 31.894 34.022C31.969 34.035 32.031 33.988 32.107 33.992C32.432 33.922 32.774 33.967 33.111 33.955C33.744 33.851 34.412 34.014 35.04 33.875C35.003 33.81 34.926 33.815 34.869 33.776C34.751 33.734 34.666 33.582 34.827 33.532C34.879 33.516 34.878 33.46 34.881 33.412C34.93 33.278 35.099 33.388 35.196 33.404C35.231 33.35 35.156 33.254 35.13 33.193C35.08 33.099 35.005 32.986 35.051 32.872C35.116 32.862 35.171 32.877 35.199 32.939C35.22 32.983 35.256 32.979 35.293 32.98C35.27 33.006 35.257 33.08 35.319 33.058C35.306 33.017 35.293 32.976 35.259 32.949C35.172 32.805 35.105 32.651 35.033 32.499C35.001 32.387 34.896 32.183 35.044 32.126C35.0734 32.1211 35.1036 32.1248 35.1309 32.1367C35.1583 32.1486 35.1816 32.1681 35.198 32.193C35.256 32.253 35.285 32.373 35.364 32.403C35.403 32.38 35.389 32.313 35.391 32.275C35.404 32.11 35.362 31.938 35.416 31.779C35.448 31.615 35.386 31.431 35.446 31.272C35.458 31.252 35.454 31.222 35.455 31.196C35.449 31.079 35.61 30.916 35.699 31.046C35.839 31.421 35.737 31.841 35.791 32.229C35.843 32.229 35.834 32.179 35.857 32.158C36.041 31.949 36.057 32.146 36.032 32.333C36.022 32.406 35.979 32.475 35.953 32.545C35.912 32.623 35.969 32.651 36.036 32.695C36.036 32.76 36.038 32.828 36.035 32.895C36.035 35.505 36.037 38.173 36.036 40.803C36.065 40.976 35.898 41.047 35.83 41.18C35.821 41.206 35.791 41.224 35.77 41.246C35.706 41.313 35.638 41.376 35.586 41.456C35.487 41.593 35.326 41.681 35.243 41.833C35.236 41.848 35.223 41.865 35.209 41.87C35.137 41.894 35.123 41.982 35.051 42.008C34.9874 42.0971 34.9093 42.1748 34.82 42.238C34.675 42.334 34.59 42.504 34.433 42.588C33.98 42.994 33.493 43.388 32.982 43.731C32.882 43.761 32.64 44.074 32.594 43.881C32.583 43.7844 32.5475 43.6921 32.491 43.613C32.398 43.516 32.562 43.449 32.517 43.357C32.491 43.317 32.462 43.278 32.406 43.281C32.368 43.283 32.331 43.279 32.295 43.301C32.145 43.364 32.074 43.194 31.919 43.361C31.861 43.448 31.713 43.421 31.727 43.304C31.7277 43.1611 31.7044 43.0191 31.658 42.884C31.651 42.869 31.648 42.847 31.638 42.84C31.537 42.763 31.448 42.671 31.333 42.614C31.2313 42.5185 31.1219 42.4316 31.006 42.354C30.894 42.285 30.813 42.179 30.699 42.111C30.659 42.081 30.634 42.031 30.58 42.017C30.52 41.974 30.471 41.911 30.402 41.877C30.277 41.805 30.189 41.684 30.066 41.607C29.936 41.551 29.596 41.132 29.679 41.527C29.726 41.637 29.674 41.754 29.726 41.864C29.746 41.998 29.717 42.151 29.736 42.285C29.785 42.373 29.751 42.471 29.766 42.562C29.814 42.672 29.789 42.789 29.795 42.902C29.78 43.007 29.83 43.099 29.829 43.204C29.829 43.246 29.828 43.288 29.85 43.328C29.877 43.441 29.854 43.568 29.862 43.685C29.862 43.74 29.854 43.795 29.884 43.848C29.904 43.919 29.874 44.002 29.914 44.073C29.949 44.24 29.881 44.428 29.951 44.591C29.982 44.677 29.932 44.792 29.982 44.88C29.99 44.893 29.988 44.913 29.988 44.93C29.969 45.03 30.041 45.36 29.93 45.352C29.891 45.33 29.86 45.302 29.862 45.252C29.875 45.123 29.847 45.012 29.829 44.886C29.819 44.763 29.852 44.636 29.806 44.519C29.792 44.491 29.797 44.452 29.796 44.419C29.811 44.304 29.762 44.205 29.763 44.091C29.757 43.99 29.782 43.886 29.734 43.788C29.722 43.685 29.741 43.578 29.708 43.472C29.678 43.355 29.726 43.224 29.68 43.106C29.646 43.002 29.7 42.881 29.642 42.781C29.629 42.762 29.633 42.731 29.633 42.706C29.6329 42.4769 29.6148 42.2482 29.579 42.022C29.55 41.897 29.611 41.753 29.538 41.635C29.555 41.502 29.508 41.375 29.504 41.243C29.534 40.947 29.834 41.273 29.947 41.357C30.06 41.464 30.193 41.547 30.32 41.637C30.521 41.827 30.755 41.984 30.974 42.155C31.048 42.21 31.109 42.282 31.194 42.324C31.278 42.392 31.427 42.557 31.4 42.321C31.375 42.236 31.362 42.134 31.318 42.058C31.261 42.021 31.249 41.944 31.182 41.913C31.09 41.839 30.987 41.763 30.903 41.673C30.549 41.3531 30.191 41.0377 29.829 40.727C29.763 40.621 29.481 40.55 29.623 40.417C29.765 40.502 29.85 40.644 29.99 40.735C30.118 40.815 30.19 40.977 30.331 41.039C30.539 41.246 30.768 41.436 31 41.616C31.085 41.701 31.377 42.03 31.299 41.7C31.239 41.321 31.267 41.443 31.01 41.164C30.793 41.007 30.617 40.794 30.417 40.611C30.202 40.458 30.04 40.245 29.829 40.085C29.761 39.993 29.639 39.956 29.585 39.851C29.513 39.825 29.539 39.773 29.545 39.714C29.804 39.86 30.005 40.114 30.224 40.318C30.291 40.409 30.396 40.455 30.474 40.535C30.664 40.732 30.861 40.917 31.066 41.097C31.163 41.211 31.243 41.221 31.212 41.034C31.2127 40.9854 31.2033 40.9372 31.1844 40.8924C31.1654 40.8477 31.1374 40.8073 31.102 40.774C30.699 40.354 30.262 39.975 29.855 39.564C29.8232 39.5298 29.7869 39.5002 29.747 39.476C29.691 39.433 29.657 39.33 29.584 39.304C29.455 39.256 29.443 39.035 29.596 39.177C29.753 39.343 29.932 39.484 30.096 39.643C30.153 39.711 30.232 39.76 30.267 39.847C30.307 39.895 30.37 39.923 30.414 39.967C30.451 40 30.457 40.063 30.516 40.074C30.586 40.17 30.693 40.228 30.77 40.318C30.839 40.373 31.09 40.701 31.132 40.608C31.14 40.591 31.149 40.564 31.142 40.548C31.099 40.42 31.128 40.275 31.014 40.174C30.683 39.838 30.334 39.52 29.999 39.194C29.948 39.149 29.91 39.089 29.843 39.064C29.8273 39.0567 29.8149 39.0439 29.808 39.028C29.795 38.986 29.758 38.975 29.728 38.953C29.697 38.913 29.672 38.866 29.634 38.834C29.559 38.811 29.329 38.541 29.532 38.604C30.002 39.032 30.449 39.487 30.904 39.94C31.136 40.175 31.042 39.707 30.94 39.618C30.44 39.118 29.938 38.618 29.436 38.133C29.41 38.111 29.371 38.056 29.412 38.027C29.489 37.977 29.649 38.229 29.726 38.277C30.13 38.662 30.504 39.086 30.913 39.464C31.01 39.507 30.939 39.348 30.957 39.304C30.974 39.114 30.853 38.954 30.709 38.836C30.639 38.784 30.603 38.698 30.529 38.65C30.469 38.598 30.399 38.555 30.368 38.474C30.318 38.412 30.242 38.368 30.182 38.311C30.029 38.167 29.868 38.017 29.734 37.855C29.708 37.779 29.631 37.761 29.58 37.71C29.529 37.636 29.448 37.592 29.392 37.524C29.366 37.48 29.32 37.412 29.386 37.383C29.5 37.412 29.553 37.555 29.65 37.623C29.895 37.874 30.157 38.121 30.381 38.377C30.496 38.52 30.647 38.644 30.773 38.78C30.803 38.816 30.873 38.834 30.884 38.78C30.894 38.664 30.844 38.54 30.789 38.435C30.749 38.36 30.666 38.334 30.637 38.257C30.587 38.219 30.524 38.198 30.499 38.132C30.439 38.036 30.331 37.982 30.253 37.9C30.178 37.836 30.145 37.72 30.043 37.686C29.99 37.666 29.997 37.606 29.96 37.578C29.926 37.554 29.876 37.552 29.864 37.502C29.839 37.421 29.721 37.42 29.693 37.338C29.677 37.249 29.123 36.844 29.392 36.861C29.572 37.022 29.745 37.204 29.9 37.391C30.094 37.571 30.283 37.763 30.454 37.966C30.553 38.063 30.644 38.196 30.767 38.257C30.791 38.188 30.803 38.111 30.781 38.059C30.741 37.969 30.785 37.874 30.725 37.791C30.273 37.245 29.705 36.809 29.251 36.263L29.31 36.203C29.394 36.272 29.5 36.308 29.544 36.415C29.802 36.673 30.05 36.941 30.298 37.207C30.35 37.269 30.412 37.322 30.47 37.38C30.527 37.415 30.658 37.637 30.693 37.516C30.715 37.414 30.659 37.329 30.663 37.228C30.651 37.072 30.525 36.947 30.409 36.848C30.078 36.573 29.793 36.24 29.482 35.94C29.398 35.854 29.321 35.762 29.242 35.67C29.21 35.633 29.212 35.631 29.259 35.572C29.693 35.952 30.071 36.401 30.477 36.808C30.707 37.008 30.577 36.501 30.457 36.433C30.16 36.128 29.843 35.846 29.559 35.538C29.493 35.435 29.126 35.199 29.206 35.089C29.316 35.062 29.403 35.246 29.487 35.303C29.789 35.593 30.047 35.919 30.355 36.205C30.38 36.277 30.449 36.295 30.498 36.333C30.59 36.302 30.476 36.152 30.502 36.057C30.481 35.833 30.181 35.616 30.022 35.467C29.92 35.421 29.903 35.294 29.799 35.246C29.762 35.2254 29.7305 35.1963 29.707 35.161C29.657 35.054 29.552 35.013 29.478 34.931C29.46 34.908 29.448 34.875 29.426 34.861C29.3188 34.7744 29.2262 34.6711 29.152 34.555C29.171 34.433 29.302 34.59 29.342 34.626C29.495 34.776 29.644 34.919 29.793 35.077C29.9 35.202 30.015 35.32 30.133 35.436C30.231 35.518 30.297 35.64 30.419 35.691C30.491 35.601 30.391 35.519 30.404 35.426C30.41 35.114 30.099 34.958 29.916 34.756C29.879 34.683 29.788 34.662 29.745 34.594C29.69 34.488 29.598 34.42 29.513 34.344C29.383 34.181 29.179 34.068 29.102 33.872C29.122 33.831 29.192 33.86 29.207 33.878C29.238 33.945 29.293 33.98 29.352 34.015C29.37 34.025 29.391 34.042 29.397 34.06C29.423 34.132 29.484 34.175 29.534 34.226C29.728 34.436 29.952 34.616 30.128 34.842C30.424 35.168 30.352 34.861 30.275 34.638C29.915 34.178 29.405 33.83 29.06 33.358C29.104 33.18 29.482 33.688 29.554 33.735C29.748 33.957 29.953 34.169 30.164 34.375C30.319 34.502 30.221 34.095 30.201 34.029C30.139 33.839 29.943 33.751 29.849 33.582C29.839 33.562 29.812 33.549 29.793 33.534C29.636 33.416 29.511 33.264 29.37 33.13C29.243 32.99 29.069 32.878 28.993 32.702C29.053 32.557 29.347 32.983 29.418 33.032C29.633 33.283 29.887 33.509 30.116 33.746C30.185 33.732 30.143 33.488 30.12 33.434C29.975 33.174 29.713 32.998 29.52 32.775C29.4448 32.7281 29.3815 32.6644 29.335 32.589C29.234 32.46 29.098 32.354 28.987 32.232C28.952 32.195 28.954 32.192 29.002 32.139C29.194 32.248 29.334 32.454 29.499 32.604C29.657 32.782 29.829 32.949 29.988 33.124C30.017 33.167 30.08 33.157 30.084 33.117C30.056 32.946 30.049 32.756 29.944 32.617C29.836 32.552 29.781 32.417 29.666 32.352C29.504 32.241 29.416 32.035 29.243 31.94C29.179 31.831 29.075 31.758 28.993 31.659C28.953 31.619 28.883 31.469 29.012 31.529C29.276 31.811 29.555 32.069 29.806 32.363C29.844 32.415 29.997 32.536 29.986 32.385C29.956 32.329 29.971 32.267 29.956 32.211C29.739 31.75 29.228 31.454 28.909 31.055C28.856 30.942 28.991 30.97 29.036 31.052C29.174 31.21 29.332 31.349 29.482 31.494C29.612 31.611 29.728 31.778 29.874 31.864C29.926 31.688 29.855 31.479 29.736 31.344C29.538 31.132 29.313 30.946 29.134 30.717C29.0861 30.6464 29.0229 30.5876 28.949 30.545C28.839 30.504 28.775 30.262 28.953 30.397C29.146 30.59 29.34 30.783 29.531 30.978C29.636 31.086 29.619 31.131 29.78 31.21C29.821 31.123 29.762 31.053 29.765 30.97C29.775 30.9 29.737 30.839 29.728 30.772C29.619 30.609 29.471 30.468 29.333 30.327C29.253 30.213 28.718 29.821 28.825 29.717C29.081 29.903 29.285 30.174 29.524 30.39C29.581 30.433 29.617 30.528 29.701 30.501C29.64 30.302 29.435 30.228 29.338 30.054C29.24 29.996 29.198 29.886 29.113 29.815C28.968 29.681 28.794 29.543 28.729 29.351C28.724 29.314 28.689 29.299 28.651 29.299H28.239C28.195 29.401 28.242 29.489 28.25 29.589C28.237 29.684 28.286 29.759 28.284 29.852C28.289 29.938 28.274 30.037 28.287 30.121C28.357 30.279 28.289 30.448 28.342 30.611C28.37 30.747 28.324 30.891 28.372 31.029C28.402 31.129 28.345 31.246 28.407 31.341C28.42 31.359 28.415 31.391 28.417 31.416C28.402 31.555 28.457 31.68 28.447 31.821C28.437 31.963 28.492 32.094 28.477 32.239C28.461 32.349 28.518 32.441 28.509 32.553C28.494 32.671 28.555 32.771 28.544 32.893C28.529 33.01 28.582 33.113 28.574 33.233C28.581 33.338 28.554 33.447 28.604 33.547C28.612 33.68 28.59 33.812 28.627 33.942C28.656 34.047 28.612 34.163 28.661 34.268C28.679 34.303 28.668 34.352 28.671 34.395C28.675 34.475 28.656 34.557 28.701 34.632C28.716 34.739 28.693 34.852 28.729 34.961C28.757 35.065 28.708 35.185 28.754 35.29C28.777 35.39 28.758 35.504 28.764 35.608C28.764 35.655 28.76 35.701 28.791 35.743C28.821 35.832 28.791 35.943 28.805 36.035C28.847 36.138 28.828 36.245 28.833 36.351C28.846 36.444 28.873 36.531 28.862 36.628C28.864 36.691 28.861 36.752 28.888 36.815C28.921 36.925 28.865 37.057 28.922 37.167C28.946 37.271 28.912 37.388 28.953 37.495C28.984 37.628 28.929 37.778 28.986 37.912C29.013 38.01 28.964 38.129 29.016 38.227C29.033 38.306 29.018 38.399 29.023 38.482C29.023 38.508 29.016 38.538 29.027 38.558C29.069 38.63 29.054 38.708 29.057 38.783C29.059 38.846 29.05 38.91 29.086 38.97C29.1 39.062 29.086 39.168 29.091 39.264C29.091 39.289 29.086 39.319 29.097 39.339C29.151 39.461 29.088 39.593 29.146 39.716C29.161 39.808 29.14 39.915 29.152 40.01C29.205 40.233 29.221 40.465 29.219 40.696C29.207 40.82 29.268 40.934 29.244 41.062C29.244 41.15 29.072 41.146 29.062 41.07C29.048 40.994 29.071 40.918 29.03 40.845C28.986 40.744 29.098 40.507 28.938 40.486C25.638 40.475 22.334 40.512 19.043 40.454C19.02 40.452 18.998 40.444 19.001 40.417C19.003 40.391 19.027 40.387 19.049 40.387C19.686 40.373 20.332 40.411 20.963 40.369C23.586 40.241 26.492 40.551 28.987 40.261C28.893 39.969 29.113 39.67 28.617 39.759C25.46 39.776 22.263 39.831 19.123 39.723C22.261 39.508 25.628 39.724 28.84 39.648C29.025 39.619 28.878 39.378 28.895 39.258C28.894 39.141 28.758 39.174 28.679 39.17C28.289 39.156 16.489 39.232 19.989 39.073C22.911 39.001 25.892 39.015 28.814 39.073C28.841 39.037 28.897 39.004 28.888 38.962C28.816 38.857 28.933 38.603 28.731 38.619C25.601 38.579 22.407 38.697 19.311 38.575C22.441 38.411 25.669 38.605 28.824 38.508C28.825 38.373 28.895 38.08 28.714 38.044C25.704 38.042 22.694 38.044 19.684 38.044C19.622 38.041 19.554 38.058 19.501 38.016C19.468 37.98 19.52 37.949 19.555 37.947C22.565 37.944 25.574 37.947 28.583 37.946C28.638 37.946 28.693 37.944 28.753 37.942C28.776 37.803 28.76 37.668 28.763 37.528C25.887 37.251 22.649 37.53 19.655 37.432C19.48 37.392 19.695 37.287 19.782 37.323C22.721 37.285 25.699 37.293 28.646 37.315C28.828 37.304 28.685 37.044 28.702 36.94C28.647 36.894 28.59 36.887 28.529 36.885C25.606 36.884 22.619 36.924 19.708 36.857C22.583 36.66 25.673 36.859 28.618 36.788C28.695 36.788 28.716 36.709 28.704 36.646C28.656 36.546 28.677 36.438 28.667 36.326C25.853 36.078 22.831 36.322 19.949 36.239C19.719 36.211 19.831 36.121 20.007 36.146C22.854 36.145 25.702 36.148 28.549 36.145C28.687 36.155 28.639 35.885 28.614 35.804C28.599 35.717 28.61 35.66 28.521 35.594C25.775 35.639 22.971 35.684 20.226 35.594C20.133 35.574 19.986 35.653 19.968 35.514C22.772 35.478 25.584 35.514 28.391 35.501C28.449 35.501 28.51 35.508 28.574 35.486C28.563 35.353 28.611 35.226 28.519 35.116C25.698 35.076 22.839 35.186 20.036 35.078C20.052 34.988 20.152 35.028 20.214 35.019C22.964 35.028 25.706 34.947 28.452 35.019C28.617 34.935 28.504 34.787 28.509 34.655C28.526 34.519 28.392 34.532 28.297 34.535C25.657 34.44 22.659 34.718 20.195 34.44C21.777 34.445 23.353 34.38 24.929 34.436C25.842 34.454 26.765 34.346 27.676 34.436C27.932 34.435 28.189 34.443 28.445 34.434C28.515 34.426 28.521 34.324 28.505 34.274C28.433 34.144 28.55 33.85 28.323 33.862C25.668 33.861 23.013 33.865 20.359 33.861C20.307 33.865 20.244 33.769 20.325 33.766C23.001 33.763 25.677 33.766 28.353 33.765C28.486 33.789 28.453 33.617 28.438 33.53C28.416 33.467 28.43 33.367 28.346 33.352C25.701 33.295 23.026 33.447 20.394 33.297C22.919 33.165 25.59 33.297 28.163 33.251C28.244 33.246 28.376 33.283 28.378 33.163C28.374 33.045 28.409 32.746 28.276 32.707C25.716 32.693 23.154 32.718 20.595 32.697C20.58 32.694 20.559 32.669 20.559 32.653C20.559 32.639 20.583 32.616 20.599 32.613C23.115 32.598 25.634 32.613 28.151 32.608C28.201 32.608 28.252 32.606 28.305 32.604C28.337 32.481 28.312 32.365 28.319 32.246C28.258 32.138 28.167 32.154 28.066 32.157C25.62 32.107 23.014 32.252 20.646 32.107C20.664 32.097 20.686 32.077 20.703 32.081C20.787 32.097 20.866 32.061 20.95 32.061C23.388 32.067 25.825 32.062 28.263 32.064C28.324 31.918 28.26 31.789 28.251 31.647C28.256 31.51 28.112 31.549 28.021 31.544C25.718 31.449 22.886 31.723 20.838 31.454C23.262 31.447 25.686 31.454 28.11 31.451C28.236 31.452 28.271 31.335 28.24 31.231C28.21 31.131 28.246 31.027 28.128 30.968H24.79C24.662 30.942 19.987 31.051 21.092 30.869C23.45 30.869 25.809 30.872 28.167 30.869C28.21 30.689 28.197 30.464 28.097 30.386L21.241 30.387C21.158 30.387 20.91 30.361 21.023 30.297C23.331 30.285 25.64 30.297 27.948 30.292C28.002 30.292 28.058 30.304 28.12 30.272C28.112 30.112 28.165 29.923 28.07 29.779C25.79 29.625 23.379 29.893 21.116 29.684C23.39 29.592 25.72 29.687 28.012 29.65C28.117 29.64 28.088 29.51 28.088 29.436C28.072 29.319 27.94 29.323 27.849 29.328H21.283C21.201 29.325 21.181 29.304 21.177 29.218C21.201 29.124 21.317 29.133 21.393 29.133H28.738C28.834 29.198 28.881 29.29 28.954 29.372C29.099 29.505 29.228 29.651 29.352 29.802C29.48 29.932 29.614 30.057 29.728 30.198C29.754 30.23 29.781 30.234 29.823 30.24C29.833 30.07 29.783 29.863 30.031 29.975C30.241 30.045 30.464 30.077 30.677 30.135C30.805 30.166 30.975 30.212 31.067 30.096C31.124 30.017 31.452 29.873 31.282 29.783C31.149 29.726 31.009 29.69 30.877 29.645C30.836 29.585 30.747 29.602 30.715 29.542C30.761 29.501 30.802 29.55 30.847 29.565C31.087 29.602 31.317 29.675 31.553 29.738C31.68 29.768 31.806 29.801 31.929 29.842C32.0223 29.84 32.1147 29.8599 32.199 29.9C32.273 29.912 32.343 29.893 32.411 29.947C32.449 29.9 32.455 29.847 32.387 29.845C32.277 29.83 32.182 29.766 32.068 29.774C31.791 29.674 31.501 29.617 31.228 29.517C30.989 29.439 30.754 29.347 30.515 29.266C30.42 29.206 30.311 29.176 30.208 29.126C30.154 29.104 30.108 29.062 30.044 29.068C30.0398 29.068 30.0357 29.0671 30.0319 29.0654C30.0281 29.0637 30.0247 29.0612 30.022 29.058C29.993 29.013 29.944 29.011 29.902 28.993C29.832 28.95 29.887 28.885 29.948 28.923C30.685 29.221 31.454 29.443 32.226 29.642C32.322 29.664 32.425 29.678 32.52 29.71C32.55 29.718 32.561 29.713 32.613 29.67C32.561 29.583 32.45 29.61 32.364 29.585C32.269 29.579 32.191 29.513 32.097 29.519C32.038 29.518 31.985 29.48 31.929 29.464C31.882 29.446 31.826 29.474 31.781 29.437C31.678 29.386 31.555 29.371 31.447 29.332C31.061 29.229 30.702 29.074 30.332 28.937C30.182 28.87 30.036 28.796 29.882 28.739C29.794 28.709 29.63 28.635 29.605 28.542C29.597 28.493 29.654 28.485 29.686 28.503C29.752 28.549 29.842 28.546 29.899 28.609C30.142 28.706 30.388 28.792 30.628 28.892C31.061 29.047 31.501 29.192 31.948 29.302C32.164 29.355 32.376 29.422 32.596 29.458C32.643 29.459 32.71 29.508 32.747 29.466C32.743 29.36 32.594 29.408 32.527 29.364C32.449 29.326 32.365 29.33 32.28 29.317C32.208 29.295 32.14 29.26 32.06 29.264C31.988 29.244 31.927 29.188 31.845 29.198C31.761 29.19 31.695 29.118 31.605 29.13C31.545 29.123 31.491 29.064 31.425 29.072C31.135 28.969 30.831 28.891 30.55 28.758C30.483 28.718 30.398 28.704 30.324 28.679C30.254 28.611 30.161 28.591 30.076 28.561C29.975 28.484 29.376 28.34 29.585 28.185C30.258 28.48 30.935 28.748 31.638 28.964C32.001 29.046 32.357 29.162 32.725 29.228C32.762 29.234 32.799 29.228 32.833 29.256C32.851 29.271 32.873 29.256 32.887 29.238C32.951 29.183 32.723 29.127 32.687 29.132C32.577 29.132 32.479 29.062 32.365 29.069C32.296 29.069 32.225 29.025 32.161 29.009C32.073 29.021 32.011 28.959 31.931 28.944C31.748 28.932 31.588 28.831 31.411 28.803C31.105 28.678 30.782 28.59 30.48 28.451C30.382 28.428 29.119 27.864 29.637 27.935C30.581 28.385 31.577 28.725 32.606 28.945C32.656 28.955 33.132 29.067 33.01 28.947C32.565 28.847 32.118 28.745 31.682 28.613C31.245 28.486 30.829 28.306 30.407 28.138C30.349 28.103 30.299 28.059 30.232 28.038C30.187 28.016 30.144 27.988 30.1 27.963C30.109 27.94 30.125 27.914 30.144 27.934C30.188 27.98 30.25 27.964 30.297 27.987C31.072 28.289 31.885 28.542 32.71 28.71C32.791 28.726 32.872 28.762 32.96 28.748C33.02 28.765 33.076 28.802 33.142 28.779C33.215 28.729 33.073 28.677 33.028 28.687C32.588 28.628 32.157 28.479 31.728 28.35C31.582 28.31 31.449 28.232 31.3 28.2C31.233 28.166 31.202 28.164 31.184 28.077L31.185 28.079ZM34.101 35.669C34.163 35.551 34.424 35.576 34.335 35.44C34.281 35.438 34.222 35.43 34.173 35.381C34.193 35.055 34.214 35.309 34.083 35.019C33.974 35.034 33.89 34.987 33.821 34.921C33.631 34.928 33.461 34.917 33.281 34.891C32.923 34.909 32.577 34.85 32.221 34.861C32.11 34.865 32.007 34.907 31.894 34.891C31.762 34.876 31.644 34.927 31.514 34.921C30.673 35.097 32.057 35.501 32.261 35.626C32.338 35.636 32.415 35.674 32.491 35.69C32.557 35.69 32.588 35.729 32.613 35.784C32.515 35.868 32.372 35.788 32.258 35.79C32.158 35.785 32.048 35.799 31.951 35.785C31.873 35.747 31.791 35.764 31.711 35.76C31.614 35.764 31.534 35.71 31.436 35.726C31.369 35.736 31.314 35.706 31.251 35.692C31.167 35.689 31.081 35.701 31 35.663C30.892 35.681 30.79 35.634 30.685 35.632C30.631 35.631 30.638 35.579 30.584 35.562C30.556 35.678 30.608 35.787 30.622 35.904C30.642 36.142 30.684 36.384 30.709 36.619C30.772 36.808 30.755 37.013 30.807 37.202C30.845 37.316 30.827 37.444 30.854 37.563C30.866 37.663 30.906 37.762 30.889 37.865C30.972 38.12 30.947 38.405 31.034 38.663C31.114 38.61 31.165 38.51 31.285 38.518C31.402 38.433 31.545 38.468 31.68 38.458C31.822 38.446 31.939 38.532 32.047 38.609C32.143 38.691 32.177 38.814 32.229 38.922C32.243 39.022 32.255 39.185 32.402 39.118C32.424 39.108 32.456 39.098 32.474 39.108C32.666 39.197 32.827 39.327 32.885 39.54C32.968 39.755 33.295 39.519 33.448 39.493C33.728 39.429 33.138 39.4 33.29 39.196C33.39 39.088 33.203 39.038 33.298 38.868C33.306 38.814 33.245 38.807 33.208 38.828C33.084 38.888 32.951 38.876 32.82 38.878C32.515 38.833 32.776 38.595 32.948 38.586C32.971 38.584 32.996 38.568 33.017 38.554C33.069 38.516 33.12 38.534 33.177 38.501C33.1426 38.4353 33.0883 38.3821 33.022 38.349C32.992 38.275 32.925 38.231 32.872 38.176C32.681 37.938 32.785 37.92 33.032 37.971C33.082 37.802 33.181 37.789 33.334 37.837C33.644 38.009 33.486 38.15 33.826 38.105C33.892 38.172 33.971 38.217 34.019 38.294C34.055 38.338 34.102 38.384 34.165 38.344C34.165 38.272 34.195 38.144 34.087 38.139C33.957 38.15 33.855 38.103 33.94 37.964C34.03 37.904 33.968 37.847 33.9 37.812C33.768 37.737 33.625 37.685 33.513 37.572C33.373 37.459 33.345 37.257 33.565 37.271C33.768 37.247 33.999 37.503 34.169 37.432C34.306 37.336 34.434 37.472 34.577 37.452C34.594 37.377 34.565 37.21 34.479 37.244C34.376 37.276 34.27 37.358 34.163 37.359C34.067 37.318 34.036 37.323 34.041 37.209C34.012 37.094 34.119 37.038 34.134 36.931C34.114 36.9211 34.0919 36.9162 34.0696 36.9168C34.0473 36.9173 34.0255 36.9232 34.006 36.934C33.83 37.009 33.751 36.789 33.928 36.712C34.17 36.522 33.314 36.577 33.438 36.292C33.488 36.257 33.608 36.219 33.516 36.156C33.433 36.113 33.42 36.046 33.438 35.961C33.498 35.94 33.558 35.951 33.618 35.952C33.689 35.988 33.754 36.046 33.833 36.067C33.891 36.03 33.885 35.96 33.96 35.942C34.064 35.856 34.168 35.817 34.101 35.669ZM30.109 32.115C30.344 31.918 30.642 31.834 30.866 31.62C31.036 31.479 31.243 31.377 31.396 31.215C31.4163 31.0113 31.5127 30.8227 31.666 30.687C31.691 30.663 31.701 30.614 31.732 30.595C31.837 30.547 31.897 30.45 31.979 30.376C32.036 30.323 32.027 30.272 31.961 30.233C31.777 30.145 31.781 29.933 31.544 30.103C31.431 30.17 31.327 30.271 31.208 30.323C31.128 30.341 31.087 30.396 31.048 30.456C30.978 30.558 30.938 30.701 30.807 30.736C30.432 30.836 30.276 30.838 30.515 31.248C30.603 31.516 30.185 31.203 30.132 31.151C30.078 31.107 29.999 31.09 29.975 31.011C29.909 30.974 29.914 31.111 29.938 31.155C29.967 31.207 29.952 31.275 29.966 31.328C29.996 31.389 29.992 31.453 29.988 31.516C29.983 31.606 30.031 31.689 30.023 31.779C30.101 31.887 30.006 32.013 30.109 32.115ZM33.933 38.985C33.807 38.942 33.732 39.075 33.618 39.105C33.527 39.212 33.848 39.156 33.905 39.169C34.029 39.174 33.933 39.04 33.933 38.985ZM34.202 36.113C34.272 36.208 34.285 36.219 34.358 36.248C34.353 36.182 34.369 36.119 34.348 36.057C34.286 36.042 34.233 36.039 34.202 36.113ZM34.54 36.395C34.519 36.331 34.484 36.329 34.438 36.345C34.451 36.4 34.484 36.41 34.54 36.395ZM31.18 39.782C31.196 39.791 31.204 39.792 31.21 39.772C31.193 39.761 31.186 39.762 31.18 39.782ZM31.487 41.725C31.501 41.712 31.501 41.703 31.487 41.689C31.473 41.702 31.473 41.712 31.487 41.725ZM31.074 38.881C31.074 38.863 31.063 38.871 31.051 38.871C31.059 38.879 31.061 38.893 31.074 38.881ZM31.625 42.568L31.618 42.558C31.614 42.568 31.601 42.577 31.615 42.586L31.625 42.568ZM30.527 35.086L30.519 35.066C30.505 35.071 30.511 35.083 30.512 35.094L30.527 35.086ZM13.757 33.866C13.827 33.916 13.836 34.022 13.932 34.068C13.964 33.888 13.922 33.704 13.953 33.528C13.986 33.481 13.979 33.431 13.981 33.381C13.985 33.292 13.972 33.204 14.006 33.116C14.027 33.012 14.012 32.872 14.126 32.811L14.236 32.911C14.228 33.057 14.239 33.203 14.266 33.348C14.268 33.476 14.266 33.604 14.268 33.733C14.283 33.805 14.178 33.899 14.281 33.936C14.333 33.883 14.463 33.669 14.518 33.826C14.531 33.885 14.471 34.016 14.562 34.019C14.644 33.995 14.745 34 14.823 33.985C14.957 33.923 15.097 33.979 15.236 33.93C15.353 33.898 15.486 33.954 15.603 33.903C15.756 33.881 15.92 33.901 16.076 33.895C16.146 33.881 16.205 33.925 16.276 33.924C16.398 33.907 16.507 33.961 16.629 33.955C16.688 33.943 16.734 33.977 16.787 33.991C16.933 33.977 17.072 34.031 17.218 34.024C17.465 34.002 17.715 34.053 17.958 34C18.058 33.97 18.174 34.021 18.272 33.967C18.302 33.949 18.347 33.954 18.384 33.956C18.5072 33.9625 18.6305 33.9448 18.747 33.904C18.933 33.889 19.115 33.862 19.278 33.764C19.422 33.654 19.587 33.574 19.716 33.444C19.841 33.259 19.818 33.014 19.89 32.807C19.884 32.698 19.934 32.601 19.958 32.5C19.968 32.288 20.018 32.076 20.071 31.87C20.095 31.746 20.101 31.618 20.149 31.5C20.144 31.324 20.282 31.143 20.184 30.969C20.175 30.955 20.168 30.933 20.155 30.929C20.09 30.904 20.075 30.834 20.025 30.795C19.9791 30.7563 19.937 30.7135 19.899 30.667C19.789 30.54 19.623 30.512 19.471 30.466C19.341 30.436 19.213 30.341 19.079 30.36C19.019 30.459 18.935 30.594 18.827 30.466C18.517 30.11 18.104 29.885 17.683 29.686C17.486 29.578 17.263 29.536 17.072 29.412C16.913 29.243 16.777 29.028 16.556 28.93C16.4107 28.8537 16.257 28.7946 16.098 28.754C15.973 28.697 15.968 28.873 15.948 28.957C15.884 29.132 16.026 29.267 16.038 29.433C16.097 29.667 16.273 29.863 16.352 30.09C16.341 30.208 16.378 30.344 16.331 30.451C16.271 30.433 16.235 30.373 16.21 30.321C16.165 30.205 16.074 30.118 16.023 30.006C15.935 29.949 15.382 29.172 15.425 29.576C15.372 29.893 15.593 30.68 15.155 30.743C14.9 30.781 14.701 30.547 14.458 30.568C14.2495 30.6377 14.0551 30.7441 13.884 30.882C13.826 30.934 13.696 31.018 13.692 30.882C13.662 30.169 13.724 30.477 14.002 29.956C13.886 29.896 13.679 29.914 13.735 29.72C13.879 29.683 14.047 29.86 14.169 29.726C14.057 29.702 13.969 29.654 13.866 29.648C13.781 29.649 13.649 29.516 13.759 29.461C13.837 29.494 13.927 29.475 14.005 29.514C14.047 29.53 14.115 29.507 14.155 29.529C14.22 29.575 14.285 29.553 14.361 29.549C14.342 29.406 14.148 29.484 14.054 29.449C13.963 29.363 13.814 29.435 13.744 29.332C13.72 29.304 13.721 29.302 13.738 29.204C13.765 29.204 13.8 29.194 13.821 29.206C13.878 29.239 13.951 29.213 14.001 29.26C14.091 29.255 14.173 29.306 14.264 29.299C14.355 29.295 14.426 29.349 14.522 29.317C14.472 29.187 14.204 29.21 14.082 29.197C13.997 29.18 13.919 29.127 13.827 29.129C13.797 29.131 13.765 29.106 13.731 29.092C13.724 29.044 13.702 28.956 13.758 28.946C13.971 28.992 14.189 29.02 14.399 29.069C14.453 29.063 14.845 29.111 14.717 29.01C14.568 29.002 14.418 29.017 14.277 28.96C14.117 28.94 13.967 28.91 13.814 28.856C13.718 28.82 13.721 28.814 13.734 28.702C13.741 28.698 13.748 28.69 13.754 28.691C13.953 28.709 14.94 28.978 14.992 28.765C14.793 28.711 14.578 28.781 14.376 28.725C14.1897 28.6945 14.0058 28.6504 13.826 28.593C13.719 28.559 13.719 28.558 13.736 28.435C13.758 28.434 13.784 28.426 13.807 28.431C14.013 28.469 14.211 28.557 14.422 28.557C14.461 28.557 14.498 28.556 14.534 28.577C14.734 28.617 14.938 28.626 15.142 28.617C15.312 28.552 15.438 28.377 15.627 28.332C15.727 28.298 15.729 28.298 15.832 28.332C16.284 28.477 16.692 28.72 17.119 28.922C17.166 28.959 17.199 28.906 17.249 28.922C17.318 28.942 17.369 29.006 17.434 29.03C17.706 29.161 17.983 29.287 18.284 29.329C18.448 29.352 18.604 29.4 18.772 29.392C18.942 29.407 19.112 29.457 19.287 29.399C19.4 29.362 19.541 29.428 19.652 29.367C19.875 29.351 20.109 29.324 20.316 29.232C20.416 29.247 20.499 29.191 20.582 29.157C20.725 29.123 20.937 29.087 20.885 29.307C20.859 29.483 20.805 29.65 20.785 29.826C20.643 30.46 20.538 31.109 20.405 31.749C20.265 32.427 20.143 33.104 19.999 33.783C19.949 34.044 19.909 34.313 19.843 34.573C19.82 34.683 19.823 34.798 19.773 34.903C19.763 35.03 19.752 35.156 19.704 35.275C19.7089 35.3599 19.6927 35.4448 19.657 35.522C19.62 35.638 19.628 35.762 19.591 35.88C19.588 35.91 19.572 35.939 19.576 35.966C19.589 36.076 19.525 36.17 19.507 36.272C19.5082 36.378 19.4892 36.4832 19.451 36.582C19.441 36.683 19.445 36.785 19.399 36.88C19.364 36.972 19.392 37.074 19.344 37.163C19.301 37.292 19.322 37.43 19.267 37.558C19.24 37.664 19.237 37.773 19.204 37.878C19.186 37.983 19.178 38.085 19.141 38.186C19.104 38.431 19.064 38.676 18.994 38.912C18.9962 39.0262 18.9772 39.1397 18.938 39.247C18.922 39.33 18.942 39.417 18.902 39.497C18.842 39.614 18.872 39.754 18.817 39.875C18.779 39.949 18.823 40.033 18.78 40.111C18.71 40.241 18.746 40.403 18.692 40.543C18.644 40.613 18.7 40.705 18.652 40.777C18.611 40.84 18.609 40.912 18.604 40.985C18.6 41.08 18.553 41.174 18.546 41.268C18.556 41.348 18.508 41.415 18.506 41.492C18.468 41.534 18.481 41.588 18.475 41.637C18.4454 41.8106 18.4093 41.9831 18.367 42.154C18.2383 42.8378 18.1023 43.5201 17.959 44.201C17.933 44.325 17.927 44.559 17.729 44.417C17.657 44.397 17.579 44.276 17.63 44.207C17.6396 44.1936 17.6448 44.1775 17.645 44.161C17.637 44.048 17.685 43.946 17.705 43.839C17.695 43.739 17.748 43.655 17.765 43.557C17.778 43.447 17.784 43.339 17.827 43.236C17.839 43.126 17.847 43.018 17.892 42.916C17.902 42.801 17.922 42.692 17.958 42.582C17.9596 42.485 17.9765 42.3888 18.008 42.297C18.056 42.081 18.076 41.849 18.148 41.635C18.195 41.452 18.08 41.532 17.996 41.599C17.904 41.681 17.807 41.627 17.714 41.585C17.485 41.63 17.434 41.893 17.625 42.018C17.819 42.124 17.631 42.225 17.508 42.272C17.4344 42.3067 17.3751 42.3656 17.34 42.439C17.242 42.708 17.685 43.081 17.292 43.387C17.06 43.557 16.846 43.377 16.635 43.661C16.541 43.658 16.492 43.591 16.428 43.554C16.3637 43.5207 16.3056 43.4767 16.256 43.424C16.102 43.317 15.955 43.194 15.808 43.075C15.1715 42.5537 14.5795 41.9804 14.038 41.361C13.929 41.194 13.722 41.062 13.691 40.858C13.754 38.545 13.568 36.132 13.756 33.867L13.757 33.866ZM15.827 39.475C15.798 39.553 15.719 39.553 15.642 39.575C16.015 39.977 15.266 39.723 15.634 39.99C15.764 39.925 15.945 39.916 16.048 40.031C16.068 40.062 16.097 40.09 16.14 40.096C16.1908 40.0122 16.2586 39.94 16.339 39.884C16.506 39.76 16.704 39.69 16.904 39.649C17.037 39.647 17.165 39.642 17.294 39.683C17.403 39.675 17.478 39.78 17.591 39.738C17.736 39.465 18.031 39.161 18.369 39.254C18.438 39.278 18.509 39.324 18.589 39.285C18.702 38.955 18.728 38.597 18.812 38.255C18.824 38.106 18.88 37.957 18.9 37.814C18.906 37.72 18.952 37.634 18.92 37.541C18.65 37.451 18.366 37.431 18.087 37.393C17.911 37.316 17.714 37.411 17.534 37.337C17.444 37.327 17.345 37.339 17.253 37.334C17.177 37.338 17.116 37.29 17.041 37.303C16.941 37.297 16.831 37.313 16.735 37.296C16.686 37.269 16.636 37.273 16.585 37.271C16.568 37.271 16.548 37.271 16.535 37.263C16.455 37.212 16.361 37.261 16.277 37.213C16.157 37.161 16.016 37.178 15.903 37.109C15.789 37.097 15.69 37.034 15.57 37.021C15.486 37.067 15.542 37.159 15.514 37.224C15.448 37.318 15.182 37.4 15.385 37.514C15.495 37.468 15.627 37.307 15.748 37.392C15.715 37.464 15.687 37.533 15.607 37.564C15.5868 37.5722 15.5689 37.585 15.5545 37.6013C15.5401 37.6176 15.5296 37.637 15.524 37.658C15.581 37.738 15.577 37.868 15.459 37.882C15.286 37.962 15.561 38.019 15.202 38.194C15.296 38.264 15.569 38.432 15.38 38.529C15.306 38.567 15.305 38.704 15.405 38.714C15.497 38.644 15.656 38.451 15.781 38.509C15.859 38.56 15.905 38.463 15.96 38.425C16.147 38.269 16.24 38.425 16.088 38.585C15.749 38.919 15.831 38.817 16.216 38.855C16.266 39.039 16.105 38.989 16.016 39.08C16.29 39.264 16.023 39.355 15.815 39.363C15.775 39.382 15.824 39.439 15.827 39.475ZM15.359 35.932C15.291 36.032 15.089 36.025 15.143 36.188C15.17 36.304 15.259 36.366 15.368 36.406C15.479 36.448 15.578 36.506 15.686 36.552C16.148 36.746 16.579 37.088 17.101 37.082C17.281 37.15 17.475 37.056 17.653 37.142C17.67 37.151 17.695 37.145 17.716 37.145C17.959 37.132 18.195 37.21 18.436 37.206C18.506 37.246 18.584 37.23 18.657 37.249C18.727 37.287 18.809 37.259 18.878 37.3C19.035 37.33 19.021 37.225 19.031 37.108C19.084 36.968 19.083 36.818 19.122 36.678C19.159 36.514 19.183 36.349 19.219 36.185C19.242 36.101 19.23 36.009 19.279 35.93C19.297 35.9 19.28 35.861 19.249 35.841C18.646 35.668 18.026 35.561 17.433 35.348C16.78 35.138 16.153 34.82 15.471 34.726C15.3697 34.7388 15.2668 34.7286 15.17 34.696C15.059 34.696 14.947 34.691 14.837 34.698C14.8049 34.6985 14.7736 34.7078 14.7463 34.7247C14.719 34.7416 14.6968 34.7655 14.682 34.794C14.767 34.853 14.823 34.93 14.925 34.954C15.022 34.976 15.128 35.063 15.06 35.164C14.746 35.274 14.999 35.241 14.93 35.503C14.997 35.609 15.05 35.511 15.043 35.711C15.098 35.734 15.263 35.679 15.323 35.651C15.3408 35.6401 15.361 35.6335 15.3818 35.6318C15.4026 35.63 15.4236 35.6332 15.443 35.641C15.454 35.736 15.459 35.741 15.421 35.774C15.3985 35.7932 15.381 35.8177 15.3702 35.8452C15.3594 35.8728 15.3555 35.9026 15.359 35.932ZM20.521 29.408C20.466 29.384 20.413 29.38 20.375 29.398C20.279 29.457 20.171 29.446 20.073 29.479C19.9371 29.513 19.7969 29.5265 19.657 29.519C19.578 29.522 19.517 29.574 19.435 29.556C19.21 29.546 18.978 29.59 18.765 29.519C18.538 29.539 18.322 29.434 18.099 29.437C18.389 29.765 19.255 29.635 19.68 29.643C19.879 29.573 20.096 29.593 20.292 29.51C20.378 29.47 20.473 29.519 20.521 29.408ZM18.768 29.794C18.841 29.986 19.193 29.88 19.361 29.904C19.466 29.902 19.574 29.924 19.676 29.876C19.766 29.88 19.851 29.842 19.938 29.843C20.044 29.85 20.139 29.776 20.246 29.782C20.328 29.766 20.414 29.76 20.469 29.693C20.383 29.615 20.244 29.741 20.118 29.716C20.054 29.761 19.976 29.733 19.908 29.756C19.794 29.806 19.664 29.767 19.542 29.78C19.466 29.774 19.403 29.82 19.33 29.81C19.136 29.838 18.96 29.75 18.768 29.794ZM19.228 30.046C19.271 30.281 19.61 30.115 19.766 30.126C19.853 30.077 19.951 30.114 20.04 30.09C20.1294 30.0508 20.2265 30.0324 20.324 30.036C20.374 30.037 20.382 30.021 20.392 29.949C20.236 29.925 20.09 30.012 19.932 30.001C19.89 30.001 19.842 29.998 19.808 30.015C19.621 30.072 19.42 30.015 19.228 30.046ZM14.792 35.307C14.668 35.377 14.45 35.489 14.58 35.632C14.677 35.595 14.667 35.485 14.735 35.432C14.76 35.412 14.765 35.366 14.792 35.307ZM30.634 22.466C30.572 22.642 30.329 22.714 30.198 22.832C29.877 23.042 29.545 23.234 29.231 23.455C29.162 23.4983 29.1119 23.5662 29.091 23.645C29.056 23.794 28.967 23.931 28.921 24.075C28.785 24.171 28.407 23.632 28.263 23.541C28.218 23.551 28.213 23.585 28.225 23.604C28.257 23.659 28.247 23.719 28.255 23.781C28.311 23.829 28.35 23.897 28.423 23.931C28.45 23.944 28.458 23.994 28.484 24.009C28.611 24.102 28.836 24.273 28.834 24.438C28.832 24.488 28.83 24.538 28.854 24.588C28.88 24.671 28.838 24.77 28.888 24.85C28.911 24.935 28.876 25.03 28.924 25.113C28.946 25.205 28.907 25.311 28.956 25.402C28.974 25.495 28.941 25.598 28.986 25.691C29.003 25.827 29.021 25.97 29.026 26.107C29.049 26.287 29.094 26.464 29.091 26.645C29.112 26.801 29.149 26.95 29.151 27.109C29.152 27.159 29.139 27.212 29.179 27.255C29.189 27.362 29.197 27.475 29.217 27.582C29.227 27.662 29.209 27.742 29.244 27.821C29.258 27.884 29.235 27.958 29.267 28.021C29.304 28.129 29.253 28.253 29.31 28.359C29.33 28.424 29.299 28.507 29.337 28.572C29.347 28.589 29.345 28.613 29.345 28.634C29.348 28.719 29.336 28.804 29.375 28.885C29.391 28.929 29.365 28.994 29.382 29.037C29.42 29.115 29.406 29.196 29.409 29.276C29.4076 29.3226 29.4161 29.3689 29.434 29.412C29.46 29.467 29.444 29.52 29.377 29.557C29.277 29.475 29.187 29.377 29.096 29.286C28.994 29.102 28.715 28.966 28.706 28.767C28.706 28.721 28.708 28.674 28.68 28.632C28.659 28.573 28.683 28.505 28.649 28.446C28.616 28.338 28.661 28.215 28.612 28.106C28.59 28.018 28.627 27.918 28.585 27.829C28.568 27.793 28.577 27.745 28.575 27.703C28.589 27.602 28.542 27.515 28.544 27.413C28.549 27.333 28.501 27.263 28.51 27.177C28.506 27.101 28.52 27.025 28.483 26.951C28.464 26.802 28.439 26.648 28.447 26.496C28.437 26.411 28.42 26.316 28.409 26.234C28.369 26.176 28.382 26.112 28.379 26.049C28.387 25.849 28.313 25.659 28.319 25.457C28.329 25.399 28.304 25.35 28.287 25.297C28.303 25.16 28.239 25.031 28.25 24.893C28.27 24.807 28.223 24.729 28.221 24.643C28.221 24.621 28.227 24.596 28.219 24.579C28.173 24.486 28.196 24.386 28.189 24.289C28.17 24.129 28.131 23.977 28.124 23.815C28.119 23.735 28.138 23.655 28.097 23.577C28.083 23.479 28.094 23.305 27.947 23.317C27.837 23.344 27.49 23.249 27.481 23.4C27.478 23.674 27.468 23.945 27.511 24.215C27.516 24.277 27.499 24.341 27.541 24.4C27.561 24.45 27.531 24.52 27.491 24.563C27.464 24.567 27.431 24.565 27.406 24.577C27.33 24.641 27.266 24.537 27.19 24.587C27.087 24.637 26.98 24.523 26.87 24.587C26.808 24.621 26.75 24.582 26.688 24.573C26.61 24.597 26.566 24.578 26.488 24.625C26.491 24.698 26.467 24.775 26.511 24.848C26.533 24.932 26.502 25.026 26.544 25.111C26.566 25.16 26.522 25.211 26.463 25.214C26.259 25.214 26.055 25.212 25.859 25.277C25.753 25.307 25.736 25.443 25.713 25.537C25.723 25.944 26.165 26.095 26.263 26.465C26.274 26.499 26.307 26.525 26.331 26.558C26.444 26.553 26.547 26.6 26.66 26.598C26.899 26.63 27.13 26.721 27.361 26.788C27.381 26.795 27.407 26.795 27.42 26.808C27.486 26.88 27.582 26.918 27.643 26.996C27.683 27.023 27.69 27.116 27.623 27.098C27.547 27.038 27.483 26.962 27.397 26.913C27.324 26.828 27.205 27.039 27.075 27.038C26.923 27.071 26.772 27.118 26.615 27.112C26.545 27.16 26.467 27.141 26.392 27.145C26.219 27.175 26.047 27.185 25.872 27.172C25.773 27.184 25.679 27.162 25.589 27.217C25.599 27.373 25.475 27.416 25.38 27.518C25.303 27.459 25.218 27.398 25.194 27.301C25.107 27.038 24.64 27.229 24.444 27.262C24.191 27.302 23.928 27.323 23.673 27.284C23.5597 27.2734 23.4486 27.2464 23.343 27.204C23.319 27.194 23.274 27.214 23.277 27.169C23.287 27.129 23.357 27.152 23.388 27.133C23.381 27.096 23.334 27.061 23.248 27.028C23.183 27.071 23.174 27.148 23.143 27.211C23.155 27.301 23.091 27.381 23.108 27.473C23.062 27.565 23.078 27.664 23.074 27.761C23.07 27.816 23.035 27.864 23.042 27.923C23.062 28.002 22.999 28.066 23.011 28.147C23.008 28.206 23.021 28.266 22.987 28.322C22.97 28.393 22.992 28.474 22.957 28.547C22.933 28.668 22.975 28.891 22.783 28.88C22.621 28.845 21.978 28.957 21.953 28.803C21.986 28.771 22.219 28.545 22.051 28.571C22.0088 28.6125 21.9618 28.6487 21.911 28.679C21.816 28.724 21.762 28.845 21.641 28.806C21.631 28.7726 21.6325 28.7369 21.6451 28.7044C21.6578 28.672 21.681 28.6447 21.711 28.627C21.832 28.578 21.916 28.479 22.021 28.407C22.101 28.355 22.222 28.26 22.156 28.152C21.988 28.227 21.902 28.41 21.73 28.484C21.538 28.341 22.284 28.076 22.24 27.788C22.244 27.614 22.314 27.44 22.304 27.262C22.347 27.162 22.317 27.052 22.365 26.954C22.382 26.899 22.358 26.834 22.388 26.778C22.399 26.757 22.398 26.728 22.399 26.703C22.402 26.648 22.392 26.592 22.425 26.542C22.427 26.419 22.447 26.295 22.403 26.166L22.486 26.071C22.43 25.981 22.534 25.905 22.528 25.811C22.526 25.765 22.524 25.719 22.553 25.676C22.58 25.607 22.538 25.518 22.588 25.452C22.601 25.329 22.618 25.202 22.644 25.078C22.66 24.962 22.667 24.844 22.689 24.728C22.749 24.558 22.741 24.463 22.575 24.365C22.495 24.315 22.397 24.218 22.404 24.115C22.441 24.065 22.42 23.999 22.456 23.946C22.532 23.747 22.382 23.436 22.149 23.454C22.138 23.558 22.127 23.659 22.087 23.754C22.0864 23.8464 22.0667 23.9376 22.029 24.022C22.004 24.1 22.025 24.183 21.985 24.257C21.938 24.397 21.95 24.549 21.888 24.685C21.892 24.785 21.858 24.876 21.832 24.969C21.819 25.049 21.828 25.131 21.788 25.204C21.725 25.434 21.712 25.676 21.638 25.904C21.621 25.995 21.642 26.091 21.586 26.174C21.5727 26.1957 21.5658 26.2206 21.566 26.246C21.582 26.366 21.506 26.466 21.502 26.58C21.517 26.707 21.434 26.813 21.435 26.939C21.391 27.1 21.362 27.266 21.327 27.429C21.324 27.446 21.31 27.462 21.312 27.478C21.326 27.584 21.263 27.672 21.245 27.771C21.253 27.888 21.202 27.993 21.178 28.103C21.162 28.347 21.057 28.561 21.049 28.809C20.821 29.033 20.902 28.616 20.676 28.794C20.626 28.814 20.566 28.814 20.529 28.863C20.521 28.873 20.497 28.879 20.482 28.877C20.369 28.872 20.276 28.954 20.162 28.942C20.132 28.939 20.105 28.952 20.076 28.962C19.926 29.042 19.754 28.966 19.603 29.034C19.583 29.045 19.553 29.039 19.527 29.039C19.354 29.025 19.171 29.071 19.006 29.014C18.933 28.994 18.842 29.01 18.764 29.005C18.636 29.011 18.554 28.885 18.416 28.912C18.397 28.856 18.906 28.878 18.966 28.884C19.17 28.967 19.375 28.858 19.582 28.879C19.725 28.862 20.942 28.65 20.877 28.469C20.8564 28.4594 20.8336 28.4556 20.811 28.4581C20.7885 28.4606 20.767 28.4692 20.749 28.483C20.67 28.54 20.566 28.546 20.489 28.609C20.439 28.632 20.362 28.601 20.323 28.657C20.303 28.682 20.273 28.689 20.242 28.686C20.1826 28.6804 20.1228 28.6911 20.069 28.717C19.959 28.764 19.842 28.74 19.728 28.747C19.706 28.747 19.681 28.742 19.664 28.751C19.553 28.812 19.429 28.778 19.314 28.781C19.213 28.697 19.046 28.809 18.981 28.677C18.996 28.645 19.024 28.655 19.047 28.654C19.127 28.65 19.207 28.664 19.285 28.624C19.373 28.609 19.475 28.621 19.565 28.62C19.699 28.632 19.822 28.566 19.951 28.558C20.144 28.561 20.311 28.446 20.501 28.426C20.565 28.406 20.618 28.363 20.689 28.356C21.067 28.299 20.943 28.071 21.042 27.801C21.142 27.325 21.219 26.841 21.338 26.374C21.498 25.531 21.668 24.701 21.854 23.861C21.849 23.691 21.928 23.561 21.929 23.387C21.855 23.253 21.788 23.106 21.659 23.01C21.606 22.886 21.474 22.824 21.414 22.704C21.304 22.593 21.218 22.462 21.102 22.353C20.882 22.073 20.62 21.828 20.417 21.538C20.357 21.398 20.582 21.399 20.665 21.437C20.733 21.481 20.79 21.424 20.86 21.421C20.912 21.416 20.962 21.476 21.014 21.423C21.45 21.417 21.887 21.419 22.322 21.421C22.452 21.444 22.388 21.636 22.459 21.723C22.507 21.953 22.428 22.103 22.349 22.312C22.441 22.399 22.365 22.541 22.496 22.62C22.567 22.678 22.661 22.588 22.658 22.509C22.657 22.445 22.65 22.381 22.685 22.321C22.6719 22.2132 22.6481 22.1071 22.614 22.004C22.605 21.9871 22.6001 21.9684 22.5998 21.9492C22.5994 21.9301 22.6036 21.9112 22.612 21.894C22.634 21.831 22.618 21.76 22.645 21.696C22.668 21.59 22.635 21.421 22.793 21.42H26.807C26.937 21.415 26.977 21.527 26.967 21.64C26.958 21.747 27.022 21.844 27.015 21.952C26.99 22.044 26.97 22.139 26.948 22.233C26.898 22.316 26.975 22.396 26.968 22.48C26.953 22.69 27.212 22.662 27.193 22.457C27.178 22.377 27.293 22.341 27.243 22.261C27.175 22.109 27.07 21.95 27.161 21.787C27.148 21.699 27.197 21.621 27.196 21.535C27.192 21.462 27.25 21.403 27.325 21.42C27.51 21.415 27.69 21.415 27.87 21.452C28.348 21.456 28.828 21.462 29.297 21.41C29.497 21.306 29.72 21.72 29.887 21.787C30.131 22.021 30.387 22.234 30.634 22.466ZM23.537 27.161C23.565 27.155 23.597 27.19 23.639 27.144C23.566 27.147 23.536 27.19 23.532 27.117C23.466 27.093 23.485 27.149 23.537 27.161ZM23.509 26.614C23.554 26.674 23.578 26.789 23.669 26.751C23.86 26.669 24.067 26.606 24.274 26.59C24.45 26.516 24.647 26.609 24.827 26.533C24.848 26.524 24.877 26.531 24.903 26.531C25.025 26.52 25.36 26.589 25.173 26.387C24.986 26.093 24.599 26.003 24.287 25.895C24.083 25.825 24.319 25.642 24.323 25.313C24.347 25.09 24.374 24.85 24.359 24.626C24.241 24.522 24.224 24.614 24.117 24.592C23.9847 24.5609 23.8474 24.5582 23.714 24.584C23.656 24.598 23.592 24.62 23.537 24.584C23.444 24.632 23.469 24.714 23.457 24.792C23.424 24.856 23.433 24.924 23.427 24.992C23.395 25.162 23.372 25.334 23.367 25.505C23.366 25.517 23.367 25.532 23.361 25.542C23.312 25.618 23.352 25.714 23.329 25.792C23.284 25.864 23.302 25.941 23.299 26.016C23.315 26.1 23.226 26.262 23.349 26.276C23.503 26.328 23.897 26.25 23.609 26.494C23.658 26.565 23.561 26.582 23.509 26.614ZM26.859 23.083C26.859 23.065 26.862 23.052 26.859 23.05C26.717 22.943 26.926 22.615 26.663 22.61H22.996L22.703 22.901C22.646 22.9637 22.572 23.0085 22.49 23.03C22.467 23.035 22.444 23.054 22.456 23.087C22.604 23.099 26.756 23.096 26.859 23.083ZM22.661 23.371C22.656 23.565 22.607 23.771 22.863 23.734C24.285 23.735 25.724 23.734 27.133 23.732C27.355 23.734 27.351 23.305 27.134 23.319C25.651 23.366 24.12 23.223 22.661 23.371ZM28.476 22.725C28.562 22.631 28.72 22.665 28.807 22.58C28.959 22.375 28.908 22.042 29.128 21.881C29.326 21.808 29.31 21.875 29.473 21.867C29.835 21.955 29.567 21.773 29.463 21.649C29.31 21.612 29.23 21.746 29.12 21.823C28.987 21.906 28.878 22.023 28.747 22.102C28.687 22.176 28.584 22.215 28.57 22.327C28.51 22.463 28.367 22.454 28.244 22.447C28.128 22.369 28.066 22.233 27.909 22.297C27.889 22.349 27.905 22.411 27.852 22.449C27.643 22.646 27.362 22.732 27.164 22.942C27.128 22.987 27.085 23.031 27.017 23.034C26.926 23.092 27.061 23.098 27.115 23.094C28.269 23.103 27.923 22.944 28.743 23.759C28.93 23.918 28.757 23.324 28.885 23.254C28.985 23.24 29.092 23.279 29.189 23.248C29.552 23.188 29.404 22.648 29.693 22.474C29.8273 22.4359 29.9696 22.4359 30.104 22.474C30.154 22.492 30.209 22.48 30.263 22.453C30.135 22.318 29.973 22.103 29.807 22.317C29.633 22.444 29.448 22.557 29.292 22.704C29.133 22.797 29.137 22.842 29.052 22.984C28.982 23.091 28.734 23.098 28.663 22.979C28.599 22.89 28.509 22.846 28.476 22.725ZM22.335 23.091C22.233 22.771 22.453 22.559 21.963 22.611C21.823 22.623 21.908 22.915 21.889 23.017C21.9 23.157 22.216 23.074 22.335 23.091ZM23.258 26.908C23.366 26.978 23.392 26.984 23.487 26.965C23.427 26.913 23.354 26.915 23.258 26.908ZM23.306 26.384C23.326 26.492 23.384 26.436 23.446 26.415C23.406 26.353 23.355 26.376 23.306 26.384ZM29.394 19.434C29.399 19.522 29.47 19.561 29.529 19.621C31.666 19.663 33.879 19.541 35.979 19.664C34.641 19.838 33.127 19.613 31.746 19.747C31.03 19.774 30.324 19.704 29.614 19.723C29.602 19.788 29.657 19.822 29.684 19.873C29.799 20.048 30.045 19.905 30.223 19.941C32.129 19.946 34.036 19.931 35.942 19.946C35.985 19.957 35.994 20.016 35.947 20.032C35.014 20.04 34.067 20.122 33.137 20.039C32.602 20.026 32.055 20.059 31.532 20.039C31.404 20.057 31.282 20.083 31.152 20.065C31.068 20.007 30.99 20.071 30.908 20.062C30.575 19.981 30.211 20.101 29.877 20.01C29.825 20.13 29.909 20.197 29.967 20.293C30.087 20.303 30.207 20.294 30.326 20.296C32.122 20.196 33.949 20.293 35.755 20.261C35.825 20.266 35.949 20.234 35.963 20.328C35.957 20.37 35.911 20.4 35.869 20.394C34.672 20.406 33.474 20.37 32.279 20.408C32.347 20.424 32.409 20.463 32.483 20.454C32.771 20.478 33.047 20.58 33.335 20.611C33.978 20.525 34.644 20.641 35.287 20.561C35.495 20.545 35.913 20.342 36.057 20.504C36.076 20.614 36.091 20.797 35.959 20.839C35.679 20.897 35.409 20.992 35.139 21.079C34.885 21.202 34.621 21.305 34.378 21.449C34.252 21.524 34.094 21.639 33.976 21.502C33.653 21.227 33.259 21.065 32.859 20.939C32.698 20.932 32.551 20.85 32.392 20.839C32.259 20.846 32.136 20.794 31.999 20.809C31.749 20.789 31.481 20.745 31.228 20.809C31.092 20.799 30.968 20.824 30.835 20.841C30.77 20.824 30.711 20.849 30.65 20.871C30.458 20.871 30.282 20.954 30.093 20.971C30.066 20.971 30.066 20.976 30.019 21.041C30.283 21.327 30.579 21.596 30.852 21.878C31.02 22.015 31.281 22.165 30.96 22.319C30.696 22.464 30.44 21.991 30.252 21.861C30.185 21.797 30.103 21.749 30.038 21.681C30.001 21.641 29.973 21.59 29.913 21.575C29.904 21.572 29.898 21.555 29.892 21.545C29.759 21.42 29.616 21.295 29.488 21.161C29.454 21.127 29.465 21.124 29.383 21.147C29.403 21.391 29.211 21.358 29.036 21.355C26.923 21.302 24.768 21.389 22.636 21.355C22.307 21.375 21.961 21.316 21.641 21.379C21.486 21.394 21.336 21.359 21.186 21.355H20.331C20.27 21.295 20.203 21.237 20.144 21.17C20.088 21.095 20.047 20.953 20.199 20.97C23.261 20.881 26.483 21.14 29.469 20.88C26.389 20.761 23.142 20.882 20.007 20.838C19.948 20.834 19.935 20.813 19.933 20.731C20.077 20.639 20.212 20.527 20.363 20.447C20.826 20.182 21.272 19.88 21.736 19.615C22.951 18.842 24.182 18.086 25.403 17.315C25.498 17.245 25.577 17.258 25.667 17.339C25.867 17.539 26.09 17.706 26.305 17.882C26.968 18.456 27.646 19.01 28.309 19.59C28.781 19.979 29.249 20.372 29.713 20.77C29.826 20.812 29.898 20.73 29.993 20.694C29.977 20.657 29.968 20.624 29.95 20.597C29.801 20.364 29.622 20.156 29.458 19.94C29.3547 19.8454 29.2609 19.7409 29.178 19.628C29.054 19.48 28.894 19.371 28.758 19.24C28.681 19.102 27.986 18.76 28.401 18.715C28.651 18.695 28.801 18.903 28.982 19.042C29.778 19.028 30.584 19.07 31.375 19.027C31.722 19.064 32.082 19.034 32.434 19.042C32.596 19.056 32.752 18.968 32.909 19.036C33.926 19.087 34.989 18.971 35.989 19.078C33.979 19.224 31.729 19.147 29.665 19.103C29.402 19.098 28.789 19.059 29.358 19.351C31.5448 19.2706 33.7337 19.2639 35.921 19.331C36.026 19.344 35.973 19.449 35.889 19.428C33.737 19.437 31.508 19.412 29.394 19.434ZM23.481 19.063C24.708 19.143 26.004 18.954 27.203 19.133C27.163 19.184 27.133 19.233 27.063 19.233C25.776 19.236 24.489 19.234 23.203 19.233C23.124 19.233 23.05 19.233 22.988 19.293C22.903 19.343 22.81 19.366 22.738 19.452C24.34 19.562 26.032 19.442 27.638 19.492C27.693 19.502 27.668 19.566 27.667 19.609C25.997 19.644 24.32 19.609 22.647 19.621C22.382 19.607 22.251 19.695 22.037 19.846C24.035 19.928 26.069 19.844 28.08 19.876C28.1013 19.8783 28.1209 19.8885 28.135 19.9046C28.1491 19.9207 28.1566 19.9416 28.156 19.963C26.214 20.184 24.011 19.963 22 20.038C21.71 20.021 21.581 20.066 21.335 20.225C23.722 20.328 26.172 20.226 28.578 20.261C28.631 20.294 28.646 20.337 28.656 20.391C26.13 20.496 23.553 20.377 21.014 20.431C20.894 20.466 20.78 20.545 20.671 20.604C20.669 20.69 20.937 20.63 21 20.648C21.03 20.648 21.066 20.641 21.088 20.654C21.2044 20.6975 21.3324 20.6993 21.45 20.659C21.51 20.623 21.559 20.702 21.62 20.682C21.68 20.677 21.738 20.64 21.8 20.68C21.913 20.651 22.03 20.623 22.146 20.668C24.445 20.61 26.792 20.668 29.087 20.648C29.13 20.646 29.234 20.657 29.202 20.594C28.678 20.196 28.18 19.766 27.673 19.346C27.562 19.287 27.479 19.185 27.377 19.11C27.259 19.006 27.122 18.927 27.015 18.814C26.963 18.754 26.883 18.734 26.838 18.67C26.505 18.386 26.148 18.123 25.817 17.84C25.709 17.743 25.548 17.589 25.543 17.837C25.641 17.881 25.75 17.881 25.699 18.013C25.438 18.009 25.179 17.985 24.957 18.147C24.589 18.382 25.892 18.232 26.015 18.271C26.105 18.269 26.201 18.261 26.215 18.383C25.7 18.502 25.123 18.392 24.587 18.429C24.479 18.394 23.932 18.689 24.302 18.656C25.033 18.656 25.764 18.658 26.495 18.656C26.591 18.664 26.735 18.664 26.692 18.81C25.816 18.824 24.929 18.799 24.059 18.821C23.9906 18.8076 23.9201 18.8081 23.8519 18.8225C23.7837 18.8369 23.7191 18.865 23.662 18.905C23.592 18.912 23.554 18.968 23.497 18.994C23.474 19.004 23.46 19.03 23.481 19.063ZM34.826 20.689C34.5866 20.669 34.3457 20.6764 34.108 20.711C33.929 20.721 33.757 20.665 33.575 20.684C33.387 20.759 33.955 20.938 34.037 20.907C34.242 20.912 34.441 20.907 34.637 20.84C34.696 20.791 34.86 20.794 34.826 20.69V20.689ZM31.401 20.413C31.3349 20.3706 31.2551 20.3552 31.178 20.37C31.125 20.345 31.069 20.357 31.015 20.356C30.675 20.354 30.344 20.366 30.011 20.336C30.041 20.454 30.102 20.654 30.253 20.608C30.316 20.58 30.378 20.586 30.441 20.584C30.533 20.586 30.616 20.52 30.709 20.524C30.841 20.516 30.963 20.452 31.092 20.454C31.197 20.4616 31.3024 20.448 31.402 20.414L31.401 20.413ZM34.3 20.994C34.247 20.945 34.113 20.979 34.037 20.978C34.019 21.011 34.076 21.054 34.1 21.078C34.175 21.139 34.243 21.037 34.3 20.994ZM25.126 44.044C25.141 44.029 25.156 44.01 25.175 44.003C25.258 43.973 25.3 43.885 25.369 43.84C25.473 43.793 25.529 43.688 25.619 43.625C25.703 43.581 25.757 43.497 25.833 43.445C25.961 43.359 26.071 43.241 26.193 43.145C26.302 43.091 26.367 42.98 26.458 42.909C26.816 42.632 27.168 42.333 27.501 42.023C27.821 41.753 28.16 41.503 28.451 41.203C28.481 41.177 28.483 41.143 28.461 41.104C27.661 41.089 26.857 41.104 26.055 41.099C23.991 41.16 21.907 41.139 19.835 41.158C19.573 41.163 19.883 41.398 19.965 41.474C20.048 41.554 20.119 41.65 20.212 41.714C20.442 41.899 20.63 42.125 20.862 42.305C20.976 42.41 21.078 42.539 21.2 42.635C21.249 42.649 21.278 42.687 21.309 42.721C21.382 42.803 21.469 42.835 21.579 42.834C22.87 42.829 24.161 42.834 25.452 42.833C25.502 42.833 25.553 42.828 25.601 42.84C25.631 42.958 25.633 42.986 25.58 43.06C25.5189 43.1581 25.4335 43.2387 25.332 43.294C25.214 43.422 25.049 43.291 24.906 43.313C24.591 43.304 24.292 43.402 23.982 43.439C23.675 43.519 23.252 43.152 23.029 43.473C22.984 43.54 22.98 43.682 22.869 43.629C22.766 43.584 22.658 43.608 22.559 43.641C22.414 43.663 22.357 43.692 22.472 43.819C22.592 43.956 22.741 44.063 22.874 44.186C22.974 44.261 23.134 44.193 23.253 44.216C23.381 44.351 23.298 44.558 23.508 44.6C23.614 44.51 23.696 44.361 23.843 44.342C24.107 44.282 24.233 44.472 24.369 44.664C24.662 44.484 24.869 44.254 25.126 44.044ZM23.42 45.12C23.29 45.006 23.188 44.86 23.034 44.77C22.857 44.579 22.659 44.418 22.474 44.239C22.408 44.172 22.348 44.096 22.272 44.044C22.103 43.926 21.98 43.759 21.825 43.627C21.61 43.487 21.475 43.257 21.255 43.121C20.746 42.604 20.188 42.138 19.674 41.631C19.594 41.534 19.484 41.475 19.397 41.388C19.324 41.341 19.267 41.196 19.166 41.238C19.08 41.38 19.091 41.556 19.051 41.712C19.011 41.845 19.015 41.99 18.964 42.117C18.951 42.283 18.947 42.311 19.107 42.322C19.173 42.371 19.223 42.453 19.162 42.524C19.002 42.784 19.353 42.62 19.406 42.857C19.46 43.143 18.982 42.862 18.932 43.093C18.895 43.247 18.776 43.365 18.711 43.502C18.671 43.682 18.513 44.06 18.861 43.86C18.911 43.832 18.966 43.808 18.998 43.755C19.066 43.737 19.043 43.648 19.101 43.621C19.379 43.764 19.317 43.526 19.463 43.581C19.624 43.648 19.771 43.608 19.638 43.827C19.598 43.957 19.692 44.053 19.791 44.117C19.8832 44.0872 19.9646 44.0308 20.025 43.955C20.111 43.95 20.059 44.09 20.057 44.139C20.067 44.211 20.014 44.263 20.019 44.336C20.03 44.478 20.002 44.616 19.989 44.753C19.988 44.853 19.945 44.942 19.959 45.043C19.958 45.081 19.967 45.125 19.952 45.157C19.905 45.257 19.932 45.357 19.931 45.464C20.123 45.573 20.343 45.634 20.554 45.694C20.821 45.826 20.774 45.532 20.798 45.374C20.845 45.285 20.814 45.189 20.835 45.1C20.865 45.052 20.86 45 20.856 44.95C20.856 44.828 20.894 44.707 20.896 44.586C20.959 44.494 20.899 44.371 20.932 44.274C20.962 44.111 20.99 43.949 20.986 43.784C21.002 43.724 21.027 43.673 21.018 43.61C21.018 43.518 21.064 43.44 21.051 43.347C21.034 43.217 21.173 43.245 21.226 43.312C21.44 43.53 21.686 43.714 21.89 43.946C21.982 44.042 21.822 44.129 21.731 44.121C21.699 44.118 21.662 44.111 21.632 44.145C21.656 44.241 21.744 44.315 21.728 44.425C21.724 44.51 21.728 44.595 21.728 44.678C21.811 44.771 21.903 44.937 22.038 44.816C22.397 44.434 22.511 44.881 22.761 44.853C22.891 44.764 23.075 45.063 23.181 45.143C23.237 45.205 23.319 45.228 23.368 45.296C23.4123 45.3452 23.4684 45.3824 23.531 45.404C23.677 45.312 23.501 45.187 23.421 45.121L23.42 45.12ZM24.58 45.195C24.649 45.236 24.626 45.348 24.724 45.369C24.984 45.202 25.177 45.074 25.486 45.227C25.561 45.263 25.634 45.341 25.721 45.334C25.911 45.277 25.878 45.06 25.863 44.906C25.833 44.758 25.744 44.644 25.904 44.542C25.95 44.337 25.641 44.427 25.583 44.279C25.614 44.209 25.683 44.193 25.728 44.151C25.825 44.062 25.913 43.966 26.021 43.888C26.293 43.645 26.397 43.546 26.789 43.628C26.899 43.637 27.003 43.679 27.075 43.766C27.193 43.856 27.017 44.11 27.243 44.046C27.351 44.019 27.463 43.956 27.573 44.02C27.734 44.089 27.686 44.24 27.756 44.366C28.126 44.416 28.013 44.796 28.189 44.538C28.2045 44.5027 28.2294 44.4723 28.261 44.4501C28.2925 44.4279 28.3295 44.4147 28.368 44.412C28.4092 44.4075 28.4489 44.3942 28.4844 44.373C28.52 44.3517 28.5505 44.3231 28.574 44.289C28.574 44.203 28.569 43.924 28.689 43.928C29.021 43.908 28.973 43.693 28.735 43.554C28.589 43.441 28.733 43.32 28.751 43.184C28.735 43.174 28.722 43.159 28.708 43.158C28.565 43.136 28.402 42.991 28.466 42.834C28.638 42.834 28.808 42.832 28.979 42.834C29.236 42.855 29.133 42.582 29.146 42.408C29.093 42.319 29.138 42.212 29.114 42.12C29.081 42.054 29.094 41.986 29.091 41.919C29.098 41.795 29.04 41.689 29.057 41.567C29.064 41.477 29.011 41.404 29.023 41.317C29.032 40.957 28.735 41.32 28.623 41.407C28.514 41.47 28.451 41.587 28.348 41.654C28.238 41.722 28.162 41.83 28.065 41.909C27.965 41.955 27.908 42.053 27.825 42.115C27.762 42.139 27.723 42.191 27.678 42.235C27.605 42.328 27.505 42.384 27.421 42.46C27.234 42.652 27.023 42.816 26.824 42.992C26.779 43.049 26.71 43.064 26.667 43.119C26.62 43.168 26.577 43.227 26.52 43.26C26.433 43.31 26.371 43.385 26.3 43.452C26.152 43.605 25.967 43.713 25.821 43.867C25.657 44.044 25.447 44.167 25.281 44.344C25.016 44.565 24.756 44.801 24.497 45.03C24.44 45.128 24.109 45.279 24.18 45.394C24.365 45.477 24.42 45.206 24.581 45.194L24.58 45.195ZM15.054 22.77C15.031 22.805 14.994 22.841 14.993 22.879C14.987 23.016 14.865 23.091 14.847 23.224C14.822 23.323 14.773 23.513 14.639 23.474C14.561 23.424 14.469 23.463 14.39 23.439C14.33 23.404 14.266 23.413 14.203 23.412C13.935 23.44 13.576 23.281 13.694 23.707C13.719 23.801 13.814 23.754 13.878 23.737C13.992 23.709 14.115 23.712 14.228 23.691C14.331 23.647 14.448 23.683 14.558 23.671C14.587 23.67 14.62 23.671 14.645 23.657C14.732 23.59 14.816 23.722 14.892 23.639C15.069 23.419 15.166 23.135 15.342 22.909C16.142 21.699 17.49 20.754 18.936 20.521C18.992 20.514 19.037 20.477 19.096 20.488C19.116 20.487 19.142 20.492 19.159 20.483C19.226 20.443 19.299 20.457 19.371 20.456C19.531 20.441 19.738 20.503 19.855 20.366C20.336 19.826 20.836 19.286 21.419 18.849C21.503 18.666 21.204 18.728 21.117 18.72C20.9 18.835 20.78 19.094 20.507 19.043C18.278 19.076 15.999 18.98 13.794 19.077C14.698 19.176 15.676 19.025 16.581 19.141C17.007 19.115 17.456 19.196 17.868 19.108C18.108 19.084 18.362 19.121 18.6 19.12C18.818 19.086 19.042 19.103 19.262 19.109C19.408 19.136 19.559 19.159 19.705 19.125C19.957 19.096 20.215 19.102 20.474 19.103C20.545 19.089 20.596 19.14 20.549 19.203C20.5077 19.2574 20.4524 19.2995 20.389 19.325C20.346 19.342 20.316 19.365 20.309 19.415C20.279 19.501 20.187 19.556 20.129 19.623C18.024 19.627 15.919 19.613 13.814 19.628C13.79 19.63 13.77 19.645 13.778 19.684H15.638C16.898 19.738 18.202 19.748 19.46 19.684C19.573 19.689 19.694 19.674 19.805 19.69C19.873 19.736 19.945 19.7 20.017 19.732C19.948 19.979 19.724 20.008 19.507 19.957C18.96 19.952 18.387 20.009 17.84 19.942C16.529 19.995 15.01 19.84 13.801 19.995C15.751 20.14 17.784 19.969 19.736 20.01C19.81 19.999 19.781 20.074 19.764 20.12C19.73 20.243 19.614 20.272 19.5 20.262C18.997 20.264 18.475 20.244 17.99 20.317L18.045 20.341C17.92 20.435 17.779 20.445 17.641 20.507C17.498 20.556 17.36 20.623 17.204 20.619C17.0679 20.7886 16.8716 20.8989 16.656 20.927C16.656 20.987 16.674 21.013 16.606 21.054C16.454 21.157 16.416 21.234 16.205 21.231C16.315 21.389 16.21 21.314 16.158 21.431C16.102 21.535 15.908 21.511 15.903 21.651C15.835 21.746 15.743 21.851 15.627 21.886C15.623 21.918 15.629 21.964 15.61 21.982C15.558 22.03 15.532 22.099 15.469 22.14C15.329 22.224 15.362 22.428 15.181 22.492C15.217 22.602 15.094 22.678 15.054 22.77ZM18.086 27.661V27.707C17.98 27.727 17.896 27.809 17.786 27.827C17.716 27.85 17.65 27.841 17.598 27.907C17.66 27.931 17.725 27.903 17.794 27.931C17.685 28.055 17.53 28 17.404 28.087C17.462 28.13 17.536 28.077 17.57 28.135C17.554 28.193 17.46 28.192 17.414 28.221C17.324 28.233 17.231 28.251 17.141 28.267C16.923 28.287 16.714 28.229 16.501 28.201C16.346 28.158 16.383 28.087 16.533 28.108C16.613 28.105 16.652 28.092 16.638 28.07C16.555 28 16.426 28.084 16.334 28.019C16.29 27.981 16.236 27.975 16.181 27.969C16.128 27.906 16.051 27.919 15.988 27.914C15.945 27.822 16.063 27.855 16.124 27.84C16.09 27.786 16.046 27.772 15.992 27.765C15.87 27.765 15.786 27.667 15.672 27.651C15.665 27.651 15.655 27.631 15.656 27.621C15.68 27.571 15.76 27.595 15.806 27.582C15.803 27.672 15.877 27.656 15.941 27.652C16.011 27.577 15.845 27.593 15.802 27.585C15.71 27.453 15.507 27.472 15.409 27.355C15.479 27.333 15.479 27.332 15.525 27.355C15.61 27.398 15.706 27.41 15.791 27.46C15.968 27.453 15.986 27.549 16.144 27.522C16.17 27.445 15.811 27.402 15.729 27.322C15.696 27.257 15.826 27.258 15.854 27.302C15.884 27.333 15.92 27.336 15.959 27.335C16.094 27.294 16.283 27.475 16.303 27.355C16.253 27.3 16.196 27.261 16.116 27.272C16.08 27.28 16.053 27.227 16.09 27.212C16.149 27.203 16.21 27.189 16.263 27.226C16.36 27.292 16.463 27.276 16.565 27.266C16.595 27.199 16.532 27.203 16.508 27.183C16.482 27.159 16.445 27.147 16.409 27.128C16.5 27.087 16.613 27.119 16.712 27.109C16.725 27.109 16.741 27.108 16.75 27.115C16.81 27.162 16.88 27.145 16.947 27.145C17.063 27.167 17.377 27.097 17.435 27.189C17.352 27.218 17.259 27.226 17.173 27.299C17.353 27.327 17.516 27.209 17.668 27.314C17.559 27.36 17.488 27.405 17.371 27.411C17.5 27.467 17.568 27.401 17.678 27.401C17.788 27.427 17.866 27.312 17.97 27.342C18.035 27.379 17.869 27.472 17.828 27.469C17.82 27.469 17.812 27.491 17.798 27.514C17.99 27.5 18.124 27.405 18.29 27.34C18.38 27.315 18.421 27.218 18.522 27.21C18.534 27.249 18.493 27.263 18.482 27.292C18.409 27.46 18.202 27.462 18.086 27.586L18.089 27.584C18.022 27.586 17.979 27.584 17.941 27.653L18.089 27.664L18.086 27.661ZM17.466 27.922H16.636C16.793 27.957 16.926 28.009 17.081 27.952C17.226 27.961 17.32 28.012 17.466 27.922ZM16.466 27.916C16.404 27.808 16.29 27.861 16.192 27.85C16.168 27.967 16.385 27.899 16.467 27.916H16.466ZM16.398 27.742C16.458 27.753 16.518 27.787 16.577 27.783C16.677 27.703 16.44 27.713 16.398 27.742ZM16.424 27.387C16.476 27.463 16.574 27.428 16.65 27.423C16.574 27.411 16.494 27.352 16.424 27.387ZM16.15 27.659C16.044 27.651 16.042 27.727 16.152 27.72C16.219 27.735 16.255 27.655 16.15 27.659ZM17.517 27.747C17.517 27.738 17.515 27.729 17.513 27.721C17.491 27.731 17.463 27.708 17.433 27.747H17.517ZM17.877 27.665C17.78 27.632 17.731 27.721 17.833 27.718C17.858 27.713 17.88 27.703 17.877 27.665ZM16.417 27.555C16.375 27.534 16.334 27.525 16.266 27.555H16.416H16.417ZM17.602 27.541C17.604 27.571 17.659 27.555 17.682 27.554C17.68 27.527 17.624 27.548 17.602 27.541ZM27.018 46.178C27.078 46.174 27.138 46.185 27.191 46.148C27.296 46.151 27.365 46.088 27.431 46.02C27.589 45.898 27.733 45.75 27.876 45.603C28.069 45.475 28.2 45.277 28.388 45.146C28.568 45.006 28.7 44.807 28.896 44.682C29.134 44.423 29.446 44.315 29.262 43.933C29.202 43.915 29.157 43.93 29.114 43.979C29.03 44.074 28.929 44.154 28.83 44.234C28.609 44.452 28.367 44.646 28.156 44.874C28.007 44.945 27.93 45.108 27.796 45.194C27.66 45.311 27.521 45.43 27.401 45.568C27.307 45.684 26.746 46.076 26.819 46.204C26.889 46.221 26.949 46.181 27.018 46.178ZM30.019 42.36C30.046 42.447 30.101 42.526 30.095 42.624C30.097 42.662 30.14 42.7 30.147 42.739C30.166 42.886 30.233 43.019 30.269 43.161C30.309 43.315 30.356 43.321 30.469 43.205C30.556 43.14 30.617 43.005 30.731 42.995C30.787 42.996 30.885 43.073 30.885 43.127C30.925 43.307 30.722 43.976 31.076 43.554C31.209 43.392 31.337 43.224 31.469 43.062C31.424 42.984 31.356 42.935 31.284 42.882C30.96 42.631 30.624 42.388 30.301 42.132C30.174 42.054 30.077 41.918 29.936 41.872C29.902 42.046 29.99 42.195 30.019 42.36ZM30.571 44.834C30.573 44.757 30.532 44.697 30.505 44.631C30.357 44.023 30.144 43.441 29.985 42.834C29.978 42.692 29.827 42.711 29.882 42.85C29.896 42.877 29.889 42.916 29.891 42.95C29.891 43.1 29.881 43.247 29.922 43.393C29.926 43.477 29.908 43.563 29.956 43.643C29.966 43.658 29.96 43.684 29.96 43.705C29.965 43.801 29.95 43.906 29.966 43.999C29.996 44.056 29.987 44.115 29.989 44.175C29.98 44.27 29.999 44.359 30.019 44.451C30.019 44.527 30.008 44.605 30.054 44.674C30.121 44.846 30.104 45.167 30.278 45.242C30.582 45.076 30.708 45.181 30.571 44.833V44.834ZM20.551 28.92C20.37 28.98 20.178 29.02 19.993 29.068C19.861 29.098 19.729 29.108 19.594 29.131C19.511 29.137 19.424 29.114 19.346 29.166C19.208 29.17 19.061 29.176 18.924 29.164C18.859 29.117 18.784 29.127 18.714 29.134C18.581 29.144 18.454 29.088 18.322 29.098C18.219 29.046 18.102 29.049 17.995 29.008C17.98 29 17.945 28.991 17.929 29.028C18.029 29.058 18.105 29.141 18.214 29.146C18.276 29.198 18.354 29.198 18.43 29.206C18.553 29.256 18.684 29.266 18.813 29.272C18.864 29.306 18.92 29.296 18.975 29.297C19.182 29.292 19.397 29.307 19.602 29.292C19.736 29.227 19.882 29.306 20.014 29.235C20.122 29.172 20.262 29.227 20.364 29.14C20.418 29.125 20.483 29.137 20.534 29.102C20.616 29.075 20.673 29.056 20.7 28.962C20.66 28.917 20.606 28.9 20.551 28.92ZM14.203 20.26C14.1 20.25 14.018 20.312 13.916 20.296C13.884 20.296 13.754 20.286 13.808 20.346C13.918 20.362 14.029 20.353 14.14 20.355C15.316 20.34 16.508 20.391 17.671 20.321C16.57 20.216 15.351 20.274 14.203 20.26ZM20.191 19.395C20.317 19.394 20.155 19.311 20.094 19.35C19.974 19.39 19.844 19.293 19.721 19.347C19.591 19.395 19.461 19.338 19.331 19.329C18.882 19.338 18.42 19.305 17.98 19.351C17.403 19.296 16.798 19.334 16.217 19.341C16.132 19.315 16.06 19.346 15.988 19.394C17.391 19.4 18.804 19.396 20.191 19.395ZM31.437 43.867C31.433 44.115 31.37 44.366 31.413 44.615C31.497 44.752 31.633 44.551 31.727 44.505V44.19C31.726 44.129 31.685 44.08 31.693 44.018C31.699 43.951 31.648 43.897 31.659 43.833C31.653 43.685 31.636 43.435 31.559 43.313C31.396 43.458 31.525 43.689 31.437 43.867ZM24.58 46.363C24.812 46.263 24.402 46.078 24.345 45.98C23.734 45.341 23.941 45.611 23.307 46.063C23.2482 46.0962 23.2008 46.1464 23.171 46.207C23.233 46.277 23.239 46.279 23.299 46.252C23.522 46.139 23.659 45.907 23.882 45.793C24.152 45.933 24.298 46.245 24.58 46.363ZM26.074 28.407C26.054 28.414 26.034 28.427 26.014 28.427C25.891 28.424 25.787 28.517 25.664 28.522C25.388 28.577 25.115 28.598 24.831 28.587C24.805 28.587 24.775 28.595 24.755 28.584C24.67 28.542 24.58 28.559 24.491 28.556C24.453 28.554 24.414 28.56 24.381 28.534C24.37 28.529 24.341 28.543 24.353 28.557C24.461 28.62 24.563 28.703 24.701 28.687C24.717 28.684 24.738 28.682 24.751 28.69C24.837 28.735 24.934 28.713 25.024 28.74C25.45 28.794 26.194 28.62 26.475 28.274C26.33 28.27 26.21 28.367 26.074 28.407ZM26.959 28.224C26.669 28.371 26.419 28.53 26.116 28.64C25.966 28.722 25.786 28.688 25.653 28.81C25.84 29.09 26.875 28.472 26.959 28.224ZM25.771 28.234C25.656 28.254 25.549 28.314 25.427 28.301C25.359 28.306 25.298 28.342 25.227 28.329C24.373 28.299 24.975 28.524 25.385 28.491C25.602 28.422 25.988 28.401 26.101 28.188C25.977 28.135 25.893 28.246 25.771 28.234ZM27.465 28.032C27.347 28.104 27.267 28.217 27.168 28.309C27.08 28.389 26.964 28.429 26.888 28.524C26.759 28.614 26.608 28.678 26.468 28.754C26.397 28.792 26.43 28.873 26.496 28.876C26.703 28.875 26.93 28.63 27.109 28.526C27.297 28.337 27.466 28.159 27.604 27.913C27.519 27.93 27.497 27.977 27.465 28.032ZM13.799 28.301C13.908 28.331 14.009 28.387 14.114 28.426C14.204 28.445 14.3 28.444 14.386 28.469C14.46 28.532 15.14 28.479 14.819 28.359C14.759 28.359 14.696 28.369 14.641 28.352C14.509 28.299 14.369 28.314 14.234 28.282C14.158 28.259 14.086 28.224 14.002 28.23C13.908 28.216 13.836 28.14 13.728 28.18C13.733 28.278 13.734 28.278 13.799 28.3V28.301ZM13.932 21.292C14.609 21.254 15.315 21.373 15.978 21.237C15.2436 21.2075 14.5084 21.2068 13.774 21.235C13.773 21.317 13.879 21.285 13.931 21.292H13.932ZM16.878 20.66C16.6165 20.5922 16.3427 20.5874 16.079 20.646C15.949 20.636 15.815 20.676 15.689 20.618C15.589 20.628 15.484 20.606 15.389 20.618C15.257 20.678 15.109 20.636 14.971 20.648C14.772 20.654 14.569 20.638 14.375 20.648C14.299 20.651 14.237 20.607 14.165 20.613C14.103 20.63 13.744 20.563 13.8 20.673C14.496 20.711 16.729 20.684 16.878 20.66ZM29.248 25.513C29.43 25.425 29.599 25.318 29.774 25.219C29.864 25.136 29.936 25.035 30.044 24.971C30.061 24.889 30.285 24.771 30.227 24.711C30.135 24.762 30.082 24.844 29.996 24.905C29.868 24.969 29.784 25.1 29.649 25.154C29.611 25.219 29.533 25.216 29.477 25.254C29.387 25.314 29.283 25.354 29.185 25.404C29.12 25.399 29.115 25.451 29.101 25.496C29.145 25.546 29.205 25.551 29.248 25.513ZM27.636 26.388C27.581 26.331 27.582 26.285 27.606 26.219C27.612 26.146 27.586 26.117 27.512 26.115C27.405 26.14 26.964 26.03 27.112 26.241C27.248 26.246 27.306 26.219 27.441 26.296C27.345 26.319 27.189 26.259 27.226 26.418C27.278 26.468 27.707 26.525 27.636 26.388ZM26.886 25.782C27.026 25.795 27.158 25.873 27.306 25.856C27.3484 25.8508 27.3913 25.8588 27.429 25.879C27.513 25.939 27.683 25.803 27.564 25.739C27.432 25.706 27.291 25.759 27.163 25.699C27.0945 25.6654 27.0178 25.6522 26.942 25.661C26.815 25.673 26.746 25.561 26.607 25.614C26.657 25.754 26.783 25.718 26.886 25.782ZM27.272 25.532C27.143 25.538 27.036 25.442 26.902 25.465C26.823 25.405 26.714 25.422 26.636 25.355C26.619 25.32 26.516 25.361 26.543 25.411C26.645 25.492 26.775 25.507 26.893 25.545C27.101 25.635 27.345 25.686 27.57 25.645C27.592 25.465 27.379 25.552 27.272 25.532ZM27.223 26.047C27.335 26.029 27.433 26.1 27.548 26.075C27.582 26.072 27.605 26.035 27.606 26.001C27.592 25.851 27.326 25.939 27.221 25.919C27.075 25.927 26.962 25.812 26.813 25.867C26.823 26.023 27.103 26.033 27.223 26.047ZM13.887 21.608C14.51 21.603 15.134 21.62 15.756 21.603C15.769 21.601 15.779 21.583 15.803 21.56C15.737 21.546 13.313 21.523 13.887 21.608ZM27.494 25.468C27.594 25.461 27.599 25.352 27.499 25.344C27.311 25.367 27.149 25.27 26.962 25.274C26.9368 25.2729 26.9127 25.2638 26.893 25.248C26.828 25.188 26.728 25.246 26.677 25.163C26.663 25.146 26.633 25.153 26.622 25.166C26.649 25.306 27.252 25.464 27.394 25.469L27.494 25.468ZM35.038 27.518C34.972 27.614 35.253 27.626 35.308 27.633C35.43 27.667 35.553 27.691 35.681 27.687C35.785 27.65 35.926 27.79 35.991 27.661C36.009 27.524 35.515 27.611 35.409 27.588C35.38 27.588 35.345 27.595 35.329 27.564C35.259 27.493 35.13 27.539 35.038 27.518ZM14.742 21.898C14.5768 21.8671 14.4072 21.8671 14.242 21.898C14.099 21.891 13.953 21.919 13.812 21.875C13.808 21.874 13.795 21.885 13.794 21.89C13.787 21.944 13.854 21.929 13.888 21.936C14.284 21.934 14.677 21.942 15.072 21.932C15.034 21.862 14.823 21.914 14.742 21.898ZM13.829 20.908C13.772 20.91 13.792 20.981 13.839 20.966C14.581 20.893 15.362 20.961 16.126 20.934C15.415 20.862 14.58 20.933 13.829 20.909V20.908ZM35.485 28.133C35.5503 28.1644 35.6228 28.1778 35.695 28.172C35.777 28.179 35.858 28.221 35.943 28.197C36.136 28.06 35.709 28.116 35.643 28.105C35.532 28.123 35.243 27.947 35.188 28.092C35.285 28.126 35.388 28.086 35.485 28.133ZM15.07 19.362L14.179 19.372C14.435 19.436 14.806 19.372 15.099 19.394C15.109 19.373 15.087 19.364 15.07 19.362ZM27.521 25.152C27.386 25.147 27.251 25.155 27.125 25.088C27.1 25.074 27.056 25.071 27.031 25.13C27.113 25.184 27.661 25.374 27.521 25.152ZM35.673 27.435C35.633 27.407 35.249 27.355 35.317 27.452C35.442 27.472 35.576 27.44 35.689 27.502C35.78 27.546 35.869 27.529 35.97 27.521C35.937 27.405 35.764 27.496 35.673 27.435ZM13.813 22.504C14.223 22.517 14.628 22.521 15.04 22.502C14.861 22.434 14.654 22.525 14.473 22.457C14.4615 22.4515 14.449 22.4484 14.4363 22.4479C14.4236 22.4474 14.4109 22.4495 14.399 22.454C14.211 22.511 14.011 22.467 13.817 22.48C13.8153 22.488 13.8136 22.496 13.812 22.504H13.813ZM14.043 22.228C14.136 22.264 14.229 22.196 14.323 22.238C14.486 22.286 14.641 22.227 14.8 22.222C14.808 22.221 14.815 22.213 14.829 22.204C14.5192 22.186 14.2086 22.1877 13.899 22.209C13.951 22.234 14.002 22.211 14.042 22.228H14.043ZM29.566 25.518C29.576 25.506 29.566 25.482 29.551 25.478C29.481 25.448 29.451 25.542 29.379 25.537C29.306 25.571 29.309 25.612 29.204 25.606C29.058 25.854 29.509 25.579 29.566 25.518ZM35.962 28.278C35.958 28.19 35.778 28.242 35.716 28.238C35.697 28.239 35.681 28.265 35.648 28.293C35.772 28.283 35.898 28.392 35.962 28.278ZM24.361 28.824C24.294 28.726 24.157 28.73 24.049 28.721C24.141 28.786 24.222 28.887 24.361 28.824ZM29.106 25.294C29.173 25.33 29.226 25.297 29.266 25.267C29.313 25.232 29.388 25.222 29.404 25.146C29.3459 25.1436 29.2881 25.156 29.236 25.1818C29.1839 25.2077 29.1392 25.2463 29.106 25.294ZM13.786 22.826C14.059 22.837 14.359 22.855 14.624 22.817C14.349 22.807 14.054 22.792 13.786 22.825V22.826ZM26.969 28.816C27.049 28.911 27.179 28.717 27.209 28.643C27.125 28.694 27.007 28.719 26.969 28.816ZM34.846 27.46C34.832 27.462 34.816 27.45 34.801 27.444C34.799 27.594 34.951 27.506 35.039 27.519C34.977 27.492 34.924 27.443 34.846 27.46ZM35.946 27.28C35.8753 27.2784 35.8046 27.2784 35.734 27.28C35.678 27.34 35.814 27.331 35.847 27.337C35.883 27.33 36 27.34 35.946 27.28ZM34.595 27.425C34.661 27.48 34.726 27.452 34.801 27.443C34.731 27.427 34.666 27.366 34.595 27.425ZM18.09 27.583V27.663C18.095 27.653 18.149 27.658 18.17 27.653C18.169 27.593 18.128 27.588 18.087 27.585L18.09 27.583ZM34.314 27.441C34.174 27.348 34.17 27.512 34.315 27.44L34.314 27.441ZM15.278 21.919C15.257 21.899 15.242 21.899 15.224 21.922L15.254 21.94L15.278 21.919ZM16.406 20.931H16.54C16.486 20.906 16.454 20.904 16.406 20.931ZM29.799 28.893C29.787 28.878 29.756 28.878 29.754 28.907C29.772 28.907 29.794 28.919 29.799 28.893ZM23.579 28.768C23.575 28.802 23.614 28.818 23.639 28.804C23.644 28.775 23.599 28.731 23.579 28.768ZM29.628 25.458L29.647 25.455C29.642 25.435 29.624 25.435 29.628 25.458ZM31.108 28.09C31.143 28.112 31.166 28.098 31.186 28.077C31.166 28.087 31.132 28.057 31.108 28.09ZM23.723 26.272C23.767 26.299 23.797 26.229 23.769 26.186C23.689 26.177 23.319 26.066 23.509 26.239C23.585 26.245 23.656 26.237 23.723 26.272Z" fill="#002A7F"/>
</svg>
