<svg width="161" height="41" viewBox="0 0 161 41" fill="none" xmlns="http://www.w3.org/2000/svg">
<path d="M152.134 21.5886V14.6562H154.826L155.947 18.1224L156.294 19.4172L156.64 18.1224L157.762 14.6562H160.392V21.5886H158.312L158.445 16.9908L157.904 18.8768L157.018 21.5886H155.509L154.601 18.8361L154.081 17.0112L154.214 21.5886H152.134Z" fill="#F4F7FE"/>
<path d="M146.019 21.5886V14.6562H151.168V16.2874H148.099V17.2763H150.76V18.8564H148.099V19.9575H151.168V21.5886H146.019Z" fill="#F4F7FE"/>
<path d="M141.118 21.5886V16.3384H139.11V14.6562H145.207V16.3384H143.198V21.5886H141.118Z" fill="#F4F7FE"/>
<path d="M134.929 16.4916C134.929 17.6742 138.905 16.5936 138.905 19.4175C138.905 20.9059 137.651 21.7827 135.938 21.7827C134.205 21.7827 132.93 20.9773 132.727 19.285H134.918C134.99 19.8763 135.387 20.2025 135.958 20.2025C136.499 20.2025 136.774 20.0088 136.774 19.6724C136.774 18.4796 132.798 19.4073 132.798 16.7159C132.798 15.4416 133.838 14.4629 135.663 14.4629C137.161 14.4629 138.517 15.1765 138.701 16.8586H136.478C136.386 16.3183 136.101 16.0431 135.571 16.0431C135.194 16.0431 134.929 16.2164 134.929 16.4916Z" fill="#F4F7FE"/>
<path d="M128.124 21.5886V19.2846L125.81 14.6562H128.135L128.95 16.6442L129.226 17.5006L129.501 16.6442L130.316 14.6562H132.518L130.204 19.2846V21.5886H128.124Z" fill="#F4F7FE"/>
<path d="M121.982 16.4916C121.982 17.6742 125.958 16.5936 125.958 19.4175C125.958 20.9059 124.704 21.7827 122.991 21.7827C121.258 21.7827 119.983 20.9773 119.78 19.285H121.971C122.043 19.8763 122.44 20.2025 123.011 20.2025C123.552 20.2025 123.827 20.0088 123.827 19.6724C123.827 18.4796 119.851 19.4073 119.851 16.7159C119.851 15.4416 120.891 14.4629 122.716 14.4629C124.214 14.4629 125.57 15.1765 125.754 16.8586H123.531C123.439 16.3183 123.154 16.0431 122.624 16.0431C122.247 16.0431 121.982 16.2164 121.982 16.4916Z" fill="#F4F7FE"/>
<path d="M115.573 21.7827C113.35 21.7827 111.974 20.386 111.974 18.133C111.974 15.8698 113.35 14.4629 115.573 14.4629C117.795 14.4629 119.171 15.8698 119.171 18.133C119.171 20.386 117.795 21.7827 115.573 21.7827ZM115.573 20.1005C116.511 20.1005 117.041 19.3665 117.041 18.133C117.041 16.8892 116.511 16.145 115.573 16.145C114.635 16.145 114.105 16.8892 114.105 18.133C114.105 19.3665 114.635 20.1005 115.573 20.1005Z" fill="#F4F7FE"/>
<path d="M111.362 17.0218H109.191C109.038 16.4407 108.681 16.145 108.11 16.145C107.264 16.145 106.795 16.8892 106.795 18.133C106.795 19.3767 107.254 20.1005 108.11 20.1005C108.64 20.1005 109.028 19.8151 109.171 19.285H111.362C111.036 20.9467 109.741 21.7827 108.161 21.7827C106 21.7827 104.665 20.3962 104.665 18.133C104.665 15.8698 106 14.4629 108.161 14.4629C109.752 14.4629 111.087 15.3192 111.362 17.0218Z" fill="#F4F7FE"/>
<path d="M98.7527 21.5886V14.6562H103.901V16.2874H100.832V17.2763H103.493V18.8564H100.832V19.9575H103.901V21.5886H98.7527Z" fill="#F4F7FE"/>
<path d="M89.3894 21.5886V14.6562H91.4691V17.2151H93.6202V14.6562H95.6999V21.5886H93.6202V18.8972H91.4691V21.5886H89.3894Z" fill="#F4F7FE"/>
<path d="M88.5734 17.0218H86.4019C86.249 16.4407 85.8922 16.145 85.3213 16.145C84.4751 16.145 84.0062 16.8892 84.0062 18.133C84.0062 19.3767 84.4649 20.1005 85.3213 20.1005C85.8514 20.1005 86.2388 19.8151 86.3815 19.285H88.5734C88.2472 20.9467 86.9524 21.7827 85.3723 21.7827C83.211 21.7827 81.8755 20.3962 81.8755 18.133C81.8755 15.8698 83.211 14.4629 85.3723 14.4629C86.9626 14.4629 88.2981 15.3192 88.5734 17.0218Z" fill="#F4F7FE"/>
<path d="M75.9646 21.5886V14.6562H81.1129V16.2874H78.0443V17.2763H80.7051V18.8564H78.0443V19.9575H81.1129V21.5886H75.9646Z" fill="#F4F7FE"/>
<path d="M71.0638 21.5886V16.3384H69.0554V14.6562H75.1518V16.3384H73.1435V21.5886H71.0638Z" fill="#F4F7FE"/>
<path d="M66.2399 21.5886L65.3631 20.1919L65.0675 19.6618L64.7718 20.1919L63.8849 21.5886H61.7236L63.997 18.0205L61.8766 14.6562H64.2825L64.9859 15.7675L65.302 16.3791L65.6282 15.7675L66.3418 14.6562H68.4929L66.3724 17.9797L68.6458 21.5886H66.2399Z" fill="#F4F7FE"/>
<path d="M56.0159 21.5886V14.6562H61.1642V16.2874H58.0956V17.2763H60.7564V18.8564H58.0956V19.9575H61.1642V21.5886H56.0159Z" fill="#F4F7FE"/>
<path d="M50.3586 21.5886V14.6562H52.4384V19.9065H55.2011V21.5886H50.3586Z" fill="#F4F7FE"/>
<path d="M92.6428 28.4849V25.2227H94.0149C95.0608 25.2227 95.7084 25.8463 95.7084 26.8586C95.7084 27.8709 95.0608 28.4849 94.0149 28.4849H92.6428ZM94.0149 27.6934C94.4563 27.6934 94.7057 27.3911 94.7057 26.8586C94.7057 26.3261 94.4563 26.0142 94.0149 26.0142H93.6215V27.6934H94.0149Z" fill="#F4F7FE"/>
<path d="M85.3521 28.4849V25.2227H87.7748V25.9903H86.3307V26.4556H87.5829V27.1992H86.3307V27.7173H87.7748V28.4849H85.3521Z" fill="#F4F7FE"/>
<path d="M78.6319 28.4849V26.0142H77.6868V25.2227H80.5557V26.0142H79.6106V28.4849H78.6319Z" fill="#F4F7FE"/>
<path d="M71.9121 28.4849V25.2227H72.8908V28.4849H71.9121Z" fill="#F4F7FE"/>
<path d="M63.0837 28.4849V25.2227H64.3503L64.878 26.8538L65.0411 27.4631L65.2042 26.8538L65.732 25.2227H66.9697V28.4849H65.991L66.0534 26.3213L65.7991 27.2088L65.3817 28.4849H64.6717L64.2447 27.1896L64.0001 26.3309L64.0624 28.4849H63.0837Z" fill="#F4F7FE"/>
<path d="M57.1655 28.4849V25.2227H58.1442V28.4849H57.1655Z" fill="#F4F7FE"/>
<path d="M50.0891 28.4849V25.2227H51.0678V27.6934H52.3679V28.4849H50.0891Z" fill="#F4F7FE"/>
<path d="M25.3688 5.50794C31.7811 4.32532 38.8669 12.8174 41.4831 17.088C40.2307 13.3104 40.2307 11.0929 35.3046 5.75451C32.3683 2.57247 24.1164 1.89442 18.3554 3.7012C13.7465 5.14663 13.8746 9.0668 14.5147 10.8462C15.4609 9.55954 18.9565 6.69056 25.3688 5.50794Z" fill="url(#paint0_linear_2197_2463)"/>
<path d="M25.3707 2.72836C30.8796 2.46279 35.7839 6.15858 37.5474 8.03967C37.6033 8.09496 37.4634 7.90679 36.4556 6.71175C35.4479 5.5167 33.0126 3.47517 31.2491 2.47943C29.8215 1.48356 25.3707 -0.391995 18.9885 0.0727441C11.0107 0.653668 5.21634 5.96497 3.2009 8.7866C1.18545 11.6082 1.68932 14.4299 3.2009 15.5917C4.71248 16.7536 7.65166 17.3345 11.7665 13.766C15.8814 10.1974 18.4847 3.06032 25.3707 2.72836Z" fill="url(#paint1_linear_2197_2463)"/>
<path d="M16.124 35.5806C9.70769 36.7836 2.61744 28.1448 -0.000320435 23.8005C1.25283 27.6433 1.25283 29.8991 6.18201 35.3297C9.12016 38.5667 17.3772 39.2565 23.1418 37.4185C27.7535 35.9481 27.6254 31.9602 26.9849 30.1501C26.038 31.4589 22.5403 34.3775 16.124 35.5806Z" fill="url(#paint2_linear_2197_2463)"/>
<path d="M16.2077 38.2534C10.7271 38.5207 5.84807 34.8001 4.09362 32.9064C4.03793 32.8508 4.1772 33.0402 5.17975 34.2433C6.18229 35.4463 8.60511 37.5015 10.3596 38.504C11.7798 39.5065 16.2077 41.3946 22.5572 40.9268C30.494 40.342 36.2586 34.995 38.2637 32.1545C40.2688 29.314 39.7675 26.4734 38.2637 25.3038C36.7599 24.1341 33.8358 23.5493 29.7421 27.1418C25.6483 30.7342 23.0584 37.9192 16.2077 38.2534Z" fill="url(#paint3_linear_2197_2463)"/>
<path fill-rule="evenodd" clip-rule="evenodd" d="M26.135 16.7597H13.5862V14.9746H26.135C27.4749 14.9746 28.5611 16.0281 28.5611 17.3277V22.764H26.7207V17.3277C26.7207 17.014 26.4585 16.7597 26.135 16.7597Z" fill="#F4F7FE"/>
<path fill-rule="evenodd" clip-rule="evenodd" d="M16.0127 24.9044H28.5615V26.6895H16.0127C14.6728 26.6895 13.5866 25.636 13.5866 24.3364V18.9001H15.4271V24.3364C15.4271 24.6501 15.6892 24.9044 16.0127 24.9044Z" fill="#F4F7FE"/>
<path fill-rule="evenodd" clip-rule="evenodd" d="M24.3339 23.0665H16.8464V21.3154H24.3339V23.0665Z" fill="#F4F7FE"/>
<path fill-rule="evenodd" clip-rule="evenodd" d="M24.3339 20.7111H16.8464V18.5977H24.3339V20.7111Z" fill="#F4F7FE"/>
<defs>
<linearGradient id="paint0_linear_2197_2463" x1="33.6347" y1="7.23279" x2="17.024" y2="8.76027" gradientUnits="userSpaceOnUse">
<stop stop-color="#00009E"/>
<stop offset="1" stop-color="#000052"/>
</linearGradient>
<linearGradient id="paint1_linear_2197_2463" x1="26.2944" y1="0.985497" x2="3.36423" y2="16.0886" gradientUnits="userSpaceOnUse">
<stop offset="0.132958" stop-color="#0054FF"/>
<stop offset="0.796046" stop-color="#4FAFFF"/>
</linearGradient>
<linearGradient id="paint2_linear_2197_2463" x1="7.85295" y1="33.8259" x2="24.4785" y2="32.3221" gradientUnits="userSpaceOnUse">
<stop stop-color="#00009E"/>
<stop offset="1" stop-color="#000052"/>
</linearGradient>
<linearGradient id="paint3_linear_2197_2463" x1="15.2887" y1="40.0079" x2="38.2637" y2="25.0533" gradientUnits="userSpaceOnUse">
<stop offset="0.132958" stop-color="#0054FF"/>
<stop offset="0.796046" stop-color="#4FAFFF"/>
</linearGradient>
</defs>
</svg>
