<svg width="146" height="65" viewBox="0 0 146 65" fill="none" xmlns="http://www.w3.org/2000/svg">
<path d="M18.5026 17.0807C17.9333 17.0807 15.8932 18.0296 14.9444 18.504C14.4699 18.7412 13.2362 19.6426 12.0975 21.3506C10.6742 23.4855 3.5581 31.3137 7.11597 45.5467C9.41851 54.7579 22.0606 63.338 25.6189 64.0496C28.4655 64.6189 30.126 64.7612 30.6004 64.7612C27.2795 63.5752 18.0992 59.3782 13.5212 51.2399C7.11597 39.8535 9.96295 30.602 12.8094 24.1972C15.6574 17.789 19.2143 17.0807 18.5026 17.0807Z" fill="url(#paint0_linear_1871_1511)"/>
<path d="M11.387 34.9117C11.3868 34.8977 11.3867 34.8838 11.3867 34.87C11.3867 34.8835 11.3868 34.8974 11.387 34.9117C11.431 38.5055 17.1158 48.3996 26.3314 50.5263C34.2376 52.3508 39.3853 48.9809 43.411 46.968C49.1042 44.1214 56.9323 49.103 56.9323 50.5263C56.9323 50.9949 57.1308 51.5321 56.9323 51.9496C56.6486 52.5464 55.7607 53.1212 54.0857 54.7962C47.9181 56.6939 34.3018 59.9201 29.178 57.6428C22.7731 54.7962 14.2333 46.968 12.0984 39.1399C11.6337 37.436 11.3958 35.6508 11.387 34.9117Z" fill="url(#paint1_linear_1871_1511)"/>
<path d="M11.3867 34.87C11.3867 34.8838 11.3868 34.8977 11.387 34.9117C11.3868 34.8974 11.3867 34.8835 11.3867 34.87Z" fill="url(#paint2_linear_1871_1511)"/>
<path d="M0 33.4506V32.7389C0 31.9219 0.275126 29.831 0.822845 27.837C3.29138 18.8502 13.1655 9.86333 20.5711 6.59539C26.4956 3.98104 44.8191 9.92243 51.9504 12.1011C52.9414 13.0849 53.3737 13.5244 53.3737 13.5244C51.9504 17.7943 44.4809 21.2598 37.028 18.8502C32.0817 17.251 26.4214 12.6707 17.2798 14.7652C6.58276 17.2162 0 29.3656 0 33.4506Z" fill="url(#paint3_linear_1871_1511)"/>
<path d="M21.3498 49.8146C13.9487 45.8294 11.3867 37.7166 11.3867 34.87V36.2933L12.0984 42.6981C13.2845 47.9169 18.6455 59.0661 30.6013 61.9127C42.557 64.7593 53.1368 56.4567 56.9323 51.9496C57.1695 51.9496 56.79 51.3803 53.3741 49.103C49.1042 46.2564 42.6993 48.3913 40.5644 49.8146C38.4294 51.2379 30.6013 54.7962 21.3498 49.8146Z" fill="url(#paint4_linear_1871_1511)"/>
<path d="M11.5054 15.1531C2.95854 19.9159 0 29.3339 0 32.736V31.3127L0.821818 23.6581C2.19151 17.4211 8.38254 4.09648 22.1891 0.694458C35.9956 -2.70757 48.2133 7.215 52.5963 12.6015C52.8703 12.6015 52.432 13.2819 48.4872 16.0036C43.5563 19.4056 36.16 16.8541 33.6945 15.1531C31.2291 13.452 22.1891 9.19952 11.5054 15.1531Z" fill="url(#paint5_linear_1871_1511)"/>
<path d="M8.54007 38.4276C8.54007 51.9086 20.6381 62.6245 29.8896 64.6862C29.727 64.7354 29.4912 64.7363 29.1779 64.7604C19.9265 65.472 0.711914 55.4654 0.711914 41.3162C0.711914 27.167 10.675 19.2137 17.0799 17.4347C16.3682 17.7905 15.82 18.3387 14.9449 19.2138C10.675 23.4837 8.54007 28.4653 8.54007 38.4276Z" fill="url(#paint6_linear_1871_1511)"/>
<path d="M35.5837 34.1569C35.5837 43.4081 32.886 49.8144 31.3138 49.8144C29.7417 49.8144 27.0439 42.6965 27.0439 34.1582C27.0439 32.7334 27.7556 29.8882 31.3138 29.8882C33.4488 29.8882 35.5837 32.0218 35.5837 34.1569Z" fill="url(#paint7_linear_1871_1511)" stroke="url(#paint8_linear_1871_1511)" stroke-width="0.5"/>
<circle cx="31.3138" cy="24.1948" r="4.2699" fill="url(#paint9_linear_1871_1511)"/>
<path fill-rule="evenodd" clip-rule="evenodd" d="M30.6006 28.4008C32.6203 28.0622 34.1593 26.3057 34.1593 24.1898C34.1593 22.0739 32.6203 20.3175 30.6006 19.9789C30.8319 19.9401 31.0694 19.9199 31.3117 19.9199C33.6699 19.9199 35.5816 21.8316 35.5816 24.1898C35.5816 26.548 33.6699 28.4597 31.3117 28.4597C31.0694 28.4597 30.8319 28.4395 30.6006 28.4008Z" fill="url(#paint10_linear_1871_1511)"/>
<path d="M117.745 29.578H117.538L117.602 29.7746L121.374 41.3211L121.408 41.4246H121.516H123.722H123.831L123.865 41.3218L125.884 35.2322L127.903 41.3218L127.937 41.4246H128.046H130.252H130.359L130.394 41.3233L134.361 29.7768L134.429 29.578H134.219H131.853H131.742L131.71 29.684L129.146 38.0263L126.676 30.4466L126.642 30.3431H126.534H125.11H125L124.967 30.4488L122.634 38.0054L120.237 29.6865L120.206 29.578H120.093H117.745Z" fill="black" stroke="black" stroke-width="0.3"/>
<path d="M108.691 40.9778L108.691 40.978C109.505 41.4433 110.439 41.6738 111.487 41.6738C112.541 41.6738 113.477 41.4496 114.291 40.9966L114.292 40.9962C115.11 40.5352 115.746 39.8413 116.203 38.9219C116.661 37.9997 116.886 36.8543 116.886 35.4926C116.886 34.1542 116.661 33.0235 116.203 32.1075C115.746 31.194 115.11 30.5035 114.292 30.0426C113.478 29.5774 112.542 29.3469 111.487 29.3469C110.44 29.3469 109.507 29.5712 108.693 30.0241C107.88 30.4733 107.247 31.1583 106.79 32.0717C106.332 32.9825 106.107 34.1253 106.107 35.4926C106.107 36.8369 106.332 37.9733 106.79 38.8952C107.246 39.8142 107.879 40.5107 108.691 40.9778ZM113.611 38.4602L113.611 38.4608C113.089 39.1338 112.387 39.4702 111.487 39.4702C110.607 39.4702 109.909 39.1372 109.381 38.4688C108.853 37.7936 108.577 36.8086 108.577 35.4926C108.577 34.2133 108.852 33.2422 109.382 32.5601L109.382 32.5596C109.911 31.8735 110.608 31.5328 111.487 31.5328C112.386 31.5328 113.088 31.8717 113.61 32.5506L113.611 32.5512C114.141 33.2334 114.415 34.2016 114.415 35.4748C114.415 36.7971 114.14 37.785 113.611 38.4602Z" fill="black" stroke="black" stroke-width="0.3"/>
<path d="M100.536 29.728V29.578H100.386H98.2871H98.1371V29.728V41.2746V41.4246H98.2871H105.137H105.287V41.2746V39.4421V39.2921H105.137H100.536V29.728Z" fill="black" stroke="black" stroke-width="0.3"/>
<path d="M88.4057 41.2746V41.4246H88.5557H90.655H90.805V41.2746V36.532H95.3875H95.5375V36.382V34.585V34.435H95.3875H90.805V31.6927H95.8323H95.9823V31.5427V29.728V29.578H95.8323H88.5557H88.4057V29.728V41.2746Z" fill="black" stroke="black" stroke-width="0.3"/>
<path d="M77.9447 41.2746V41.4246H78.0947H85.5137H85.6637V41.2746V39.4421V39.2921H85.5137H80.3441V36.5497H85.1934H85.3434V36.3997V34.585V34.435H85.1934H80.3441V31.6927H85.5137H85.6637V31.5427V29.728V29.578H85.5137H78.0947H77.9447V29.728V41.2746Z" fill="black" stroke="black" stroke-width="0.3"/>
<path d="M68.5174 41.2442L68.5178 41.2444C69.2136 41.5313 69.9716 41.6738 70.79 41.6738C71.7644 41.6738 72.6006 41.5326 73.2939 41.2442C73.9856 40.9565 74.5205 40.5487 74.8895 40.0171L74.89 40.0164C75.2591 39.4784 75.4412 38.846 75.4412 38.1257C75.4412 37.334 75.202 36.6652 74.7174 36.1302C74.2406 35.604 73.5631 35.1746 72.6946 34.8369L72.6944 34.8368L70.1681 33.8583L70.1681 33.8583L70.1668 33.8578C69.7177 33.6886 69.3984 33.5184 69.1978 33.3508C69.0215 33.1933 68.9296 32.9817 68.9296 32.6994C68.9296 32.3812 69.072 32.1159 69.3821 31.8967L69.3821 31.8967L69.3835 31.8957C69.6935 31.6712 70.1274 31.5506 70.701 31.5506C71.3539 31.5506 71.8177 31.6869 72.1178 31.9344L72.1178 31.9344L72.1191 31.9354C72.4266 32.1836 72.6166 32.5147 72.6881 32.9378L72.7092 33.0629H72.836H74.8998H75.0636L75.0492 32.8997C74.9514 31.794 74.5367 30.9188 73.7962 30.2902C73.0543 29.6544 72.0155 29.3469 70.701 29.3469C69.3525 29.3469 68.2805 29.6418 67.5039 30.2507C66.7266 30.8601 66.3345 31.6626 66.3345 32.646C66.3345 33.4891 66.5817 34.169 67.0914 34.666C67.585 35.1471 68.2865 35.5625 69.1869 35.9167C69.187 35.9168 69.1871 35.9168 69.1872 35.9169L71.4639 36.824L71.4639 36.8241L71.4691 36.8259C71.9775 37.0071 72.3281 37.2001 72.537 37.3983L72.537 37.3983L72.5384 37.3996C72.739 37.5852 72.8461 37.8444 72.8461 38.1969C72.8461 38.4501 72.7622 38.6659 72.592 38.8516L72.5918 38.8518C72.4233 39.0361 72.1835 39.1844 71.8634 39.2911L71.8626 39.2913C71.549 39.3977 71.1862 39.4524 70.7722 39.4524C70.3434 39.4524 69.9523 39.3868 69.5974 39.2574C69.2533 39.124 68.9836 38.9263 68.7827 38.6657C68.5879 38.413 68.4848 38.0828 68.4848 37.6631V37.5131H68.3348H66.271H66.1158L66.1211 37.6682C66.1515 38.5685 66.3802 39.3231 66.817 39.922L66.8176 39.9229C67.2552 40.5146 67.8228 40.9554 68.5174 41.2442ZM70.7722 39.6024C71.1992 39.6024 71.5787 39.546 71.9108 39.4334L69.5446 39.3978C69.9182 39.5342 70.3274 39.6024 70.7722 39.6024Z" fill="black" stroke="black" stroke-width="0.3"/>
<path d="M54.2252 41.2262L54.1577 41.4246H54.3672H56.5911H56.6997L56.7336 41.3214L57.5181 38.9338H61.5878L62.355 41.3205L62.3884 41.4246H62.4978H64.7039H64.9107L64.8465 41.228L61.0747 29.6815L61.041 29.578H60.9322H58.2991H58.1917L58.1571 29.6797L54.2252 41.2262ZM58.1506 37.0504L59.5792 32.7179L60.9923 37.0504H58.1506Z" fill="black" stroke="black" stroke-width="0.3"/>
<path d="M45.821 40.929L45.8222 40.9298C46.6026 41.4275 47.515 41.6738 48.5538 41.6738C49.5249 41.6738 50.369 41.511 51.0811 41.1795C51.7934 40.8479 52.3446 40.3694 52.7289 39.7435C53.1199 39.1103 53.3117 38.3493 53.3117 37.4674V37.3174H53.1617H50.92H50.77V37.4674C50.77 38.053 50.5765 38.526 50.1928 38.8988C49.8197 39.2611 49.2808 39.4524 48.5538 39.4524C47.9969 39.4524 47.5332 39.2957 47.1538 38.9878C46.7707 38.6769 46.4703 38.228 46.2579 37.6313C46.0514 37.0344 45.9461 36.3167 45.9461 35.4748C45.9461 34.5799 46.0661 33.8445 46.2998 33.2629C46.5411 32.6771 46.8579 32.2524 47.2443 31.9764L47.2443 31.9764L47.2455 31.9755C47.6348 31.6919 48.0694 31.5506 48.5538 31.5506C49.1059 31.5506 49.5638 31.725 49.9374 32.0711C50.3184 32.4241 50.5992 32.8891 50.7765 33.4724L50.8154 33.6004L50.9469 33.5764L53.1886 33.1672L53.3393 33.1397L53.3086 32.9896C53.089 31.9156 52.5867 31.0373 51.8008 30.3619C51.0121 29.6789 49.9232 29.3469 48.5538 29.3469C47.5567 29.3469 46.6637 29.5813 45.8791 30.0533C45.0979 30.5208 44.4862 31.2144 44.0422 32.1267L44.042 32.1271C43.6025 33.0366 43.3866 34.1546 43.3866 35.4748C43.3866 36.7539 43.5968 37.8588 44.0231 38.7845C44.4487 39.7086 45.0475 40.4256 45.821 40.929Z" fill="black" stroke="black" stroke-width="0.3"/>
<path d="M139.943 25.0933H140.921L141.555 26.6219H141.502L142.136 25.0933H143.075V27.9584H142.388V25.9195H142.482L141.745 27.6915H141.303L140.571 25.9238H140.627V27.9584H139.943V25.0933Z" fill="black"/>
<path d="M137.198 25.6846V25.0933H139.557V25.6846H138.569L138.723 25.5309V27.9584H138.039V25.5309L138.193 25.6846H137.198Z" fill="black"/>
<circle cx="140.195" cy="26.331" r="4.63155" stroke="black" stroke-width="0.7"/>
<defs>
<linearGradient id="paint0_linear_1871_1511" x1="13.2309" y1="22.1779" x2="18.3656" y2="64.7612" gradientUnits="userSpaceOnUse">
<stop offset="0.015" stop-color="#037EBE"/>
<stop offset="0.515" stop-color="#0283C5"/>
<stop offset="0.985" stop-color="#003F62"/>
</linearGradient>
<linearGradient id="paint1_linear_1871_1511" x1="51.9001" y1="49.5859" x2="17.7855" y2="49.8435" gradientUnits="userSpaceOnUse">
<stop stop-color="#003D61"/>
<stop offset="1" stop-color="#3BC8FF"/>
</linearGradient>
<linearGradient id="paint2_linear_1871_1511" x1="51.9001" y1="49.5859" x2="17.7855" y2="49.8435" gradientUnits="userSpaceOnUse">
<stop stop-color="#003D61"/>
<stop offset="1" stop-color="#3BC8FF"/>
</linearGradient>
<linearGradient id="paint3_linear_1871_1511" x1="44.8339" y1="11.3894" x2="10.3305" y2="21.6143" gradientUnits="userSpaceOnUse">
<stop stop-color="#0D98E1"/>
<stop offset="1" stop-color="#00466D"/>
</linearGradient>
<linearGradient id="paint4_linear_1871_1511" x1="51.9508" y1="52.6612" x2="17.7931" y2="52.8934" gradientUnits="userSpaceOnUse">
<stop stop-color="#6ACEFF"/>
<stop offset="1" stop-color="#003B5E"/>
</linearGradient>
<linearGradient id="paint5_linear_1871_1511" x1="4.86269" y1="22.9543" x2="47.2886" y2="5.63367" gradientUnits="userSpaceOnUse">
<stop stop-color="#58C8FF"/>
<stop offset="1" stop-color="#003F62"/>
</linearGradient>
<linearGradient id="paint6_linear_1871_1511" x1="21.9891" y1="69.272" x2="7.86134" y2="21.2363" gradientUnits="userSpaceOnUse">
<stop stop-color="#62CAFF"/>
<stop offset="1" stop-color="#003C5F"/>
</linearGradient>
<linearGradient id="paint7_linear_1871_1511" x1="32.0255" y1="32.0217" x2="29.912" y2="44.835" gradientUnits="userSpaceOnUse">
<stop stop-color="#63CBFF"/>
<stop offset="1" stop-color="#003A5A"/>
</linearGradient>
<linearGradient id="paint8_linear_1871_1511" x1="31.3138" y1="29.8882" x2="31.3138" y2="49.8144" gradientUnits="userSpaceOnUse">
<stop stop-color="#A6E1FF"/>
<stop offset="1" stop-color="#003655"/>
</linearGradient>
<linearGradient id="paint9_linear_1871_1511" x1="31.3138" y1="19.9249" x2="31.3138" y2="28.4647" gradientUnits="userSpaceOnUse">
<stop stop-color="#003959"/>
<stop offset="1" stop-color="#003959"/>
</linearGradient>
<linearGradient id="paint10_linear_1871_1511" x1="32.7354" y1="19.9199" x2="32.7354" y2="27.7481" gradientUnits="userSpaceOnUse">
<stop offset="0.161427" stop-color="#004368"/>
<stop offset="0.550431" stop-color="#56B7E9"/>
<stop offset="1" stop-color="#004368"/>
</linearGradient>
</defs>
</svg>
