<svg width="225" height="58" viewBox="0 0 225 58" fill="none" xmlns="http://www.w3.org/2000/svg">
<path d="M213.416 30.2853V20.5605H217.191L218.764 25.4229L219.25 27.2392L219.737 25.4229L221.31 20.5605H224.999V30.2853H222.082L222.268 23.8355L221.51 26.4812L220.266 30.2853H218.149L216.876 26.424L216.147 23.8641L216.333 30.2853H213.416Z" fill="url(#paint0_linear_3503_14831)"/>
<path d="M204.838 30.2853V20.5605H212.06V22.8487H207.755V24.2359H211.488V26.4526H207.755V27.9972H212.06V30.2853H204.838Z" fill="url(#paint1_linear_3503_14831)"/>
<path d="M197.963 30.2853V22.9202H195.146V20.5605H203.698V22.9202H200.88V30.2853H197.963Z" fill="url(#paint2_linear_3503_14831)"/>
<path d="M189.279 23.134C189.279 24.793 194.857 23.277 194.857 27.2385C194.857 29.3264 193.098 30.5563 190.695 30.5563C188.264 30.5563 186.476 29.4265 186.19 27.0525H189.265C189.365 27.882 189.923 28.3396 190.724 28.3396C191.482 28.3396 191.868 28.0679 191.868 27.596C191.868 25.9227 186.29 27.2242 186.29 23.4486C186.29 21.661 187.749 20.2881 190.309 20.2881C192.411 20.2881 194.313 21.2892 194.571 23.6489H191.453C191.324 22.8909 190.924 22.5048 190.18 22.5048C189.651 22.5048 189.279 22.7479 189.279 23.134Z" fill="url(#paint3_linear_3503_14831)"/>
<path d="M179.734 30.2853V27.0533L176.488 20.5605H179.748L180.893 23.3493L181.279 24.5506L181.665 23.3493L182.809 20.5605H185.898L182.652 27.0533V30.2853H179.734Z" fill="url(#paint4_linear_3503_14831)"/>
<path d="M171.117 23.134C171.117 24.793 176.694 23.277 176.694 27.2385C176.694 29.3264 174.935 30.5563 172.532 30.5563C170.101 30.5563 168.314 29.4265 168.028 27.0525H171.102C171.202 27.882 171.76 28.3396 172.561 28.3396C173.319 28.3396 173.705 28.0679 173.705 27.596C173.705 25.9227 168.128 27.2242 168.128 23.4486C168.128 21.661 169.586 20.2881 172.146 20.2881C174.249 20.2881 176.151 21.2892 176.408 23.6489H173.29C173.162 22.8909 172.761 22.5048 172.018 22.5048C171.488 22.5048 171.117 22.7479 171.117 23.134Z" fill="url(#paint5_linear_3503_14831)"/>
<path d="M162.126 30.5563C159.008 30.5563 157.078 28.5971 157.078 25.4365C157.078 22.2616 159.008 20.2881 162.126 20.2881C165.244 20.2881 167.174 22.2616 167.174 25.4365C167.174 28.5971 165.244 30.5563 162.126 30.5563ZM162.126 28.1966C163.442 28.1966 164.185 27.167 164.185 25.4365C164.185 23.6918 163.442 22.6478 162.126 22.6478C160.81 22.6478 160.067 23.6918 160.067 25.4365C160.067 27.167 160.81 28.1966 162.126 28.1966Z" fill="url(#paint6_linear_3503_14831)"/>
<path d="M156.22 23.8777H153.174C152.959 23.0625 152.459 22.6478 151.658 22.6478C150.471 22.6478 149.813 23.6918 149.813 25.4365C149.813 27.1813 150.457 28.1966 151.658 28.1966C152.402 28.1966 152.945 27.7962 153.145 27.0525H156.22C155.762 29.3836 153.946 30.5563 151.73 30.5563C148.698 30.5563 146.824 28.6114 146.824 25.4365C146.824 22.2616 148.698 20.2881 151.73 20.2881C153.961 20.2881 155.834 21.4894 156.22 23.8777Z" fill="url(#paint7_linear_3503_14831)"/>
<path d="M138.531 30.2853V20.5605H145.754V22.8487H141.449V24.2359H145.182V26.4526H141.449V27.9972H145.754V30.2853H138.531Z" fill="url(#paint8_linear_3503_14831)"/>
<path d="M125.396 30.2853V20.5605H128.313V24.1501H131.331V20.5605H134.248V30.2853H131.331V26.5098H128.313V30.2853H125.396Z" fill="url(#paint9_linear_3503_14831)"/>
<path d="M124.252 23.8777H121.205C120.991 23.0625 120.49 22.6478 119.69 22.6478C118.503 22.6478 117.845 23.6918 117.845 25.4365C117.845 27.1813 118.488 28.1966 119.69 28.1966C120.433 28.1966 120.977 27.7962 121.177 27.0525H124.252C123.794 29.3836 121.978 30.5563 119.761 30.5563C116.729 30.5563 114.856 28.6114 114.856 25.4365C114.856 22.2616 116.729 20.2881 119.761 20.2881C121.992 20.2881 123.865 21.4894 124.252 23.8777Z" fill="url(#paint10_linear_3503_14831)"/>
<path d="M106.564 30.2853V20.5605H113.786V22.8487H109.481V24.2359H113.214V26.4526H109.481V27.9972H113.786V30.2853H106.564Z" fill="url(#paint11_linear_3503_14831)"/>
<path d="M99.6887 30.2853V22.9202H96.8713V20.5605H105.423V22.9202H102.606V30.2853H99.6887Z" fill="url(#paint12_linear_3503_14831)"/>
<path d="M92.9216 30.2853L91.6917 28.3261L91.277 27.5824L90.8622 28.3261L89.618 30.2853H86.5862L89.7753 25.2799L86.8007 20.5605H90.1758L91.1626 22.1194L91.6059 22.9774L92.0635 22.1194L93.0646 20.5605H96.0822L93.1075 25.2227L96.2967 30.2853H92.9216Z" fill="url(#paint13_linear_3503_14831)"/>
<path d="M78.5791 30.2853V20.5605H85.8012V22.8487H81.4965V24.2359H85.2291V26.4526H81.4965V27.9972H85.8012V30.2853H78.5791Z" fill="url(#paint14_linear_3503_14831)"/>
<path d="M70.6433 30.2853V20.5605H73.5608V27.9257H77.4364V30.2853H70.6433Z" fill="url(#paint15_linear_3503_14831)"/>
<path d="M129.96 39.9602V35.3838H131.885C133.352 35.3838 134.26 36.2587 134.26 37.6787C134.26 39.0987 133.352 39.9602 131.885 39.9602H129.96ZM131.885 38.8497C132.504 38.8497 132.854 38.4257 132.854 37.6787C132.854 36.9317 132.504 36.4942 131.885 36.4942H131.333V38.8497H131.885Z" fill="#261EA6"/>
<path d="M119.732 39.9602V35.3838H123.131V36.4606H121.105V37.1134H122.862V38.1565H121.105V38.8834H123.131V39.9602H119.732Z" fill="#261EA6"/>
<path d="M110.305 39.9602V36.4942H108.979V35.3838H113.004V36.4942H111.678V39.9602H110.305Z" fill="#261EA6"/>
<path d="M100.879 39.9602V35.3838H102.252V39.9602H100.879Z" fill="#261EA6"/>
<path d="M88.4944 39.9602V35.3838H90.2711L91.0114 37.672L91.2402 38.5267L91.469 37.672L92.2093 35.3838H93.9457V39.9602H92.5727L92.6602 36.925L92.3035 38.17L91.718 39.9602H90.722L90.123 38.1431L89.7798 36.9384L89.8673 39.9602H88.4944Z" fill="#261EA6"/>
<path d="M80.1924 39.9602V35.3838H81.5653V39.9602H80.1924Z" fill="#261EA6"/>
<path d="M70.2651 39.9602V35.3838H71.6381V38.8497H73.4619V39.9602H70.2651Z" fill="#261EA6"/>
<path d="M35.5878 7.726C44.5831 6.067 54.5232 17.9798 58.1931 23.9706C56.4363 18.6713 56.4363 15.5606 49.5259 8.07189C45.4068 3.60808 33.831 2.65691 25.7493 5.19148C19.284 7.21914 19.4636 12.7184 20.3615 15.2146C21.689 13.4096 26.5926 9.38499 35.5878 7.726Z" fill="url(#paint16_linear_3503_14831)"/>
<path d="M35.5904 3.82737C43.3183 3.45483 50.198 8.63932 52.6719 11.2781C52.7504 11.3557 52.554 11.0917 51.1404 9.41531C49.7267 7.73889 46.3104 4.87501 43.8366 3.47817C41.8339 2.08115 35.5903 -0.549895 26.6373 0.102046C15.4459 0.916972 7.31755 8.36773 4.49026 12.3259C1.66298 16.2842 2.3698 20.2424 4.49026 21.8722C6.61073 23.5021 10.7338 24.317 16.5062 19.311C22.2786 14.305 25.9305 4.29304 35.5904 3.82737Z" fill="url(#paint17_linear_3503_14831)"/>
<path d="M22.6189 49.9114C13.6181 51.5991 3.67181 39.4805 -0.000404358 33.3862C1.75753 38.777 1.75753 41.9415 8.67223 49.5596C12.7939 54.1005 24.3769 55.0681 32.4636 52.4897C38.933 50.427 38.7533 44.8328 37.8547 42.2935C36.5265 44.1296 31.6198 48.2238 22.6189 49.9114Z" fill="url(#paint18_linear_3503_14831)"/>
<path d="M22.7364 53.6606C15.0482 54.0357 8.20381 48.8164 5.74264 46.16C5.66453 46.0819 5.85989 46.3476 7.26627 48.0353C8.67265 49.7229 12.0714 52.606 14.5326 54.0122C16.5249 55.4186 22.7365 58.0673 31.6435 57.4109C42.7774 56.5906 50.864 49.0899 53.6768 45.1051C56.4895 41.1204 55.7864 37.1356 53.6768 35.4948C51.5672 33.8541 47.4653 33.0337 41.7225 38.0732C35.9798 43.1127 32.3467 53.1919 22.7364 53.6606Z" fill="url(#paint19_linear_3503_14831)"/>
<path fill-rule="evenodd" clip-rule="evenodd" d="M36.6623 23.511H19.0586V21.0068H36.6623C38.5419 21.0068 40.0656 22.4847 40.0656 24.3077V31.9339H37.4838V24.3077C37.4838 23.8677 37.116 23.511 36.6623 23.511Z" fill="#261EA6"/>
<path fill-rule="evenodd" clip-rule="evenodd" d="M22.4632 34.9363H40.0669V37.4404H22.4632C20.5836 37.4404 19.0599 35.9626 19.0599 34.1395V26.5134H21.6417V34.1395C21.6417 34.5796 22.0095 34.9363 22.4632 34.9363Z" fill="#261EA6"/>
<path fill-rule="evenodd" clip-rule="evenodd" d="M34.1361 32.3578H23.6326V29.9014H34.1361V32.3578Z" fill="#261EA6"/>
<path fill-rule="evenodd" clip-rule="evenodd" d="M34.1361 29.0526H23.6326V26.0879H34.1361V29.0526Z" fill="#261EA6"/>
<defs>
<linearGradient id="paint0_linear_3503_14831" x1="69.9284" y1="25.0276" x2="225.979" y2="25.0276" gradientUnits="userSpaceOnUse">
<stop stop-color="#2161B3"/>
<stop offset="1" stop-color="#002A7F"/>
</linearGradient>
<linearGradient id="paint1_linear_3503_14831" x1="69.9292" y1="25.0276" x2="225.98" y2="25.0276" gradientUnits="userSpaceOnUse">
<stop stop-color="#2161B3"/>
<stop offset="1" stop-color="#002A7F"/>
</linearGradient>
<linearGradient id="paint2_linear_3503_14831" x1="69.9287" y1="25.0276" x2="225.98" y2="25.0276" gradientUnits="userSpaceOnUse">
<stop stop-color="#2161B3"/>
<stop offset="1" stop-color="#002A7F"/>
</linearGradient>
<linearGradient id="paint3_linear_3503_14831" x1="69.9289" y1="25.0268" x2="225.98" y2="25.0268" gradientUnits="userSpaceOnUse">
<stop stop-color="#2161B3"/>
<stop offset="1" stop-color="#002A7F"/>
</linearGradient>
<linearGradient id="paint4_linear_3503_14831" x1="69.929" y1="25.0276" x2="225.98" y2="25.0276" gradientUnits="userSpaceOnUse">
<stop stop-color="#2161B3"/>
<stop offset="1" stop-color="#002A7F"/>
</linearGradient>
<linearGradient id="paint5_linear_3503_14831" x1="69.9288" y1="25.0268" x2="225.98" y2="25.0268" gradientUnits="userSpaceOnUse">
<stop stop-color="#2161B3"/>
<stop offset="1" stop-color="#002A7F"/>
</linearGradient>
<linearGradient id="paint6_linear_3503_14831" x1="69.9281" y1="25.0268" x2="225.979" y2="25.0268" gradientUnits="userSpaceOnUse">
<stop stop-color="#2161B3"/>
<stop offset="1" stop-color="#002A7F"/>
</linearGradient>
<linearGradient id="paint7_linear_3503_14831" x1="69.9291" y1="25.0268" x2="225.98" y2="25.0268" gradientUnits="userSpaceOnUse">
<stop stop-color="#2161B3"/>
<stop offset="1" stop-color="#002A7F"/>
</linearGradient>
<linearGradient id="paint8_linear_3503_14831" x1="69.9288" y1="25.0276" x2="225.98" y2="25.0276" gradientUnits="userSpaceOnUse">
<stop stop-color="#2161B3"/>
<stop offset="1" stop-color="#002A7F"/>
</linearGradient>
<linearGradient id="paint9_linear_3503_14831" x1="69.9279" y1="25.0276" x2="225.979" y2="25.0276" gradientUnits="userSpaceOnUse">
<stop stop-color="#2161B3"/>
<stop offset="1" stop-color="#002A7F"/>
</linearGradient>
<linearGradient id="paint10_linear_3503_14831" x1="69.9282" y1="25.0268" x2="225.979" y2="25.0268" gradientUnits="userSpaceOnUse">
<stop stop-color="#2161B3"/>
<stop offset="1" stop-color="#002A7F"/>
</linearGradient>
<linearGradient id="paint11_linear_3503_14831" x1="69.9287" y1="25.0276" x2="225.98" y2="25.0276" gradientUnits="userSpaceOnUse">
<stop stop-color="#2161B3"/>
<stop offset="1" stop-color="#002A7F"/>
</linearGradient>
<linearGradient id="paint12_linear_3503_14831" x1="69.9282" y1="25.0276" x2="225.979" y2="25.0276" gradientUnits="userSpaceOnUse">
<stop stop-color="#2161B3"/>
<stop offset="1" stop-color="#002A7F"/>
</linearGradient>
<linearGradient id="paint13_linear_3503_14831" x1="69.9287" y1="25.0276" x2="225.98" y2="25.0276" gradientUnits="userSpaceOnUse">
<stop stop-color="#2161B3"/>
<stop offset="1" stop-color="#002A7F"/>
</linearGradient>
<linearGradient id="paint14_linear_3503_14831" x1="69.928" y1="25.0276" x2="225.979" y2="25.0276" gradientUnits="userSpaceOnUse">
<stop stop-color="#2161B3"/>
<stop offset="1" stop-color="#002A7F"/>
</linearGradient>
<linearGradient id="paint15_linear_3503_14831" x1="69.9283" y1="25.0276" x2="225.979" y2="25.0276" gradientUnits="userSpaceOnUse">
<stop stop-color="#2161B3"/>
<stop offset="1" stop-color="#002A7F"/>
</linearGradient>
<linearGradient id="paint16_linear_3503_14831" x1="47.1833" y1="10.1456" x2="23.8817" y2="12.2884" gradientUnits="userSpaceOnUse">
<stop stop-color="#00009E"/>
<stop offset="1" stop-color="#000052"/>
</linearGradient>
<linearGradient id="paint17_linear_3503_14831" x1="36.8861" y1="1.38247" x2="4.7194" y2="22.5693" gradientUnits="userSpaceOnUse">
<stop offset="0.132958" stop-color="#0054FF"/>
<stop offset="0.796046" stop-color="#4FAFFF"/>
</linearGradient>
<linearGradient id="paint18_linear_3503_14831" x1="11.0162" y1="47.45" x2="34.3387" y2="45.3404" gradientUnits="userSpaceOnUse">
<stop stop-color="#00009E"/>
<stop offset="1" stop-color="#000052"/>
</linearGradient>
<linearGradient id="paint19_linear_3503_14831" x1="21.4473" y1="56.1219" x2="53.6768" y2="35.1434" gradientUnits="userSpaceOnUse">
<stop offset="0.132958" stop-color="#0054FF"/>
<stop offset="0.796046" stop-color="#4FAFFF"/>
</linearGradient>
</defs>
</svg>
