<svg width="128" height="65" viewBox="0 0 128 65" fill="none" xmlns="http://www.w3.org/2000/svg">
<path d="M26.1579 31.433C26.0029 25.606 30.9029 20.559 36.8339 20.552C42.7769 20.545 47.7119 25.396 47.6469 31.618C47.5869 37.399 42.8359 42.558 36.4319 42.345C31.0119 42.166 26.0019 37.454 26.1579 31.433ZM46.2399 31.446C46.3009 26.297 42.1419 21.946 36.9049 21.938C31.5589 21.931 27.6209 26.283 27.4949 31.178C27.3519 36.73 31.7909 40.873 36.6649 40.964C42.0769 41.066 46.3419 36.548 46.2399 31.446ZM80.1059 31.756V28.928C80.1059 28.06 80.1079 27.193 80.0999 26.325C80.0979 26.137 80.1579 26.066 80.3479 26.068C80.9919 26.077 81.6379 26.076 82.2809 26.068C82.4889 26.066 82.5619 26.148 82.5619 26.36C82.5579 29.469 82.5579 32.578 82.5619 35.687C82.5619 35.898 82.4889 35.982 82.2819 35.98C81.6969 35.974 81.1119 35.97 80.5269 35.982C80.3149 35.986 80.2289 35.855 80.1369 35.709L76.8619 30.477C76.8239 30.414 76.7789 30.355 76.7069 30.25C76.6959 30.369 76.6829 30.432 76.6829 30.497C76.6939 32.154 76.7049 33.81 76.7219 35.467C76.7269 35.977 76.7359 35.977 76.2179 35.977C75.6669 35.977 75.1159 35.97 74.5649 35.98C74.3509 35.984 74.2609 35.918 74.2609 35.687C74.2659 32.578 74.2659 29.469 74.2609 26.36C74.2609 26.13 74.3479 26.062 74.5629 26.066C75.1129 26.076 75.6649 26.078 76.2159 26.066C76.4219 26.061 76.5409 26.14 76.6459 26.313C77.7209 28.057 78.8019 29.796 79.8819 31.537C79.9339 31.622 79.9949 31.7 80.0519 31.782C80.0699 31.772 80.0879 31.764 80.1069 31.755L80.1059 31.756ZM59.9549 35.66C59.9539 35.891 60.0159 35.985 60.2529 35.98C60.9149 35.97 61.5759 35.972 62.2369 35.98C62.4519 35.984 62.5359 35.914 62.5329 35.684C62.5219 34.843 62.5329 34.001 62.5259 33.16C62.5229 32.98 62.5799 32.926 62.7579 32.922C63.3579 32.905 63.9609 32.899 64.5569 32.834C65.3089 32.752 65.9799 32.45 66.4869 31.861C67.2029 31.031 67.4459 30.053 67.3219 28.968C67.1979 27.883 66.6909 27.039 65.7569 26.493C65.1229 26.122 64.3979 26.09 63.6889 26.077C62.5609 26.055 61.4339 26.071 60.3059 26.072C59.9639 26.072 59.9599 26.077 59.9599 26.412V30.998C59.9599 32.553 59.9639 34.107 59.9559 35.661L59.9549 35.66ZM62.5349 28.548C62.5389 28.481 62.6259 28.358 62.6689 28.361C63.1889 28.391 63.7169 28.395 64.2239 28.501C64.7089 28.601 64.9299 29.024 64.8989 29.565C64.8699 30.058 64.5649 30.466 64.1009 30.529C63.6339 30.592 63.1589 30.589 62.6859 30.595C62.6349 30.595 62.5399 30.471 62.5359 30.4C62.5189 30.092 62.5289 29.783 62.5289 29.474C62.5289 29.166 62.5209 28.857 62.5349 28.548ZM99.1359 29.028C99.3159 29.033 99.3819 28.952 99.3669 28.78C99.2719 27.76 98.8799 26.92 97.9749 26.378C96.7259 25.628 94.7749 25.742 93.6089 26.734C92.3229 27.83 92.1969 30.008 93.6689 31.065C94.1519 31.413 94.7169 31.642 95.2519 31.914C95.6809 32.131 96.1279 32.314 96.5539 32.539C96.7939 32.665 96.9299 32.886 96.8889 33.179C96.8389 33.541 96.5189 33.894 96.1929 33.949C95.7499 34.022 95.3769 33.856 95.1999 33.464C95.1099 33.266 95.0699 33.042 95.0199 32.828C94.9879 32.693 94.9359 32.623 94.7819 32.625C94.0869 32.632 93.3919 32.631 92.6969 32.627C92.4919 32.626 92.4249 32.734 92.4439 32.92C92.4649 33.125 92.4989 33.328 92.5189 33.532C92.6279 34.657 93.4169 35.601 94.4809 35.948C95.1769 36.175 95.8839 36.168 96.5929 36.133C97.1891 36.1101 97.7658 35.9145 98.2529 35.57C99.0959 34.969 99.3939 34.103 99.4359 33.103C99.4759 32.14 99.1139 31.382 98.3459 30.828C98.0422 30.6111 97.7238 30.4156 97.3929 30.243C96.7779 29.92 96.1439 29.635 95.5329 29.307C95.0599 29.053 95.0649 28.488 95.5189 28.197C96.0439 27.86 96.6639 28.149 96.7859 28.807C96.8199 28.987 96.8919 29.033 97.0509 29.03C97.3899 29.023 97.7289 29.028 98.0679 29.028C98.4249 29.028 98.7809 29.022 99.1369 29.03L99.1359 29.029V29.028ZM84.4989 35.668C84.4989 35.884 84.5599 35.98 84.7859 35.98C86.4729 35.975 88.1599 35.976 89.8479 35.98C90.0459 35.98 90.1129 35.901 90.1089 35.702C90.0989 35.145 90.1059 34.586 90.1049 34.028C90.1049 33.711 90.0949 33.698 89.7729 33.698C88.9499 33.698 88.1269 33.694 87.3049 33.702C87.1149 33.704 87.0499 33.642 87.0549 33.452C87.0659 33.082 87.0679 32.712 87.0549 32.343C87.0479 32.146 87.1219 32.095 87.3049 32.097C88.1109 32.105 88.9169 32.097 89.7229 32.103C89.9279 32.105 90.0109 32.033 90.0059 31.818C89.9969 31.243 89.9939 30.666 90.0079 30.091C90.0129 29.871 89.9339 29.813 89.7299 29.815C88.9159 29.825 88.1019 29.815 87.2869 29.822C87.1109 29.824 87.0479 29.771 87.0549 29.589C87.0679 29.264 87.0689 28.936 87.0549 28.61C87.0469 28.407 87.1159 28.344 87.3169 28.346C88.1389 28.356 88.9619 28.344 89.7849 28.355C90.0199 28.358 90.1189 28.293 90.1099 28.034C90.0929 27.494 90.1049 26.952 90.1049 26.411C90.1049 26.077 90.0999 26.071 89.7579 26.071H84.8499C84.5199 26.071 84.5029 26.088 84.5029 26.418V31.005C84.5029 32.559 84.5049 34.113 84.4989 35.668ZM57.0439 26.35C57.0459 26.14 56.9849 26.062 56.7709 26.066C56.1523 26.0769 55.5335 26.0769 54.9149 26.066C54.7229 26.063 54.6049 26.134 54.4949 26.292C53.3479 27.958 52.2049 29.625 51.0389 31.278C50.5829 31.924 50.1119 32.544 50.2869 33.414C50.3169 33.563 50.2909 33.723 50.2909 33.877C50.2909 34.134 50.4179 34.263 50.6729 34.264C51.8849 34.264 53.0969 34.268 54.3089 34.26C54.5049 34.26 54.5789 34.314 54.5699 34.521C54.5549 34.907 54.5769 35.294 54.5619 35.68C54.5539 35.907 54.6369 35.983 54.8549 35.98C55.4999 35.97 56.1439 35.97 56.7879 35.98C56.9949 35.983 57.0489 35.9 57.0439 35.706C57.0339 35.303 57.0489 34.899 57.0379 34.496C57.0329 34.314 57.0979 34.25 57.2729 34.26C57.4759 34.273 57.6799 34.26 57.8829 34.264C58.0499 34.267 58.1349 34.194 58.1349 34.019C58.1329 33.487 58.1329 32.955 58.1349 32.423C58.1349 32.26 58.0619 32.19 57.9019 32.193C57.6989 32.199 57.4939 32.182 57.2919 32.199C57.0859 32.217 57.0349 32.136 57.0369 31.937C57.0469 31.011 57.0409 30.083 57.0409 29.157C57.0409 28.221 57.0359 27.285 57.0459 26.35H57.0439ZM54.7239 29.733C54.7249 30.46 54.7159 31.188 54.7299 31.916C54.7339 32.15 54.6559 32.207 54.4379 32.201C53.9669 32.187 53.4949 32.197 52.9529 32.197L54.6369 29.489C54.6599 29.498 54.6839 29.505 54.7069 29.513C54.7129 29.586 54.7239 29.66 54.7239 29.733ZM71.7889 26.413C71.7889 26.077 71.7839 26.072 71.4439 26.072C70.7909 26.07 70.1389 26.078 69.4849 26.067C69.2739 26.064 69.2089 26.135 69.2089 26.349C69.2139 29.466 69.2139 32.584 69.2089 35.7C69.2089 35.912 69.2709 35.986 69.4839 35.983C70.1451 35.9701 70.8066 35.9701 71.4679 35.983C71.7309 35.989 71.7959 35.89 71.7929 35.637C71.7829 34.108 71.7879 32.579 71.7879 31.051V26.414H71.7889V26.413ZM59.0039 40.423C59.4259 41.024 59.8449 41.626 60.2639 42.228C60.6049 42.718 60.9539 43.204 61.2829 43.702C61.4299 43.923 61.6399 43.9 61.8229 43.85C61.8959 43.83 61.9559 43.62 61.9569 43.497C61.9659 42.184 61.9609 40.87 61.9649 39.557C61.9649 39.346 61.9299 39.217 61.6739 39.219C61.4269 39.221 61.3789 39.331 61.3809 39.551C61.3889 40.547 61.3849 41.542 61.3839 42.538C61.3839 42.62 61.3769 42.701 61.3699 42.852C61.2809 42.735 61.2299 42.672 61.1839 42.606L59.5899 40.316C59.3749 40.008 59.1599 39.701 58.9509 39.387C58.8079 39.171 58.5939 39.207 58.4019 39.244C58.3379 39.256 58.2559 39.406 58.2539 39.494C58.2449 40.866 58.2489 42.24 58.2459 43.614C58.2459 43.8 58.3179 43.874 58.5029 43.874C58.8149 43.874 58.8459 43.854 58.8459 43.524V40.233C58.9189 40.321 58.9669 40.369 59.0039 40.423ZM63.0029 43.617C63.0009 43.797 63.0469 43.881 63.2449 43.876C63.7099 43.864 64.1779 43.899 64.6409 43.866C65.5349 43.803 66.2549 43.425 66.5459 42.516C66.6739 42.12 66.6949 41.674 66.6939 41.252C66.6909 40.324 65.9739 39.447 65.0739 39.312C64.4859 39.223 63.8799 39.256 63.2819 39.223C63.0709 39.212 62.9989 39.287 63.0019 39.502C63.0109 40.187 63.0049 40.874 63.0059 41.56C63.0059 42.246 63.0099 42.931 63.0029 43.617ZM63.5539 43.079C63.5539 42.059 63.5579 41.037 63.5499 40.017C63.5499 39.823 63.5899 39.728 63.8019 39.753C64.2359 39.803 64.6919 39.773 65.1019 39.899C65.7279 40.092 66.0099 40.617 66.1099 41.257C66.2409 42.1 65.9439 42.823 65.2779 43.16C65.0812 43.2539 64.8684 43.3096 64.6509 43.324C64.2989 43.35 63.9439 43.331 63.5739 43.331C63.5659 43.23 63.5549 43.155 63.5549 43.081L63.5539 43.079ZM80.5919 41.108C80.7719 40.498 80.4679 39.437 79.5209 39.313C78.9209 39.235 78.3069 39.25 77.6999 39.229C77.5359 39.222 77.4809 39.326 77.4809 39.479C77.4809 40.879 77.4829 42.277 77.4809 43.677C77.4809 43.935 77.6649 43.873 77.8059 43.876C77.9419 43.879 78.1099 43.921 78.1009 43.679C78.0909 43.431 78.0989 43.181 78.0989 42.932C78.0989 41.97 78.0959 41.009 78.1049 40.048C78.1049 39.963 78.1879 39.808 78.2349 39.808C78.5949 39.8 78.9599 39.791 79.3149 39.842C79.8619 39.919 80.0589 40.406 80.0549 40.83C80.0519 41.355 79.7049 41.725 79.2009 41.783C79.0199 41.803 78.8369 41.813 78.6139 41.83C78.6629 41.95 78.6839 42.04 78.7309 42.112C79.0409 42.603 79.3549 43.091 79.6709 43.578C79.8839 43.908 80.0399 43.958 80.4649 43.814L79.9569 43.02L79.4309 42.211C80.2749 41.864 80.4079 41.738 80.5919 41.11V41.108ZM89.0369 39.219C87.9579 39.466 87.0999 40.491 87.2449 41.819C87.3729 43.004 88.2599 43.867 89.4329 43.949C90.5129 44.022 91.5829 43.369 91.7039 42.623C91.3929 42.498 91.1949 42.533 90.9879 42.768C90.6379 43.165 90.1999 43.4 89.6809 43.42C88.3549 43.474 87.4179 42.134 87.8879 40.879C88.3699 39.592 90.1129 39.284 90.9569 40.349C91.1809 40.633 91.4239 40.578 91.7189 40.546C91.4399 39.721 90.3919 38.909 89.0349 39.219H89.0369ZM53.9539 42.473C53.9599 42.657 53.9969 42.85 54.0679 43.018C54.3469 43.678 55.0319 44.059 55.7119 43.955C56.4549 43.842 56.9669 43.312 57.0399 42.553C57.0659 42.282 57.0399 42.006 57.0399 41.733C57.0399 40.986 57.0429 40.24 57.0349 39.493C57.0349 39.406 56.9909 39.269 56.9299 39.242C56.6449 39.115 56.4559 39.253 56.4549 39.569C56.4549 40.427 56.4579 41.286 56.4519 42.144C56.4514 42.3326 56.4312 42.5206 56.3919 42.705C56.366 42.8324 56.3126 42.9525 56.2353 43.057C56.158 43.1615 56.0588 43.2477 55.9446 43.3098C55.8305 43.3718 55.7041 43.4081 55.5744 43.4161C55.4447 43.4241 55.3148 43.4036 55.1939 43.356C54.7609 43.192 54.5399 42.789 54.5509 42.271C54.5709 41.345 54.5629 40.418 54.5749 39.491C54.5779 39.215 54.4019 39.231 54.2149 39.222C54.0169 39.212 53.9419 39.282 53.9449 39.486C53.9549 40.002 53.9489 40.516 53.9489 41.031C53.9489 41.511 53.9389 41.993 53.9539 42.473ZM98.5039 43.923C99.0939 43.703 99.4559 43.173 99.4539 42.568C99.4539 41.993 99.1439 41.608 98.4969 41.354C98.1723 41.2329 97.8542 41.095 97.5439 40.941C97.4386 40.8894 97.353 40.8048 97.3001 40.7001C97.2473 40.5955 97.23 40.4764 97.2509 40.361C97.2806 40.2052 97.3571 40.0621 97.4702 39.9508C97.5833 39.8395 97.7276 39.7653 97.8839 39.738C98.2539 39.693 98.5389 39.846 98.6969 40.174C98.8029 40.392 99.0099 40.487 99.2219 40.391C99.2759 40.366 99.3439 40.249 99.3269 40.203C99.2579 40.003 99.1869 39.794 99.0659 39.628C98.7559 39.204 98.3009 39.125 97.8159 39.167C97.2689 39.213 96.7899 39.627 96.6959 40.127C96.5669 40.804 96.7599 41.235 97.3539 41.519C97.6729 41.67 98.0179 41.766 98.3439 41.902C98.7999 42.094 98.9759 42.488 98.8039 42.896C98.7203 43.1027 98.5584 43.268 98.3535 43.3558C98.1486 43.4437 97.9172 43.447 97.7099 43.365C97.4089 43.241 97.2449 43.007 97.1659 42.701C97.1359 42.586 97.1019 42.503 96.9519 42.502C96.6169 42.498 96.5159 42.626 96.6219 42.965C96.7849 43.492 97.2719 44.034 98.0089 44.008C98.1749 43.981 98.3499 43.981 98.5039 43.923ZM71.4289 39.163C70.7869 39.177 70.3129 39.587 70.1689 40.253C70.0559 40.779 70.3299 41.279 70.9089 41.541C71.2309 41.688 71.5789 41.774 71.9019 41.92C72.3029 42.1 72.4659 42.483 72.3279 42.842C72.1779 43.23 71.8429 43.459 71.4679 43.431C71.1059 43.404 70.7779 43.112 70.6809 42.73C70.6269 42.52 70.4379 42.435 70.1659 42.515C69.9479 42.579 70.0429 42.748 70.0759 42.876C70.2199 43.441 70.5809 43.789 71.1359 43.94C71.8699 44.139 72.7119 43.722 72.8739 42.99C73.0269 42.301 72.9739 41.745 72.0039 41.357C71.6839 41.229 71.3579 41.107 71.0539 40.945C70.9356 40.8809 70.8446 40.776 70.7979 40.6498C70.7511 40.5236 70.7519 40.3847 70.7999 40.259C70.9579 39.837 71.4529 39.626 71.8399 39.849C71.9919 39.936 72.1089 40.096 72.2169 40.243C72.3239 40.388 72.5769 40.486 72.7449 40.397C72.9329 40.297 72.8279 40.127 72.7879 40.01C72.6179 39.526 72.1949 39.137 71.5319 39.165H71.4299L71.4289 39.163ZM73.8539 43.58C73.8509 43.804 73.9299 43.88 74.1509 43.875C74.8209 43.864 75.4909 43.865 76.1589 43.874C76.3569 43.876 76.4559 43.824 76.4559 43.601C76.4559 43.379 76.3589 43.324 76.1599 43.327C75.6519 43.335 75.1439 43.327 74.6349 43.331C74.5029 43.331 74.4299 43.304 74.4329 43.147C74.4409 42.761 74.4409 42.375 74.4329 41.989C74.4299 41.83 74.5059 41.806 74.6369 41.807C75.1369 41.812 75.6369 41.8 76.1369 41.812C76.3539 41.818 76.4169 41.732 76.4169 41.526C76.4159 41.323 76.3319 41.26 76.1389 41.264C75.6389 41.274 75.1389 41.264 74.6389 41.27C74.4849 41.272 74.4289 41.223 74.4329 41.064C74.4429 40.713 74.4489 40.36 74.4309 40.009C74.4209 39.799 74.4939 39.746 74.6909 39.75C75.1989 39.762 75.7069 39.752 76.2159 39.755C76.3639 39.755 76.4519 39.722 76.4559 39.542C76.4629 39.31 76.3789 39.218 76.1449 39.222C75.4849 39.231 74.8229 39.232 74.1629 39.22C73.9239 39.216 73.8509 39.309 73.8539 39.538C73.8619 40.207 73.8569 40.877 73.8569 41.546C73.8569 42.224 73.8629 42.903 73.8539 43.58ZM93.7469 41.81C94.2639 41.81 94.7809 41.803 95.2979 41.812C95.4939 41.816 95.5479 41.727 95.5479 41.55C95.5479 41.368 95.5099 41.252 95.2939 41.265C95.0839 41.279 94.8709 41.268 94.6589 41.268H93.5769C93.5769 40.811 93.5829 40.392 93.5729 39.974C93.5689 39.806 93.6229 39.749 93.7909 39.752C94.2909 39.762 94.7909 39.754 95.2909 39.756C95.4509 39.756 95.5959 39.768 95.5929 39.526C95.5889 39.304 95.5069 39.221 95.2889 39.223C94.6196 39.2307 93.9502 39.2307 93.2809 39.223C93.0759 39.22 92.9889 39.291 92.9909 39.503C92.9939 40.868 92.9949 42.233 92.9909 43.597C92.9909 43.81 93.0699 43.878 93.2769 43.875C93.9462 43.8664 94.6156 43.8661 95.2849 43.874C95.4729 43.876 95.5889 43.843 95.5929 43.611C95.5959 43.373 95.4869 43.323 95.2799 43.327C94.7799 43.336 94.2799 43.335 93.7809 43.324C93.7129 43.322 93.5899 43.246 93.5889 43.202C93.5749 42.749 93.5789 42.297 93.5789 41.825C93.6659 41.817 93.7079 41.811 93.7489 41.809L93.7469 41.81ZM83.0949 42.945C82.9239 42.502 82.7509 42.059 82.5819 41.615C82.3019 40.882 82.0289 40.147 81.7479 39.415C81.6819 39.241 81.3899 39.142 81.1999 39.239C81.0169 39.333 81.1359 39.475 81.1809 39.592C81.7009 40.929 82.2299 42.263 82.7409 43.602C82.8139 43.792 82.8979 43.876 83.1039 43.877C83.3069 43.877 83.4239 43.827 83.5039 43.617C83.8189 42.778 84.1549 41.947 84.4829 41.113C84.6889 40.589 84.8999 40.066 85.0969 39.539C85.1289 39.455 85.1359 39.313 85.0869 39.259C84.9689 39.126 84.5729 39.246 84.5039 39.421C84.3909 39.707 84.2869 39.996 84.1769 40.283L83.1569 42.935L83.0949 42.945ZM51.2369 39.979C51.2299 39.789 51.3069 39.749 51.4759 39.753C51.8989 39.763 52.3229 39.756 52.7459 39.756C52.8999 39.756 53.0539 39.778 53.0509 39.532C53.0489 39.314 52.9759 39.22 52.7539 39.223C52.1439 39.232 51.5339 39.232 50.9239 39.223C50.7239 39.22 50.6539 39.305 50.6539 39.499C50.6569 40.871 50.6589 42.244 50.6519 43.616C50.6519 43.875 50.7989 43.866 50.9829 43.877C51.1909 43.888 51.2469 43.806 51.2429 43.609C51.2329 43.095 51.2469 42.579 51.2359 42.065C51.2319 41.878 51.2789 41.806 51.4759 41.813C51.8989 41.827 52.3229 41.808 52.7459 41.82C52.9439 41.825 53.0159 41.757 53.0119 41.554C53.0059 41.353 52.9519 41.258 52.7319 41.264C52.2519 41.278 51.7689 41.268 51.2389 41.268C51.2389 40.815 51.2479 40.396 51.2349 39.978L51.2369 39.979ZM85.3909 43.599C85.3879 43.811 85.4549 43.883 85.6669 43.879C85.8669 43.874 85.9849 43.844 85.9839 43.601C85.9769 42.236 85.9779 40.871 85.9839 39.507C85.9839 39.272 85.8759 39.224 85.6689 39.22C85.4539 39.216 85.3889 39.295 85.3929 39.505C85.4019 40.183 85.3949 40.861 85.3949 41.539C85.3949 42.226 85.4019 42.912 85.3909 43.599Z" fill="#F5F8FF"/>
<path d="M42.0569 32.92L38.8809 28.752L38.8129 28.777C38.8069 28.883 38.7959 28.989 38.7959 29.096V36.642C38.7959 36.91 38.6589 37.045 38.3859 37.045C38.1499 37.045 37.9109 37.032 37.6759 37.048C37.4459 37.063 37.3639 36.965 37.3909 36.747V26.702C37.3909 26.242 37.5779 25.976 37.9709 25.89C38.2909 25.82 38.5209 25.969 38.7109 26.22C39.4989 27.262 40.2909 28.299 41.0809 29.339C42.0449 30.609 43.0109 31.881 43.9739 33.153C44.1319 33.363 44.2369 33.59 44.1409 33.867C44.0239 34.206 43.7669 34.355 43.4409 34.359C42.2709 34.371 41.1009 34.362 39.9309 34.368C39.7479 34.368 39.6949 34.29 39.6979 34.12C39.7049 33.811 39.7069 33.502 39.6979 33.194C39.6929 33.007 39.7609 32.936 39.9509 32.939C40.5519 32.949 41.1549 32.943 41.7559 32.941C41.8299 32.941 41.9029 32.931 42.0569 32.92ZM34.7439 28.88C34.7539 28.976 34.7709 29.072 34.7709 29.168C34.7729 30.061 34.7769 30.953 34.7689 31.847C34.7669 32.059 34.8409 32.139 35.0509 32.131C35.3469 32.12 35.6439 32.121 35.9409 32.131C36.1059 32.136 36.1619 32.071 36.1609 31.904C36.1569 30.119 36.1609 28.333 36.1569 26.548C36.1569 26.234 35.9569 25.995 35.6639 25.91C35.2949 25.803 35.0469 25.98 34.8399 26.26L32.6699 29.208C31.6969 30.526 30.7219 31.844 29.7499 33.163C29.5689 33.411 29.4899 33.683 29.6539 33.977C29.7182 34.0982 29.8156 34.1987 29.9347 34.2668C30.0538 34.335 30.1898 34.368 30.3269 34.362C32.3019 34.365 34.2769 34.362 36.2519 34.367C36.4319 34.367 36.4909 34.295 36.4879 34.122C36.4819 33.831 36.4769 33.538 36.4899 33.247C36.4999 33.019 36.4299 32.934 36.1889 32.937C34.8079 32.947 33.4249 32.942 32.0439 32.941C31.9389 32.941 31.8339 32.931 31.6659 32.923L34.6759 28.86L34.7459 28.881L34.7439 28.88ZM36.1589 36.165C36.1589 35.943 36.1539 35.72 36.1609 35.497C36.1659 35.349 36.1179 35.276 35.9589 35.279C35.6379 35.285 35.3159 35.283 34.9959 35.28C34.8529 35.279 34.7719 35.33 34.7729 35.488C34.7759 35.933 34.7729 36.378 34.7729 36.824C34.7729 36.969 34.8369 37.046 34.9889 37.044C35.3189 37.04 35.6489 37.052 35.9779 37.034C36.0409 37.031 36.1449 36.925 36.1509 36.858C36.1719 36.629 36.1589 36.396 36.1589 36.165Z" fill="#F5F8FF"/>
</svg>
