<svg width="128" height="65" viewBox="0 0 128 65" fill="none" xmlns="http://www.w3.org/2000/svg">
<path d="M32.1599 42.583H23.7669C23.3869 42.583 23.0279 42.519 22.7049 42.293C22.5092 42.1609 22.3475 41.9844 22.2328 41.778C22.1181 41.5716 22.0537 41.341 22.0449 41.105C22.0384 41.0185 22.0347 40.9318 22.0339 40.845V23.845C22.0339 23.485 22.0819 23.145 22.2839 22.832C22.5569 22.402 22.9519 22.189 23.4369 22.12C23.5439 22.105 23.6549 22.105 23.7629 22.105C29.3819 22.105 34.9999 22.105 40.6199 22.103C41.1389 22.103 41.6019 22.227 41.9629 22.633C42.2259 22.926 42.3699 23.274 42.3709 23.663C42.3759 29.448 42.3759 35.234 42.3729 41.019C42.3682 41.4033 42.2235 41.7727 41.966 42.0581C41.7084 42.3434 41.3558 42.525 40.9739 42.569C40.8339 42.583 40.6939 42.583 40.5539 42.583H32.1599ZM33.8349 33.648V33.716C33.5849 33.763 33.3299 33.788 33.0879 33.858C32.4529 34.041 31.8319 34.258 31.2569 34.602C30.3209 35.162 29.5169 35.843 29.0839 36.888C28.6899 37.84 28.8949 38.762 29.7469 39.403C30.5469 40.005 31.4869 40.195 32.4419 40.273C33.9599 40.398 35.4559 40.24 36.9029 39.73C37.7339 39.437 38.5019 39.03 39.1129 38.373C39.8469 37.584 39.8249 36.663 39.1489 35.848C38.6129 35.202 37.8849 34.836 37.1479 34.509C36.3889 34.173 35.5969 33.914 34.8309 33.594C34.5064 33.4497 34.1966 33.2742 33.9059 33.07C33.8409 33.027 33.8309 32.836 33.8629 32.735C33.8849 32.662 34.0199 32.583 34.1059 32.581C34.5579 32.567 34.9119 32.353 35.2159 32.046C36.0859 31.164 36.3459 30.054 36.2859 28.86C36.2499 28.136 36.0629 27.442 35.4869 26.926C35.4389 26.882 35.4309 26.734 35.4649 26.664C35.7149 26.141 35.9949 25.631 36.2349 25.104C36.3349 24.884 36.3929 24.632 36.4159 24.389C36.4259 24.293 36.3019 24.119 36.2119 24.099C36.1209 24.077 35.9849 24.187 35.8919 24.268C35.8329 24.319 35.8109 24.418 35.7819 24.499C35.5419 25.169 35.3109 25.843 35.0619 26.51C35.0319 26.587 34.9089 26.675 34.8289 26.676C34.2599 26.684 33.8239 26.933 33.5099 27.396C32.6969 28.597 32.5249 29.918 32.8109 31.321C32.8289 31.41 32.8499 31.526 32.8109 31.595C32.6899 31.812 32.5649 32.035 32.3949 32.215C32.1549 32.468 31.8839 32.418 31.7369 32.105C31.6309 31.879 31.5269 31.638 31.4999 31.395C31.4201 30.6367 31.3605 29.8765 31.3209 29.115C31.2899 28.517 31.3069 27.915 31.2749 27.317C31.2669 27.181 31.1489 27.05 31.0819 26.917C30.9589 26.998 30.7759 27.049 30.7219 27.164C30.5019 27.627 30.2769 28.097 30.1339 28.588C29.8809 29.454 29.6889 30.339 29.4679 31.216C29.3949 31.504 29.3079 31.789 29.2289 32.075L29.1419 32.065C29.1099 31.897 29.0609 31.73 29.0519 31.561C28.9999 30.664 28.9619 29.766 28.9119 28.87C28.8909 28.517 28.8619 28.162 28.8059 27.815C28.7609 27.531 28.5579 27.485 28.3559 27.692C28.3017 27.748 28.2565 27.8121 28.2219 27.882C27.8359 28.682 27.6709 29.549 27.4589 30.402C27.3019 31.0268 27.1356 31.6492 26.9599 32.269C26.9299 32.375 26.8359 32.462 26.7469 32.594C26.7029 32.501 26.6759 32.468 26.6719 32.433C26.6319 32.075 26.5619 31.716 26.5669 31.358C26.5789 30.468 26.6249 29.578 26.6609 28.689C26.6759 28.303 26.6979 27.918 26.7189 27.531C26.7389 27.154 26.7739 26.777 26.7729 26.401C26.7729 26.301 26.6649 26.201 26.6059 26.101C26.5099 26.164 26.3529 26.209 26.3289 26.294C26.2379 26.6 26.1439 26.918 26.1379 27.234C26.1129 28.788 26.0999 30.343 26.1199 31.897C26.1259 32.346 26.2289 32.8 26.3429 33.237C26.4289 33.564 26.7449 33.608 26.9059 33.315C27.1219 32.921 27.3149 32.5 27.4369 32.067C27.6629 31.266 27.8229 30.447 28.0239 29.637C28.0869 29.379 28.1879 29.129 28.2719 28.875L28.3399 28.883C28.3499 28.963 28.3699 29.044 28.3729 29.126C28.4129 30.039 28.4349 30.953 28.4949 31.864C28.5179 32.212 28.6029 32.562 28.7039 32.896C28.7709 33.12 28.9709 33.166 29.1439 33.011C29.2839 32.885 29.4259 32.719 29.4779 32.544C29.6479 31.981 29.7719 31.404 29.9249 30.836C30.1419 30.032 30.3669 29.232 30.5969 28.432C30.6189 28.354 30.6919 28.29 30.7419 28.219L30.8019 28.239C30.8089 28.329 30.8219 28.419 30.8219 28.511C30.8449 29.401 30.8549 30.291 30.8929 31.181C30.9149 31.679 31.0229 32.161 31.2699 32.606C31.6179 33.234 32.2199 33.279 32.6229 32.692C32.7729 32.475 32.8929 32.237 33.0459 31.976C33.1629 32.083 33.2769 32.204 33.4069 32.303C33.5319 32.398 33.5469 32.489 33.4759 32.625C33.2759 33.003 33.3299 33.243 33.6589 33.51L33.8389 33.652L33.8349 33.648ZM98.1719 34.849C98.1719 35.331 98.1579 35.813 98.1769 36.293C98.1869 36.55 98.2359 36.808 98.2989 37.059C98.3619 37.316 98.5489 37.447 98.8119 37.462C98.9359 37.47 99.0619 37.472 99.1859 37.464C99.3759 37.452 99.4789 37.512 99.4779 37.726C99.4779 37.941 99.3699 38.002 99.1839 37.992C98.7249 37.967 98.2669 37.924 97.8089 37.926C97.1559 37.929 96.5019 37.961 95.8489 37.99C95.5669 38.002 95.4539 37.9 95.5169 37.636C95.5319 37.571 95.6169 37.522 95.6749 37.47C95.6879 37.457 95.7209 37.463 95.7429 37.466C96.5729 37.544 96.7569 37.047 96.7779 36.351C96.7999 35.563 96.7829 34.773 96.7829 33.984C96.7829 32.239 96.7859 30.495 96.7799 28.751C96.7799 28.533 96.7469 28.31 96.6969 28.097C96.6069 27.708 96.3389 27.546 95.8139 27.531C95.6779 27.528 95.5409 27.537 95.5089 27.351C95.4709 27.129 95.5349 27.036 95.7589 27.04C96.2409 27.048 96.7229 27.084 97.2039 27.078C98.0599 27.066 98.9159 27.008 99.7709 27.013C100.978 27.021 102.058 27.341 102.697 28.499C103.524 29.994 103.022 31.972 101.283 32.661C101.24 32.678 101.193 32.684 101.148 32.696C101.009 32.736 100.949 32.792 101.045 32.948C101.496 33.682 101.935 34.424 102.381 35.161C102.653 35.611 102.939 36.051 103.198 36.506C103.606 37.223 104.187 37.642 105.022 37.65C105.177 37.652 105.277 37.68 105.268 37.871C105.259 38.059 105.132 38.031 105.018 38.032C104.651 38.034 104.286 38.032 103.919 38.032C103.032 38.037 102.333 37.672 101.854 36.917C101.253 35.971 100.673 35.012 100.084 34.058C100.007 33.932 99.9169 33.812 99.8549 33.678C99.6249 33.178 99.2019 33.038 98.7069 33.03C98.3489 33.025 98.1699 33.204 98.1699 33.567V34.845L98.1719 34.849ZM98.1969 27.707C98.1859 27.752 98.1749 27.774 98.1749 27.797C98.1729 29.239 98.1749 30.682 98.1699 32.125C98.1699 32.277 98.2349 32.337 98.3779 32.341C98.7199 32.351 99.0619 32.383 99.4029 32.373C100.527 32.342 101.342 31.764 101.576 30.753C101.814 29.728 101.234 28.381 100.289 27.909C99.6169 27.574 98.9169 27.648 98.1979 27.706L98.1969 27.707ZM68.9089 38.156C66.9809 38.109 65.3709 37.406 64.2169 35.79C63.4299 34.69 63.1369 33.44 63.2629 32.103C63.4429 30.169 64.3539 28.679 66.0069 27.667C67.1294 26.9676 68.4675 26.699 69.7729 26.911C71.5779 27.185 72.9779 28.132 73.9159 29.737C74.3584 30.4831 74.6025 31.3299 74.6249 32.197C74.6919 34.597 73.6759 36.38 71.6109 37.527C70.7829 37.987 69.8629 38.169 68.9089 38.156ZM68.8379 27.525C68.5079 27.575 68.1759 27.61 67.8509 27.681C66.5449 27.968 65.6629 28.781 65.1909 30.019C64.7579 31.152 64.7049 32.336 64.9309 33.531C65.1539 34.717 65.6709 35.741 66.5609 36.559C67.0719 37.029 67.6619 37.339 68.3469 37.466C68.8199 37.554 69.2859 37.541 69.7609 37.47C70.8929 37.301 71.7759 36.75 72.3539 35.747C72.9989 34.627 73.1559 33.404 73.0509 32.127C72.9809 31.282 72.7509 30.487 72.3359 29.756C71.5629 28.396 70.4639 27.547 68.8369 27.524L68.8379 27.525ZM91.7739 27.08L91.5399 27.083C89.9049 27.069 88.2699 27.053 86.6339 27.04C86.4719 27.039 86.2959 27.007 86.2979 27.273C86.2989 27.513 86.4379 27.538 86.6219 27.533C86.6989 27.531 86.7759 27.548 86.8539 27.555C87.2249 27.588 87.4579 27.785 87.5239 28.16C87.5609 28.376 87.5999 28.595 87.5999 28.813C87.6059 31.276 87.6069 33.738 87.5999 36.201C87.5999 36.451 87.5499 36.702 87.4919 36.946C87.4219 37.247 87.1969 37.422 86.8909 37.452C86.7904 37.4643 86.689 37.4677 86.5879 37.462C86.3729 37.444 86.2909 37.539 86.2999 37.752C86.3079 37.96 86.4279 37.994 86.5969 37.99C87.4139 37.973 88.2309 37.958 89.0479 37.944C89.6009 37.936 90.1539 37.92 90.7069 37.926C91.8199 37.94 92.9319 37.967 94.0439 37.99C94.2169 37.994 94.2989 37.91 94.3139 37.737C94.3399 37.447 94.3739 37.157 94.4039 36.867C94.4599 36.366 94.5199 35.865 94.5699 35.364C94.5749 35.307 94.5419 35.214 94.4999 35.19C94.3349 35.099 94.1339 35.199 94.0779 35.388C94.0528 35.4709 94.0317 35.555 94.0149 35.64C93.8319 36.62 93.2449 37.047 92.4399 37.219C91.5779 37.401 90.7039 37.359 89.8319 37.333C89.3459 37.319 89.0699 37.058 88.9959 36.575C88.979 36.4658 88.97 36.3555 88.9689 36.245C88.9669 35.094 88.9689 33.941 88.9639 32.789C88.9639 32.62 89.0239 32.574 89.1819 32.576C89.6969 32.583 90.2109 32.566 90.7249 32.583C91.0249 32.595 91.3309 32.636 91.6249 32.7C92.0289 32.788 92.1339 33.124 92.1809 33.484C92.2009 33.64 92.2869 33.678 92.4229 33.671C92.5529 33.664 92.6549 33.629 92.6549 33.471C92.6549 32.617 92.6579 31.765 92.6479 30.913C92.6479 30.857 92.5629 30.765 92.5039 30.753C92.2519 30.695 92.2039 30.753 92.1799 31.027C92.1569 31.278 92.1269 31.545 91.8919 31.691C91.7369 31.787 91.5529 31.874 91.3779 31.884C90.6409 31.93 89.9019 31.942 89.1639 31.972C89.0019 31.979 88.9659 31.896 88.9659 31.755C88.9679 30.453 88.9679 29.15 88.9659 27.849C88.9659 27.714 89.0039 27.641 89.1509 27.643C90.0909 27.656 91.0389 27.576 91.9629 27.812C92.4899 27.946 92.9539 28.2 93.1359 28.778C93.2089 29.009 93.2639 29.246 93.3159 29.483C93.3409 29.599 93.3599 29.69 93.5109 29.695C93.7479 29.704 93.8009 29.665 93.7909 29.414C93.7569 28.666 93.7159 27.919 93.6769 27.171C93.6739 27.126 93.6549 27.082 93.6549 27.081H91.7739V27.08ZM80.4639 36.057C80.3289 35.714 80.1979 35.37 80.0599 35.029C79.6989 34.135 79.3329 33.243 78.9719 32.349C78.5719 31.361 78.1659 30.376 77.7809 29.383C77.6256 28.9984 77.5045 28.6009 77.4189 28.195C77.3579 27.884 77.5839 27.635 77.8989 27.578C78.0509 27.549 78.2069 27.542 78.3619 27.53C78.5909 27.512 78.5179 27.334 78.5259 27.206C78.5329 27.096 78.5129 27 78.3639 27.008C78.0769 27.022 77.7889 27.038 77.5019 27.038C76.5389 27.037 75.5749 27.045 74.6119 27.011C74.3419 27.001 74.3469 27.133 74.3209 27.312C74.2889 27.525 74.4239 27.535 74.5619 27.528C75.1129 27.502 75.4839 27.773 75.7089 28.256C75.9169 28.703 76.0989 29.162 76.2889 29.616C76.7259 30.658 77.1629 31.698 77.5939 32.741C78.3099 34.471 79.0269 36.202 79.7259 37.941C79.8069 38.143 79.9229 38.15 80.0809 38.148C80.2649 38.146 80.4429 38.181 80.5399 37.935C80.7649 37.359 81.0179 36.793 81.2619 36.225C81.7686 35.0438 82.2766 33.8631 82.7859 32.683C83.3899 31.288 83.9829 29.886 84.6049 28.5C84.8629 27.924 85.2479 27.473 85.9699 27.526C86.2119 27.544 86.1529 27.346 86.1609 27.206C86.1719 27.026 86.0769 27.018 85.9239 27.019C84.9929 27.029 84.0599 27.033 83.1289 27.016C82.9289 27.012 82.8899 27.073 82.8869 27.249C82.8819 27.443 82.9299 27.552 83.1469 27.531C83.2309 27.523 83.3169 27.543 83.4019 27.559C83.6879 27.615 83.8169 27.763 83.7819 28.052C83.7546 28.2704 83.7009 28.4846 83.6219 28.69C83.4289 29.194 83.2169 29.691 83.0109 30.19C82.6969 30.95 82.3829 31.71 82.0649 32.468C81.6709 33.408 81.2709 34.346 80.8719 35.284C80.7599 35.548 80.6409 35.808 80.5259 36.071L80.4639 36.054V36.057ZM52.2509 27.487C52.2509 27.347 52.2209 27.242 52.0559 27.221C51.2089 27.105 50.3659 26.943 49.5159 26.877C48.5879 26.805 47.7299 27.06 46.9989 27.675C45.6649 28.8 45.5389 30.977 47.1439 32.025C47.7399 32.413 48.4009 32.697 49.0309 33.033C49.5709 33.323 50.1409 33.573 50.6409 33.922C51.7629 34.704 51.7799 36.296 50.6679 37.091C49.7869 37.721 48.8119 37.769 47.8419 37.277C47.1239 36.913 46.6989 36.297 46.5469 35.505C46.5069 35.296 46.4239 35.222 46.2269 35.222C46.0029 35.222 46.0059 35.372 46.0099 35.529C46.0239 36.119 46.0429 36.709 46.0519 37.3C46.0589 37.806 46.0569 37.818 46.5439 37.912C47.6719 38.13 48.8039 38.268 49.9499 38.048C50.5353 37.9457 51.0855 37.6977 51.5499 37.327C52.0749 36.901 52.3869 36.345 52.5219 35.681C52.7149 34.743 52.6299 33.869 51.9809 33.111C51.4229 32.461 50.6709 32.121 49.9249 31.764C49.3089 31.47 48.6749 31.196 48.0999 30.832C47.0399 30.16 46.9119 28.736 47.8249 27.978C48.5539 27.372 49.4079 27.346 50.2569 27.625C51.1949 27.934 51.6059 28.687 51.6799 29.641C51.6979 29.883 51.8249 29.872 51.9879 29.877C52.1709 29.883 52.2599 29.826 52.2529 29.62C52.2399 29.274 52.2489 28.926 52.2489 28.578V27.488L52.2509 27.487ZM58.9099 30.906V27.993C58.9099 27.854 58.8999 27.709 59.1019 27.716C59.8319 27.741 60.5639 27.738 61.2909 27.802C61.7099 27.84 62.0649 28.092 62.2199 28.502C62.3499 28.849 62.4229 29.225 62.4679 29.596C62.5029 29.873 62.6649 29.842 62.8459 29.853C63.0559 29.867 63.0659 29.744 63.0639 29.585C63.0609 28.843 63.0639 28.102 63.0619 27.359C63.0619 27.003 63.0439 26.991 62.6879 27.007C61.9579 27.036 61.2259 27.083 60.4959 27.079C58.2219 27.065 55.9479 27.032 53.6749 27.007C53.3839 27.003 53.3719 27.009 53.3719 27.306C53.3719 28.071 53.3739 28.836 53.3709 29.603C53.3709 29.755 53.3789 29.877 53.5769 29.851C53.7309 29.831 53.9329 29.927 53.9469 29.632C53.9599 29.382 54.0009 29.13 54.0619 28.888C54.1939 28.362 54.4859 27.883 55.1999 27.798C55.8539 27.722 56.5189 27.735 57.1799 27.717C57.5249 27.707 57.5259 27.717 57.5259 28.064C57.5259 30.802 57.5259 33.541 57.5239 36.281C57.5239 36.446 57.5119 36.612 57.4889 36.775C57.4119 37.307 57.2329 37.459 56.6999 37.465C56.6229 37.465 56.5439 37.471 56.4669 37.465C56.2659 37.449 56.1819 37.539 56.1929 37.742C56.2029 37.975 56.2829 38.002 56.6089 37.989C57.3469 37.959 58.0859 37.948 58.8239 37.945C59.2289 37.943 59.6329 37.973 60.0369 37.993C60.2369 38.003 60.2369 37.869 60.2369 37.726C60.2369 37.586 60.2419 37.453 60.0359 37.463C59.8492 37.4719 59.6621 37.4676 59.4759 37.45C59.2479 37.427 59.0709 37.302 59.0169 37.074C58.9561 36.8379 58.9219 36.5957 58.9149 36.352C58.9049 34.987 58.9099 33.621 58.9099 32.256V30.906ZM33.9559 39.643C34.7731 39.6308 35.5852 39.5125 36.3719 39.291C37.0819 39.094 37.7519 38.821 38.3559 38.387C39.0619 37.88 39.2179 37.227 38.7929 36.483C38.4759 35.928 37.9699 35.582 37.4289 35.305C36.7109 34.938 35.9669 34.618 35.2259 34.296C34.8329 34.125 34.4409 33.846 33.9859 34.141C33.0409 34.242 32.1789 34.583 31.3819 35.091C30.7119 35.519 30.1219 36.038 29.7589 36.772C29.5239 37.247 29.4279 37.734 29.6889 38.236C29.9229 38.683 30.3119 38.946 30.7449 39.158C31.6069 39.578 32.5379 39.627 33.5439 39.688C33.6319 39.677 33.7939 39.645 33.9559 39.643ZM35.3089 27.625C35.1039 27.322 34.8089 27.106 34.4349 27.248C34.2076 27.3453 34.0099 27.5009 33.8619 27.699C33.4269 28.265 33.2989 28.948 33.2219 29.642C33.1515 30.1903 33.2132 30.7475 33.4019 31.267C33.5919 31.77 34.0219 32.084 34.4169 31.987C34.7589 31.904 35.0069 31.67 35.1969 31.384C35.6189 30.749 35.7679 30.035 35.7589 29.279C35.7529 28.687 35.6439 28.119 35.3089 27.625Z" fill="#F5F8FF"/>
</svg>
