<svg width="128" height="65" viewBox="0 0 128 65" fill="none" xmlns="http://www.w3.org/2000/svg">
<path d="M56.11 34.3191V26.7501C55.738 26.7501 55.37 26.7641 55.001 26.7411C54.901 26.7361 54.807 26.6211 54.711 26.5561C54.806 26.5061 54.901 26.4161 54.996 26.4141C55.895 26.4041 56.792 26.4071 57.748 26.4071V28.1371C57.779 28.1441 57.81 28.1511 57.839 28.1561L58.079 27.7411C58.999 26.2131 61.098 25.6841 62.629 26.5811C63.461 27.0671 63.707 27.8501 63.713 28.7431C63.727 30.4331 63.717 32.1221 63.717 33.8091V34.2931H65.065C65.186 34.5551 65.145 34.6761 64.863 34.6761C63.535 34.6711 62.208 34.6761 60.882 34.6671C60.794 34.6671 60.706 34.5571 60.617 34.4971C60.712 34.4331 60.804 34.3191 60.903 34.3121C61.271 34.2891 61.641 34.3031 62.033 34.3031C62.042 34.1211 62.054 33.9841 62.054 33.8481C62.054 32.0181 62.061 30.1901 62.05 28.3611C62.047 27.6911 61.986 26.9811 61.278 26.6891C60.46 26.3511 59.696 26.6351 59.046 27.1791C58.284 27.8151 57.864 28.6641 57.84 29.6551C57.802 31.1871 57.83 32.7191 57.83 34.2981H59.18C59.292 34.5801 59.209 34.6741 58.961 34.6741C57.634 34.6711 56.305 34.7091 54.981 34.6481C54.643 34.6321 54.384 34.7021 54.085 34.7901C53.157 35.0611 51.935 35.1031 51.415 33.5841C51.096 34.2591 50.603 34.7301 49.902 34.8131C49.255 34.8881 48.576 34.9001 47.94 34.7851C47.063 34.6251 46.646 34.0891 46.57 33.2321C46.496 32.4001 46.752 31.6801 47.525 31.3041C48.165 30.9921 48.863 30.7981 49.533 30.5511C49.637 30.5131 49.744 30.4831 49.846 30.4431C50.376 30.2271 51.023 30.1631 51.271 29.5431C51.57 28.7931 51.507 28.0111 51.286 27.2461C51.176 26.8661 50.915 26.6031 50.519 26.5801C50.126 26.5561 49.719 26.5561 49.338 26.6401C48.861 26.7451 48.688 27.0341 48.708 27.5331C48.721 27.8371 48.787 28.1421 48.797 28.4471C48.814 28.9211 48.574 29.1631 48.1 29.1841C47.449 29.2141 47.169 29.0101 47.129 28.4921C47.07 27.7221 47.392 27.1371 48 26.7081C49.015 25.9921 50.996 25.9751 52.03 26.6641C52.858 27.2161 53.086 28.0541 53.09 28.9881C53.1 30.5091 53.09 32.0311 53.094 33.5521C53.094 34.4421 53.468 34.6761 54.27 34.3171C54.4 34.2591 54.58 34.3171 54.735 34.3171H56.111L56.11 34.3191ZM51.406 30.2171C50.673 30.5321 50.031 30.8141 49.386 31.0851C48.19 31.5891 48.022 32.7921 48.405 33.7781C48.574 34.2141 48.942 34.4341 49.409 34.4621C50.405 34.5221 51.139 33.9281 51.267 32.8591C51.369 31.9941 51.364 31.1171 51.406 30.2171ZM87.593 34.3011C87.208 34.3011 86.85 34.3081 86.493 34.3001C86.229 34.2931 86.134 34.3821 86.259 34.6731C87.662 34.6731 89.071 34.6781 90.479 34.6621C90.563 34.6621 90.644 34.4981 90.727 34.4101L90.649 34.2931H89.279C89.279 32.8821 89.273 31.5141 89.282 30.1481C89.284 29.8301 89.299 29.5041 89.368 29.1941C89.647 27.9421 90.298 26.9941 91.584 26.6331C92.613 26.3431 93.303 26.7711 93.489 27.7811C93.51 27.8901 93.51 28.0041 93.51 28.1141C93.514 30.0821 93.515 32.0501 93.514 34.0181C93.514 34.1081 93.488 34.2001 93.47 34.3151H92.13C92.063 34.5611 92.096 34.6851 92.366 34.6781C92.877 34.6641 93.389 34.6741 93.901 34.6741H96.539C96.635 34.4201 96.608 34.2931 96.333 34.3001C95.965 34.3101 95.595 34.3031 95.18 34.3031V33.8081C95.177 32.0221 95.189 30.2341 95.161 28.4481C95.147 27.5771 94.756 26.9021 93.958 26.5001C92.678 25.8571 91.008 26.1181 90.008 27.1461C89.748 27.4121 89.539 27.7311 89.263 28.0821V20.8181H86.245C86.134 21.1301 86.248 21.2141 86.504 21.2051C86.86 21.1951 87.216 21.2021 87.59 21.2021V34.3031L87.593 34.3011ZM71.584 27.6481V21.2021C71.192 21.2021 70.822 21.2121 70.454 21.1931C70.364 21.1881 70.277 21.0831 70.189 21.0251C70.281 20.9571 70.372 20.8291 70.466 20.8271C71.376 20.8111 72.288 20.8181 73.249 20.8181V34.2961H74.645L74.723 34.4131C74.638 34.5011 74.555 34.6601 74.471 34.6621C73.548 34.6801 72.623 34.6721 71.655 34.6721V33.4001C71.585 33.4001 71.548 33.3931 71.542 33.4001C70.884 34.8391 69.465 35.2241 68.002 34.7201C66.522 34.2091 64.962 32.4561 65.122 30.1011C65.243 28.3311 66.55 26.6351 68.277 26.2351C69.608 25.9271 70.699 26.2391 71.434 27.4451C71.461 27.4891 71.496 27.5291 71.586 27.6481H71.584ZM66.969 30.4271C67.057 31.3391 67.088 32.1501 67.224 32.9411C67.389 33.8931 67.957 34.4431 68.737 34.5451C69.873 34.6921 70.656 34.3401 71.11 33.4421C71.259 33.1491 71.402 32.8241 71.43 32.5031C71.513 31.5491 71.577 30.5901 71.568 29.6321C71.563 28.9261 71.466 28.2141 71.084 27.5831C70.571 26.7381 69.794 26.4371 68.86 26.5281C67.96 26.6151 67.435 27.1881 67.273 28.0461C67.119 28.8621 67.058 29.6951 66.968 30.4261L66.969 30.4271ZM31.396 34.4921C31.557 34.4081 31.726 34.2721 31.889 34.2731C32.143 34.2771 32.406 34.3531 32.649 34.4431C33.959 34.9211 35.294 35.0861 36.679 34.8861C39.159 34.5291 40.951 31.9591 40.373 29.5151C40.081 28.2791 39.222 27.5501 38.074 27.1441C37.269 26.8591 36.442 26.6331 35.644 26.3321C34.848 26.0321 34.017 25.7621 33.304 25.3141C32.231 24.6391 32.084 23.1291 32.845 22.1071C33.794 20.8321 36.501 20.4051 37.872 22.1841C38.33 22.7791 38.61 23.4521 38.764 24.1841C38.831 24.5021 38.84 24.4981 39.154 24.4461V20.9391C38.989 21.0061 38.809 21.0181 38.75 21.1091C38.525 21.4661 38.232 21.4311 37.915 21.3121C37.671 21.2191 37.436 21.1001 37.196 20.9971C35.516 20.2761 33.561 20.6501 32.34 21.9251C30.58 23.7671 31.073 26.6381 33.357 27.7051C34.003 28.0071 34.705 28.1871 35.377 28.4331C36.114 28.7031 36.892 28.8981 37.575 29.2711C39.732 30.4501 39.039 33.3661 37.578 34.1631C36.664 34.6621 35.706 34.6691 34.718 34.5641C33.547 34.4411 32.643 33.8711 32.105 32.8241C31.766 32.1641 31.565 31.4321 31.293 30.7371C31.253 30.6351 31.173 30.5511 31.111 30.4601C31.059 30.5691 30.961 30.6751 30.961 30.7861C30.951 32.0561 30.954 33.3241 30.954 34.7661C31.16 34.6381 31.274 34.5571 31.396 34.4941V34.4921ZM45.568 34.1141C45.251 34.5621 44.762 34.6481 44.265 34.5271C43.798 34.4151 43.649 34.0021 43.568 33.5781C43.5316 33.3577 43.5158 33.1344 43.521 32.9111C43.518 30.9991 43.519 29.0871 43.521 27.1751C43.521 27.0421 43.538 26.9091 43.551 26.7501C44.334 26.7501 45.077 26.7521 45.822 26.7501C46.114 26.7501 46.114 26.7411 46.078 26.3981H43.51V23.9561L41.842 24.0891V26.4171H40.424C40.431 26.5351 40.428 26.6611 40.44 26.6621C40.893 26.7151 41.349 26.7571 41.843 26.8021V27.2951C41.843 29.1081 41.838 30.9241 41.843 32.7381C41.847 33.9761 42.378 34.6711 43.46 34.8671C43.69 34.9091 43.926 34.9161 44.162 34.9331C45.401 35.0251 46.208 34.3711 46.417 33.0931C46.326 33.0581 46.229 33.0231 46.182 33.0061C45.966 33.4031 45.802 33.7861 45.567 34.1191L45.568 34.1141ZM83.828 26.2111C83.6389 26.1721 83.447 26.1481 83.254 26.1391C81.876 26.0491 80.716 26.8951 80.462 28.2261C80.219 29.5021 80.71 30.5811 82.17 31.0411C82.851 31.2571 83.529 31.5071 84.174 31.8171C84.815 32.1251 85.017 32.7241 84.843 33.4821C84.694 34.1261 84.223 34.5151 83.543 34.5611C82.381 34.6361 81.55 34.1041 80.998 33.1061C80.818 32.7801 80.715 32.4121 80.566 32.0691C80.538 32.0061 80.461 31.9311 80.404 31.9291C80.352 31.9271 80.251 32.0171 80.25 32.0671C80.24 32.9251 80.243 33.7851 80.243 34.6741C80.383 34.6511 80.497 34.6671 80.533 34.6221C80.789 34.2921 81.093 34.4021 81.401 34.4991C81.769 34.6151 82.132 34.7551 82.507 34.8371C83.434 35.0421 84.319 34.9331 85.123 34.3891C86.71 33.3121 86.63 31.1311 84.962 30.2081C84.698 30.0631 84.409 29.9611 84.125 29.8511C83.406 29.5721 82.673 29.3271 81.965 29.0231C81.073 28.6361 81.183 27.5131 81.675 27.0131C82.423 26.2551 83.945 26.3671 84.528 27.2581C84.76 27.6131 84.891 28.0351 85.085 28.4181C85.14 28.5311 85.252 28.6131 85.339 28.7081L85.437 28.6321V26.3471C84.825 26.7241 84.345 26.3251 83.825 26.2111H83.828ZM78.25 26.4331H75.192C75.192 26.5281 75.185 26.6531 75.192 26.6561C75.642 26.7101 76.098 26.7541 76.569 26.7991V34.3031C76.177 34.3031 75.807 34.3101 75.437 34.3011C75.169 34.2941 75.133 34.4221 75.223 34.6741C76.637 34.6741 78.06 34.6781 79.48 34.6661C79.551 34.6661 79.622 34.5481 79.693 34.4871C79.623 34.4261 79.553 34.3151 79.48 34.3121C79.095 34.2941 78.708 34.3031 78.25 34.3031V26.4331ZM72.457 39.1701L72.017 43.5041H72.72C72.815 42.6241 72.91 41.7641 73.014 40.8161L74.44 42.9281L75.866 40.8321C75.966 41.7881 76.056 42.6411 76.148 43.4981H76.893C76.743 42.0261 76.593 40.5851 76.445 39.1461L76.336 39.1281C75.716 40.0251 75.095 40.9191 74.462 41.8321L72.572 39.1341C72.5335 39.1462 72.4952 39.1589 72.457 39.1721V39.1701ZM35.179 40.8301L35.461 43.4951H36.207C36.055 42.0211 35.907 40.5821 35.757 39.1411C35.7221 39.1356 35.6871 39.1309 35.652 39.1271C35.034 40.0171 34.415 40.9111 33.777 41.8281L31.877 39.1201C31.8428 39.1286 31.8088 39.138 31.775 39.1481L31.332 43.5001H32.038C32.135 42.6181 32.228 41.7601 32.33 40.8131L33.032 41.8631C33.256 42.1961 33.485 42.5251 33.758 42.9281L35.177 40.8321L35.179 40.8301ZM59.749 39.3961C59.2511 39.6436 58.8654 40.0705 58.6695 40.5909C58.4736 41.1114 58.482 41.6866 58.693 42.2011C59.152 43.3311 60.591 43.8981 61.897 43.4671C62.83 43.1591 63.433 42.2071 63.233 41.3571H61.095V41.9331H62.469C62.275 42.6111 61.786 42.9471 61.039 42.9661C60.244 42.9861 59.629 42.5811 59.394 41.8881C59.164 41.2081 59.369 40.4311 59.957 40.0761C60.261 39.8921 60.645 39.7901 61.003 39.7561C61.539 39.7081 61.974 39.9921 62.325 40.3981C62.519 40.2631 62.687 40.1491 62.853 40.0351C62.299 39.1181 60.852 38.8321 59.749 39.3961ZM89.007 42.0861C87.979 41.0601 86.998 40.0841 85.944 39.0341V43.5001H86.611V40.6271L89.669 43.6741V39.1901H89.009V42.0861L89.007 42.0841V42.0861ZM45.784 39.1601V43.4951H46.482V40.7001L46.679 40.5461C47.622 41.5491 48.564 42.5501 49.504 43.5521V39.1961H48.845V42.0301C48.8137 42.0535 48.782 42.0765 48.75 42.0991L45.893 39.0991L45.786 39.1591L45.784 39.1601ZM66.861 39.7761H69.039V39.2021H66.111V43.5021H69.159V42.9191H66.866V42.0641H68.797V41.4681H66.861V39.7761ZM79.92 43.4961H82.945V42.9081H80.672V42.0581H82.599V41.4551H80.672V39.7781H82.872V39.1931H79.922V43.4971L79.92 43.4961ZM43.025 43.4931C42.564 43.5531 42.175 43.6321 42.043 43.0851C42.026 43.0131 41.855 42.9361 41.755 42.9351C41.2025 42.9211 40.6496 42.9211 40.097 42.9351C39.997 42.9361 39.829 43.0081 39.81 43.0801C39.678 43.5751 39.336 43.5751 38.883 43.4901C39.553 42.0191 40.218 40.5681 40.926 39.0151C41.653 40.5651 42.326 42.0051 43.025 43.4931ZM40.135 42.3221H41.701L40.914 40.4751C40.638 41.1281 40.395 41.7091 40.135 42.3221ZM56.415 43.4931C55.965 43.5581 55.566 43.6321 55.43 43.0711C55.414 43.0071 55.264 42.9351 55.176 42.9331C54.6101 42.92 54.044 42.92 53.478 42.9331C53.38 42.9361 53.215 43.0171 53.196 43.0941C53.065 43.6041 52.709 43.5721 52.278 43.4901L54.324 39.0131C55.053 40.5751 55.731 42.0241 56.419 43.4911L56.415 43.4931ZM54.31 40.4761L53.528 42.3181H55.096L54.31 40.4761ZM94.266 39.7731H95.6V39.1971H92.112V39.7901H93.495V43.5071H94.265L94.266 39.7731ZM77.403 20.9621C76.817 20.9601 76.384 21.3941 76.381 21.9881C76.379 22.5691 76.831 23.0401 77.394 23.0441C77.956 23.0471 78.407 22.5811 78.41 21.9981C78.412 21.3981 77.99 20.9651 77.403 20.9641V20.9621Z" fill="#F5F8FF"/>
</svg>
