<svg width="130" height="65" viewBox="0 0 130 65" fill="none" xmlns="http://www.w3.org/2000/svg">
<path fill-rule="evenodd" clip-rule="evenodd" d="M85.087 31.134C84.442 31.134 83.885 30.994 83.417 30.714C82.9509 30.433 82.5758 30.0232 82.337 29.534C82.086 29.03 81.96 28.444 81.96 27.774C81.96 27.105 82.086 26.518 82.337 26.014C82.576 25.5252 82.951 25.1158 83.417 24.835C83.885 24.555 84.442 24.415 85.087 24.415C85.733 24.415 86.288 24.555 86.754 24.835C87.223 25.116 87.583 25.509 87.834 26.014C88.0881 26.518 88.214 27.105 88.214 27.774C88.214 28.444 88.0881 29.03 87.834 29.534C87.583 30.04 87.223 30.432 86.754 30.714C86.288 30.994 85.732 31.134 85.087 31.134ZM85.087 29.987C85.497 29.993 85.8371 29.905 86.1091 29.723C86.3871 29.5334 86.6 29.2628 86.719 28.948C86.856 28.614 86.924 28.222 86.924 27.774C86.924 27.326 86.856 26.938 86.718 26.609C86.5972 26.2977 86.3845 26.0305 86.108 25.843C85.838 25.661 85.497 25.567 85.088 25.561C84.678 25.555 84.338 25.643 84.066 25.826C83.794 26.008 83.59 26.266 83.452 26.6C83.318 26.935 83.251 27.326 83.251 27.774C83.251 28.222 83.318 28.611 83.452 28.939C83.59 29.268 83.794 29.523 84.066 29.705C84.338 29.887 84.677 29.981 85.087 29.987ZM90.988 24.549L92.878 30.999H94.079L95.329 26.645L96.579 31H97.779L99.67 24.549H98.39L97.18 28.984L95.9701 24.549L94.69 24.558L93.48 28.984L92.27 24.549H90.988ZM103.077 30.999V24.549H107.289V25.687H104.296V27.067H106.751V28.204H104.296V29.862H107.289V31L103.077 30.999ZM111.05 30.999V24.549H113.774C113.837 24.549 113.921 24.552 114.025 24.558C114.133 24.561 114.228 24.57 114.312 24.585C114.697 24.645 115.012 24.771 115.257 24.965C115.505 25.159 115.687 25.405 115.804 25.7C115.92 25.993 115.978 26.32 115.978 26.681C115.978 27.221 115.844 27.685 115.575 28.07C115.409 28.306 115.185 28.486 114.903 28.61L116.068 31H114.688L113.629 28.814H112.269V31L111.05 30.999ZM112.269 27.676H113.72C113.783 27.676 113.852 27.673 113.926 27.666C114.001 27.661 114.07 27.649 114.133 27.631C114.28 27.5968 114.412 27.5187 114.513 27.407C114.6 27.3044 114.663 27.1834 114.697 27.053C114.732 26.932 114.75 26.8069 114.751 26.681C114.751 26.565 114.733 26.442 114.697 26.314C114.665 26.1832 114.601 26.0619 114.513 25.96C114.413 25.8458 114.281 25.7657 114.133 25.731C114.065 25.7126 113.996 25.7009 113.926 25.696C113.858 25.69 113.789 25.6867 113.72 25.686H112.269V27.676ZM75.659 25.686V31H76.877V25.687H78.911V24.549H73.6241V25.687H75.658L75.659 25.686ZM67.6091 31V24.549H68.827V29.862H71.605V31H67.6091ZM60.073 24.549V30.999H64.069V29.862H61.292V24.549H60.073ZM52.011 30.999V24.549H56.221V25.687H53.23V27.067H55.685V28.204H53.23V29.862H56.223V31H52.01L52.011 30.999ZM43.618 24.549V30.999H46.476C46.915 30.999 47.279 30.918 47.569 30.754C47.859 30.586 48.074 30.356 48.214 30.064C48.357 29.771 48.429 29.432 48.429 29.047C48.429 28.688 48.327 28.364 48.124 28.074C47.9763 27.8619 47.7684 27.6988 47.527 27.606C47.669 27.519 47.789 27.404 47.887 27.259C48.051 27.02 48.133 26.72 48.133 26.359C48.133 26.075 48.068 25.794 47.936 25.516C47.7987 25.2315 47.5829 24.9921 47.314 24.826C47.03 24.641 46.658 24.549 46.198 24.549H43.618ZM46.35 29.853H44.854V28.204H46.35C46.538 28.204 46.695 28.24 46.82 28.312C46.9427 28.3742 47.0433 28.4727 47.108 28.594C47.17 28.714 47.202 28.85 47.202 29.002C47.2057 29.16 47.1671 29.3161 47.09 29.454C47.0194 29.5786 46.9156 29.6811 46.79 29.75C46.6543 29.8206 46.503 29.856 46.35 29.853ZM46.18 27.066H44.854V25.686H46.18C46.413 25.686 46.59 25.754 46.713 25.888C46.8362 26.0237 46.9022 26.2018 46.897 26.385C46.9028 26.5213 46.8702 26.6564 46.803 26.775C46.7419 26.8725 46.6526 26.9492 46.547 26.995C46.4311 27.0442 46.306 27.0684 46.18 27.066ZM75.84 39.756C76.159 39.944 76.539 40.037 76.98 40.037C77.266 40.037 77.55 40.005 77.8321 39.939C78.118 39.869 78.385 39.749 78.634 39.579V37.644H76.924V38.39H77.797V39.087C77.674 39.167 77.543 39.223 77.4021 39.256C77.2621 39.289 77.121 39.306 76.98 39.306C76.618 39.306 76.325 39.174 76.1 38.911C75.875 38.648 75.7621 38.249 75.7621 37.714C75.7621 37.358 75.8181 37.074 75.931 36.862C76.0302 36.6651 76.1872 36.5031 76.381 36.398C76.569 36.299 76.771 36.25 76.987 36.25C77.3215 36.2422 77.6471 36.3575 77.9021 36.574C77.9378 36.6171 77.9687 36.6641 77.994 36.714C78.0079 36.7476 78.0147 36.7837 78.014 36.82L78.071 36.87L78.113 36.82L78.62 36.271C78.4493 36.0178 78.2065 35.8217 77.923 35.708C77.623 35.572 77.303 35.504 76.966 35.504C76.811 35.504 76.64 35.524 76.452 35.567C76.2556 35.6077 76.066 35.6764 75.889 35.771C75.693 35.8762 75.5167 36.0146 75.368 36.18C75.213 36.348 75.088 36.567 74.994 36.834C74.901 37.097 74.854 37.414 74.854 37.784C74.854 38.235 74.938 38.629 75.107 38.967C75.281 39.305 75.526 39.568 75.84 39.756ZM87.9851 39.446C88.328 39.845 88.815 40.044 89.449 40.044C90.079 40.044 90.561 39.845 90.899 39.446C91.242 39.047 91.413 38.489 91.413 37.771C91.413 37.066 91.243 36.515 90.899 36.116C90.561 35.712 90.079 35.511 89.449 35.511C88.816 35.511 88.328 35.712 87.9851 36.116C87.647 36.515 87.478 37.066 87.478 37.77C87.478 38.489 87.647 39.047 87.9851 39.446ZM90.224 38.926C90.041 39.178 89.782 39.306 89.449 39.306C89.107 39.306 88.844 39.178 88.661 38.926C88.478 38.672 88.3861 38.284 88.3861 37.763C88.3861 37.275 88.478 36.9 88.661 36.637C88.844 36.374 89.107 36.243 89.449 36.243C89.782 36.243 90.041 36.374 90.224 36.637C90.411 36.9 90.505 37.275 90.505 37.764C90.505 38.284 90.411 38.673 90.224 38.926ZM95.768 40.052C95.191 40.052 94.745 39.904 94.431 39.608C94.121 39.312 93.966 38.899 93.966 38.369V35.574H94.938V35.644C94.9151 35.6708 94.898 35.7022 94.8881 35.736C94.884 35.769 94.881 35.826 94.881 35.905V38.376C94.881 38.667 94.949 38.897 95.085 39.066C95.226 39.235 95.4561 39.319 95.7751 39.319C96.1091 39.319 96.343 39.235 96.479 39.066C96.62 38.892 96.691 38.656 96.691 38.355V35.575H97.591V38.348C97.591 38.738 97.514 39.058 97.3591 39.312C97.2051 39.562 96.989 39.747 96.712 39.869C96.4139 39.9963 96.0921 40.0587 95.768 40.052ZM100.391 39.96V35.574H102.242C102.632 35.574 102.953 35.633 103.207 35.75C103.465 35.867 103.655 36.025 103.777 36.222C103.904 36.419 103.967 36.637 103.967 36.876C103.967 37.247 103.819 37.555 103.524 37.799C103.228 38.043 102.815 38.165 102.285 38.165H101.32V39.96H100.391ZM101.32 37.419H102.214C102.477 37.419 102.679 37.369 102.82 37.271C102.886 37.2288 102.94 37.1702 102.977 37.1011C103.014 37.0319 103.033 36.9544 103.031 36.876C103.032 36.798 103.013 36.721 102.974 36.653C102.936 36.585 102.88 36.5284 102.813 36.489C102.672 36.391 102.477 36.341 102.228 36.341H101.32V37.419ZM81.363 39.96V35.574H83.1511C83.7331 35.574 84.167 35.694 84.454 35.934C84.744 36.172 84.89 36.487 84.89 36.876C84.89 37.149 84.796 37.398 84.608 37.623C84.425 37.848 84.181 38.003 83.876 38.087L85.031 39.96H84.045L82.954 38.179H82.292V39.96H81.363ZM82.293 37.433H83.2C83.454 37.433 83.642 37.386 83.764 37.292C83.825 37.2465 83.8741 37.1868 83.9072 37.1183C83.9403 37.0497 83.9563 36.9741 83.954 36.898C83.9545 36.8221 83.9376 36.7471 83.9046 36.6786C83.8717 36.6102 83.8236 36.5501 83.764 36.503C83.642 36.395 83.449 36.342 83.186 36.342H82.292V37.432L82.293 37.433ZM62.334 39.96V35.574H63.7C64.16 35.574 64.517 35.628 64.77 35.736C65.028 35.844 65.244 35.994 65.418 36.186C65.596 36.384 65.737 36.618 65.84 36.891C65.943 37.158 65.995 37.461 65.995 37.799C65.985 38.245 65.896 38.629 65.727 38.953C65.5589 39.2806 65.2866 39.543 64.953 39.699C64.606 39.873 64.153 39.96 63.594 39.96H62.334ZM63.235 39.242H63.573C63.949 39.242 64.247 39.181 64.467 39.059C64.693 38.937 64.854 38.77 64.953 38.559C65.052 38.343 65.101 38.092 65.101 37.806C65.101 37.506 65.054 37.243 64.96 37.017C64.87 36.787 64.72 36.611 64.51 36.489C64.303 36.363 64.021 36.299 63.665 36.299H63.235V39.242ZM56.916 35.574H55.966V39.96H56.796V36.947L58.711 39.96H59.563V35.905C59.563 35.825 59.5651 35.769 59.57 35.736C59.58 35.7022 59.5971 35.6708 59.62 35.644V35.574H58.725L58.768 38.411L56.916 35.574ZM51.435 40.052C50.857 40.052 50.412 39.904 50.097 39.608C49.787 39.312 49.632 38.899 49.632 38.369V35.574H50.604V35.644C50.5811 35.6708 50.564 35.7022 50.554 35.736C50.55 35.769 50.548 35.826 50.548 35.905V38.376C50.548 38.667 50.616 38.897 50.752 39.066C50.892 39.235 51.122 39.319 51.442 39.319C51.775 39.319 52.01 39.235 52.146 39.066C52.286 38.892 52.356 38.656 52.356 38.355V35.575H53.258V38.348C53.258 38.738 53.18 39.058 53.026 39.312C52.871 39.562 52.655 39.747 52.378 39.869C52.0802 39.9961 51.7588 40.0585 51.435 40.052ZM43.525 35.574V39.96H44.348V37.96H46.383V37.236H44.348V36.299H46.848V35.574H43.525Z" fill="#F5F8FF"/>
<path d="M31.185 28.369C31.197 28.4 31.225 28.398 31.25 28.395C31.325 28.385 31.391 28.422 31.454 28.454C31.584 28.439 31.695 28.529 31.823 28.527C31.946 28.605 32.1 28.6 32.232 28.649C32.356 28.63 32.453 28.732 32.575 28.719C32.66 28.717 32.738 28.767 32.818 28.781C32.996 28.765 33.153 28.874 33.331 28.843C33.376 28.838 33.407 28.8 33.424 28.763C33.612 28.429 33.819 28.064 34.202 27.933C34.2572 27.9201 34.3145 27.9187 34.3703 27.9291C34.4261 27.9394 34.4791 27.9612 34.526 27.993C34.538 28.005 34.565 28.004 34.584 28.01C34.669 28.026 34.704 28.095 34.796 28.075C34.847 28.075 34.896 28.074 34.938 28.117C35.008 28.157 35.108 28.132 35.188 28.137C35.258 28.122 35.281 28.203 35.345 28.206H35.732C35.678 28.135 35.634 28.134 35.561 28.138C35.319 28.14 35.087 28.06 34.856 28.01C34.685 27.966 34.528 27.887 34.363 27.821C34.316 27.803 34.313 27.77 34.314 27.731C34.326 27.754 34.35 27.748 34.37 27.753C34.437 27.764 34.469 27.836 34.54 27.82C34.606 27.808 34.628 27.888 34.697 27.878C34.806 27.862 34.879 27.966 34.987 27.948C35.076 27.926 35.127 28.01 35.214 28.009C35.334 28.026 35.469 27.977 35.578 28.041C35.621 28.075 35.672 28.077 35.724 28.076H35.981C36.015 28.184 35.877 28.165 35.811 28.194C35.857 28.217 35.934 28.187 35.963 28.228C35.996 28.308 35.984 28.333 35.903 28.332C35.833 28.332 35.759 28.348 35.69 28.31C35.605 28.292 35.515 28.316 35.429 28.274C35.358 28.2466 35.2821 28.234 35.206 28.237C35.058 28.259 34.943 28.127 34.806 28.145C34.756 28.185 34.837 28.242 34.869 28.261C34.999 28.317 35.043 28.449 35.134 28.542C35.335 28.692 35.494 29.068 35.79 28.954C35.8431 28.934 35.9019 28.9354 35.954 28.958C35.91 29.078 35.784 29.014 35.696 29.048C35.666 29.096 35.72 29.118 35.716 29.154C35.791 29.193 36.044 29.121 35.977 29.268C35.852 29.335 35.921 29.381 36 29.445C36.053 29.5 36.05 29.52 35.985 29.579C35.902 29.582 35.816 29.498 35.774 29.419C35.551 29.163 35.312 28.929 35.094 28.669C35.0507 28.6053 34.9927 28.5528 34.925 28.516C34.814 28.433 34.718 28.316 34.603 28.236C34.417 28.095 34.15 28.032 33.973 28.228C33.967 28.637 34.04 29.056 34.204 29.438C34.32 29.733 34.599 29.918 34.744 30.196C34.816 30.262 34.918 30.497 34.742 30.483C34.492 30.423 34.296 30.27 34.129 30.076C33.983 29.958 33.802 30.134 33.723 30.283C33.627 30.463 33.583 30.673 33.557 30.873C33.57 31.082 33.36 31.135 33.226 31.233C32.463 31.641 31.696 32.043 30.909 32.405C30.802 32.442 30.696 32.485 30.593 32.532C30.496 32.574 30.386 32.571 30.294 32.632C30.254 32.65 30.183 32.635 30.14 32.61C30.068 32.81 30.2 32.955 30.182 33.149C30.174 33.252 30.205 33.349 30.232 33.446C30.257 33.574 30.235 33.71 30.281 33.835C30.313 34.05 30.303 34.219 30.388 34.435L30.473 34.313C30.641 34.385 30.773 34.461 30.936 34.53C31.095 34.563 31.406 34.719 31.529 34.585C31.513 34.396 31.741 34.319 31.894 34.312C31.969 34.325 32.031 34.278 32.107 34.282C32.432 34.212 32.774 34.257 33.111 34.245C33.744 34.141 34.412 34.304 35.04 34.165C35.003 34.1 34.926 34.105 34.869 34.066C34.751 34.024 34.666 33.872 34.827 33.822C34.879 33.806 34.878 33.75 34.881 33.702C34.93 33.568 35.099 33.678 35.196 33.694C35.231 33.64 35.156 33.544 35.13 33.483C35.08 33.389 35.005 33.276 35.051 33.162C35.116 33.152 35.171 33.167 35.199 33.229C35.22 33.273 35.256 33.269 35.293 33.27C35.27 33.296 35.257 33.37 35.319 33.348C35.306 33.307 35.293 33.266 35.259 33.239C35.172 33.095 35.105 32.941 35.033 32.789C35.001 32.677 34.896 32.473 35.044 32.416C35.0734 32.4111 35.1036 32.4148 35.1309 32.4267C35.1583 32.4386 35.1816 32.4582 35.198 32.483C35.256 32.543 35.285 32.663 35.364 32.693C35.403 32.67 35.389 32.603 35.391 32.565C35.404 32.4 35.362 32.228 35.416 32.069C35.448 31.905 35.386 31.721 35.446 31.562C35.458 31.542 35.454 31.512 35.455 31.486C35.449 31.369 35.61 31.206 35.699 31.336C35.839 31.711 35.737 32.131 35.791 32.519C35.843 32.519 35.834 32.469 35.857 32.448C36.041 32.239 36.057 32.436 36.032 32.623C36.022 32.696 35.979 32.765 35.953 32.835C35.912 32.913 35.969 32.941 36.036 32.985C36.036 33.05 36.038 33.118 36.035 33.185C36.035 35.795 36.037 38.463 36.036 41.093C36.065 41.266 35.898 41.337 35.83 41.47C35.821 41.496 35.791 41.514 35.77 41.536C35.706 41.603 35.638 41.666 35.586 41.746C35.487 41.883 35.326 41.971 35.243 42.123C35.236 42.138 35.223 42.155 35.209 42.16C35.137 42.184 35.123 42.272 35.051 42.298C34.9874 42.3871 34.9094 42.4649 34.82 42.528C34.675 42.624 34.59 42.794 34.433 42.878C33.98 43.284 33.493 43.678 32.982 44.021C32.882 44.051 32.64 44.364 32.594 44.171C32.583 44.0744 32.5475 43.9822 32.491 43.903C32.398 43.806 32.562 43.739 32.517 43.647C32.491 43.607 32.462 43.568 32.406 43.571C32.368 43.573 32.331 43.569 32.295 43.591C32.145 43.654 32.074 43.484 31.919 43.651C31.861 43.738 31.713 43.711 31.727 43.594C31.7278 43.4512 31.7044 43.3092 31.658 43.174C31.651 43.159 31.648 43.137 31.638 43.13C31.537 43.053 31.448 42.961 31.333 42.904C31.2313 42.8086 31.1219 42.7216 31.006 42.644C30.894 42.575 30.813 42.469 30.699 42.401C30.659 42.371 30.634 42.321 30.58 42.307C30.52 42.264 30.471 42.201 30.402 42.167C30.277 42.095 30.189 41.974 30.066 41.897C29.936 41.841 29.596 41.422 29.679 41.817C29.726 41.927 29.674 42.044 29.726 42.154C29.746 42.288 29.717 42.441 29.736 42.575C29.785 42.663 29.751 42.761 29.766 42.852C29.814 42.962 29.789 43.079 29.795 43.192C29.78 43.297 29.83 43.389 29.829 43.494C29.829 43.536 29.828 43.578 29.85 43.618C29.877 43.731 29.854 43.858 29.862 43.975C29.862 44.03 29.854 44.085 29.884 44.138C29.904 44.209 29.874 44.292 29.914 44.363C29.949 44.53 29.881 44.718 29.951 44.881C29.982 44.967 29.932 45.082 29.982 45.17C29.99 45.183 29.988 45.203 29.988 45.22C29.969 45.32 30.041 45.65 29.93 45.642C29.891 45.62 29.86 45.592 29.862 45.542C29.875 45.413 29.847 45.302 29.829 45.176C29.819 45.053 29.852 44.926 29.806 44.809C29.792 44.781 29.797 44.742 29.796 44.709C29.811 44.594 29.762 44.495 29.763 44.381C29.757 44.28 29.782 44.176 29.734 44.078C29.722 43.975 29.741 43.868 29.708 43.762C29.678 43.645 29.726 43.514 29.68 43.396C29.646 43.292 29.7 43.171 29.642 43.071C29.629 43.052 29.633 43.021 29.633 42.996C29.6329 42.767 29.6148 42.5383 29.579 42.312C29.55 42.187 29.611 42.043 29.538 41.925C29.555 41.792 29.508 41.665 29.504 41.533C29.534 41.237 29.834 41.563 29.947 41.647C30.06 41.754 30.193 41.837 30.32 41.927C30.521 42.117 30.755 42.274 30.974 42.445C31.048 42.5 31.109 42.572 31.194 42.614C31.278 42.682 31.427 42.847 31.4 42.611C31.375 42.526 31.362 42.424 31.318 42.348C31.261 42.311 31.249 42.234 31.182 42.203C31.09 42.129 30.987 42.053 30.903 41.963C30.5491 41.6431 30.191 41.3278 29.829 41.017C29.763 40.911 29.481 40.84 29.623 40.707C29.765 40.792 29.85 40.934 29.99 41.025C30.118 41.105 30.19 41.267 30.331 41.329C30.539 41.536 30.768 41.726 31 41.906C31.085 41.991 31.377 42.32 31.299 41.99C31.239 41.611 31.267 41.733 31.01 41.454C30.793 41.297 30.617 41.084 30.417 40.901C30.202 40.748 30.04 40.535 29.829 40.375C29.761 40.283 29.639 40.246 29.585 40.141C29.513 40.115 29.539 40.063 29.545 40.004C29.804 40.15 30.005 40.404 30.224 40.608C30.291 40.699 30.396 40.745 30.474 40.825C30.664 41.022 30.861 41.207 31.066 41.387C31.163 41.501 31.243 41.511 31.212 41.324C31.2127 41.2754 31.2033 41.2272 31.1844 41.1825C31.1654 41.1377 31.1374 41.0974 31.102 41.064C30.699 40.644 30.262 40.265 29.855 39.854C29.8232 39.8199 29.7869 39.7903 29.747 39.766C29.691 39.723 29.657 39.62 29.584 39.594C29.455 39.546 29.443 39.325 29.596 39.467C29.753 39.633 29.932 39.774 30.096 39.933C30.153 40.001 30.232 40.05 30.267 40.137C30.307 40.185 30.37 40.213 30.414 40.257C30.451 40.29 30.457 40.353 30.516 40.364C30.586 40.46 30.693 40.518 30.77 40.608C30.839 40.663 31.09 40.991 31.132 40.898C31.14 40.881 31.149 40.854 31.142 40.838C31.099 40.71 31.128 40.565 31.014 40.464C30.683 40.128 30.334 39.81 29.999 39.484C29.948 39.439 29.91 39.379 29.843 39.354C29.8273 39.3467 29.8149 39.3339 29.808 39.318C29.795 39.276 29.758 39.265 29.728 39.243C29.697 39.203 29.672 39.156 29.634 39.124C29.559 39.101 29.329 38.831 29.532 38.894C30.002 39.322 30.449 39.777 30.904 40.23C31.136 40.465 31.042 39.997 30.94 39.908C30.44 39.408 29.938 38.908 29.436 38.423C29.41 38.401 29.371 38.346 29.412 38.317C29.489 38.267 29.649 38.519 29.726 38.567C30.13 38.952 30.504 39.376 30.913 39.754C31.01 39.797 30.939 39.638 30.957 39.594C30.974 39.404 30.853 39.244 30.709 39.126C30.639 39.074 30.603 38.988 30.529 38.94C30.469 38.888 30.399 38.845 30.368 38.764C30.318 38.702 30.242 38.658 30.182 38.601C30.029 38.457 29.868 38.307 29.734 38.145C29.708 38.069 29.631 38.051 29.58 38C29.529 37.926 29.448 37.882 29.392 37.814C29.366 37.77 29.32 37.702 29.386 37.673C29.5 37.702 29.553 37.845 29.65 37.913C29.895 38.164 30.157 38.411 30.381 38.667C30.496 38.81 30.647 38.934 30.773 39.07C30.803 39.106 30.873 39.124 30.884 39.07C30.894 38.954 30.844 38.83 30.789 38.725C30.749 38.65 30.666 38.624 30.637 38.547C30.587 38.509 30.524 38.488 30.499 38.422C30.439 38.326 30.331 38.272 30.253 38.19C30.178 38.126 30.145 38.01 30.043 37.976C29.99 37.956 29.997 37.896 29.96 37.868C29.926 37.844 29.876 37.842 29.864 37.792C29.839 37.711 29.721 37.71 29.693 37.628C29.677 37.539 29.123 37.134 29.392 37.151C29.572 37.312 29.745 37.494 29.9 37.681C30.094 37.861 30.283 38.053 30.454 38.256C30.553 38.353 30.644 38.486 30.767 38.547C30.791 38.478 30.803 38.401 30.781 38.349C30.741 38.259 30.785 38.164 30.725 38.081C30.273 37.535 29.705 37.099 29.251 36.553L29.31 36.493C29.394 36.562 29.5 36.598 29.544 36.705C29.802 36.963 30.05 37.231 30.298 37.497C30.35 37.559 30.412 37.612 30.47 37.67C30.527 37.705 30.658 37.927 30.693 37.806C30.715 37.704 30.659 37.619 30.663 37.518C30.651 37.362 30.525 37.237 30.409 37.138C30.078 36.863 29.793 36.53 29.482 36.23C29.398 36.144 29.321 36.052 29.242 35.96C29.21 35.923 29.212 35.921 29.259 35.862C29.693 36.242 30.071 36.691 30.477 37.098C30.707 37.298 30.577 36.791 30.457 36.723C30.16 36.418 29.843 36.136 29.559 35.828C29.493 35.725 29.126 35.489 29.206 35.379C29.316 35.352 29.403 35.536 29.487 35.593C29.789 35.883 30.047 36.209 30.355 36.495C30.38 36.567 30.449 36.585 30.498 36.623C30.59 36.592 30.476 36.442 30.502 36.347C30.481 36.123 30.181 35.906 30.022 35.757C29.92 35.711 29.903 35.584 29.799 35.536C29.762 35.5154 29.7305 35.4863 29.707 35.451C29.657 35.344 29.552 35.303 29.478 35.221C29.46 35.198 29.448 35.165 29.426 35.151C29.3188 35.0645 29.2262 34.9611 29.152 34.845C29.171 34.723 29.302 34.88 29.342 34.916C29.495 35.066 29.644 35.209 29.793 35.367C29.9 35.492 30.015 35.61 30.133 35.726C30.231 35.808 30.297 35.93 30.419 35.981C30.491 35.891 30.391 35.809 30.404 35.716C30.41 35.404 30.099 35.248 29.916 35.046C29.879 34.973 29.788 34.952 29.745 34.884C29.69 34.778 29.598 34.71 29.513 34.634C29.383 34.471 29.179 34.358 29.102 34.162C29.122 34.121 29.192 34.15 29.207 34.168C29.238 34.235 29.293 34.27 29.352 34.305C29.37 34.315 29.391 34.332 29.397 34.35C29.423 34.422 29.484 34.465 29.534 34.516C29.728 34.726 29.952 34.906 30.128 35.132C30.424 35.458 30.352 35.151 30.275 34.928C29.915 34.468 29.405 34.12 29.06 33.648C29.104 33.47 29.482 33.978 29.554 34.025C29.748 34.247 29.953 34.459 30.164 34.665C30.319 34.792 30.221 34.385 30.201 34.319C30.139 34.129 29.943 34.041 29.849 33.872C29.839 33.852 29.812 33.839 29.793 33.824C29.636 33.706 29.511 33.554 29.37 33.42C29.243 33.28 29.069 33.168 28.993 32.992C29.053 32.847 29.347 33.273 29.418 33.322C29.633 33.573 29.887 33.799 30.116 34.036C30.185 34.022 30.143 33.778 30.12 33.724C29.975 33.464 29.713 33.288 29.52 33.065C29.4448 33.0181 29.3815 32.9545 29.335 32.879C29.234 32.75 29.098 32.644 28.987 32.522C28.952 32.485 28.954 32.482 29.002 32.429C29.194 32.538 29.334 32.744 29.499 32.894C29.657 33.072 29.829 33.239 29.988 33.414C30.017 33.457 30.08 33.447 30.084 33.407C30.056 33.236 30.049 33.046 29.944 32.907C29.836 32.842 29.781 32.707 29.666 32.642C29.504 32.531 29.416 32.325 29.243 32.23C29.179 32.121 29.075 32.048 28.993 31.949C28.953 31.909 28.883 31.759 29.012 31.819C29.276 32.101 29.555 32.359 29.806 32.653C29.844 32.705 29.997 32.826 29.986 32.675C29.956 32.619 29.971 32.557 29.956 32.501C29.739 32.04 29.228 31.744 28.909 31.345C28.856 31.232 28.991 31.26 29.036 31.342C29.174 31.5 29.332 31.639 29.482 31.784C29.612 31.901 29.728 32.068 29.874 32.154C29.926 31.978 29.855 31.769 29.736 31.634C29.538 31.422 29.313 31.236 29.134 31.007C29.0861 30.9365 29.0229 30.8776 28.949 30.835C28.839 30.794 28.775 30.552 28.953 30.687C29.146 30.88 29.34 31.073 29.531 31.268C29.636 31.376 29.619 31.421 29.78 31.5C29.821 31.413 29.762 31.343 29.765 31.26C29.775 31.19 29.737 31.129 29.728 31.062C29.619 30.899 29.471 30.758 29.333 30.617C29.253 30.503 28.718 30.111 28.825 30.007C29.081 30.193 29.285 30.464 29.524 30.68C29.581 30.723 29.617 30.818 29.701 30.791C29.64 30.592 29.435 30.518 29.338 30.344C29.24 30.286 29.198 30.176 29.113 30.105C28.968 29.971 28.794 29.833 28.729 29.641C28.724 29.604 28.689 29.589 28.651 29.589H28.239C28.195 29.691 28.242 29.779 28.25 29.879C28.237 29.974 28.286 30.049 28.284 30.142C28.289 30.228 28.274 30.327 28.287 30.411C28.357 30.569 28.289 30.738 28.342 30.901C28.37 31.037 28.324 31.181 28.372 31.319C28.402 31.419 28.345 31.536 28.407 31.631C28.42 31.649 28.415 31.681 28.417 31.706C28.402 31.845 28.457 31.97 28.447 32.111C28.437 32.253 28.492 32.384 28.477 32.529C28.461 32.639 28.518 32.731 28.509 32.843C28.494 32.961 28.555 33.061 28.544 33.183C28.529 33.3 28.582 33.403 28.574 33.523C28.581 33.628 28.554 33.737 28.604 33.837C28.612 33.97 28.59 34.102 28.627 34.232C28.656 34.337 28.612 34.453 28.661 34.558C28.679 34.593 28.668 34.642 28.671 34.685C28.675 34.765 28.656 34.847 28.701 34.922C28.716 35.029 28.693 35.142 28.729 35.251C28.757 35.355 28.708 35.475 28.754 35.58C28.777 35.68 28.758 35.794 28.764 35.898C28.764 35.945 28.76 35.991 28.791 36.033C28.821 36.122 28.791 36.233 28.805 36.325C28.847 36.428 28.828 36.535 28.833 36.641C28.846 36.734 28.873 36.821 28.862 36.918C28.864 36.981 28.861 37.042 28.888 37.105C28.921 37.215 28.865 37.347 28.922 37.457C28.946 37.561 28.912 37.678 28.953 37.785C28.984 37.918 28.929 38.068 28.986 38.202C29.013 38.3 28.964 38.419 29.016 38.517C29.033 38.596 29.018 38.689 29.023 38.772C29.023 38.798 29.016 38.828 29.027 38.848C29.069 38.92 29.054 38.998 29.057 39.073C29.059 39.136 29.05 39.2 29.086 39.26C29.1 39.352 29.086 39.458 29.091 39.554C29.091 39.579 29.086 39.609 29.097 39.629C29.151 39.751 29.088 39.883 29.146 40.006C29.161 40.098 29.14 40.205 29.152 40.3C29.205 40.523 29.221 40.755 29.219 40.986C29.207 41.11 29.268 41.224 29.244 41.352C29.244 41.44 29.072 41.436 29.062 41.36C29.048 41.284 29.071 41.208 29.03 41.135C28.986 41.034 29.098 40.797 28.938 40.776C25.638 40.765 22.334 40.802 19.043 40.744C19.02 40.742 18.998 40.734 19.001 40.707C19.003 40.681 19.027 40.677 19.049 40.677C19.686 40.663 20.332 40.701 20.963 40.659C23.586 40.531 26.492 40.841 28.987 40.551C28.893 40.259 29.113 39.96 28.617 40.049C25.46 40.066 22.263 40.121 19.123 40.013C22.261 39.798 25.628 40.014 28.84 39.938C29.025 39.909 28.878 39.668 28.895 39.548C28.894 39.431 28.758 39.464 28.679 39.46C28.289 39.446 16.489 39.522 19.989 39.363C22.911 39.291 25.892 39.305 28.814 39.363C28.841 39.327 28.897 39.294 28.888 39.252C28.816 39.147 28.933 38.893 28.731 38.909C25.601 38.869 22.407 38.987 19.311 38.865C22.441 38.701 25.669 38.895 28.824 38.798C28.825 38.663 28.895 38.37 28.714 38.334C25.704 38.332 22.694 38.334 19.684 38.334C19.622 38.331 19.554 38.348 19.501 38.306C19.468 38.27 19.52 38.239 19.555 38.237C22.565 38.234 25.574 38.237 28.583 38.236C28.638 38.236 28.693 38.234 28.753 38.232C28.776 38.093 28.76 37.958 28.763 37.818C25.887 37.541 22.649 37.82 19.655 37.722C19.48 37.682 19.695 37.577 19.782 37.613C22.721 37.575 25.699 37.583 28.646 37.605C28.828 37.594 28.685 37.334 28.702 37.23C28.647 37.184 28.59 37.177 28.529 37.175C25.606 37.174 22.619 37.214 19.708 37.147C22.583 36.95 25.673 37.149 28.618 37.078C28.695 37.078 28.716 36.999 28.704 36.936C28.656 36.836 28.677 36.728 28.667 36.616C25.853 36.368 22.831 36.612 19.949 36.529C19.719 36.501 19.831 36.411 20.007 36.436C22.854 36.435 25.702 36.438 28.549 36.435C28.687 36.445 28.639 36.175 28.614 36.094C28.599 36.007 28.61 35.95 28.521 35.884C25.775 35.929 22.971 35.974 20.226 35.884C20.133 35.864 19.986 35.943 19.968 35.804C22.772 35.768 25.584 35.804 28.391 35.791C28.449 35.791 28.51 35.798 28.574 35.776C28.563 35.643 28.611 35.516 28.519 35.406C25.698 35.366 22.839 35.476 20.036 35.368C20.052 35.278 20.152 35.318 20.214 35.309C22.964 35.318 25.706 35.237 28.452 35.309C28.617 35.225 28.504 35.077 28.509 34.945C28.526 34.809 28.392 34.822 28.297 34.825C25.657 34.73 22.659 35.008 20.195 34.73C21.777 34.735 23.353 34.67 24.929 34.726C25.842 34.744 26.765 34.636 27.676 34.726C27.932 34.725 28.189 34.733 28.445 34.724C28.515 34.716 28.521 34.614 28.505 34.564C28.433 34.434 28.55 34.14 28.323 34.152C25.668 34.151 23.013 34.155 20.359 34.151C20.307 34.155 20.244 34.059 20.325 34.056C23.001 34.053 25.677 34.056 28.353 34.055C28.486 34.079 28.453 33.907 28.438 33.82C28.416 33.757 28.43 33.657 28.346 33.642C25.701 33.585 23.026 33.737 20.394 33.587C22.919 33.455 25.59 33.587 28.163 33.541C28.244 33.536 28.376 33.573 28.378 33.453C28.374 33.335 28.409 33.036 28.276 32.997C25.716 32.983 23.154 33.008 20.595 32.987C20.58 32.984 20.559 32.959 20.559 32.943C20.559 32.929 20.583 32.906 20.599 32.903C23.115 32.888 25.634 32.903 28.151 32.898C28.201 32.898 28.252 32.896 28.305 32.894C28.337 32.771 28.312 32.655 28.319 32.536C28.258 32.428 28.167 32.444 28.066 32.447C25.62 32.397 23.014 32.542 20.646 32.397C20.664 32.387 20.686 32.367 20.703 32.371C20.787 32.387 20.866 32.351 20.95 32.351C23.388 32.357 25.825 32.352 28.263 32.354C28.324 32.208 28.26 32.079 28.251 31.937C28.256 31.8 28.112 31.839 28.021 31.834C25.718 31.739 22.886 32.013 20.838 31.744C23.262 31.737 25.686 31.744 28.11 31.741C28.236 31.742 28.271 31.625 28.24 31.521C28.21 31.421 28.246 31.317 28.128 31.258H24.79C24.662 31.232 19.987 31.341 21.092 31.159C23.45 31.159 25.809 31.162 28.167 31.159C28.21 30.979 28.197 30.754 28.097 30.676L21.241 30.677C21.158 30.677 20.91 30.651 21.023 30.587C23.331 30.575 25.64 30.587 27.948 30.582C28.002 30.582 28.058 30.594 28.12 30.562C28.112 30.402 28.165 30.213 28.07 30.069C25.79 29.915 23.379 30.183 21.116 29.974C23.39 29.882 25.72 29.977 28.012 29.94C28.117 29.93 28.088 29.8 28.088 29.726C28.072 29.609 27.94 29.613 27.849 29.618H21.283C21.201 29.615 21.181 29.594 21.177 29.508C21.201 29.414 21.317 29.423 21.393 29.423H28.738C28.834 29.488 28.881 29.58 28.954 29.662C29.099 29.795 29.228 29.941 29.352 30.092C29.48 30.222 29.614 30.347 29.728 30.488C29.754 30.52 29.781 30.524 29.823 30.53C29.833 30.36 29.783 30.153 30.031 30.265C30.241 30.335 30.464 30.367 30.677 30.425C30.805 30.456 30.975 30.502 31.067 30.386C31.124 30.307 31.452 30.163 31.282 30.073C31.149 30.016 31.009 29.98 30.877 29.935C30.836 29.875 30.747 29.892 30.715 29.832C30.761 29.791 30.802 29.84 30.847 29.855C31.087 29.892 31.317 29.965 31.553 30.028C31.68 30.058 31.806 30.091 31.929 30.132C32.0223 30.13 32.1148 30.1499 32.199 30.19C32.273 30.202 32.343 30.183 32.411 30.237C32.449 30.19 32.455 30.137 32.387 30.135C32.277 30.12 32.182 30.056 32.068 30.064C31.791 29.964 31.501 29.907 31.228 29.807C30.989 29.729 30.754 29.637 30.515 29.556C30.42 29.496 30.311 29.466 30.208 29.416C30.154 29.394 30.108 29.352 30.044 29.358C30.0398 29.3581 30.0357 29.3572 30.0319 29.3554C30.0281 29.3537 30.0247 29.3512 30.022 29.348C29.993 29.303 29.944 29.301 29.902 29.283C29.832 29.24 29.887 29.175 29.948 29.213C30.685 29.511 31.454 29.733 32.226 29.932C32.322 29.954 32.425 29.968 32.52 30C32.55 30.008 32.561 30.003 32.613 29.96C32.561 29.873 32.45 29.9 32.364 29.875C32.269 29.869 32.191 29.803 32.097 29.809C32.038 29.808 31.985 29.77 31.929 29.754C31.882 29.736 31.826 29.764 31.781 29.727C31.678 29.676 31.555 29.661 31.447 29.622C31.061 29.519 30.702 29.364 30.332 29.227C30.182 29.16 30.036 29.086 29.882 29.029C29.794 28.999 29.63 28.925 29.605 28.832C29.597 28.783 29.654 28.775 29.686 28.793C29.752 28.839 29.842 28.836 29.899 28.899C30.142 28.996 30.388 29.082 30.628 29.182C31.061 29.337 31.501 29.482 31.948 29.592C32.164 29.645 32.376 29.712 32.596 29.748C32.643 29.749 32.71 29.798 32.747 29.756C32.743 29.65 32.594 29.698 32.527 29.654C32.449 29.616 32.365 29.62 32.28 29.607C32.208 29.585 32.14 29.55 32.06 29.554C31.988 29.534 31.927 29.478 31.845 29.488C31.761 29.48 31.695 29.408 31.605 29.42C31.545 29.413 31.491 29.354 31.425 29.362C31.135 29.259 30.831 29.181 30.55 29.048C30.483 29.008 30.398 28.994 30.324 28.969C30.254 28.901 30.161 28.881 30.076 28.851C29.975 28.774 29.376 28.63 29.585 28.475C30.258 28.77 30.935 29.038 31.638 29.254C32.001 29.336 32.357 29.452 32.725 29.518C32.762 29.524 32.799 29.518 32.833 29.546C32.851 29.561 32.873 29.546 32.887 29.528C32.951 29.473 32.723 29.417 32.687 29.422C32.577 29.422 32.479 29.352 32.365 29.359C32.296 29.359 32.225 29.315 32.161 29.299C32.073 29.311 32.011 29.249 31.931 29.234C31.748 29.222 31.588 29.121 31.411 29.093C31.105 28.968 30.782 28.88 30.48 28.741C30.382 28.718 29.119 28.154 29.637 28.225C30.581 28.675 31.577 29.015 32.606 29.235C32.656 29.245 33.132 29.357 33.01 29.237C32.565 29.137 32.118 29.035 31.682 28.903C31.245 28.776 30.829 28.596 30.407 28.428C30.349 28.393 30.299 28.349 30.232 28.328C30.187 28.306 30.144 28.278 30.1 28.253C30.109 28.23 30.125 28.204 30.144 28.224C30.188 28.27 30.25 28.254 30.297 28.277C31.072 28.579 31.885 28.832 32.71 29C32.791 29.016 32.872 29.052 32.96 29.038C33.02 29.055 33.076 29.092 33.142 29.069C33.215 29.019 33.073 28.967 33.028 28.977C32.588 28.918 32.157 28.769 31.728 28.64C31.582 28.6 31.449 28.522 31.3 28.49C31.233 28.456 31.202 28.454 31.184 28.367L31.185 28.369ZM34.101 35.959C34.163 35.841 34.424 35.866 34.335 35.73C34.281 35.728 34.222 35.72 34.173 35.671C34.193 35.345 34.214 35.599 34.083 35.309C33.974 35.324 33.89 35.277 33.821 35.211C33.631 35.218 33.461 35.207 33.281 35.181C32.923 35.199 32.577 35.14 32.221 35.151C32.11 35.155 32.007 35.197 31.894 35.181C31.762 35.166 31.644 35.217 31.514 35.211C30.673 35.387 32.057 35.791 32.261 35.916C32.338 35.926 32.415 35.964 32.491 35.98C32.557 35.98 32.588 36.019 32.613 36.074C32.515 36.158 32.372 36.078 32.258 36.08C32.158 36.075 32.048 36.089 31.951 36.075C31.873 36.037 31.791 36.054 31.711 36.05C31.614 36.054 31.534 36 31.436 36.016C31.369 36.026 31.314 35.996 31.251 35.982C31.167 35.979 31.081 35.991 31 35.953C30.892 35.971 30.79 35.924 30.685 35.922C30.631 35.921 30.638 35.869 30.584 35.852C30.556 35.968 30.608 36.077 30.622 36.194C30.642 36.432 30.684 36.674 30.709 36.909C30.772 37.098 30.755 37.303 30.807 37.492C30.845 37.606 30.827 37.734 30.854 37.853C30.866 37.953 30.906 38.052 30.889 38.155C30.972 38.41 30.947 38.695 31.034 38.953C31.114 38.9 31.165 38.8 31.285 38.808C31.402 38.723 31.545 38.758 31.68 38.748C31.822 38.736 31.939 38.822 32.047 38.899C32.143 38.981 32.177 39.104 32.229 39.212C32.243 39.312 32.255 39.475 32.402 39.408C32.424 39.398 32.456 39.388 32.474 39.398C32.666 39.487 32.827 39.617 32.885 39.83C32.968 40.045 33.295 39.809 33.448 39.783C33.728 39.719 33.138 39.69 33.29 39.486C33.39 39.378 33.203 39.328 33.298 39.158C33.306 39.104 33.245 39.097 33.208 39.118C33.084 39.178 32.951 39.166 32.82 39.168C32.515 39.123 32.776 38.885 32.948 38.876C32.971 38.874 32.996 38.858 33.017 38.844C33.069 38.806 33.12 38.824 33.177 38.791C33.1426 38.7254 33.0884 38.6722 33.022 38.639C32.992 38.565 32.925 38.521 32.872 38.466C32.681 38.228 32.785 38.21 33.032 38.261C33.082 38.092 33.181 38.079 33.334 38.127C33.644 38.299 33.486 38.44 33.826 38.395C33.892 38.462 33.971 38.507 34.019 38.584C34.055 38.628 34.102 38.674 34.165 38.634C34.165 38.562 34.195 38.434 34.087 38.429C33.957 38.44 33.855 38.393 33.94 38.254C34.03 38.194 33.968 38.137 33.9 38.102C33.768 38.027 33.625 37.975 33.513 37.862C33.373 37.749 33.345 37.547 33.565 37.561C33.768 37.537 33.999 37.793 34.169 37.722C34.306 37.626 34.434 37.762 34.577 37.742C34.594 37.667 34.565 37.5 34.479 37.534C34.376 37.566 34.27 37.648 34.163 37.649C34.067 37.608 34.036 37.613 34.041 37.499C34.012 37.384 34.119 37.328 34.134 37.221C34.114 37.2112 34.0919 37.2063 34.0696 37.2068C34.0473 37.2073 34.0255 37.2132 34.006 37.224C33.83 37.299 33.751 37.079 33.928 37.002C34.17 36.812 33.314 36.867 33.438 36.582C33.488 36.547 33.608 36.509 33.516 36.446C33.433 36.403 33.42 36.336 33.438 36.251C33.498 36.23 33.558 36.241 33.618 36.242C33.689 36.278 33.754 36.336 33.833 36.357C33.891 36.32 33.885 36.25 33.96 36.232C34.064 36.146 34.168 36.107 34.101 35.959ZM30.109 32.405C30.344 32.208 30.642 32.124 30.866 31.91C31.036 31.769 31.243 31.667 31.396 31.505C31.4163 31.3013 31.5127 31.1128 31.666 30.977C31.691 30.953 31.701 30.904 31.732 30.885C31.837 30.837 31.897 30.74 31.979 30.666C32.036 30.613 32.027 30.562 31.961 30.523C31.777 30.435 31.781 30.223 31.544 30.393C31.431 30.46 31.327 30.561 31.208 30.613C31.128 30.631 31.087 30.686 31.048 30.746C30.978 30.848 30.938 30.991 30.807 31.026C30.432 31.126 30.276 31.128 30.515 31.538C30.603 31.806 30.185 31.493 30.132 31.441C30.078 31.397 29.999 31.38 29.975 31.301C29.909 31.264 29.914 31.401 29.938 31.445C29.967 31.497 29.952 31.565 29.966 31.618C29.996 31.679 29.992 31.743 29.988 31.806C29.983 31.896 30.031 31.979 30.023 32.069C30.101 32.177 30.006 32.303 30.109 32.405ZM33.933 39.275C33.807 39.232 33.732 39.365 33.618 39.395C33.527 39.502 33.848 39.446 33.905 39.459C34.029 39.464 33.933 39.33 33.933 39.275ZM34.202 36.403C34.272 36.498 34.285 36.509 34.358 36.538C34.353 36.472 34.369 36.409 34.348 36.347C34.286 36.332 34.233 36.329 34.202 36.403ZM34.54 36.685C34.519 36.621 34.484 36.619 34.438 36.635C34.451 36.69 34.484 36.7 34.54 36.685ZM31.18 40.072C31.196 40.081 31.204 40.082 31.21 40.062C31.193 40.051 31.186 40.052 31.18 40.072ZM31.487 42.015C31.501 42.002 31.501 41.993 31.487 41.979C31.473 41.992 31.473 42.002 31.487 42.015ZM31.074 39.171C31.074 39.153 31.063 39.161 31.051 39.161C31.059 39.169 31.061 39.183 31.074 39.171ZM31.625 42.858L31.618 42.848C31.614 42.858 31.601 42.867 31.615 42.876L31.625 42.858ZM30.527 35.376L30.519 35.356C30.505 35.361 30.511 35.373 30.512 35.384L30.527 35.376ZM13.757 34.156C13.827 34.206 13.836 34.312 13.932 34.358C13.964 34.178 13.922 33.994 13.953 33.818C13.986 33.771 13.979 33.721 13.981 33.671C13.985 33.582 13.972 33.494 14.006 33.406C14.027 33.302 14.012 33.162 14.126 33.101L14.236 33.201C14.228 33.347 14.239 33.493 14.266 33.638C14.268 33.766 14.266 33.894 14.268 34.023C14.283 34.095 14.178 34.189 14.281 34.226C14.333 34.173 14.463 33.959 14.518 34.116C14.531 34.175 14.471 34.306 14.562 34.309C14.644 34.285 14.745 34.29 14.823 34.275C14.957 34.213 15.097 34.269 15.236 34.22C15.353 34.188 15.486 34.244 15.603 34.193C15.756 34.171 15.92 34.191 16.076 34.185C16.146 34.171 16.205 34.215 16.276 34.214C16.398 34.197 16.507 34.251 16.629 34.245C16.688 34.233 16.734 34.267 16.787 34.281C16.933 34.267 17.072 34.321 17.218 34.314C17.465 34.292 17.715 34.343 17.958 34.29C18.058 34.26 18.174 34.311 18.272 34.257C18.302 34.239 18.347 34.244 18.384 34.246C18.5072 34.2525 18.6306 34.2349 18.747 34.194C18.933 34.179 19.115 34.152 19.278 34.054C19.422 33.944 19.587 33.864 19.716 33.734C19.841 33.549 19.818 33.304 19.89 33.097C19.884 32.988 19.934 32.891 19.958 32.79C19.968 32.578 20.018 32.366 20.071 32.16C20.095 32.036 20.101 31.908 20.149 31.79C20.144 31.614 20.282 31.433 20.184 31.259C20.175 31.245 20.168 31.223 20.155 31.219C20.09 31.194 20.075 31.124 20.025 31.085C19.9792 31.0464 19.937 31.0035 19.899 30.957C19.789 30.83 19.623 30.802 19.471 30.756C19.341 30.726 19.213 30.631 19.079 30.65C19.019 30.749 18.935 30.884 18.827 30.756C18.517 30.4 18.104 30.175 17.683 29.976C17.486 29.868 17.263 29.826 17.072 29.702C16.913 29.533 16.777 29.318 16.556 29.22C16.4107 29.1437 16.257 29.0847 16.098 29.044C15.973 28.987 15.968 29.163 15.948 29.247C15.884 29.422 16.026 29.557 16.038 29.723C16.097 29.957 16.273 30.153 16.352 30.38C16.341 30.498 16.378 30.634 16.331 30.741C16.271 30.723 16.235 30.663 16.21 30.611C16.165 30.495 16.074 30.408 16.023 30.296C15.935 30.239 15.382 29.462 15.425 29.866C15.372 30.183 15.593 30.97 15.155 31.033C14.9 31.071 14.701 30.837 14.458 30.858C14.2495 30.9278 14.0552 31.0341 13.884 31.172C13.826 31.224 13.696 31.308 13.692 31.172C13.662 30.459 13.724 30.767 14.002 30.246C13.886 30.186 13.679 30.204 13.735 30.01C13.879 29.973 14.047 30.15 14.169 30.016C14.057 29.992 13.969 29.944 13.866 29.938C13.781 29.939 13.649 29.806 13.759 29.751C13.837 29.784 13.927 29.765 14.005 29.804C14.047 29.82 14.115 29.797 14.155 29.819C14.22 29.865 14.285 29.843 14.361 29.839C14.342 29.696 14.148 29.774 14.054 29.739C13.963 29.653 13.814 29.725 13.744 29.622C13.72 29.594 13.721 29.592 13.738 29.494C13.765 29.494 13.8 29.484 13.821 29.496C13.878 29.529 13.951 29.503 14.001 29.55C14.091 29.545 14.173 29.596 14.264 29.589C14.355 29.585 14.426 29.639 14.522 29.607C14.472 29.477 14.204 29.5 14.082 29.487C13.997 29.47 13.919 29.417 13.827 29.419C13.797 29.421 13.765 29.396 13.731 29.382C13.724 29.334 13.702 29.246 13.758 29.236C13.971 29.282 14.189 29.31 14.399 29.359C14.453 29.353 14.845 29.401 14.717 29.3C14.568 29.292 14.418 29.307 14.277 29.25C14.117 29.23 13.967 29.2 13.814 29.146C13.718 29.11 13.721 29.104 13.734 28.992C13.741 28.988 13.748 28.98 13.754 28.981C13.953 28.999 14.94 29.268 14.992 29.055C14.793 29.001 14.578 29.071 14.376 29.015C14.1897 28.9846 14.0059 28.9405 13.826 28.883C13.719 28.849 13.719 28.848 13.736 28.725C13.758 28.724 13.784 28.716 13.807 28.721C14.013 28.759 14.211 28.847 14.422 28.847C14.461 28.847 14.498 28.846 14.534 28.867C14.734 28.907 14.938 28.916 15.142 28.907C15.312 28.842 15.438 28.667 15.627 28.622C15.727 28.588 15.729 28.588 15.832 28.622C16.284 28.767 16.692 29.01 17.119 29.212C17.166 29.249 17.199 29.196 17.249 29.212C17.318 29.232 17.369 29.296 17.434 29.32C17.706 29.451 17.983 29.577 18.284 29.619C18.448 29.642 18.604 29.69 18.772 29.682C18.942 29.697 19.112 29.747 19.287 29.689C19.4 29.652 19.541 29.718 19.652 29.657C19.875 29.641 20.109 29.614 20.316 29.522C20.416 29.537 20.499 29.481 20.582 29.447C20.725 29.413 20.937 29.377 20.885 29.597C20.859 29.773 20.805 29.94 20.785 30.116C20.643 30.75 20.538 31.399 20.405 32.039C20.265 32.717 20.143 33.394 19.999 34.073C19.949 34.334 19.909 34.603 19.843 34.863C19.82 34.973 19.823 35.088 19.773 35.193C19.763 35.32 19.752 35.446 19.704 35.565C19.7089 35.65 19.6928 35.7348 19.657 35.812C19.62 35.928 19.628 36.052 19.591 36.17C19.588 36.2 19.572 36.229 19.576 36.256C19.589 36.366 19.525 36.46 19.507 36.562C19.5082 36.668 19.4892 36.7732 19.451 36.872C19.441 36.973 19.445 37.075 19.399 37.17C19.364 37.262 19.392 37.364 19.344 37.453C19.301 37.582 19.322 37.72 19.267 37.848C19.24 37.954 19.237 38.063 19.204 38.168C19.186 38.273 19.178 38.375 19.141 38.476C19.104 38.721 19.064 38.966 18.994 39.202C18.9962 39.3162 18.9772 39.4298 18.938 39.537C18.922 39.62 18.942 39.707 18.902 39.787C18.842 39.904 18.872 40.044 18.817 40.165C18.779 40.239 18.823 40.323 18.78 40.401C18.71 40.531 18.746 40.693 18.692 40.833C18.644 40.903 18.7 40.995 18.652 41.067C18.611 41.13 18.609 41.202 18.604 41.275C18.6 41.37 18.553 41.464 18.546 41.558C18.556 41.638 18.508 41.705 18.506 41.782C18.468 41.824 18.481 41.878 18.475 41.927C18.4454 42.1006 18.4093 42.2731 18.367 42.444C18.2384 43.1278 18.1023 43.8102 17.959 44.491C17.933 44.615 17.927 44.849 17.729 44.707C17.657 44.687 17.579 44.566 17.63 44.497C17.6396 44.4836 17.6448 44.4675 17.645 44.451C17.637 44.338 17.685 44.236 17.705 44.129C17.695 44.029 17.748 43.945 17.765 43.847C17.778 43.737 17.784 43.629 17.827 43.526C17.839 43.416 17.847 43.308 17.892 43.206C17.902 43.091 17.922 42.982 17.958 42.872C17.9596 42.775 17.9765 42.6788 18.008 42.587C18.056 42.371 18.076 42.139 18.148 41.925C18.195 41.742 18.08 41.822 17.996 41.889C17.904 41.971 17.807 41.917 17.714 41.875C17.485 41.92 17.434 42.183 17.625 42.308C17.819 42.414 17.631 42.515 17.508 42.562C17.4344 42.5967 17.3751 42.6557 17.34 42.729C17.242 42.998 17.685 43.371 17.292 43.677C17.06 43.847 16.846 43.667 16.635 43.951C16.541 43.948 16.492 43.881 16.428 43.844C16.3637 43.8107 16.3056 43.7668 16.256 43.714C16.102 43.607 15.955 43.484 15.808 43.365C15.1715 42.8437 14.5795 42.2704 14.038 41.651C13.929 41.484 13.722 41.352 13.691 41.148C13.754 38.835 13.568 36.422 13.756 34.157L13.757 34.156ZM15.827 39.765C15.798 39.843 15.719 39.843 15.642 39.865C16.015 40.267 15.266 40.013 15.634 40.28C15.764 40.215 15.945 40.206 16.048 40.321C16.068 40.352 16.097 40.38 16.14 40.386C16.1908 40.3023 16.2586 40.23 16.339 40.174C16.506 40.05 16.704 39.98 16.904 39.939C17.037 39.937 17.165 39.932 17.294 39.973C17.403 39.965 17.478 40.07 17.591 40.028C17.736 39.755 18.031 39.451 18.369 39.544C18.438 39.568 18.509 39.614 18.589 39.575C18.702 39.245 18.728 38.887 18.812 38.545C18.824 38.396 18.88 38.247 18.9 38.104C18.906 38.01 18.952 37.924 18.92 37.831C18.65 37.741 18.366 37.721 18.087 37.683C17.911 37.606 17.714 37.701 17.534 37.627C17.444 37.617 17.345 37.629 17.253 37.624C17.177 37.628 17.116 37.58 17.041 37.593C16.941 37.587 16.831 37.603 16.735 37.586C16.686 37.559 16.636 37.563 16.585 37.561C16.568 37.561 16.548 37.561 16.535 37.553C16.455 37.502 16.361 37.551 16.277 37.503C16.157 37.451 16.016 37.468 15.903 37.399C15.789 37.387 15.69 37.324 15.57 37.311C15.486 37.357 15.542 37.449 15.514 37.514C15.448 37.608 15.182 37.69 15.385 37.804C15.495 37.758 15.627 37.597 15.748 37.682C15.715 37.754 15.687 37.823 15.607 37.854C15.5869 37.8622 15.5689 37.875 15.5545 37.8913C15.5401 37.9076 15.5297 37.927 15.524 37.948C15.581 38.028 15.577 38.158 15.459 38.172C15.286 38.252 15.561 38.309 15.202 38.484C15.296 38.554 15.569 38.722 15.38 38.819C15.306 38.857 15.305 38.994 15.405 39.004C15.497 38.934 15.656 38.741 15.781 38.799C15.859 38.85 15.905 38.753 15.96 38.715C16.147 38.559 16.24 38.715 16.088 38.875C15.749 39.209 15.831 39.107 16.216 39.145C16.266 39.329 16.105 39.279 16.016 39.37C16.29 39.554 16.023 39.645 15.815 39.653C15.775 39.672 15.824 39.729 15.827 39.765ZM15.359 36.222C15.291 36.322 15.089 36.315 15.143 36.478C15.17 36.594 15.259 36.656 15.368 36.696C15.479 36.738 15.578 36.796 15.686 36.842C16.148 37.036 16.579 37.378 17.101 37.372C17.281 37.44 17.475 37.346 17.653 37.432C17.67 37.441 17.695 37.435 17.716 37.435C17.959 37.422 18.195 37.5 18.436 37.496C18.506 37.536 18.584 37.52 18.657 37.539C18.727 37.577 18.809 37.549 18.878 37.59C19.035 37.62 19.021 37.515 19.031 37.398C19.084 37.258 19.083 37.108 19.122 36.968C19.159 36.804 19.183 36.639 19.219 36.475C19.242 36.391 19.23 36.299 19.279 36.22C19.297 36.19 19.28 36.151 19.249 36.131C18.646 35.958 18.026 35.851 17.433 35.638C16.78 35.428 16.153 35.11 15.471 35.016C15.3697 35.0289 15.2668 35.0186 15.17 34.986C15.059 34.986 14.947 34.981 14.837 34.988C14.8049 34.9886 14.7736 34.9978 14.7463 35.0147C14.719 35.0316 14.6968 35.0556 14.682 35.084C14.767 35.143 14.823 35.22 14.925 35.244C15.022 35.266 15.128 35.353 15.06 35.454C14.746 35.564 14.999 35.531 14.93 35.793C14.997 35.899 15.05 35.801 15.043 36.001C15.098 36.024 15.263 35.969 15.323 35.941C15.3408 35.9301 15.361 35.9235 15.3818 35.9218C15.4027 35.9201 15.4236 35.9232 15.443 35.931C15.454 36.026 15.459 36.031 15.421 36.064C15.3985 36.0832 15.381 36.1077 15.3702 36.1353C15.3594 36.1628 15.3556 36.1926 15.359 36.222ZM20.521 29.698C20.466 29.674 20.413 29.67 20.375 29.688C20.279 29.747 20.171 29.736 20.073 29.769C19.9371 29.8031 19.7969 29.8166 19.657 29.809C19.578 29.812 19.517 29.864 19.435 29.846C19.21 29.836 18.978 29.88 18.765 29.809C18.538 29.829 18.322 29.724 18.099 29.727C18.389 30.055 19.255 29.925 19.68 29.933C19.879 29.863 20.096 29.883 20.292 29.8C20.378 29.76 20.473 29.809 20.521 29.698ZM18.768 30.084C18.841 30.276 19.193 30.17 19.361 30.194C19.466 30.192 19.574 30.214 19.676 30.166C19.766 30.17 19.851 30.132 19.938 30.133C20.044 30.14 20.139 30.066 20.246 30.072C20.328 30.056 20.414 30.05 20.469 29.983C20.383 29.905 20.244 30.031 20.118 30.006C20.054 30.051 19.976 30.023 19.908 30.046C19.794 30.096 19.664 30.057 19.542 30.07C19.466 30.064 19.403 30.11 19.33 30.1C19.136 30.128 18.96 30.04 18.768 30.084ZM19.228 30.336C19.271 30.571 19.61 30.405 19.766 30.416C19.853 30.367 19.951 30.404 20.04 30.38C20.1294 30.3409 20.2265 30.3224 20.324 30.326C20.374 30.327 20.382 30.311 20.392 30.239C20.236 30.215 20.09 30.302 19.932 30.291C19.89 30.291 19.842 30.288 19.808 30.305C19.621 30.362 19.42 30.305 19.228 30.336ZM14.792 35.597C14.668 35.667 14.45 35.779 14.58 35.922C14.677 35.885 14.667 35.775 14.735 35.722C14.76 35.702 14.765 35.656 14.792 35.597ZM30.634 22.756C30.572 22.932 30.329 23.004 30.198 23.122C29.877 23.332 29.545 23.524 29.231 23.745C29.162 23.7884 29.1119 23.8563 29.091 23.935C29.056 24.084 28.967 24.221 28.921 24.365C28.785 24.461 28.407 23.922 28.263 23.831C28.218 23.841 28.213 23.875 28.225 23.894C28.257 23.949 28.247 24.009 28.255 24.071C28.311 24.119 28.35 24.187 28.423 24.221C28.45 24.234 28.458 24.284 28.484 24.299C28.611 24.392 28.836 24.563 28.834 24.728C28.832 24.778 28.83 24.828 28.854 24.878C28.88 24.961 28.838 25.06 28.888 25.14C28.911 25.225 28.876 25.32 28.924 25.403C28.946 25.495 28.907 25.601 28.956 25.692C28.974 25.785 28.941 25.888 28.986 25.981C29.003 26.117 29.021 26.26 29.026 26.397C29.049 26.577 29.094 26.754 29.091 26.935C29.112 27.091 29.149 27.24 29.151 27.399C29.152 27.449 29.139 27.502 29.179 27.545C29.189 27.652 29.197 27.765 29.217 27.872C29.227 27.952 29.209 28.032 29.244 28.111C29.258 28.174 29.235 28.248 29.267 28.311C29.304 28.419 29.253 28.543 29.31 28.649C29.33 28.714 29.299 28.797 29.337 28.862C29.347 28.879 29.345 28.903 29.345 28.924C29.348 29.009 29.336 29.094 29.375 29.175C29.391 29.219 29.365 29.284 29.382 29.327C29.42 29.405 29.406 29.486 29.409 29.566C29.4076 29.6126 29.4162 29.659 29.434 29.702C29.46 29.757 29.444 29.81 29.377 29.847C29.277 29.765 29.187 29.667 29.096 29.576C28.994 29.392 28.715 29.256 28.706 29.057C28.706 29.011 28.708 28.964 28.68 28.922C28.659 28.863 28.683 28.795 28.649 28.736C28.616 28.628 28.661 28.505 28.612 28.396C28.59 28.308 28.627 28.208 28.585 28.119C28.568 28.083 28.577 28.035 28.575 27.993C28.589 27.892 28.542 27.805 28.544 27.703C28.549 27.623 28.501 27.553 28.51 27.467C28.506 27.391 28.52 27.315 28.483 27.241C28.464 27.092 28.439 26.938 28.447 26.786C28.437 26.701 28.42 26.606 28.409 26.524C28.369 26.466 28.382 26.402 28.379 26.339C28.387 26.139 28.313 25.949 28.319 25.747C28.329 25.689 28.304 25.64 28.287 25.587C28.303 25.45 28.239 25.321 28.25 25.183C28.27 25.097 28.223 25.019 28.221 24.933C28.221 24.911 28.227 24.886 28.219 24.869C28.173 24.776 28.196 24.676 28.189 24.579C28.17 24.419 28.131 24.267 28.124 24.105C28.119 24.025 28.138 23.945 28.097 23.867C28.083 23.769 28.094 23.595 27.947 23.607C27.837 23.634 27.49 23.539 27.481 23.69C27.478 23.964 27.468 24.235 27.511 24.505C27.516 24.567 27.499 24.631 27.541 24.69C27.561 24.74 27.531 24.81 27.491 24.853C27.464 24.857 27.431 24.855 27.406 24.867C27.33 24.931 27.266 24.827 27.19 24.877C27.087 24.927 26.98 24.813 26.87 24.877C26.808 24.911 26.75 24.872 26.688 24.863C26.61 24.887 26.566 24.868 26.488 24.915C26.491 24.988 26.467 25.065 26.511 25.138C26.533 25.222 26.502 25.316 26.544 25.401C26.566 25.45 26.522 25.501 26.463 25.504C26.259 25.504 26.055 25.502 25.859 25.567C25.753 25.597 25.736 25.733 25.713 25.827C25.723 26.234 26.165 26.385 26.263 26.755C26.274 26.789 26.307 26.815 26.331 26.848C26.444 26.843 26.547 26.89 26.66 26.888C26.899 26.92 27.13 27.011 27.361 27.078C27.381 27.085 27.407 27.085 27.42 27.098C27.486 27.17 27.582 27.208 27.643 27.286C27.683 27.313 27.69 27.406 27.623 27.388C27.547 27.328 27.483 27.252 27.397 27.203C27.324 27.118 27.205 27.329 27.075 27.328C26.923 27.361 26.772 27.408 26.615 27.402C26.545 27.45 26.467 27.431 26.392 27.435C26.219 27.465 26.047 27.475 25.872 27.462C25.773 27.474 25.679 27.452 25.589 27.507C25.599 27.663 25.475 27.706 25.38 27.808C25.303 27.749 25.218 27.688 25.194 27.591C25.107 27.328 24.64 27.519 24.444 27.552C24.191 27.592 23.928 27.613 23.673 27.574C23.5597 27.5634 23.4486 27.5365 23.343 27.494C23.319 27.484 23.274 27.504 23.277 27.459C23.287 27.419 23.357 27.442 23.388 27.423C23.381 27.386 23.334 27.351 23.248 27.318C23.183 27.361 23.174 27.438 23.143 27.501C23.155 27.591 23.091 27.671 23.108 27.763C23.062 27.855 23.078 27.954 23.074 28.051C23.07 28.106 23.035 28.154 23.042 28.213C23.062 28.292 22.999 28.356 23.011 28.437C23.008 28.496 23.021 28.556 22.987 28.612C22.97 28.683 22.992 28.764 22.957 28.837C22.933 28.958 22.975 29.181 22.783 29.17C22.621 29.135 21.978 29.247 21.953 29.093C21.986 29.061 22.219 28.835 22.051 28.861C22.0088 28.9025 21.9618 28.9388 21.911 28.969C21.816 29.014 21.762 29.135 21.641 29.096C21.631 29.0627 21.6325 29.0269 21.6452 28.9945C21.6579 28.962 21.681 28.9348 21.711 28.917C21.832 28.868 21.916 28.769 22.021 28.697C22.101 28.645 22.222 28.55 22.156 28.442C21.988 28.517 21.902 28.7 21.73 28.774C21.538 28.631 22.284 28.366 22.24 28.078C22.244 27.904 22.314 27.73 22.304 27.552C22.347 27.452 22.317 27.342 22.365 27.244C22.382 27.189 22.358 27.124 22.388 27.068C22.399 27.047 22.398 27.018 22.399 26.993C22.402 26.938 22.392 26.882 22.425 26.832C22.427 26.709 22.447 26.585 22.403 26.456L22.486 26.361C22.43 26.271 22.534 26.195 22.528 26.101C22.526 26.055 22.524 26.009 22.553 25.966C22.58 25.897 22.538 25.808 22.588 25.742C22.601 25.619 22.618 25.492 22.644 25.368C22.66 25.252 22.667 25.134 22.689 25.018C22.749 24.848 22.741 24.753 22.575 24.655C22.495 24.605 22.397 24.508 22.404 24.405C22.441 24.355 22.42 24.289 22.456 24.236C22.532 24.037 22.382 23.726 22.149 23.744C22.138 23.848 22.127 23.949 22.087 24.044C22.0864 24.1364 22.0667 24.2277 22.029 24.312C22.004 24.39 22.025 24.473 21.985 24.547C21.938 24.687 21.95 24.839 21.888 24.975C21.892 25.075 21.858 25.166 21.832 25.259C21.819 25.339 21.828 25.421 21.788 25.494C21.725 25.724 21.712 25.966 21.638 26.194C21.621 26.285 21.642 26.381 21.586 26.464C21.5728 26.4857 21.5658 26.5106 21.566 26.536C21.582 26.656 21.506 26.756 21.502 26.87C21.517 26.997 21.434 27.103 21.435 27.229C21.391 27.39 21.362 27.556 21.327 27.719C21.324 27.736 21.31 27.752 21.312 27.768C21.326 27.874 21.263 27.962 21.245 28.061C21.253 28.178 21.202 28.283 21.178 28.393C21.162 28.637 21.057 28.851 21.049 29.099C20.821 29.323 20.902 28.906 20.676 29.084C20.626 29.104 20.566 29.104 20.529 29.153C20.521 29.163 20.497 29.169 20.482 29.167C20.369 29.162 20.276 29.244 20.162 29.232C20.132 29.229 20.105 29.242 20.076 29.252C19.926 29.332 19.754 29.256 19.603 29.324C19.583 29.335 19.553 29.329 19.527 29.329C19.354 29.315 19.171 29.361 19.006 29.304C18.933 29.284 18.842 29.3 18.764 29.295C18.636 29.301 18.554 29.175 18.416 29.202C18.397 29.146 18.906 29.168 18.966 29.174C19.17 29.257 19.375 29.148 19.582 29.169C19.725 29.152 20.942 28.94 20.877 28.759C20.8564 28.7494 20.8336 28.7457 20.811 28.7481C20.7885 28.7506 20.767 28.7592 20.749 28.773C20.67 28.83 20.566 28.836 20.489 28.899C20.439 28.922 20.362 28.891 20.323 28.947C20.303 28.972 20.273 28.979 20.242 28.976C20.1826 28.9704 20.1228 28.9812 20.069 29.007C19.959 29.054 19.842 29.03 19.728 29.037C19.706 29.037 19.681 29.032 19.664 29.041C19.553 29.102 19.429 29.068 19.314 29.071C19.213 28.987 19.046 29.099 18.981 28.967C18.996 28.935 19.024 28.945 19.047 28.944C19.127 28.94 19.207 28.954 19.285 28.914C19.373 28.899 19.475 28.911 19.565 28.91C19.699 28.922 19.822 28.856 19.951 28.848C20.144 28.851 20.311 28.736 20.501 28.716C20.565 28.696 20.618 28.653 20.689 28.646C21.067 28.589 20.943 28.361 21.042 28.091C21.142 27.615 21.219 27.131 21.338 26.664C21.498 25.821 21.668 24.991 21.854 24.151C21.849 23.981 21.928 23.851 21.929 23.677C21.855 23.543 21.788 23.396 21.659 23.3C21.606 23.176 21.474 23.114 21.414 22.994C21.304 22.883 21.218 22.752 21.102 22.643C20.882 22.363 20.62 22.118 20.417 21.828C20.357 21.688 20.582 21.689 20.665 21.727C20.733 21.771 20.79 21.714 20.86 21.711C20.912 21.706 20.962 21.766 21.014 21.713C21.45 21.707 21.887 21.709 22.322 21.711C22.452 21.734 22.388 21.926 22.459 22.013C22.507 22.243 22.428 22.393 22.349 22.602C22.441 22.689 22.365 22.831 22.496 22.91C22.567 22.968 22.661 22.878 22.658 22.799C22.657 22.735 22.65 22.671 22.685 22.611C22.6719 22.5033 22.6481 22.3971 22.614 22.294C22.605 22.2772 22.6001 22.2584 22.5998 22.2393C22.5994 22.2202 22.6036 22.2012 22.612 22.184C22.634 22.121 22.618 22.05 22.645 21.986C22.668 21.88 22.635 21.711 22.793 21.71H26.807C26.937 21.705 26.977 21.817 26.967 21.93C26.958 22.037 27.022 22.134 27.015 22.242C26.99 22.334 26.97 22.429 26.948 22.523C26.898 22.606 26.975 22.686 26.968 22.77C26.953 22.98 27.212 22.952 27.193 22.747C27.178 22.667 27.293 22.631 27.243 22.551C27.175 22.399 27.07 22.24 27.161 22.077C27.148 21.989 27.197 21.911 27.196 21.825C27.192 21.752 27.25 21.693 27.325 21.71C27.51 21.705 27.69 21.705 27.87 21.742C28.348 21.746 28.828 21.752 29.297 21.7C29.497 21.596 29.72 22.01 29.887 22.077C30.131 22.311 30.387 22.524 30.634 22.756ZM23.537 27.451C23.565 27.445 23.597 27.48 23.639 27.434C23.566 27.437 23.536 27.48 23.532 27.407C23.466 27.383 23.485 27.439 23.537 27.451ZM23.509 26.904C23.554 26.964 23.578 27.079 23.669 27.041C23.86 26.959 24.067 26.896 24.274 26.88C24.45 26.806 24.647 26.899 24.827 26.823C24.848 26.814 24.877 26.821 24.903 26.821C25.025 26.81 25.36 26.879 25.173 26.677C24.986 26.383 24.599 26.293 24.287 26.185C24.083 26.115 24.319 25.932 24.323 25.603C24.347 25.38 24.374 25.14 24.359 24.916C24.241 24.812 24.224 24.904 24.117 24.882C23.9847 24.8509 23.8474 24.8482 23.714 24.874C23.656 24.888 23.592 24.91 23.537 24.874C23.444 24.922 23.469 25.004 23.457 25.082C23.424 25.146 23.433 25.214 23.427 25.282C23.395 25.452 23.372 25.624 23.367 25.795C23.366 25.807 23.367 25.822 23.361 25.832C23.312 25.908 23.352 26.004 23.329 26.082C23.284 26.154 23.302 26.231 23.299 26.306C23.315 26.39 23.226 26.552 23.349 26.566C23.503 26.618 23.897 26.54 23.609 26.784C23.658 26.855 23.561 26.872 23.509 26.904ZM26.859 23.373C26.859 23.355 26.862 23.342 26.859 23.34C26.717 23.233 26.926 22.905 26.663 22.9H22.996L22.703 23.191C22.646 23.2537 22.572 23.2986 22.49 23.32C22.467 23.325 22.444 23.344 22.456 23.377C22.604 23.389 26.756 23.386 26.859 23.373ZM22.661 23.661C22.656 23.855 22.607 24.061 22.863 24.024C24.285 24.025 25.724 24.024 27.133 24.022C27.355 24.024 27.351 23.595 27.134 23.609C25.651 23.656 24.12 23.513 22.661 23.661ZM28.476 23.015C28.562 22.921 28.72 22.955 28.807 22.87C28.959 22.665 28.908 22.332 29.128 22.171C29.326 22.098 29.31 22.165 29.473 22.157C29.835 22.245 29.567 22.063 29.463 21.939C29.31 21.902 29.23 22.036 29.12 22.113C28.987 22.196 28.878 22.313 28.747 22.392C28.687 22.466 28.584 22.505 28.57 22.617C28.51 22.753 28.367 22.744 28.244 22.737C28.128 22.659 28.066 22.523 27.909 22.587C27.889 22.639 27.905 22.701 27.852 22.739C27.643 22.936 27.362 23.022 27.164 23.232C27.128 23.277 27.085 23.321 27.017 23.324C26.926 23.382 27.061 23.388 27.115 23.384C28.269 23.393 27.923 23.234 28.743 24.049C28.93 24.208 28.757 23.614 28.885 23.544C28.985 23.53 29.092 23.569 29.189 23.538C29.552 23.478 29.404 22.938 29.693 22.764C29.8274 22.7259 29.9697 22.7259 30.104 22.764C30.154 22.782 30.209 22.77 30.263 22.743C30.135 22.608 29.973 22.393 29.807 22.607C29.633 22.734 29.448 22.847 29.292 22.994C29.133 23.087 29.137 23.132 29.052 23.274C28.982 23.381 28.734 23.388 28.663 23.269C28.599 23.18 28.509 23.136 28.476 23.015ZM22.335 23.381C22.233 23.061 22.453 22.849 21.963 22.901C21.823 22.913 21.908 23.205 21.889 23.307C21.9 23.447 22.216 23.364 22.335 23.381ZM23.258 27.198C23.366 27.268 23.392 27.274 23.487 27.255C23.427 27.203 23.354 27.205 23.258 27.198ZM23.306 26.674C23.326 26.782 23.384 26.726 23.446 26.705C23.406 26.643 23.355 26.666 23.306 26.674ZM29.394 19.724C29.399 19.812 29.47 19.851 29.529 19.911C31.666 19.953 33.879 19.831 35.979 19.954C34.641 20.128 33.127 19.903 31.746 20.037C31.03 20.064 30.324 19.994 29.614 20.013C29.602 20.078 29.657 20.112 29.684 20.163C29.799 20.338 30.045 20.195 30.223 20.231C32.129 20.236 34.036 20.221 35.942 20.236C35.985 20.247 35.994 20.306 35.947 20.322C35.014 20.33 34.067 20.412 33.137 20.329C32.602 20.316 32.055 20.349 31.532 20.329C31.404 20.347 31.282 20.373 31.152 20.355C31.068 20.297 30.99 20.361 30.908 20.352C30.575 20.271 30.211 20.391 29.877 20.3C29.825 20.42 29.909 20.487 29.967 20.583C30.087 20.593 30.207 20.584 30.326 20.586C32.122 20.486 33.949 20.583 35.755 20.551C35.825 20.556 35.949 20.524 35.963 20.618C35.957 20.66 35.911 20.69 35.869 20.684C34.672 20.696 33.474 20.66 32.279 20.698C32.347 20.714 32.409 20.753 32.483 20.744C32.771 20.768 33.047 20.87 33.335 20.901C33.978 20.815 34.644 20.931 35.287 20.851C35.495 20.835 35.913 20.632 36.057 20.794C36.076 20.904 36.091 21.087 35.959 21.129C35.679 21.187 35.409 21.282 35.139 21.369C34.885 21.492 34.621 21.595 34.378 21.739C34.252 21.814 34.094 21.929 33.976 21.792C33.653 21.517 33.259 21.355 32.859 21.229C32.698 21.222 32.551 21.14 32.392 21.129C32.259 21.136 32.136 21.084 31.999 21.099C31.749 21.079 31.481 21.035 31.228 21.099C31.092 21.089 30.968 21.114 30.835 21.131C30.77 21.114 30.711 21.139 30.65 21.161C30.458 21.161 30.282 21.244 30.093 21.261C30.066 21.261 30.066 21.266 30.019 21.331C30.283 21.617 30.579 21.886 30.852 22.168C31.02 22.305 31.281 22.455 30.96 22.609C30.696 22.754 30.44 22.281 30.252 22.151C30.185 22.087 30.103 22.039 30.038 21.971C30.001 21.931 29.973 21.88 29.913 21.865C29.904 21.862 29.898 21.845 29.892 21.835C29.759 21.71 29.616 21.585 29.488 21.451C29.454 21.417 29.465 21.414 29.383 21.437C29.403 21.681 29.211 21.648 29.036 21.645C26.923 21.592 24.768 21.679 22.636 21.645C22.307 21.665 21.961 21.606 21.641 21.669C21.486 21.684 21.336 21.649 21.186 21.645H20.331C20.27 21.585 20.203 21.527 20.144 21.46C20.088 21.385 20.047 21.243 20.199 21.26C23.261 21.171 26.483 21.43 29.469 21.17C26.389 21.051 23.142 21.172 20.007 21.128C19.948 21.124 19.935 21.103 19.933 21.021C20.077 20.929 20.212 20.817 20.363 20.737C20.826 20.472 21.272 20.17 21.736 19.905C22.951 19.132 24.182 18.376 25.403 17.605C25.498 17.535 25.577 17.548 25.667 17.629C25.867 17.829 26.09 17.996 26.305 18.172C26.968 18.746 27.646 19.3 28.309 19.88C28.781 20.269 29.249 20.662 29.713 21.06C29.826 21.102 29.898 21.02 29.993 20.984C29.977 20.947 29.968 20.914 29.95 20.887C29.801 20.654 29.622 20.446 29.458 20.23C29.3547 20.1354 29.261 20.0309 29.178 19.918C29.054 19.77 28.894 19.661 28.758 19.53C28.681 19.392 27.986 19.05 28.401 19.005C28.651 18.985 28.801 19.193 28.982 19.332C29.778 19.318 30.584 19.36 31.375 19.317C31.722 19.354 32.082 19.324 32.434 19.332C32.596 19.346 32.752 19.258 32.909 19.326C33.926 19.377 34.989 19.261 35.989 19.368C33.979 19.514 31.729 19.437 29.665 19.393C29.402 19.388 28.789 19.349 29.358 19.641C31.5448 19.5606 33.7337 19.554 35.921 19.621C36.026 19.634 35.973 19.739 35.889 19.718C33.737 19.727 31.508 19.702 29.394 19.724ZM23.481 19.353C24.708 19.433 26.004 19.244 27.203 19.423C27.163 19.474 27.133 19.523 27.063 19.523C25.776 19.526 24.489 19.524 23.203 19.523C23.124 19.523 23.05 19.523 22.988 19.583C22.903 19.633 22.81 19.656 22.738 19.742C24.34 19.852 26.032 19.732 27.638 19.782C27.693 19.792 27.668 19.856 27.667 19.899C25.997 19.934 24.32 19.899 22.647 19.911C22.382 19.897 22.251 19.985 22.037 20.136C24.035 20.218 26.069 20.134 28.08 20.166C28.1013 20.1683 28.121 20.1785 28.1351 20.1946C28.1491 20.2108 28.1566 20.2316 28.156 20.253C26.214 20.474 24.011 20.253 22 20.328C21.71 20.311 21.581 20.356 21.335 20.515C23.722 20.618 26.172 20.516 28.578 20.551C28.631 20.584 28.646 20.627 28.656 20.681C26.13 20.786 23.553 20.667 21.014 20.721C20.894 20.756 20.78 20.835 20.671 20.894C20.669 20.98 20.937 20.92 21 20.938C21.03 20.938 21.066 20.931 21.088 20.944C21.2045 20.9876 21.3324 20.9893 21.45 20.949C21.51 20.913 21.559 20.992 21.62 20.972C21.68 20.967 21.738 20.93 21.8 20.97C21.913 20.941 22.03 20.913 22.146 20.958C24.445 20.9 26.792 20.958 29.087 20.938C29.13 20.936 29.234 20.947 29.202 20.884C28.678 20.486 28.18 20.056 27.673 19.636C27.562 19.577 27.479 19.475 27.377 19.4C27.259 19.296 27.122 19.217 27.015 19.104C26.963 19.044 26.883 19.024 26.838 18.96C26.505 18.676 26.148 18.413 25.817 18.13C25.709 18.033 25.548 17.879 25.543 18.127C25.641 18.171 25.75 18.171 25.699 18.303C25.438 18.299 25.179 18.275 24.957 18.437C24.589 18.672 25.892 18.522 26.015 18.561C26.105 18.559 26.201 18.551 26.215 18.673C25.7 18.792 25.123 18.682 24.587 18.719C24.479 18.684 23.932 18.979 24.302 18.946C25.033 18.946 25.764 18.948 26.495 18.946C26.591 18.954 26.735 18.954 26.692 19.1C25.816 19.114 24.929 19.089 24.059 19.111C23.9906 19.0976 23.9202 19.0981 23.8519 19.1125C23.7837 19.127 23.7191 19.155 23.662 19.195C23.592 19.202 23.554 19.258 23.497 19.284C23.474 19.294 23.46 19.32 23.481 19.353ZM34.826 20.979C34.5866 20.9591 34.3457 20.9664 34.108 21.001C33.929 21.011 33.757 20.955 33.575 20.974C33.387 21.049 33.955 21.228 34.037 21.197C34.242 21.202 34.441 21.197 34.637 21.13C34.696 21.081 34.86 21.084 34.826 20.98V20.979ZM31.401 20.703C31.3349 20.6606 31.2551 20.6452 31.178 20.66C31.125 20.635 31.069 20.647 31.015 20.646C30.675 20.644 30.344 20.656 30.011 20.626C30.041 20.744 30.102 20.944 30.253 20.898C30.316 20.87 30.378 20.876 30.441 20.874C30.533 20.876 30.616 20.81 30.709 20.814C30.841 20.806 30.963 20.742 31.092 20.744C31.197 20.7517 31.3024 20.738 31.402 20.704L31.401 20.703ZM34.3 21.284C34.247 21.235 34.113 21.269 34.037 21.268C34.019 21.301 34.076 21.344 34.1 21.368C34.175 21.429 34.243 21.327 34.3 21.284ZM25.126 44.334C25.141 44.319 25.156 44.3 25.175 44.293C25.258 44.263 25.3 44.175 25.369 44.13C25.473 44.083 25.529 43.978 25.619 43.915C25.703 43.871 25.757 43.787 25.833 43.735C25.961 43.649 26.071 43.531 26.193 43.435C26.302 43.381 26.367 43.27 26.458 43.199C26.816 42.922 27.168 42.623 27.501 42.313C27.821 42.043 28.16 41.793 28.451 41.493C28.481 41.467 28.483 41.433 28.461 41.394C27.661 41.379 26.857 41.394 26.055 41.389C23.991 41.45 21.907 41.429 19.835 41.448C19.573 41.453 19.883 41.688 19.965 41.764C20.048 41.844 20.119 41.94 20.212 42.004C20.442 42.189 20.63 42.415 20.862 42.595C20.976 42.7 21.078 42.829 21.2 42.925C21.249 42.939 21.278 42.977 21.309 43.011C21.382 43.093 21.469 43.125 21.579 43.124C22.87 43.119 24.161 43.124 25.452 43.123C25.502 43.123 25.553 43.118 25.601 43.13C25.631 43.248 25.633 43.276 25.58 43.35C25.5189 43.4481 25.4335 43.5287 25.332 43.584C25.214 43.712 25.049 43.581 24.906 43.603C24.591 43.594 24.292 43.692 23.982 43.729C23.675 43.809 23.252 43.442 23.029 43.763C22.984 43.83 22.98 43.972 22.869 43.919C22.766 43.874 22.658 43.898 22.559 43.931C22.414 43.953 22.357 43.982 22.472 44.109C22.592 44.246 22.741 44.353 22.874 44.476C22.974 44.551 23.134 44.483 23.253 44.506C23.381 44.641 23.298 44.848 23.508 44.89C23.614 44.8 23.696 44.651 23.843 44.632C24.107 44.572 24.233 44.762 24.369 44.954C24.662 44.774 24.869 44.544 25.126 44.334ZM23.42 45.41C23.29 45.296 23.188 45.15 23.034 45.06C22.857 44.869 22.659 44.708 22.474 44.529C22.408 44.462 22.348 44.386 22.272 44.334C22.103 44.216 21.98 44.049 21.825 43.917C21.61 43.777 21.475 43.547 21.255 43.411C20.746 42.894 20.188 42.428 19.674 41.921C19.594 41.824 19.484 41.765 19.397 41.678C19.324 41.631 19.267 41.486 19.166 41.528C19.08 41.67 19.091 41.846 19.051 42.002C19.011 42.135 19.015 42.28 18.964 42.407C18.951 42.573 18.947 42.601 19.107 42.612C19.173 42.661 19.223 42.743 19.162 42.814C19.002 43.074 19.353 42.91 19.406 43.147C19.46 43.433 18.982 43.152 18.932 43.383C18.895 43.537 18.776 43.655 18.711 43.792C18.671 43.972 18.513 44.35 18.861 44.15C18.911 44.122 18.966 44.098 18.998 44.045C19.066 44.027 19.043 43.938 19.101 43.911C19.379 44.054 19.317 43.816 19.463 43.871C19.624 43.938 19.771 43.898 19.638 44.117C19.598 44.247 19.692 44.343 19.791 44.407C19.8832 44.3772 19.9646 44.3209 20.025 44.245C20.111 44.24 20.059 44.38 20.057 44.429C20.067 44.501 20.014 44.553 20.019 44.626C20.03 44.768 20.002 44.906 19.989 45.043C19.988 45.143 19.945 45.232 19.959 45.333C19.958 45.371 19.967 45.415 19.952 45.447C19.905 45.547 19.932 45.647 19.931 45.754C20.123 45.863 20.343 45.924 20.554 45.984C20.821 46.116 20.774 45.822 20.798 45.664C20.845 45.575 20.814 45.479 20.835 45.39C20.865 45.342 20.86 45.29 20.856 45.24C20.856 45.118 20.894 44.997 20.896 44.876C20.959 44.784 20.899 44.661 20.932 44.564C20.962 44.401 20.99 44.239 20.986 44.074C21.002 44.014 21.027 43.963 21.018 43.9C21.018 43.808 21.064 43.73 21.051 43.637C21.034 43.507 21.173 43.535 21.226 43.602C21.44 43.82 21.686 44.004 21.89 44.236C21.982 44.332 21.822 44.419 21.731 44.411C21.699 44.408 21.662 44.401 21.632 44.435C21.656 44.531 21.744 44.605 21.728 44.715C21.724 44.8 21.728 44.885 21.728 44.968C21.811 45.061 21.903 45.227 22.038 45.106C22.397 44.724 22.511 45.171 22.761 45.143C22.891 45.054 23.075 45.353 23.181 45.433C23.237 45.495 23.319 45.518 23.368 45.586C23.4123 45.6353 23.4684 45.6724 23.531 45.694C23.677 45.602 23.501 45.477 23.421 45.411L23.42 45.41ZM24.58 45.485C24.649 45.526 24.626 45.638 24.724 45.659C24.984 45.492 25.177 45.364 25.486 45.517C25.561 45.553 25.634 45.631 25.721 45.624C25.911 45.567 25.878 45.35 25.863 45.196C25.833 45.048 25.744 44.934 25.904 44.832C25.95 44.627 25.641 44.717 25.583 44.569C25.614 44.499 25.683 44.483 25.728 44.441C25.825 44.352 25.913 44.256 26.021 44.178C26.293 43.935 26.397 43.836 26.789 43.918C26.899 43.927 27.003 43.969 27.075 44.056C27.193 44.146 27.017 44.4 27.243 44.336C27.351 44.309 27.463 44.246 27.573 44.31C27.734 44.379 27.686 44.53 27.756 44.656C28.126 44.706 28.013 45.086 28.189 44.828C28.2046 44.7927 28.2294 44.7624 28.261 44.7402C28.2925 44.7179 28.3295 44.7048 28.368 44.702C28.4092 44.6976 28.4489 44.6842 28.4844 44.663C28.52 44.6418 28.5505 44.6131 28.574 44.579C28.574 44.493 28.569 44.214 28.689 44.218C29.021 44.198 28.973 43.983 28.735 43.844C28.589 43.731 28.733 43.61 28.751 43.474C28.735 43.464 28.722 43.449 28.708 43.448C28.565 43.426 28.402 43.281 28.466 43.124C28.638 43.124 28.808 43.122 28.979 43.124C29.236 43.145 29.133 42.872 29.146 42.698C29.093 42.609 29.138 42.502 29.114 42.41C29.081 42.344 29.094 42.276 29.091 42.209C29.098 42.085 29.04 41.979 29.057 41.857C29.064 41.767 29.011 41.694 29.023 41.607C29.032 41.247 28.735 41.61 28.623 41.697C28.514 41.76 28.451 41.877 28.348 41.944C28.238 42.012 28.162 42.12 28.065 42.199C27.965 42.245 27.908 42.343 27.825 42.405C27.762 42.429 27.723 42.481 27.678 42.525C27.605 42.618 27.505 42.674 27.421 42.75C27.234 42.942 27.023 43.106 26.824 43.282C26.779 43.339 26.71 43.354 26.667 43.409C26.62 43.458 26.577 43.517 26.52 43.55C26.433 43.6 26.371 43.675 26.3 43.742C26.152 43.895 25.967 44.003 25.821 44.157C25.657 44.334 25.447 44.457 25.281 44.634C25.016 44.855 24.756 45.091 24.497 45.32C24.44 45.418 24.109 45.569 24.18 45.684C24.365 45.767 24.42 45.496 24.581 45.484L24.58 45.485ZM15.054 23.06C15.031 23.095 14.994 23.131 14.993 23.169C14.987 23.306 14.865 23.381 14.847 23.514C14.822 23.613 14.773 23.803 14.639 23.764C14.561 23.714 14.469 23.753 14.39 23.729C14.33 23.694 14.266 23.703 14.203 23.702C13.935 23.73 13.576 23.571 13.694 23.997C13.719 24.091 13.814 24.044 13.878 24.027C13.992 23.999 14.115 24.002 14.228 23.981C14.331 23.937 14.448 23.973 14.558 23.961C14.587 23.96 14.62 23.961 14.645 23.947C14.732 23.88 14.816 24.012 14.892 23.929C15.069 23.709 15.166 23.425 15.342 23.199C16.142 21.989 17.49 21.044 18.936 20.811C18.992 20.804 19.037 20.767 19.096 20.778C19.116 20.777 19.142 20.782 19.159 20.773C19.226 20.733 19.299 20.747 19.371 20.746C19.531 20.731 19.738 20.793 19.855 20.656C20.336 20.116 20.836 19.576 21.419 19.139C21.503 18.956 21.204 19.018 21.117 19.01C20.9 19.125 20.78 19.384 20.507 19.333C18.278 19.366 15.999 19.27 13.794 19.367C14.698 19.466 15.676 19.315 16.581 19.431C17.007 19.405 17.456 19.486 17.868 19.398C18.108 19.374 18.362 19.411 18.6 19.41C18.818 19.376 19.042 19.393 19.262 19.399C19.408 19.426 19.559 19.449 19.705 19.415C19.957 19.386 20.215 19.392 20.474 19.393C20.545 19.379 20.596 19.43 20.549 19.493C20.5077 19.5474 20.4524 19.5896 20.389 19.615C20.346 19.632 20.316 19.655 20.309 19.705C20.279 19.791 20.187 19.846 20.129 19.913C18.024 19.917 15.919 19.903 13.814 19.918C13.79 19.92 13.77 19.935 13.778 19.974H15.638C16.898 20.028 18.202 20.038 19.46 19.974C19.573 19.979 19.694 19.964 19.805 19.98C19.873 20.026 19.945 19.99 20.017 20.022C19.948 20.269 19.724 20.298 19.507 20.247C18.96 20.242 18.387 20.299 17.84 20.232C16.529 20.285 15.01 20.13 13.801 20.285C15.751 20.43 17.784 20.259 19.736 20.3C19.81 20.289 19.781 20.364 19.764 20.41C19.73 20.533 19.614 20.562 19.5 20.552C18.997 20.554 18.475 20.534 17.99 20.607L18.045 20.631C17.92 20.725 17.779 20.735 17.641 20.797C17.498 20.846 17.36 20.913 17.204 20.909C17.068 21.0786 16.8716 21.189 16.656 21.217C16.656 21.277 16.674 21.303 16.606 21.344C16.454 21.447 16.416 21.524 16.205 21.521C16.315 21.679 16.21 21.604 16.158 21.721C16.102 21.825 15.908 21.801 15.903 21.941C15.835 22.036 15.743 22.141 15.627 22.176C15.623 22.208 15.629 22.254 15.61 22.272C15.558 22.32 15.532 22.389 15.469 22.43C15.329 22.514 15.362 22.718 15.181 22.782C15.217 22.892 15.094 22.968 15.054 23.06ZM18.086 27.951V27.997C17.98 28.017 17.896 28.099 17.786 28.117C17.716 28.14 17.65 28.131 17.598 28.197C17.66 28.221 17.725 28.193 17.794 28.221C17.685 28.345 17.53 28.29 17.404 28.377C17.462 28.42 17.536 28.367 17.57 28.425C17.554 28.483 17.46 28.482 17.414 28.511C17.324 28.523 17.231 28.541 17.141 28.557C16.923 28.577 16.714 28.519 16.501 28.491C16.346 28.448 16.383 28.377 16.533 28.398C16.613 28.395 16.652 28.382 16.638 28.36C16.555 28.29 16.426 28.374 16.334 28.309C16.29 28.271 16.236 28.265 16.181 28.259C16.128 28.196 16.051 28.209 15.988 28.204C15.945 28.112 16.063 28.145 16.124 28.13C16.09 28.076 16.046 28.062 15.992 28.055C15.87 28.055 15.786 27.957 15.672 27.941C15.665 27.941 15.655 27.921 15.656 27.911C15.68 27.861 15.76 27.885 15.806 27.872C15.803 27.962 15.877 27.946 15.941 27.942C16.011 27.867 15.845 27.883 15.802 27.875C15.71 27.743 15.507 27.762 15.409 27.645C15.479 27.623 15.479 27.622 15.525 27.645C15.61 27.688 15.706 27.7 15.791 27.75C15.968 27.743 15.986 27.839 16.144 27.812C16.17 27.735 15.811 27.692 15.729 27.612C15.696 27.547 15.826 27.548 15.854 27.592C15.884 27.623 15.92 27.626 15.959 27.625C16.094 27.584 16.283 27.765 16.303 27.645C16.253 27.59 16.196 27.551 16.116 27.562C16.08 27.57 16.053 27.517 16.09 27.502C16.149 27.493 16.21 27.479 16.263 27.516C16.36 27.582 16.463 27.566 16.565 27.556C16.595 27.489 16.532 27.493 16.508 27.473C16.482 27.449 16.445 27.437 16.409 27.418C16.5 27.377 16.613 27.409 16.712 27.399C16.725 27.399 16.741 27.398 16.75 27.405C16.81 27.452 16.88 27.435 16.947 27.435C17.063 27.457 17.377 27.387 17.435 27.479C17.352 27.508 17.259 27.516 17.173 27.589C17.353 27.617 17.516 27.499 17.668 27.604C17.559 27.65 17.488 27.695 17.371 27.701C17.5 27.757 17.568 27.691 17.678 27.691C17.788 27.717 17.866 27.602 17.97 27.632C18.035 27.669 17.869 27.762 17.828 27.759C17.82 27.759 17.812 27.781 17.798 27.804C17.99 27.79 18.124 27.695 18.29 27.63C18.38 27.605 18.421 27.508 18.522 27.5C18.534 27.539 18.493 27.553 18.482 27.582C18.409 27.75 18.202 27.752 18.086 27.876L18.089 27.874C18.022 27.876 17.979 27.874 17.941 27.943L18.089 27.954L18.086 27.951ZM17.466 28.212H16.636C16.793 28.247 16.926 28.299 17.081 28.242C17.226 28.251 17.32 28.302 17.466 28.212ZM16.466 28.206C16.404 28.098 16.29 28.151 16.192 28.14C16.168 28.257 16.385 28.189 16.467 28.206H16.466ZM16.398 28.032C16.458 28.043 16.518 28.077 16.577 28.073C16.677 27.993 16.44 28.003 16.398 28.032ZM16.424 27.677C16.476 27.753 16.574 27.718 16.65 27.713C16.574 27.701 16.494 27.642 16.424 27.677ZM16.15 27.949C16.044 27.941 16.042 28.017 16.152 28.01C16.219 28.025 16.255 27.945 16.15 27.949ZM17.517 28.037C17.517 28.028 17.515 28.019 17.513 28.011C17.491 28.021 17.463 27.998 17.433 28.037H17.517ZM17.877 27.955C17.78 27.922 17.731 28.011 17.833 28.008C17.858 28.003 17.88 27.993 17.877 27.955ZM16.417 27.845C16.375 27.824 16.334 27.815 16.266 27.845H16.416H16.417ZM17.602 27.831C17.604 27.861 17.659 27.845 17.682 27.844C17.68 27.817 17.624 27.838 17.602 27.831ZM27.018 46.468C27.078 46.464 27.138 46.475 27.191 46.438C27.296 46.441 27.365 46.378 27.431 46.31C27.589 46.188 27.733 46.04 27.876 45.893C28.069 45.765 28.2 45.567 28.388 45.436C28.568 45.296 28.7 45.097 28.896 44.972C29.134 44.713 29.446 44.605 29.262 44.223C29.202 44.205 29.157 44.22 29.114 44.269C29.03 44.364 28.929 44.444 28.83 44.524C28.609 44.742 28.367 44.936 28.156 45.164C28.007 45.235 27.93 45.398 27.796 45.484C27.66 45.601 27.521 45.72 27.401 45.858C27.307 45.974 26.746 46.366 26.819 46.494C26.889 46.511 26.949 46.471 27.018 46.468ZM30.019 42.65C30.046 42.737 30.101 42.816 30.095 42.914C30.097 42.952 30.14 42.99 30.147 43.029C30.166 43.176 30.233 43.309 30.269 43.451C30.309 43.605 30.356 43.611 30.469 43.495C30.556 43.43 30.617 43.295 30.731 43.285C30.787 43.286 30.885 43.363 30.885 43.417C30.925 43.597 30.722 44.266 31.076 43.844C31.209 43.682 31.337 43.514 31.469 43.352C31.424 43.274 31.356 43.225 31.284 43.172C30.96 42.921 30.624 42.678 30.301 42.422C30.174 42.344 30.077 42.208 29.936 42.162C29.902 42.336 29.99 42.485 30.019 42.65ZM30.571 45.124C30.573 45.047 30.532 44.987 30.505 44.921C30.357 44.313 30.144 43.731 29.985 43.124C29.978 42.982 29.827 43.001 29.882 43.14C29.896 43.167 29.889 43.206 29.891 43.24C29.891 43.39 29.881 43.537 29.922 43.683C29.926 43.767 29.908 43.853 29.956 43.933C29.966 43.948 29.96 43.974 29.96 43.995C29.965 44.091 29.95 44.196 29.966 44.289C29.996 44.346 29.987 44.405 29.989 44.465C29.98 44.56 29.999 44.649 30.019 44.741C30.019 44.817 30.008 44.895 30.054 44.964C30.121 45.136 30.104 45.457 30.278 45.532C30.582 45.366 30.708 45.471 30.571 45.123V45.124ZM20.551 29.21C20.37 29.27 20.178 29.31 19.993 29.358C19.861 29.388 19.729 29.398 19.594 29.421C19.511 29.427 19.424 29.404 19.346 29.456C19.208 29.46 19.061 29.466 18.924 29.454C18.859 29.407 18.784 29.417 18.714 29.424C18.581 29.434 18.454 29.378 18.322 29.388C18.219 29.336 18.102 29.339 17.995 29.298C17.98 29.29 17.945 29.281 17.929 29.318C18.029 29.348 18.105 29.431 18.214 29.436C18.276 29.488 18.354 29.488 18.43 29.496C18.553 29.546 18.684 29.556 18.813 29.562C18.864 29.596 18.92 29.586 18.975 29.587C19.182 29.582 19.397 29.597 19.602 29.582C19.736 29.517 19.882 29.596 20.014 29.525C20.122 29.462 20.262 29.517 20.364 29.43C20.418 29.415 20.483 29.427 20.534 29.392C20.616 29.365 20.673 29.346 20.7 29.252C20.66 29.207 20.606 29.19 20.551 29.21ZM14.203 20.55C14.1 20.54 14.018 20.602 13.916 20.586C13.884 20.586 13.754 20.576 13.808 20.636C13.918 20.652 14.029 20.643 14.14 20.645C15.316 20.63 16.508 20.681 17.671 20.611C16.57 20.506 15.351 20.564 14.203 20.55ZM20.191 19.685C20.317 19.684 20.155 19.601 20.094 19.64C19.974 19.68 19.844 19.583 19.721 19.637C19.591 19.685 19.461 19.628 19.331 19.619C18.882 19.628 18.42 19.595 17.98 19.641C17.403 19.586 16.798 19.624 16.217 19.631C16.132 19.605 16.06 19.636 15.988 19.684C17.391 19.69 18.804 19.686 20.191 19.685ZM31.437 44.157C31.433 44.405 31.37 44.656 31.413 44.905C31.497 45.042 31.633 44.841 31.727 44.795V44.48C31.726 44.419 31.685 44.37 31.693 44.308C31.699 44.241 31.648 44.187 31.659 44.123C31.653 43.975 31.636 43.725 31.559 43.603C31.396 43.748 31.525 43.979 31.437 44.157ZM24.58 46.653C24.812 46.553 24.402 46.368 24.345 46.27C23.734 45.631 23.941 45.901 23.307 46.353C23.2482 46.3862 23.2008 46.4364 23.171 46.497C23.233 46.567 23.239 46.569 23.299 46.542C23.522 46.429 23.659 46.197 23.882 46.083C24.152 46.223 24.298 46.535 24.58 46.653ZM26.074 28.697C26.054 28.704 26.034 28.717 26.014 28.717C25.891 28.714 25.787 28.807 25.664 28.812C25.388 28.867 25.115 28.888 24.831 28.877C24.805 28.877 24.775 28.885 24.755 28.874C24.67 28.832 24.58 28.849 24.491 28.846C24.453 28.844 24.414 28.85 24.381 28.824C24.37 28.819 24.341 28.833 24.353 28.847C24.461 28.91 24.563 28.993 24.701 28.977C24.717 28.974 24.738 28.972 24.751 28.98C24.837 29.025 24.934 29.003 25.024 29.03C25.45 29.084 26.194 28.91 26.475 28.564C26.33 28.56 26.21 28.657 26.074 28.697ZM26.959 28.514C26.669 28.661 26.419 28.82 26.116 28.93C25.966 29.012 25.786 28.978 25.653 29.1C25.84 29.38 26.875 28.762 26.959 28.514ZM25.771 28.524C25.656 28.544 25.549 28.604 25.427 28.591C25.359 28.596 25.298 28.632 25.227 28.619C24.373 28.589 24.975 28.814 25.385 28.781C25.602 28.712 25.988 28.691 26.101 28.478C25.977 28.425 25.893 28.536 25.771 28.524ZM27.465 28.322C27.347 28.394 27.267 28.507 27.168 28.599C27.08 28.679 26.964 28.719 26.888 28.814C26.759 28.904 26.608 28.968 26.468 29.044C26.397 29.082 26.43 29.163 26.496 29.166C26.703 29.165 26.93 28.92 27.109 28.816C27.297 28.627 27.466 28.449 27.604 28.203C27.519 28.22 27.497 28.267 27.465 28.322ZM13.799 28.591C13.908 28.621 14.009 28.677 14.114 28.716C14.204 28.735 14.3 28.734 14.386 28.759C14.46 28.822 15.14 28.769 14.819 28.649C14.759 28.649 14.696 28.659 14.641 28.642C14.509 28.589 14.369 28.604 14.234 28.572C14.158 28.549 14.086 28.514 14.002 28.52C13.908 28.506 13.836 28.43 13.728 28.47C13.733 28.568 13.734 28.568 13.799 28.59V28.591ZM13.932 21.582C14.609 21.544 15.315 21.663 15.978 21.527C15.2437 21.4975 14.5084 21.4968 13.774 21.525C13.773 21.607 13.879 21.575 13.931 21.582H13.932ZM16.878 20.95C16.6165 20.8823 16.3427 20.8775 16.079 20.936C15.949 20.926 15.815 20.966 15.689 20.908C15.589 20.918 15.484 20.896 15.389 20.908C15.257 20.968 15.109 20.926 14.971 20.938C14.772 20.944 14.569 20.928 14.375 20.938C14.299 20.941 14.237 20.897 14.165 20.903C14.103 20.92 13.744 20.853 13.8 20.963C14.496 21.001 16.729 20.974 16.878 20.95ZM29.248 25.803C29.43 25.715 29.599 25.608 29.774 25.509C29.864 25.426 29.936 25.325 30.044 25.261C30.061 25.179 30.285 25.061 30.227 25.001C30.135 25.052 30.082 25.134 29.996 25.195C29.868 25.259 29.784 25.39 29.649 25.444C29.611 25.509 29.533 25.506 29.477 25.544C29.387 25.604 29.283 25.644 29.185 25.694C29.12 25.689 29.115 25.741 29.101 25.786C29.145 25.836 29.205 25.841 29.248 25.803ZM27.636 26.678C27.581 26.621 27.582 26.575 27.606 26.509C27.612 26.436 27.586 26.407 27.512 26.405C27.405 26.43 26.964 26.32 27.112 26.531C27.248 26.536 27.306 26.509 27.441 26.586C27.345 26.609 27.189 26.549 27.226 26.708C27.278 26.758 27.707 26.815 27.636 26.678ZM26.886 26.072C27.026 26.085 27.158 26.163 27.306 26.146C27.3484 26.1408 27.3914 26.1489 27.429 26.169C27.513 26.229 27.683 26.093 27.564 26.029C27.432 25.996 27.291 26.049 27.163 25.989C27.0945 25.9554 27.0178 25.9422 26.942 25.951C26.815 25.963 26.746 25.851 26.607 25.904C26.657 26.044 26.783 26.008 26.886 26.072ZM27.272 25.822C27.143 25.828 27.036 25.732 26.902 25.755C26.823 25.695 26.714 25.712 26.636 25.645C26.619 25.61 26.516 25.651 26.543 25.701C26.645 25.782 26.775 25.797 26.893 25.835C27.101 25.925 27.345 25.976 27.57 25.935C27.592 25.755 27.379 25.842 27.272 25.822ZM27.223 26.337C27.335 26.319 27.433 26.39 27.548 26.365C27.582 26.362 27.605 26.325 27.606 26.291C27.592 26.141 27.326 26.229 27.221 26.209C27.075 26.217 26.962 26.102 26.813 26.157C26.823 26.313 27.103 26.323 27.223 26.337ZM13.887 21.898C14.51 21.893 15.134 21.91 15.756 21.893C15.769 21.891 15.779 21.873 15.803 21.85C15.737 21.836 13.313 21.813 13.887 21.898ZM27.494 25.758C27.594 25.751 27.599 25.642 27.499 25.634C27.311 25.657 27.149 25.56 26.962 25.564C26.9368 25.5629 26.9127 25.5538 26.893 25.538C26.828 25.478 26.728 25.536 26.677 25.453C26.663 25.436 26.633 25.443 26.622 25.456C26.649 25.596 27.252 25.754 27.394 25.759L27.494 25.758ZM35.038 27.808C34.972 27.904 35.253 27.916 35.308 27.923C35.43 27.957 35.553 27.981 35.681 27.977C35.785 27.94 35.926 28.08 35.991 27.951C36.009 27.814 35.515 27.901 35.409 27.878C35.38 27.878 35.345 27.885 35.329 27.854C35.259 27.783 35.13 27.829 35.038 27.808ZM14.742 22.188C14.5768 22.1572 14.4072 22.1572 14.242 22.188C14.099 22.181 13.953 22.209 13.812 22.165C13.808 22.164 13.795 22.175 13.794 22.18C13.787 22.234 13.854 22.219 13.888 22.226C14.284 22.224 14.677 22.232 15.072 22.222C15.034 22.152 14.823 22.204 14.742 22.188ZM13.829 21.198C13.772 21.2 13.792 21.271 13.839 21.256C14.581 21.183 15.362 21.251 16.126 21.224C15.415 21.152 14.58 21.223 13.829 21.199V21.198ZM35.485 28.423C35.5503 28.4544 35.6228 28.4679 35.695 28.462C35.777 28.469 35.858 28.511 35.943 28.487C36.136 28.35 35.709 28.406 35.643 28.395C35.532 28.413 35.243 28.237 35.188 28.382C35.285 28.416 35.388 28.376 35.485 28.423ZM15.07 19.652L14.179 19.662C14.435 19.726 14.806 19.662 15.099 19.684C15.109 19.663 15.087 19.654 15.07 19.652ZM27.521 25.442C27.386 25.437 27.251 25.445 27.125 25.378C27.1 25.364 27.056 25.361 27.031 25.42C27.113 25.474 27.661 25.664 27.521 25.442ZM35.673 27.725C35.633 27.697 35.249 27.645 35.317 27.742C35.442 27.762 35.576 27.73 35.689 27.792C35.78 27.836 35.869 27.819 35.97 27.811C35.937 27.695 35.764 27.786 35.673 27.725ZM13.813 22.794C14.223 22.807 14.628 22.811 15.04 22.792C14.861 22.724 14.654 22.815 14.473 22.747C14.4615 22.7416 14.449 22.7385 14.4363 22.7379C14.4236 22.7374 14.4109 22.7395 14.399 22.744C14.211 22.801 14.011 22.757 13.817 22.77C13.8153 22.778 13.8136 22.786 13.812 22.794H13.813ZM14.043 22.518C14.136 22.554 14.229 22.486 14.323 22.528C14.486 22.576 14.641 22.517 14.8 22.512C14.808 22.511 14.815 22.503 14.829 22.494C14.5192 22.4761 14.2086 22.4777 13.899 22.499C13.951 22.524 14.002 22.501 14.042 22.518H14.043ZM29.566 25.808C29.576 25.796 29.566 25.772 29.551 25.768C29.481 25.738 29.451 25.832 29.379 25.827C29.306 25.861 29.309 25.902 29.204 25.896C29.058 26.144 29.509 25.869 29.566 25.808ZM35.962 28.568C35.958 28.48 35.778 28.532 35.716 28.528C35.697 28.529 35.681 28.555 35.648 28.583C35.772 28.573 35.898 28.682 35.962 28.568ZM24.361 29.114C24.294 29.016 24.157 29.02 24.049 29.011C24.141 29.076 24.222 29.177 24.361 29.114ZM29.106 25.584C29.173 25.62 29.226 25.587 29.266 25.557C29.313 25.522 29.388 25.512 29.404 25.436C29.3459 25.4337 29.2881 25.446 29.2361 25.4719C29.184 25.4977 29.1392 25.5363 29.106 25.584ZM13.786 23.116C14.059 23.127 14.359 23.145 14.624 23.107C14.349 23.097 14.054 23.082 13.786 23.115V23.116ZM26.969 29.106C27.049 29.201 27.179 29.007 27.209 28.933C27.125 28.984 27.007 29.009 26.969 29.106ZM34.846 27.75C34.832 27.752 34.816 27.74 34.801 27.734C34.799 27.884 34.951 27.796 35.039 27.809C34.977 27.782 34.924 27.733 34.846 27.75ZM35.946 27.57C35.8754 27.5685 35.8047 27.5685 35.734 27.57C35.678 27.63 35.814 27.621 35.847 27.627C35.883 27.62 36 27.63 35.946 27.57ZM34.595 27.715C34.661 27.77 34.726 27.742 34.801 27.733C34.731 27.717 34.666 27.656 34.595 27.715ZM18.09 27.873V27.953C18.095 27.943 18.149 27.948 18.17 27.943C18.169 27.883 18.128 27.878 18.087 27.875L18.09 27.873ZM34.314 27.731C34.174 27.638 34.17 27.802 34.315 27.73L34.314 27.731ZM15.278 22.209C15.257 22.189 15.242 22.189 15.224 22.212L15.254 22.23L15.278 22.209ZM16.406 21.221H16.54C16.486 21.196 16.454 21.194 16.406 21.221ZM29.799 29.183C29.787 29.168 29.756 29.168 29.754 29.197C29.772 29.197 29.794 29.209 29.799 29.183ZM23.579 29.058C23.575 29.092 23.614 29.108 23.639 29.094C23.644 29.065 23.599 29.021 23.579 29.058ZM29.628 25.748L29.647 25.745C29.642 25.725 29.624 25.725 29.628 25.748ZM31.108 28.38C31.143 28.402 31.166 28.388 31.186 28.367C31.166 28.377 31.132 28.347 31.108 28.38ZM23.723 26.562C23.767 26.589 23.797 26.519 23.769 26.476C23.689 26.467 23.319 26.356 23.509 26.529C23.585 26.535 23.656 26.527 23.723 26.562Z" fill="#F5F8FF"/>
</svg>
