<svg width="128" height="64" viewBox="0 0 128 64" fill="none" xmlns="http://www.w3.org/2000/svg">
<path d="M26.158 31.143C26.003 25.316 30.903 20.269 36.834 20.262C42.777 20.255 47.712 25.106 47.647 31.328C47.587 37.109 42.836 42.268 36.432 42.055C31.012 41.876 26.002 37.164 26.158 31.143ZM46.24 31.156C46.301 26.007 42.142 21.656 36.905 21.648C31.559 21.641 27.621 25.993 27.495 30.888C27.352 36.44 31.791 40.583 36.665 40.674C42.077 40.776 46.342 36.258 46.24 31.156ZM80.106 31.466V28.638C80.106 27.77 80.108 26.903 80.1 26.035C80.098 25.847 80.158 25.776 80.348 25.778C80.992 25.787 81.638 25.786 82.281 25.778C82.489 25.776 82.562 25.858 82.562 26.07C82.558 29.179 82.558 32.288 82.562 35.397C82.562 35.608 82.489 35.692 82.282 35.69C81.697 35.684 81.112 35.68 80.527 35.692C80.315 35.696 80.229 35.565 80.137 35.419L76.862 30.187C76.824 30.124 76.779 30.065 76.707 29.96C76.696 30.079 76.683 30.142 76.683 30.207C76.694 31.864 76.705 33.52 76.722 35.177C76.727 35.687 76.736 35.687 76.218 35.687C75.667 35.687 75.116 35.68 74.565 35.69C74.351 35.694 74.261 35.628 74.261 35.397C74.266 32.288 74.266 29.179 74.261 26.07C74.261 25.84 74.348 25.772 74.563 25.776C75.113 25.786 75.665 25.788 76.216 25.776C76.422 25.771 76.541 25.85 76.646 26.023C77.721 27.767 78.802 29.506 79.882 31.247C79.934 31.332 79.995 31.41 80.052 31.492C80.07 31.482 80.088 31.474 80.107 31.465L80.106 31.466ZM59.955 35.37C59.954 35.601 60.016 35.695 60.253 35.69C60.915 35.68 61.576 35.682 62.237 35.69C62.452 35.694 62.536 35.624 62.533 35.394C62.522 34.553 62.533 33.711 62.526 32.87C62.523 32.69 62.58 32.636 62.758 32.632C63.358 32.615 63.961 32.609 64.557 32.544C65.309 32.462 65.98 32.16 66.487 31.571C67.203 30.741 67.446 29.763 67.322 28.678C67.198 27.593 66.691 26.749 65.757 26.203C65.123 25.832 64.398 25.8 63.689 25.787C62.561 25.765 61.434 25.781 60.306 25.782C59.964 25.782 59.96 25.787 59.96 26.122V30.708C59.96 32.263 59.964 33.817 59.956 35.371L59.955 35.37ZM62.535 28.258C62.539 28.191 62.626 28.068 62.669 28.071C63.189 28.101 63.717 28.105 64.224 28.211C64.709 28.311 64.93 28.734 64.899 29.275C64.87 29.768 64.565 30.176 64.101 30.239C63.634 30.302 63.159 30.299 62.686 30.305C62.635 30.305 62.54 30.181 62.536 30.11C62.519 29.802 62.529 29.493 62.529 29.184C62.529 28.876 62.521 28.567 62.535 28.258ZM99.136 28.738C99.316 28.743 99.382 28.662 99.367 28.49C99.272 27.47 98.88 26.63 97.975 26.088C96.726 25.338 94.775 25.452 93.609 26.444C92.323 27.54 92.197 29.718 93.669 30.775C94.152 31.123 94.717 31.352 95.252 31.624C95.681 31.841 96.128 32.024 96.554 32.249C96.794 32.375 96.93 32.596 96.889 32.889C96.839 33.251 96.519 33.604 96.193 33.659C95.75 33.732 95.377 33.566 95.2 33.174C95.11 32.976 95.07 32.752 95.02 32.538C94.988 32.403 94.936 32.333 94.782 32.335C94.087 32.342 93.392 32.341 92.697 32.337C92.492 32.336 92.425 32.444 92.444 32.63C92.465 32.835 92.499 33.038 92.519 33.242C92.628 34.367 93.417 35.311 94.481 35.658C95.177 35.885 95.884 35.878 96.593 35.843C97.1892 35.82 97.7659 35.6245 98.253 35.28C99.096 34.679 99.394 33.813 99.436 32.813C99.476 31.85 99.114 31.092 98.346 30.538C98.0423 30.321 97.7239 30.1255 97.393 29.953C96.778 29.63 96.144 29.345 95.533 29.017C95.06 28.763 95.065 28.198 95.519 27.907C96.044 27.57 96.664 27.859 96.786 28.517C96.82 28.697 96.892 28.743 97.051 28.74C97.39 28.733 97.729 28.738 98.068 28.738C98.425 28.738 98.781 28.732 99.137 28.74L99.136 28.739V28.738ZM84.499 35.378C84.499 35.594 84.56 35.69 84.786 35.69C86.473 35.685 88.16 35.686 89.848 35.69C90.046 35.69 90.113 35.611 90.109 35.412C90.099 34.855 90.106 34.296 90.105 33.738C90.105 33.421 90.095 33.408 89.773 33.408C88.95 33.408 88.127 33.404 87.305 33.412C87.115 33.414 87.05 33.352 87.055 33.162C87.066 32.792 87.068 32.422 87.055 32.053C87.048 31.856 87.122 31.805 87.305 31.807C88.111 31.815 88.917 31.807 89.723 31.813C89.928 31.815 90.011 31.743 90.006 31.528C89.997 30.953 89.994 30.376 90.008 29.801C90.013 29.581 89.934 29.523 89.73 29.525C88.916 29.535 88.102 29.525 87.287 29.532C87.111 29.534 87.048 29.481 87.055 29.299C87.068 28.974 87.069 28.646 87.055 28.32C87.047 28.117 87.116 28.054 87.317 28.056C88.139 28.066 88.962 28.054 89.785 28.065C90.02 28.068 90.119 28.003 90.11 27.744C90.093 27.204 90.105 26.662 90.105 26.121C90.105 25.787 90.1 25.781 89.758 25.781H84.85C84.52 25.781 84.503 25.798 84.503 26.128V30.715C84.503 32.269 84.505 33.823 84.499 35.378ZM57.044 26.06C57.046 25.85 56.985 25.772 56.771 25.776C56.1524 25.7868 55.5336 25.7868 54.915 25.776C54.723 25.773 54.605 25.844 54.495 26.002C53.348 27.668 52.205 29.335 51.039 30.988C50.583 31.634 50.112 32.254 50.287 33.124C50.317 33.273 50.291 33.433 50.291 33.587C50.291 33.844 50.418 33.973 50.673 33.974C51.885 33.974 53.097 33.978 54.309 33.97C54.505 33.97 54.579 34.024 54.57 34.231C54.555 34.617 54.577 35.004 54.562 35.39C54.554 35.617 54.637 35.693 54.855 35.69C55.5 35.68 56.144 35.68 56.788 35.69C56.995 35.693 57.049 35.61 57.044 35.416C57.034 35.013 57.049 34.609 57.038 34.206C57.033 34.024 57.098 33.96 57.273 33.97C57.476 33.983 57.68 33.97 57.883 33.974C58.05 33.977 58.135 33.904 58.135 33.729C58.133 33.197 58.133 32.665 58.135 32.133C58.135 31.97 58.062 31.9 57.902 31.903C57.699 31.909 57.494 31.892 57.292 31.909C57.086 31.927 57.035 31.846 57.037 31.647C57.047 30.721 57.041 29.793 57.041 28.867C57.041 27.931 57.036 26.995 57.046 26.06H57.044ZM54.724 29.443C54.725 30.17 54.716 30.898 54.73 31.626C54.734 31.86 54.656 31.917 54.438 31.911C53.967 31.897 53.495 31.907 52.953 31.907L54.637 29.199C54.66 29.208 54.684 29.215 54.707 29.223C54.713 29.296 54.724 29.37 54.724 29.443ZM71.789 26.123C71.789 25.787 71.784 25.782 71.444 25.782C70.791 25.78 70.139 25.788 69.485 25.777C69.274 25.774 69.209 25.845 69.209 26.059C69.214 29.176 69.214 32.294 69.209 35.41C69.209 35.622 69.271 35.696 69.484 35.693C70.1453 35.68 70.8067 35.68 71.468 35.693C71.731 35.699 71.796 35.6 71.793 35.347C71.783 33.818 71.788 32.289 71.788 30.761V26.124H71.789V26.123ZM59.004 40.133C59.426 40.734 59.845 41.336 60.264 41.938C60.605 42.428 60.954 42.914 61.283 43.412C61.43 43.633 61.64 43.61 61.823 43.56C61.896 43.54 61.956 43.33 61.957 43.207C61.966 41.894 61.961 40.58 61.965 39.267C61.965 39.056 61.93 38.927 61.674 38.929C61.427 38.931 61.379 39.041 61.381 39.261C61.389 40.257 61.385 41.252 61.384 42.248C61.384 42.33 61.377 42.411 61.37 42.562C61.281 42.445 61.23 42.382 61.184 42.316L59.59 40.026C59.375 39.718 59.16 39.411 58.951 39.097C58.808 38.881 58.594 38.917 58.402 38.954C58.338 38.966 58.256 39.116 58.254 39.204C58.245 40.576 58.249 41.95 58.246 43.324C58.246 43.51 58.318 43.584 58.503 43.584C58.815 43.584 58.846 43.564 58.846 43.234V39.943C58.919 40.031 58.967 40.079 59.004 40.133ZM63.003 43.327C63.001 43.507 63.047 43.591 63.245 43.586C63.71 43.574 64.178 43.609 64.641 43.576C65.535 43.513 66.255 43.135 66.546 42.226C66.674 41.83 66.695 41.384 66.694 40.962C66.691 40.034 65.974 39.157 65.074 39.022C64.486 38.933 63.88 38.966 63.282 38.933C63.071 38.922 62.999 38.997 63.002 39.212C63.011 39.897 63.005 40.584 63.006 41.27C63.006 41.956 63.01 42.641 63.003 43.327ZM63.554 42.789C63.554 41.769 63.558 40.747 63.55 39.727C63.55 39.533 63.59 39.438 63.802 39.463C64.236 39.513 64.692 39.483 65.102 39.609C65.728 39.802 66.01 40.327 66.11 40.967C66.241 41.81 65.944 42.533 65.278 42.87C65.0813 42.9639 64.8685 43.0195 64.651 43.034C64.299 43.06 63.944 43.041 63.574 43.041C63.566 42.94 63.555 42.865 63.555 42.791L63.554 42.789ZM80.592 40.818C80.772 40.208 80.468 39.147 79.521 39.023C78.921 38.945 78.307 38.96 77.7 38.939C77.536 38.932 77.481 39.036 77.481 39.189C77.481 40.589 77.483 41.987 77.481 43.387C77.481 43.645 77.665 43.583 77.806 43.586C77.942 43.589 78.11 43.631 78.101 43.389C78.091 43.141 78.099 42.891 78.099 42.642C78.099 41.68 78.096 40.719 78.105 39.758C78.105 39.673 78.188 39.518 78.235 39.518C78.595 39.51 78.96 39.501 79.315 39.552C79.862 39.629 80.059 40.116 80.055 40.54C80.052 41.065 79.705 41.435 79.201 41.493C79.02 41.513 78.837 41.523 78.614 41.54C78.663 41.66 78.684 41.75 78.731 41.822C79.041 42.313 79.355 42.801 79.671 43.288C79.884 43.618 80.04 43.668 80.465 43.524L79.957 42.73L79.431 41.921C80.275 41.574 80.408 41.448 80.592 40.82V40.818ZM89.037 38.929C87.958 39.176 87.1 40.201 87.245 41.529C87.373 42.714 88.26 43.577 89.433 43.659C90.513 43.732 91.583 43.079 91.704 42.333C91.393 42.208 91.195 42.243 90.988 42.478C90.638 42.875 90.2 43.11 89.681 43.13C88.355 43.184 87.418 41.844 87.888 40.589C88.37 39.302 90.113 38.994 90.957 40.059C91.181 40.343 91.424 40.288 91.719 40.256C91.44 39.431 90.392 38.619 89.035 38.929H89.037ZM53.954 42.183C53.96 42.367 53.997 42.56 54.068 42.728C54.347 43.388 55.032 43.769 55.712 43.665C56.455 43.552 56.967 43.022 57.04 42.263C57.066 41.992 57.04 41.716 57.04 41.443C57.04 40.696 57.043 39.95 57.035 39.203C57.035 39.116 56.991 38.979 56.93 38.952C56.645 38.825 56.456 38.963 56.455 39.279C56.455 40.137 56.458 40.996 56.452 41.854C56.4515 42.0425 56.4314 42.2306 56.392 42.415C56.3661 42.5423 56.3127 42.6625 56.2354 42.7669C56.1581 42.8714 56.0589 42.9577 55.9448 43.0198C55.8306 43.0818 55.7042 43.1181 55.5745 43.1261C55.4448 43.1341 55.3149 43.1135 55.194 43.066C54.761 42.902 54.54 42.499 54.551 41.981C54.571 41.055 54.563 40.128 54.575 39.201C54.578 38.925 54.402 38.941 54.215 38.932C54.017 38.922 53.942 38.992 53.945 39.196C53.955 39.712 53.949 40.226 53.949 40.741C53.949 41.221 53.939 41.703 53.954 42.183ZM98.504 43.633C99.094 43.413 99.456 42.883 99.454 42.278C99.454 41.703 99.144 41.318 98.497 41.064C98.1724 40.9429 97.8543 40.805 97.544 40.651C97.4387 40.5993 97.3531 40.5148 97.3003 40.4101C97.2474 40.3054 97.2301 40.1864 97.251 40.071C97.2807 39.9151 97.3572 39.772 97.4703 39.6607C97.5834 39.5494 97.7277 39.4752 97.884 39.448C98.254 39.403 98.539 39.556 98.697 39.884C98.803 40.102 99.01 40.197 99.222 40.101C99.276 40.076 99.344 39.959 99.327 39.913C99.258 39.713 99.187 39.504 99.066 39.338C98.756 38.914 98.301 38.835 97.816 38.877C97.269 38.923 96.79 39.337 96.696 39.837C96.567 40.514 96.76 40.945 97.354 41.229C97.673 41.38 98.018 41.476 98.344 41.612C98.8 41.804 98.976 42.198 98.804 42.606C98.7204 42.8127 98.5585 42.9779 98.3536 43.0658C98.1487 43.1536 97.9173 43.1569 97.71 43.075C97.409 42.951 97.245 42.717 97.166 42.411C97.136 42.296 97.102 42.213 96.952 42.212C96.617 42.208 96.516 42.336 96.622 42.675C96.785 43.202 97.272 43.744 98.009 43.718C98.175 43.691 98.35 43.691 98.504 43.633ZM71.429 38.873C70.787 38.887 70.313 39.297 70.169 39.963C70.056 40.489 70.33 40.989 70.909 41.251C71.231 41.398 71.579 41.484 71.902 41.63C72.303 41.81 72.466 42.193 72.328 42.552C72.178 42.94 71.843 43.169 71.468 43.141C71.106 43.114 70.778 42.822 70.681 42.44C70.627 42.23 70.438 42.145 70.166 42.225C69.948 42.289 70.043 42.458 70.076 42.586C70.22 43.151 70.581 43.499 71.136 43.65C71.87 43.849 72.712 43.432 72.874 42.7C73.027 42.011 72.974 41.455 72.004 41.067C71.684 40.939 71.358 40.817 71.054 40.655C70.9357 40.5909 70.8447 40.4859 70.798 40.3597C70.7513 40.2335 70.752 40.0947 70.8 39.969C70.958 39.547 71.453 39.336 71.84 39.559C71.992 39.646 72.109 39.806 72.217 39.953C72.324 40.098 72.577 40.196 72.745 40.107C72.933 40.007 72.828 39.837 72.788 39.72C72.618 39.236 72.195 38.847 71.532 38.875H71.43L71.429 38.873ZM73.854 43.29C73.851 43.514 73.93 43.59 74.151 43.585C74.821 43.574 75.491 43.575 76.159 43.584C76.357 43.586 76.456 43.534 76.456 43.311C76.456 43.089 76.359 43.034 76.16 43.037C75.652 43.045 75.144 43.037 74.635 43.041C74.503 43.041 74.43 43.014 74.433 42.857C74.441 42.471 74.441 42.085 74.433 41.699C74.43 41.54 74.506 41.516 74.637 41.517C75.137 41.522 75.637 41.51 76.137 41.522C76.354 41.528 76.417 41.442 76.417 41.236C76.416 41.033 76.332 40.97 76.139 40.974C75.639 40.984 75.139 40.974 74.639 40.98C74.485 40.982 74.429 40.933 74.433 40.774C74.443 40.423 74.449 40.07 74.431 39.719C74.421 39.509 74.494 39.456 74.691 39.46C75.199 39.472 75.707 39.462 76.216 39.465C76.364 39.465 76.452 39.432 76.456 39.252C76.463 39.02 76.379 38.928 76.145 38.932C75.485 38.941 74.823 38.942 74.163 38.93C73.924 38.926 73.851 39.019 73.854 39.248C73.862 39.917 73.857 40.587 73.857 41.256C73.857 41.934 73.863 42.613 73.854 43.29ZM93.747 41.52C94.264 41.52 94.781 41.513 95.298 41.522C95.494 41.526 95.548 41.437 95.548 41.26C95.548 41.078 95.51 40.962 95.294 40.975C95.084 40.989 94.871 40.978 94.659 40.978H93.577C93.577 40.521 93.583 40.102 93.573 39.684C93.569 39.516 93.623 39.459 93.791 39.462C94.291 39.472 94.791 39.464 95.291 39.466C95.451 39.466 95.596 39.478 95.593 39.236C95.589 39.014 95.507 38.931 95.289 38.933C94.6197 38.9407 93.9503 38.9407 93.281 38.933C93.076 38.93 92.989 39.001 92.991 39.213C92.994 40.578 92.995 41.943 92.991 43.307C92.991 43.52 93.07 43.588 93.277 43.585C93.9463 43.5764 94.6157 43.5761 95.285 43.584C95.473 43.586 95.589 43.553 95.593 43.321C95.596 43.083 95.487 43.033 95.28 43.037C94.78 43.046 94.28 43.045 93.781 43.034C93.713 43.032 93.59 42.956 93.589 42.912C93.575 42.459 93.579 42.007 93.579 41.535C93.666 41.527 93.708 41.521 93.749 41.519L93.747 41.52ZM83.095 42.655C82.924 42.212 82.751 41.769 82.582 41.325C82.302 40.592 82.029 39.857 81.748 39.125C81.682 38.951 81.39 38.852 81.2 38.949C81.017 39.043 81.136 39.185 81.181 39.302C81.701 40.639 82.23 41.973 82.741 43.312C82.814 43.502 82.898 43.586 83.104 43.587C83.307 43.587 83.424 43.537 83.504 43.327C83.819 42.488 84.155 41.657 84.483 40.823C84.689 40.299 84.9 39.776 85.097 39.249C85.129 39.165 85.136 39.023 85.087 38.969C84.969 38.836 84.573 38.956 84.504 39.131C84.391 39.417 84.287 39.706 84.177 39.993L83.157 42.645L83.095 42.655ZM51.237 39.689C51.23 39.499 51.307 39.459 51.476 39.463C51.899 39.473 52.323 39.466 52.746 39.466C52.9 39.466 53.054 39.488 53.051 39.242C53.049 39.024 52.976 38.93 52.754 38.933C52.144 38.942 51.534 38.942 50.924 38.933C50.724 38.93 50.654 39.015 50.654 39.209C50.657 40.581 50.659 41.954 50.652 43.326C50.652 43.585 50.799 43.576 50.983 43.587C51.191 43.598 51.247 43.516 51.243 43.319C51.233 42.805 51.247 42.289 51.236 41.775C51.232 41.588 51.279 41.516 51.476 41.523C51.899 41.537 52.323 41.518 52.746 41.53C52.944 41.535 53.016 41.467 53.012 41.264C53.006 41.063 52.952 40.968 52.732 40.974C52.252 40.988 51.769 40.978 51.239 40.978C51.239 40.525 51.248 40.106 51.235 39.688L51.237 39.689ZM85.391 43.309C85.388 43.521 85.455 43.593 85.667 43.589C85.867 43.584 85.985 43.554 85.984 43.311C85.977 41.946 85.978 40.581 85.984 39.217C85.984 38.982 85.876 38.934 85.669 38.93C85.454 38.926 85.389 39.005 85.393 39.215C85.402 39.893 85.395 40.571 85.395 41.249C85.395 41.936 85.402 42.622 85.391 43.309Z" fill="#002A7F"/>
<path d="M42.057 32.6299L38.881 28.4619L38.813 28.4869C38.807 28.5929 38.796 28.6989 38.796 28.8059V36.3519C38.796 36.6199 38.659 36.7549 38.386 36.7549C38.15 36.7549 37.911 36.7419 37.676 36.7579C37.446 36.7729 37.364 36.6749 37.391 36.4569V26.4119C37.391 25.9519 37.578 25.6859 37.971 25.5999C38.291 25.5299 38.521 25.6789 38.711 25.9299C39.499 26.9719 40.291 28.0089 41.081 29.0489C42.045 30.3189 43.011 31.5909 43.974 32.8629C44.132 33.0729 44.237 33.2999 44.141 33.5769C44.024 33.9159 43.767 34.0649 43.441 34.0689C42.271 34.0809 41.101 34.0719 39.931 34.0779C39.748 34.0779 39.695 33.9999 39.698 33.8299C39.705 33.5209 39.707 33.2119 39.698 32.9039C39.693 32.7169 39.761 32.6459 39.951 32.6489C40.552 32.6589 41.155 32.6529 41.756 32.6509C41.83 32.6509 41.903 32.6409 42.057 32.6299ZM34.744 28.5899C34.754 28.6859 34.771 28.7819 34.771 28.8779C34.773 29.7709 34.777 30.6629 34.769 31.5569C34.767 31.7689 34.841 31.8489 35.051 31.8409C35.347 31.8299 35.644 31.8309 35.941 31.8409C36.106 31.8459 36.162 31.7809 36.161 31.6139C36.157 29.8289 36.161 28.0429 36.157 26.2579C36.157 25.9439 35.957 25.7049 35.664 25.6199C35.295 25.5129 35.047 25.6899 34.84 25.9699L32.67 28.9179C31.697 30.2359 30.722 31.5539 29.75 32.8729C29.569 33.1209 29.49 33.3929 29.654 33.6869C29.7183 33.8081 29.8157 33.9087 29.9348 33.9768C30.0539 34.0449 30.1899 34.0779 30.327 34.0719C32.302 34.0749 34.277 34.0719 36.252 34.0769C36.432 34.0769 36.491 34.0049 36.488 33.8319C36.482 33.5409 36.477 33.2479 36.49 32.9569C36.5 32.7289 36.43 32.6439 36.189 32.6469C34.808 32.6569 33.425 32.6519 32.044 32.6509C31.939 32.6509 31.834 32.6409 31.666 32.6329L34.676 28.5699L34.746 28.5909L34.744 28.5899ZM36.159 35.8749C36.159 35.6529 36.154 35.4299 36.161 35.2069C36.166 35.0589 36.118 34.9859 35.959 34.9889C35.638 34.9949 35.316 34.9929 34.996 34.9899C34.853 34.9889 34.772 35.0399 34.773 35.1979C34.776 35.6429 34.773 36.0879 34.773 36.5339C34.773 36.6789 34.837 36.7559 34.989 36.7539C35.319 36.7499 35.649 36.7619 35.978 36.7439C36.041 36.7409 36.145 36.6349 36.151 36.5679C36.172 36.3389 36.159 36.1059 36.159 35.8749Z" fill="#002A7F"/>
</svg>
