<svg width="128" height="64" viewBox="0 0 128 64" fill="none" xmlns="http://www.w3.org/2000/svg">
<path d="M32.16 42.293H23.767C23.387 42.293 23.028 42.229 22.705 42.003C22.5093 41.8708 22.3475 41.6944 22.2328 41.488C22.1182 41.2815 22.0538 41.051 22.045 40.815C22.0385 40.7285 22.0348 40.6418 22.034 40.555V23.555C22.034 23.195 22.082 22.855 22.284 22.542C22.557 22.112 22.952 21.899 23.437 21.83C23.544 21.815 23.655 21.815 23.763 21.815C29.382 21.815 35 21.815 40.62 21.813C41.139 21.813 41.602 21.937 41.963 22.343C42.226 22.636 42.37 22.984 42.371 23.373C42.376 29.158 42.376 34.944 42.373 40.729C42.3682 41.1133 42.2235 41.4827 41.966 41.768C41.7085 42.0533 41.3558 42.235 40.974 42.279C40.834 42.293 40.694 42.293 40.554 42.293H32.16ZM33.835 33.358V33.426C33.585 33.473 33.33 33.498 33.088 33.568C32.453 33.751 31.832 33.968 31.257 34.312C30.321 34.872 29.517 35.553 29.084 36.598C28.69 37.55 28.895 38.472 29.747 39.113C30.547 39.715 31.487 39.905 32.442 39.983C33.96 40.108 35.456 39.95 36.903 39.44C37.734 39.147 38.502 38.74 39.113 38.083C39.847 37.294 39.825 36.373 39.149 35.558C38.613 34.912 37.885 34.546 37.148 34.219C36.389 33.883 35.597 33.624 34.831 33.304C34.5064 33.1597 34.1966 32.9842 33.906 32.78C33.841 32.737 33.831 32.546 33.863 32.445C33.885 32.372 34.02 32.293 34.106 32.291C34.558 32.277 34.912 32.063 35.216 31.756C36.086 30.874 36.346 29.764 36.286 28.57C36.25 27.846 36.063 27.152 35.487 26.636C35.439 26.592 35.431 26.444 35.465 26.374C35.715 25.851 35.995 25.341 36.235 24.814C36.335 24.594 36.393 24.342 36.416 24.099C36.426 24.003 36.302 23.829 36.212 23.809C36.121 23.787 35.985 23.897 35.892 23.978C35.833 24.029 35.811 24.128 35.782 24.209C35.542 24.879 35.311 25.553 35.062 26.22C35.032 26.297 34.909 26.385 34.829 26.386C34.26 26.394 33.824 26.643 33.51 27.106C32.697 28.307 32.525 29.628 32.811 31.031C32.829 31.12 32.85 31.236 32.811 31.305C32.69 31.522 32.565 31.745 32.395 31.925C32.155 32.178 31.884 32.128 31.737 31.815C31.631 31.589 31.527 31.348 31.5 31.105C31.4202 30.3467 31.3605 29.5864 31.321 28.825C31.29 28.227 31.307 27.625 31.275 27.027C31.267 26.891 31.149 26.76 31.082 26.627C30.959 26.708 30.776 26.759 30.722 26.874C30.502 27.337 30.277 27.807 30.134 28.298C29.881 29.164 29.689 30.049 29.468 30.926C29.395 31.214 29.308 31.499 29.229 31.785L29.142 31.775C29.11 31.607 29.061 31.44 29.052 31.271C29 30.374 28.962 29.476 28.912 28.58C28.891 28.227 28.862 27.872 28.806 27.525C28.761 27.241 28.558 27.195 28.356 27.402C28.3017 27.458 28.2565 27.5221 28.222 27.592C27.836 28.392 27.671 29.259 27.459 30.112C27.302 30.7368 27.1356 31.3592 26.96 31.979C26.93 32.085 26.836 32.172 26.747 32.304C26.703 32.211 26.676 32.178 26.672 32.143C26.632 31.785 26.562 31.426 26.567 31.068C26.579 30.178 26.625 29.288 26.661 28.399C26.676 28.013 26.698 27.628 26.719 27.241C26.739 26.864 26.774 26.487 26.773 26.111C26.773 26.011 26.665 25.911 26.606 25.811C26.51 25.874 26.353 25.919 26.329 26.004C26.238 26.31 26.144 26.628 26.138 26.944C26.113 28.498 26.1 30.053 26.12 31.607C26.126 32.056 26.229 32.51 26.343 32.947C26.429 33.274 26.745 33.318 26.906 33.025C27.122 32.631 27.315 32.21 27.437 31.777C27.663 30.976 27.823 30.157 28.024 29.347C28.087 29.089 28.188 28.839 28.272 28.585L28.34 28.593C28.35 28.673 28.37 28.754 28.373 28.836C28.413 29.749 28.435 30.663 28.495 31.574C28.518 31.922 28.603 32.272 28.704 32.606C28.771 32.83 28.971 32.876 29.144 32.721C29.284 32.595 29.426 32.429 29.478 32.254C29.648 31.691 29.772 31.114 29.925 30.546C30.142 29.742 30.367 28.942 30.597 28.142C30.619 28.064 30.692 28 30.742 27.929L30.802 27.949C30.809 28.039 30.822 28.129 30.822 28.221C30.845 29.111 30.855 30.001 30.893 30.891C30.915 31.389 31.023 31.871 31.27 32.316C31.618 32.944 32.22 32.989 32.623 32.402C32.773 32.185 32.893 31.947 33.046 31.686C33.163 31.793 33.277 31.914 33.407 32.013C33.532 32.108 33.547 32.199 33.476 32.335C33.276 32.713 33.33 32.953 33.659 33.22L33.839 33.362L33.835 33.358ZM98.172 34.559C98.172 35.041 98.158 35.523 98.177 36.003C98.187 36.26 98.236 36.518 98.299 36.769C98.362 37.026 98.549 37.157 98.812 37.172C98.936 37.18 99.062 37.182 99.186 37.174C99.376 37.162 99.479 37.222 99.478 37.436C99.478 37.651 99.37 37.712 99.184 37.702C98.725 37.677 98.267 37.634 97.809 37.636C97.156 37.639 96.502 37.671 95.849 37.7C95.567 37.712 95.454 37.61 95.517 37.346C95.532 37.281 95.617 37.232 95.675 37.18C95.688 37.167 95.721 37.173 95.743 37.176C96.573 37.254 96.757 36.757 96.778 36.061C96.8 35.273 96.783 34.483 96.783 33.694C96.783 31.949 96.786 30.205 96.78 28.461C96.78 28.243 96.747 28.02 96.697 27.807C96.607 27.418 96.339 27.256 95.814 27.241C95.678 27.238 95.541 27.247 95.509 27.061C95.471 26.839 95.535 26.746 95.759 26.75C96.241 26.758 96.723 26.794 97.204 26.788C98.06 26.776 98.916 26.718 99.771 26.723C100.978 26.731 102.058 27.051 102.697 28.209C103.524 29.704 103.022 31.682 101.283 32.371C101.24 32.388 101.193 32.394 101.148 32.406C101.009 32.446 100.949 32.502 101.045 32.658C101.496 33.392 101.935 34.134 102.381 34.871C102.653 35.321 102.939 35.761 103.198 36.216C103.606 36.933 104.187 37.352 105.022 37.36C105.177 37.362 105.277 37.39 105.268 37.581C105.259 37.769 105.132 37.741 105.018 37.742C104.651 37.744 104.286 37.742 103.919 37.742C103.032 37.747 102.333 37.382 101.854 36.627C101.253 35.681 100.673 34.722 100.084 33.768C100.007 33.642 99.917 33.522 99.855 33.388C99.625 32.888 99.202 32.748 98.707 32.74C98.349 32.735 98.17 32.914 98.17 33.277V34.555L98.172 34.559ZM98.197 27.417C98.186 27.462 98.175 27.484 98.175 27.507C98.173 28.949 98.175 30.392 98.17 31.835C98.17 31.987 98.235 32.047 98.378 32.051C98.72 32.061 99.062 32.093 99.403 32.083C100.527 32.052 101.342 31.474 101.576 30.463C101.814 29.438 101.234 28.091 100.289 27.619C99.617 27.284 98.917 27.358 98.198 27.416L98.197 27.417ZM68.909 37.866C66.981 37.819 65.371 37.116 64.217 35.5C63.43 34.4 63.137 33.15 63.263 31.813C63.443 29.879 64.354 28.389 66.007 27.377C67.1295 26.6776 68.4675 26.409 69.773 26.621C71.578 26.895 72.978 27.842 73.916 29.447C74.3585 30.193 74.6026 31.0399 74.625 31.907C74.692 34.307 73.676 36.09 71.611 37.237C70.783 37.697 69.863 37.879 68.909 37.866ZM68.838 27.235C68.508 27.285 68.176 27.32 67.851 27.391C66.545 27.678 65.663 28.491 65.191 29.729C64.758 30.862 64.705 32.046 64.931 33.241C65.154 34.427 65.671 35.451 66.561 36.269C67.072 36.739 67.662 37.049 68.347 37.176C68.82 37.264 69.286 37.251 69.761 37.18C70.893 37.011 71.776 36.46 72.354 35.457C72.999 34.337 73.156 33.114 73.051 31.837C72.981 30.992 72.751 30.197 72.336 29.466C71.563 28.106 70.464 27.257 68.837 27.234L68.838 27.235ZM91.774 26.79L91.54 26.793C89.905 26.779 88.27 26.763 86.634 26.75C86.472 26.749 86.296 26.717 86.298 26.983C86.299 27.223 86.438 27.248 86.622 27.243C86.699 27.241 86.776 27.258 86.854 27.265C87.225 27.298 87.458 27.495 87.524 27.87C87.561 28.086 87.6 28.305 87.6 28.523C87.606 30.986 87.607 33.448 87.6 35.911C87.6 36.161 87.55 36.412 87.492 36.656C87.422 36.957 87.197 37.132 86.891 37.162C86.7905 37.1743 86.6891 37.1776 86.588 37.172C86.373 37.154 86.291 37.249 86.3 37.462C86.308 37.67 86.428 37.704 86.597 37.7C87.414 37.683 88.231 37.668 89.048 37.654C89.601 37.646 90.154 37.63 90.707 37.636C91.82 37.65 92.932 37.677 94.044 37.7C94.217 37.704 94.299 37.62 94.314 37.447C94.34 37.157 94.374 36.867 94.404 36.577C94.46 36.076 94.52 35.575 94.57 35.074C94.575 35.017 94.542 34.924 94.5 34.9C94.335 34.809 94.134 34.909 94.078 35.098C94.0528 35.1809 94.0318 35.265 94.015 35.35C93.832 36.33 93.245 36.757 92.44 36.929C91.578 37.111 90.704 37.069 89.832 37.043C89.346 37.029 89.07 36.768 88.996 36.285C88.9791 36.1758 88.97 36.0655 88.969 35.955C88.967 34.804 88.969 33.651 88.964 32.499C88.964 32.33 89.024 32.284 89.182 32.286C89.697 32.293 90.211 32.276 90.725 32.293C91.025 32.305 91.331 32.346 91.625 32.41C92.029 32.498 92.134 32.834 92.181 33.194C92.201 33.35 92.287 33.388 92.423 33.381C92.553 33.374 92.655 33.339 92.655 33.181C92.655 32.327 92.658 31.475 92.648 30.623C92.648 30.567 92.563 30.475 92.504 30.463C92.252 30.405 92.204 30.463 92.18 30.737C92.157 30.988 92.127 31.255 91.892 31.401C91.737 31.497 91.553 31.584 91.378 31.594C90.641 31.64 89.902 31.652 89.164 31.682C89.002 31.689 88.966 31.606 88.966 31.465C88.968 30.163 88.968 28.86 88.966 27.559C88.966 27.424 89.004 27.351 89.151 27.353C90.091 27.366 91.039 27.286 91.963 27.522C92.49 27.656 92.954 27.91 93.136 28.488C93.209 28.719 93.264 28.956 93.316 29.193C93.341 29.309 93.36 29.4 93.511 29.405C93.748 29.414 93.801 29.375 93.791 29.124C93.757 28.376 93.716 27.629 93.677 26.881C93.674 26.836 93.655 26.792 93.655 26.791H91.774V26.79ZM80.464 35.767C80.329 35.424 80.198 35.08 80.06 34.739C79.699 33.845 79.333 32.953 78.972 32.059C78.572 31.071 78.166 30.086 77.781 29.093C77.6257 28.7084 77.5046 28.3108 77.419 27.905C77.358 27.594 77.584 27.345 77.899 27.288C78.051 27.259 78.207 27.252 78.362 27.24C78.591 27.222 78.518 27.044 78.526 26.916C78.533 26.806 78.513 26.71 78.364 26.718C78.077 26.732 77.789 26.748 77.502 26.748C76.539 26.747 75.575 26.755 74.612 26.721C74.342 26.711 74.347 26.843 74.321 27.022C74.289 27.235 74.424 27.245 74.562 27.238C75.113 27.212 75.484 27.483 75.709 27.966C75.917 28.413 76.099 28.872 76.289 29.326C76.726 30.368 77.163 31.408 77.594 32.451C78.31 34.181 79.027 35.912 79.726 37.651C79.807 37.853 79.923 37.86 80.081 37.858C80.265 37.856 80.443 37.891 80.54 37.645C80.765 37.069 81.018 36.503 81.262 35.935C81.7687 34.7538 82.2767 33.5731 82.786 32.393C83.39 30.998 83.983 29.596 84.605 28.21C84.863 27.634 85.248 27.183 85.97 27.236C86.212 27.254 86.153 27.056 86.161 26.916C86.172 26.736 86.077 26.728 85.924 26.729C84.993 26.739 84.06 26.743 83.129 26.726C82.929 26.722 82.89 26.783 82.887 26.959C82.882 27.153 82.93 27.262 83.147 27.241C83.231 27.233 83.317 27.253 83.402 27.269C83.688 27.325 83.817 27.473 83.782 27.762C83.7547 27.9803 83.701 28.1946 83.622 28.4C83.429 28.904 83.217 29.401 83.011 29.9C82.697 30.66 82.383 31.42 82.065 32.178C81.671 33.118 81.271 34.056 80.872 34.994C80.76 35.258 80.641 35.518 80.526 35.781L80.464 35.764V35.767ZM52.251 27.197C52.251 27.057 52.221 26.952 52.056 26.931C51.209 26.815 50.366 26.653 49.516 26.587C48.588 26.515 47.73 26.77 46.999 27.385C45.665 28.51 45.539 30.687 47.144 31.735C47.74 32.123 48.401 32.407 49.031 32.743C49.571 33.033 50.141 33.283 50.641 33.632C51.763 34.414 51.78 36.006 50.668 36.801C49.787 37.431 48.812 37.479 47.842 36.987C47.124 36.623 46.699 36.007 46.547 35.215C46.507 35.006 46.424 34.932 46.227 34.932C46.003 34.932 46.006 35.082 46.01 35.239C46.024 35.829 46.043 36.419 46.052 37.01C46.059 37.516 46.057 37.528 46.544 37.622C47.672 37.84 48.804 37.978 49.95 37.758C50.5354 37.6556 51.0856 37.4077 51.55 37.037C52.075 36.611 52.387 36.055 52.522 35.391C52.715 34.453 52.63 33.579 51.981 32.821C51.423 32.171 50.671 31.831 49.925 31.474C49.309 31.18 48.675 30.906 48.1 30.542C47.04 29.87 46.912 28.446 47.825 27.688C48.554 27.082 49.408 27.056 50.257 27.335C51.195 27.644 51.606 28.397 51.68 29.351C51.698 29.593 51.825 29.582 51.988 29.587C52.171 29.593 52.26 29.536 52.253 29.33C52.24 28.984 52.249 28.636 52.249 28.288V27.198L52.251 27.197ZM58.91 30.616V27.703C58.91 27.564 58.9 27.419 59.102 27.426C59.832 27.451 60.564 27.448 61.291 27.512C61.71 27.55 62.065 27.802 62.22 28.212C62.35 28.559 62.423 28.935 62.468 29.306C62.503 29.583 62.665 29.552 62.846 29.563C63.056 29.577 63.066 29.454 63.064 29.295C63.061 28.553 63.064 27.812 63.062 27.069C63.062 26.713 63.044 26.701 62.688 26.717C61.958 26.746 61.226 26.793 60.496 26.789C58.222 26.775 55.948 26.742 53.675 26.717C53.384 26.713 53.372 26.719 53.372 27.016C53.372 27.781 53.374 28.546 53.371 29.313C53.371 29.465 53.379 29.587 53.577 29.561C53.731 29.541 53.933 29.637 53.947 29.342C53.96 29.092 54.001 28.84 54.062 28.598C54.194 28.072 54.486 27.593 55.2 27.508C55.854 27.432 56.519 27.445 57.18 27.427C57.525 27.417 57.526 27.427 57.526 27.774C57.526 30.512 57.526 33.251 57.524 35.991C57.524 36.156 57.512 36.322 57.489 36.485C57.412 37.017 57.233 37.169 56.7 37.175C56.623 37.175 56.544 37.181 56.467 37.175C56.266 37.159 56.182 37.249 56.193 37.452C56.203 37.685 56.283 37.712 56.609 37.699C57.347 37.669 58.086 37.658 58.824 37.655C59.229 37.653 59.633 37.683 60.037 37.703C60.237 37.713 60.237 37.579 60.237 37.436C60.237 37.296 60.242 37.163 60.036 37.173C59.8493 37.1819 59.6621 37.1776 59.476 37.16C59.248 37.137 59.071 37.012 59.017 36.784C58.9562 36.5479 58.922 36.3057 58.915 36.062C58.905 34.697 58.91 33.331 58.91 31.966V30.616ZM33.956 39.353C34.7732 39.3408 35.5853 39.2224 36.372 39.001C37.082 38.804 37.752 38.531 38.356 38.097C39.062 37.59 39.218 36.937 38.793 36.193C38.476 35.638 37.97 35.292 37.429 35.015C36.711 34.648 35.967 34.328 35.226 34.006C34.833 33.835 34.441 33.556 33.986 33.851C33.041 33.952 32.179 34.293 31.382 34.801C30.712 35.229 30.122 35.748 29.759 36.482C29.524 36.957 29.428 37.444 29.689 37.946C29.923 38.393 30.312 38.656 30.745 38.868C31.607 39.288 32.538 39.337 33.544 39.398C33.632 39.387 33.794 39.355 33.956 39.353ZM35.309 27.335C35.104 27.032 34.809 26.816 34.435 26.958C34.2076 27.0553 34.01 27.2108 33.862 27.409C33.427 27.975 33.299 28.658 33.222 29.352C33.1515 29.9003 33.2132 30.4574 33.402 30.977C33.592 31.48 34.022 31.794 34.417 31.697C34.759 31.614 35.007 31.38 35.197 31.094C35.619 30.459 35.768 29.745 35.759 28.989C35.753 28.397 35.644 27.829 35.309 27.335Z" fill="#002A7F"/>
</svg>
