<svg width="240" height="20" viewBox="0 0 240 20" fill="none" xmlns="http://www.w3.org/2000/svg">
<path d="M240 19.2997H236.978L236.59 17.1922C235.453 18.9115 233.567 19.7434 231.321 19.7434C226.025 19.7434 222.559 15.9999 222.559 9.89941C222.559 3.79893 226.025 0 231.709 0C235.758 0 239.196 2.19062 240 6.48869H235.342C234.815 4.63081 233.484 3.63256 231.598 3.63256C228.742 3.63256 227.106 5.98956 227.106 9.89941C227.106 13.8093 228.825 16.1108 231.737 16.1108C233.761 16.1108 235.453 15.0016 235.758 12.4505H232.153V9.09525H240V19.2997Z" fill="black"/>
<path d="M203.483 19.2984V0.442383H208.17L214.132 10.3418L215.573 13.3366L215.352 0.442383H219.788V19.2984H215.102L209.14 9.39899L207.698 6.37648L207.92 19.2984H203.483Z" fill="black"/>
<path d="M195.658 19.2984V0.442383H200.094V19.2984H195.658Z" fill="black"/>
<path d="M177.676 19.2984V0.442383H185.385C189.794 0.442383 192.512 2.66074 192.512 6.15464C192.512 8.23435 191.652 9.67628 190.155 10.5636C191.014 11.2014 191.541 12.1442 191.874 13.5307L193.288 19.2984H188.657L187.603 14.3626C187.243 12.6711 186.661 12.3106 185.052 12.3106H182.113V19.2984H177.676ZM185.302 3.96402H182.113V8.87213H185.191C187.049 8.87213 187.936 7.87387 187.936 6.40421C187.936 4.93455 187.021 3.96402 185.302 3.96402Z" fill="black"/>
<path d="M171.046 19.2984L169.798 15.7768H162.394L161.147 19.2984H156.682L163.559 0.442383H168.883L175.788 19.2984H171.046ZM165.528 6.93107L163.614 12.366H168.578L166.665 6.93107L166.11 4.7959L165.528 6.93107Z" fill="black"/>
<path d="M141.876 19.2984V0.442383H155.408V3.96402H146.313V7.92933H154.327V11.3678H146.313V15.7768H155.408V19.2984H141.876Z" fill="black"/>
<path d="M122.189 19.2984V0.442383H126.626V7.84614H134.058V0.442383H138.494V19.2984H134.058V11.451H126.626V19.2984H122.189Z" fill="black"/>
<path d="M101.855 19.2984V0.442383H106.292V15.6936H114.583V19.2984H101.855Z" fill="black"/>
<path d="M95.2247 19.2984L93.9769 15.7768H86.5731L85.3253 19.2984H80.8608L87.7377 0.442383H93.0618L99.9664 19.2984H95.2247ZM89.7065 6.93107L87.7932 12.366H92.7568L90.8434 6.93107L90.2888 4.7959L89.7065 6.93107Z" fill="black"/>
<path d="M79.8051 12.1166C79.8051 16.8306 76.7272 19.7422 71.7636 19.7422C66.7446 19.7422 63.6943 16.8306 63.6943 12.1166V0.442505H68.1588V12.1166C68.1588 14.64 69.4898 16.1651 71.7636 16.1651C74.0374 16.1651 75.3684 14.64 75.3684 12.1166V0.442505H79.8051V12.1166Z" fill="black"/>
<path d="M51.1932 19.2984V4.07494H45.3423V0.442383H61.5085V4.07494H55.6576V19.2984H51.1932Z" fill="black"/>
<path d="M28.8193 19.2984V0.442383H36.5281C40.9371 0.442383 43.6546 2.66074 43.6546 6.15464C43.6546 8.23435 42.795 9.67628 41.2976 10.5636C42.1572 11.2014 42.684 12.1442 43.0168 13.5307L44.431 19.2984H39.8002L38.7465 14.3626C38.386 12.6711 37.8037 12.3106 36.1954 12.3106H33.256V19.2984H28.8193ZM36.4449 3.96402H33.256V8.87213H36.334C38.1919 8.87213 39.0792 7.87387 39.0792 6.40421C39.0792 4.93455 38.1642 3.96402 36.4449 3.96402Z" fill="black"/>
<path d="M20.9937 19.2984V0.442383H25.4304V19.2984H20.9937Z" fill="black"/>
<path d="M4.714 0.442505L9.09525 12.8098L9.67757 15.0282L10.2322 12.8098L14.6134 0.442505H19.1056L12.1732 19.2985H6.93236L0 0.442505H4.714Z" fill="black"/>
</svg>
