<svg width="24" height="25" viewBox="0 0 24 25" fill="none" xmlns="http://www.w3.org/2000/svg">
<path fill-rule="evenodd" clip-rule="evenodd" d="M11.575 22.0396C6.175 22.0396 2.85 18.2396 2.85 13.4146C2.85 7.71465 7.375 3.88965 12.525 3.88965C17.45 3.88965 21.125 6.91465 21.125 11.6896C21.125 16.0396 18.825 17.7646 16.525 17.7646C15.4 17.7646 14.475 17.2396 14.075 16.4896C13.3 17.2396 12.125 17.7146 11 17.7146C8.25 17.7146 6.85 15.7646 6.85 13.4146C6.85 10.3896 9.05 7.93965 12.275 7.93965C13.2 7.93965 13.95 8.18965 14.525 8.61465L14.625 8.18965H17L15.825 13.6896C15.6 14.7896 15.85 15.6646 16.925 15.6646C18.25 15.6646 19.025 14.5646 19.025 11.6396C19.025 7.73965 15.95 5.91465 12.5 5.91465C8.625 5.91465 5.05 8.58965 5.05 13.4146C5.05 17.3646 7.575 19.9396 11.575 19.9396C13.075 19.9396 14.625 19.6146 15.975 18.9146L16.8 20.9396C15.25 21.6397 13.2 22.0396 11.575 22.0396ZM11.4 15.3646C12.05 15.3646 12.7 15.1896 13.225 14.6646L14.025 10.9646C13.575 10.4896 12.925 10.2646 12.3 10.2646C10.65 10.2646 9.45 11.5396 9.45 13.2146C9.45 14.5146 10.075 15.3646 11.4 15.3646Z" fill="#08043F"/>
</svg>
