<svg width="21" height="20" viewBox="0 0 21 20" fill="none" xmlns="http://www.w3.org/2000/svg">
<path d="M0.824219 0H20.8242V20H0.824219V0Z" fill="white" fill-opacity="0.01"/>
<path d="M9.82464 6.00001L12.3246 3.50001C12.9913 2.85465 13.8849 2.49719 14.8128 2.50472C15.7406 2.51226 16.6283 2.88418 17.2844 3.54028C17.9405 4.19638 18.3124 5.08407 18.3199 6.0119C18.3275 6.93973 17.97 7.83335 17.3246 8.50001L14.8246 11M6.82464 9.00001L4.32464 11.5C3.98754 11.8263 3.71874 12.2165 3.53393 12.6478C3.34911 13.079 3.25197 13.5427 3.24816 14.0119C3.24435 14.4811 3.33395 14.9463 3.51174 15.3805C3.68953 15.8147 3.95195 16.2092 4.28372 16.5409C4.61548 16.8727 5.00995 17.1351 5.44415 17.3129C5.87835 17.4907 6.34358 17.5803 6.81275 17.5765C7.28192 17.5727 7.74564 17.4755 8.1769 17.2907C8.60815 17.1059 8.99831 16.8371 9.32464 16.5L11.8246 14" stroke="#002B31" stroke-width="1.25" stroke-linecap="square" stroke-linejoin="round"/>
<path d="M8.82422 12L12.8242 8" stroke="#002B31" stroke-width="1.25"/>
</svg>
