<svg width="38" height="38" viewBox="0 0 38 38" fill="none" xmlns="http://www.w3.org/2000/svg">
<path d="M11.7619 19.0002H20.8095M11.7619 22.6192H24.4285M11.7619 26.2383H17.1904M29.8571 28.0478V15.3811L20.8095 6.3335H11.7619C10.802 6.3335 9.88152 6.71479 9.20282 7.39349C8.52411 8.07219 8.14282 8.99271 8.14282 9.95254V28.0478C8.14282 29.0076 8.52411 29.9281 9.20282 30.6068C9.88152 31.2855 10.802 31.6668 11.7619 31.6668H26.2381C27.1979 31.6668 28.1184 31.2855 28.7971 30.6068C29.4758 29.9281 29.8571 29.0076 29.8571 28.0478Z" stroke="#CDEED3" stroke-linecap="round" stroke-linejoin="round"/>
<path d="M20.8094 6.3335V11.7621C20.8094 12.7219 21.1907 13.6424 21.8694 14.3211C22.5481 14.9998 23.4687 15.3811 24.4285 15.3811H29.8571" stroke="#CDEED3" stroke-linecap="round" stroke-linejoin="round"/>
</svg>
