<svg width="17" height="4" viewBox="0 0 17 4" fill="none" xmlns="http://www.w3.org/2000/svg">
<path d="M10.3242 2C10.3242 2.39782 10.1662 2.77936 9.88488 3.06066C9.60357 3.34196 9.22204 3.5 8.82422 3.5C8.42639 3.5 8.04486 3.34196 7.76356 3.06066C7.48225 2.77936 7.32422 2.39782 7.32422 2C7.32422 1.60218 7.48225 1.22064 7.76356 0.93934C8.04486 0.658035 8.42639 0.5 8.82422 0.5C9.22204 0.5 9.60357 0.658035 9.88488 0.93934C10.1662 1.22064 10.3242 1.60218 10.3242 2ZM3.82422 2C3.82422 2.19698 3.78542 2.39204 3.71004 2.57403C3.63466 2.75601 3.52417 2.92137 3.38488 3.06066C3.24559 3.19995 3.08023 3.31044 2.89824 3.38582C2.71626 3.4612 2.5212 3.5 2.32422 3.5C2.12724 3.5 1.93218 3.4612 1.75019 3.38582C1.56821 3.31044 1.40285 3.19995 1.26356 3.06066C1.12427 2.92137 1.01378 2.75601 0.9384 2.57403C0.863017 2.39204 0.824219 2.19698 0.824219 2C0.824219 1.60218 0.982254 1.22064 1.26356 0.93934C1.54486 0.658035 1.92639 0.5 2.32422 0.5C2.72204 0.5 3.10357 0.658035 3.38488 0.93934C3.66618 1.22064 3.82422 1.60218 3.82422 2ZM16.8242 2C16.8242 2.39782 16.6662 2.77936 16.3849 3.06066C16.1036 3.34196 15.722 3.5 15.3242 3.5C14.9264 3.5 14.5449 3.34196 14.2636 3.06066C13.9823 2.77936 13.8242 2.39782 13.8242 2C13.8242 1.60218 13.9823 1.22064 14.2636 0.93934C14.5449 0.658035 14.9264 0.5 15.3242 0.5C15.722 0.5 16.1036 0.658035 16.3849 0.93934C16.6662 1.22064 16.8242 1.60218 16.8242 2Z" fill="#002B31"/>
</svg>
