<svg width="38" height="38" viewBox="0 0 38 38" fill="none" xmlns="http://www.w3.org/2000/svg">
<path d="M18.0953 8.14307H9.95242C8.99259 8.14307 8.07207 8.52436 7.39337 9.20306C6.71467 9.88176 6.33337 10.8023 6.33337 11.7621V28.0478C6.33337 29.0077 6.71467 29.9282 7.39337 30.6069C8.07207 31.2856 8.99259 31.6669 9.95242 31.6669H28.0477C29.0075 31.6669 29.928 31.2856 30.6067 30.6069C31.2854 29.9282 31.6667 29.0077 31.6667 28.0478V19.905" stroke="#CDEED3" stroke-width="1.5" stroke-linecap="round" stroke-linejoin="round"/>
<path d="M28.0476 9.95243L29.7721 11.762M31.6666 6.27367C32.1499 6.77202 32.4176 7.44057 32.4118 8.13474C32.4061 8.8289 32.1273 9.49292 31.6359 9.98319L19 22.6191L13.5714 24.4286L15.3809 19L28.0241 6.25014C28.4688 5.80261 29.0635 5.5357 29.6934 5.50095C30.3233 5.46619 30.9438 5.66606 31.435 6.06195L31.6666 6.27367Z" stroke="#CDEED3" stroke-width="1.5" stroke-linecap="round" stroke-linejoin="round"/>
</svg>
