<svg width="85" height="85" viewBox="0 0 85 85" fill="none" xmlns="http://www.w3.org/2000/svg">
<rect width="85" height="85" rx="42.5" fill="#E0F9FF"/>
<path d="M34.4999 40.8333C30.3333 40.8333 26.9999 44.1667 26.9999 48.3333C26.9999 49.8 27.4166 51.1833 28.1499 52.3333L23.0166 57.5L25.3333 59.8167L30.5333 54.7C31.6833 55.4167 33.0499 55.8333 34.4999 55.8333C38.6666 55.8333 41.9999 52.5 41.9999 48.3333C41.9999 44.1667 38.6666 40.8333 34.4999 40.8333ZM34.4999 52.5C33.3949 52.5 32.3351 52.061 31.5537 51.2796C30.7723 50.4982 30.3333 49.4384 30.3333 48.3333C30.3333 47.2283 30.7723 46.1685 31.5537 45.3871C32.3351 44.6057 33.3949 44.1667 34.4999 44.1667C35.605 44.1667 36.6648 44.6057 37.4462 45.3871C38.2276 46.1685 38.6666 47.2283 38.6666 48.3333C38.6666 49.4384 38.2276 50.4982 37.4462 51.2796C36.6648 52.061 35.605 52.5 34.4999 52.5ZM60.3333 30.8333V54.1667C60.3333 56.0167 58.8499 57.5 56.9999 57.5H40.2499C41.5999 56.6667 42.7499 55.5167 43.6166 54.1667H56.9999V37.5H43.6666V30.8333H26.9999V40.5333C24.9499 42.5 23.6666 45.2667 23.6666 48.3333V30.8333C23.6666 29 25.1666 27.5 26.9999 27.5H56.9999C57.884 27.5 58.7318 27.8512 59.357 28.4763C59.9821 29.1014 60.3333 29.9493 60.3333 30.8333Z" fill="black"/>
</svg>
