<svg width="85" height="85" viewBox="0 0 85 85" fill="none" xmlns="http://www.w3.org/2000/svg">
<rect width="85" height="85" rx="42.5" fill="#F0E3FF"/>
<path d="M30.3333 37.6384C30.3333 35.695 31.9999 35 32.8333 35C34.4899 35 35.3333 36.2567 35.3333 37.6384C35.3333 40.86 33.0949 42.5 30.3333 42.5C27.5716 42.5 25.3333 39.8884 25.3333 36.6667C25.3333 33.445 27.5716 30.8334 30.3333 30.8334M30.3333 30.8334H53.6666M30.3333 30.8334C30.3333 28.475 30.3333 27.2967 31.0666 26.5667C31.7983 25.8334 32.9766 25.8334 35.3333 25.8334H48.6666C51.0249 25.8334 52.2033 25.8334 52.9333 26.5667C53.6666 27.2984 53.6666 28.4767 53.6666 30.8334M53.6666 30.8334C56.4283 30.8334 58.6666 33.445 58.6666 36.6667C58.6666 39.8884 56.4283 42.5 53.6666 42.5C50.9049 42.5 48.6666 40.86 48.6666 37.6384C48.6666 36.255 49.5099 35 51.1666 35C51.9999 35 53.6666 35.695 53.6666 37.6384M43.6666 37.5H40.3333M37.8333 54.1667V47.5M46.1666 54.1667V47.5M26.9999 55.8334C26.9999 55.3913 27.1755 54.9674 27.4881 54.6549C27.8006 54.3423 28.2246 54.1667 28.6666 54.1667H55.3333C55.7753 54.1667 56.1992 54.3423 56.5118 54.6549C56.8243 54.9674 56.9999 55.3913 56.9999 55.8334V57.5C56.9999 57.9421 56.8243 58.366 56.5118 58.6786C56.1992 58.9911 55.7753 59.1667 55.3333 59.1667H28.6666C28.2246 59.1667 27.8006 58.9911 27.4881 58.6786C27.1755 58.366 26.9999 57.9421 26.9999 57.5V55.8334Z" stroke="black" stroke-width="1.5" stroke-linecap="round" stroke-linejoin="round"/>
<path d="M30.3333 42.5V54.1667H53.6666V42.5" stroke="black" stroke-width="1.5" stroke-linecap="round" stroke-linejoin="round"/>
</svg>
