<svg width="37" height="28" viewBox="0 0 37 28" fill="none" xmlns="http://www.w3.org/2000/svg">
<path d="M24.1161 16.8034C23.8533 16.8034 23.6012 16.9078 23.4153 17.0936C23.2295 17.2795 23.1251 17.5316 23.1251 17.7944C23.1251 18.0573 23.2295 18.3094 23.4153 18.4952C23.6012 18.6811 23.8533 18.7855 24.1161 18.7855H28.7411C29.004 18.7855 29.2561 18.6811 29.4419 18.4952C29.6278 18.3094 29.7322 18.0573 29.7322 17.7944C29.7322 17.5316 29.6278 17.2795 29.4419 17.0936C29.2561 16.9078 29.004 16.8034 28.7411 16.8034H24.1161ZM2.64819 6.56229C2.64819 5.24805 3.17027 3.98763 4.09958 3.05832C5.02889 2.12901 6.28931 1.60693 7.60355 1.60693H29.4018C30.7161 1.60693 31.9765 2.12901 32.9058 3.05832C33.8351 3.98763 34.3572 5.24805 34.3572 6.56229V20.4373C34.3572 21.7515 33.8351 23.0119 32.9058 23.9413C31.9765 24.8706 30.7161 25.3926 29.4018 25.3926H7.60487C6.29063 25.3926 5.03022 24.8706 4.10091 23.9413C3.1716 23.0119 2.64952 21.7515 2.64952 20.4373L2.64819 6.56229ZM7.60355 3.58908C6.81501 3.58908 6.05876 3.90233 5.50117 4.45991C4.94358 5.0175 4.63034 5.77375 4.63034 6.56229V7.55336H32.3751V6.56229C32.3751 5.77375 32.0618 5.0175 31.5042 4.45991C30.9466 3.90233 30.1904 3.58908 29.4018 3.58908H7.60355ZM4.63034 20.4373C4.63034 21.2258 4.94358 21.9821 5.50117 22.5397C6.05876 23.0973 6.81501 23.4105 7.60355 23.4105H29.4018C30.1904 23.4105 30.9466 23.0973 31.5042 22.5397C32.0618 21.9821 32.3751 21.2258 32.3751 20.4373V9.53551H4.63166L4.63034 20.4373Z" fill="#CDEED3"/>
</svg>
