<svg width="24" height="25" viewBox="0 0 24 25" fill="none" xmlns="http://www.w3.org/2000/svg">
<path fill-rule="evenodd" clip-rule="evenodd" d="M11.9149 14.7823L14.1189 12.5783C14.7276 11.9696 14.8785 11.0397 14.4935 10.2697L14.3686 10.0199C13.9837 9.24994 14.1346 8.32 14.7433 7.71128L17.4761 4.97848C17.6714 4.78322 17.9879 4.78322 18.1832 4.97848C18.2212 5.01648 18.2528 5.06036 18.2769 5.10842L19.3808 7.31638C20.2254 9.00549 19.8943 11.0455 18.559 12.3809L12.5602 18.3797C11.1066 19.8332 8.95659 20.3408 7.00646 19.6907L4.59198 18.8859C4.33001 18.7986 4.18843 18.5154 4.27576 18.2535C4.3003 18.1798 4.34166 18.1129 4.39654 18.058L7.04782 15.4068C7.65654 14.798 8.58648 14.6471 9.35646 15.0321L9.60622 15.157C10.3762 15.542 11.3061 15.3911 11.9149 14.7823Z" fill="#08043F"/>
</svg>
