<svg width="26" height="27" viewBox="0 0 26 27" fill="none" xmlns="http://www.w3.org/2000/svg">
<path d="M8.37972 5.2629L15.8726 12.876C16.0369 13.0421 16.1291 13.2664 16.1291 13.5C16.1291 13.7337 16.0369 13.9579 15.8726 14.124L8.38135 21.7371C8.2171 21.9043 8.12507 22.1293 8.12507 22.3636C8.12507 22.5979 8.2171 22.8229 8.38135 22.99C8.46159 23.0723 8.55749 23.1377 8.6634 23.1824C8.76931 23.2271 8.88309 23.2501 8.99804 23.2501C9.11298 23.2501 9.22676 23.2271 9.33267 23.1824C9.43859 23.1377 9.53449 23.0723 9.61472 22.99L17.106 15.3785C17.5982 14.8772 17.874 14.2026 17.874 13.5C17.874 12.7974 17.5982 12.1229 17.106 11.6215L9.61473 4.01002C9.53446 3.92747 9.43846 3.86185 9.3324 3.81704C9.22634 3.77223 9.11236 3.74915 8.99722 3.74915C8.88208 3.74915 8.76812 3.77223 8.66205 3.81704C8.55599 3.86185 8.45999 3.92747 8.37972 4.01002C8.21548 4.17716 8.12344 4.40213 8.12344 4.63646C8.12344 4.8708 8.21548 5.09576 8.37972 5.2629Z" fill="black"/>
</svg>
