<svg width="31" height="31" viewBox="0 0 31 31" fill="none" xmlns="http://www.w3.org/2000/svg">
<path d="M1.42856 17.2704C0.913765 13.9192 0.65564 12.245 1.29001 10.759C1.92293 9.27439 3.32876 8.25794 6.13897 6.22648L8.23897 4.70835C11.7346 2.18106 13.4831 0.916687 15.5 0.916687C17.5169 0.916687 19.2654 2.18106 22.7611 4.70835L24.8611 6.22648C27.6713 8.25794 29.0756 9.27439 29.71 10.759C30.3429 12.245 30.0863 13.9192 29.5715 17.269L29.1325 20.1273C28.4033 24.8756 28.0373 27.2498 26.334 28.6673C24.6306 30.0848 22.1413 30.0834 17.1611 30.0834H13.8375C8.85731 30.0834 6.36793 30.0834 4.6646 28.6673C2.96126 27.2498 2.59668 24.8756 1.86606 20.1259L1.42856 17.2704Z" stroke="#CDEED3" stroke-width="1.5" stroke-linecap="round" stroke-linejoin="round"/>
<path d="M14.4063 17.3229C16.1373 19.054 18.4167 20.8127 18.4167 20.8127L21.5419 17.6875C21.5419 17.6875 19.7831 15.4081 18.0521 13.6771C16.321 11.9461 14.0417 10.1873 14.0417 10.1873L10.9165 13.3125C10.9165 13.3125 12.6752 15.5919 14.4063 17.3229ZM14.4063 17.3229L8.9375 22.7917M22.0625 17.1669L17.896 21.3334M14.5623 9.66669L10.3958 13.8331" stroke="#CDEED3" stroke-width="1.5" stroke-linecap="round" stroke-linejoin="round"/>
</svg>
