<svg width="86" height="85" viewBox="0 0 86 85" fill="none" xmlns="http://www.w3.org/2000/svg">
<rect x="0.5" width="85" height="85" rx="42.5" fill="#F0E3FF"/>
<g clip-path="url(#clip0_3473_13305)">
<path d="M22.5 26.875C22.5 24.46 24.46 22.5 26.875 22.5H58.125C60.54 22.5 62.5 24.46 62.5 26.875V58.125C62.5 59.2853 62.0391 60.3981 61.2186 61.2186C60.3981 62.0391 59.2853 62.5 58.125 62.5H36.875C36.3777 62.5 35.9008 62.3025 35.5492 61.9508C35.1975 61.5992 35 61.1223 35 60.625C35 60.1277 35.1975 59.6508 35.5492 59.2992C35.9008 58.9475 36.3777 58.75 36.875 58.75H58.125C58.2908 58.75 58.4497 58.6842 58.5669 58.5669C58.6842 58.4497 58.75 58.2908 58.75 58.125V38.75H26.25V43.125C26.25 43.6223 26.0525 44.0992 25.7008 44.4508C25.3492 44.8025 24.8723 45 24.375 45C23.8777 45 23.4008 44.8025 23.0492 44.4508C22.6975 44.0992 22.5 43.6223 22.5 43.125V26.875ZM38.75 35H58.75V26.875C58.75 26.7092 58.6842 26.5503 58.5669 26.4331C58.4497 26.3158 58.2908 26.25 58.125 26.25H38.75V35ZM26.25 35H35V26.25H26.875C26.7092 26.25 26.5503 26.3158 26.4331 26.4331C26.3158 26.5503 26.25 26.7092 26.25 26.875V35Z" fill="black"/>
<path d="M26.25 56.8425C26.25 56.1013 26.3965 55.3673 26.681 54.6829C26.9656 53.9985 27.3826 53.3771 27.9081 52.8544C28.4336 52.3316 29.0573 51.9179 29.7432 51.637C30.4291 51.3561 31.1638 51.2135 31.905 51.2175L32.5 51.225V56.07C32.5 56.615 33.15 56.8975 33.55 56.5275L40.7575 49.835C40.8203 49.7765 40.8705 49.7057 40.9047 49.627C40.939 49.5482 40.9567 49.4633 40.9567 49.3775C40.9567 49.2916 40.939 49.2067 40.9047 49.128C40.8705 49.0493 40.8203 48.9785 40.7575 48.92L33.55 42.225C33.4609 42.1423 33.3496 42.0874 33.2298 42.0671C33.1099 42.0467 32.9868 42.0617 32.8753 42.1103C32.7639 42.1588 32.6691 42.2388 32.6024 42.3404C32.5357 42.4421 32.5001 42.5609 32.5 42.6825V47.475L31.925 47.4725C30.6899 47.4659 29.4656 47.7034 28.3226 48.1715C27.1795 48.6395 26.1402 49.3288 25.2644 50.1997C24.3886 51.0707 23.6935 52.1061 23.2191 53.2465C22.7447 54.3869 22.5003 55.6098 22.5 56.845V59.375C22.5 59.8723 22.6975 60.3492 23.0492 60.7008C23.4008 61.0524 23.8777 61.25 24.375 61.25C24.8723 61.25 25.3492 61.0524 25.7008 60.7008C26.0525 60.3492 26.25 59.8723 26.25 59.375V56.8425Z" fill="black"/>
</g>
<defs>
<clipPath id="clip0_3473_13305">
<rect width="40" height="40" fill="white" transform="translate(22.5 22.5)"/>
</clipPath>
</defs>
</svg>
