<svg width="35" height="35" viewBox="0 0 35 35" fill="none" xmlns="http://www.w3.org/2000/svg">
<path d="M3.42868 19.2705C2.91389 15.9192 2.65576 14.2451 3.29014 12.759C3.92305 11.2745 5.32889 10.258 8.13909 8.22654L10.2391 6.70841C13.7347 4.18112 15.4833 2.91675 17.5001 2.91675C19.517 2.91675 21.2656 4.18112 24.7612 6.70841L26.8612 8.22654C29.6714 10.258 31.0758 11.2745 31.7101 12.759C32.3431 14.2451 32.0864 15.9192 31.5716 19.269L31.1326 22.1274C30.4035 26.8757 30.0374 29.2499 28.3341 30.6674C26.6308 32.0849 24.1414 32.0834 19.1612 32.0834H15.8376C10.8574 32.0834 8.36805 32.0834 6.66472 30.6674C4.96139 29.2499 4.5968 26.8757 3.86618 22.1259L3.42868 19.2705Z" stroke="#1D1E2A" stroke-width="1.5" stroke-linecap="round" stroke-linejoin="round"/>
<path d="M16.4063 19.323C18.1373 21.054 20.4167 22.8128 20.4167 22.8128L23.5419 19.6876C23.5419 19.6876 21.7831 17.4082 20.0521 15.6772C18.321 13.9461 16.0417 12.1874 16.0417 12.1874L12.9165 15.3126C12.9165 15.3126 14.6752 17.592 16.4063 19.323ZM16.4063 19.323L10.9375 24.7917M24.0625 19.167L19.896 23.3334M16.5623 11.6667L12.3958 15.8332" stroke="#1D1E2A" stroke-width="1.5" stroke-linecap="round" stroke-linejoin="round"/>
</svg>
