<svg width="167" height="43" viewBox="0 0 167 43" fill="none" xmlns="http://www.w3.org/2000/svg">
<path d="M22.9696 0C20.0776 0 17.5045 1.81053 16.5481 4.52632H2.47544V9.05263H6.91583L0.198315 24.8947C-0.871934 29.4211 2.47544 31.6842 8.16825 31.6842C13.8611 31.6842 17.4134 29.4211 16.1382 24.8947L9.42067 9.05263H16.5253C17.2768 10.9763 18.7569 12.4474 20.6924 13.1942V38.4737H0.198315V43H45.7408V38.4737H25.2467V13.1716C27.1822 12.4474 28.6624 10.9763 29.3911 9.05263H36.5185L29.8009 24.8947C28.7307 29.4211 32.0781 31.6842 37.7709 31.6842C43.4637 31.6842 47.016 29.4211 45.7408 24.8947L39.0233 9.05263H43.4637V4.52632H29.4138C28.4347 1.81053 25.8615 0 22.9696 0ZM22.9696 4.52632C23.5735 4.52632 24.1527 4.76476 24.5797 5.18918C25.0068 5.6136 25.2467 6.18925 25.2467 6.78947C25.2467 7.3897 25.0068 7.96534 24.5797 8.38977C24.1527 8.81419 23.5735 9.05263 22.9696 9.05263C22.3656 9.05263 21.7864 8.81419 21.3594 8.38977C20.9323 7.96534 20.6924 7.3897 20.6924 6.78947C20.6924 6.18925 20.9323 5.6136 21.3594 5.18918C21.7864 4.76476 22.3656 4.52632 22.9696 4.52632ZM8.16825 16.4079L11.5839 24.8947H4.75256L8.16825 16.4079ZM37.7709 16.4079L41.1866 24.8947H34.3552L37.7709 16.4079Z" fill="black"/>
<path d="M148.411 27.3632H148.304L148.311 27.4697C148.484 30.1211 149.379 32.2925 150.907 33.8015C152.436 35.3111 154.59 36.1483 157.263 36.1483C160.034 36.1483 162.285 35.2144 163.842 33.5214C165.399 31.8293 166.254 29.3896 166.254 26.3949V9.53003V9.43003H166.154H161.041H160.941V9.53003V26.7764C160.941 28.328 160.6 29.5536 159.973 30.3889C159.35 31.2204 158.436 31.6748 157.263 31.6748C156.125 31.6748 155.287 31.2845 154.698 30.5712C154.105 29.8536 153.756 28.7982 153.624 27.4534L153.615 27.3632H153.524H148.411Z" fill="black" stroke="black" stroke-width="0.2"/>
<path d="M126.408 25.2876C126.408 28.6444 127.348 31.3608 129.062 33.239C130.777 35.1183 133.258 36.1476 136.314 36.1476C139.294 36.1476 141.764 35.1665 143.489 33.3112C145.213 31.4567 146.182 28.74 146.182 25.2876C146.182 21.9119 145.242 19.1767 143.533 17.2842C141.823 15.3906 139.353 14.3514 136.314 14.3514C133.316 14.3514 130.836 15.3324 129.106 17.1974C127.377 19.0616 126.408 21.7974 126.408 25.2876ZM140.946 25.2876C140.946 27.4525 140.537 29.1077 139.757 30.2191C138.981 31.3249 137.83 31.903 136.314 31.903C134.799 31.903 133.638 31.3156 132.852 30.2045C132.063 29.0881 131.645 27.4328 131.645 25.2876C131.645 23.1036 132.054 21.4292 132.838 20.3035C133.619 19.1835 134.779 18.5959 136.314 18.5959C137.81 18.5959 138.961 19.192 139.743 20.3176C140.528 21.4485 140.946 23.1233 140.946 25.2876Z" fill="black" stroke="black" stroke-width="0.2"/>
<path d="M94.0572 35.4759V35.5759H94.1572H99.3082H99.4094L99.4082 35.4748L99.1869 16.0698L100.854 21.2743L100.854 21.2744L100.856 21.2805L106.465 35.5126L106.49 35.5759H106.558H110.259H110.327L110.352 35.5125L115.923 21.3568L115.923 21.3568L115.925 21.3505L117.631 15.993L117.447 35.475L117.446 35.5759H117.547H122.66H122.76V35.4759V9.53003V9.43003H122.66H116.02H115.952L115.927 9.49373L109.403 26.2441L109.402 26.244L109.4 26.2511L108.506 29.1756L107.646 26.2522L107.646 26.2521L107.643 26.2439L101.08 9.49355L101.055 9.43003H100.987H94.1572H94.0572V9.53003V35.4759Z" fill="black" stroke="black" stroke-width="0.2"/>
<path d="M78.8473 27.1578V27.2578H78.9473H89.4019H89.5019V27.1578V22.9988V22.8988H89.4019H78.9473H78.8473V22.9988V27.1578Z" fill="black" stroke="black" stroke-width="0.2"/>
<path d="M75.6074 28.8207L75.6361 28.698H75.51H70.359H70.2844L70.2631 28.7694C69.944 29.8394 69.4022 30.6298 68.6651 31.1537C67.9275 31.6778 66.9858 31.9412 65.8566 31.9412C64.3938 31.9412 63.2501 31.4361 62.4417 30.4791C61.6462 29.5372 61.1666 28.147 61.0412 26.3415H75.3574H75.4574V26.2415V25.0969C75.4574 21.7782 74.5268 19.0905 72.8319 17.2314C71.136 15.3712 68.6846 14.3514 65.6658 14.3514C62.6671 14.3514 60.1965 15.3324 58.4763 17.1976C56.7569 19.0619 55.7979 21.7977 55.7979 25.2876C55.7979 28.6447 56.7477 31.3613 58.4859 33.2395C60.225 35.1187 62.7431 36.1476 65.8566 36.1476C68.3156 36.1476 70.4742 35.5135 72.159 34.2776C73.8445 33.0412 75.0492 31.2074 75.6074 28.8207ZM61.1655 23.0891C61.4002 21.613 61.8936 20.491 62.6279 19.7341C63.3789 18.9599 64.3913 18.5578 65.6658 18.5578C66.9202 18.5578 67.9232 18.9687 68.6699 19.7479C69.3998 20.5096 69.893 21.6315 70.1278 23.0891H61.1655Z" fill="black" stroke="black" stroke-width="0.2"/>
<circle cx="21.3023" cy="9.33986" r="3.55031" fill="#4FAFFF"/>
</svg>
