<svg width="85" height="85" viewBox="0 0 85 85" fill="none" xmlns="http://www.w3.org/2000/svg">
<rect width="85" height="85" rx="42.5" fill="#F0E3FF"/>
<path fill-rule="evenodd" clip-rule="evenodd" d="M57 54.1666C57.4248 54.1671 57.8334 54.3298 58.1423 54.6214C58.4512 54.913 58.6371 55.3115 58.662 55.7356C58.6869 56.1597 58.5489 56.5773 58.2762 56.903C58.0036 57.2288 57.6169 57.4381 57.195 57.4883L57 57.5H27C26.5752 57.4995 26.1666 57.3368 25.8577 57.0452C25.5489 56.7536 25.363 56.355 25.3381 55.931C25.3132 55.5069 25.4511 55.0893 25.7238 54.7636C25.9965 54.4378 26.3832 54.2285 26.805 54.1783L27 54.1666H57ZM53.6667 29.1666C54.5077 29.1664 55.3176 29.484 55.9343 30.0558C56.5509 30.6276 56.9286 31.4114 56.9917 32.25L57 32.5V49.1666C57.0003 50.0076 56.6827 50.8176 56.1109 51.4342C55.539 52.0508 54.7553 52.4286 53.9167 52.4916L53.6667 52.5H30.3334C29.4924 52.5002 28.6824 52.1826 28.0658 51.6108C27.4491 51.039 27.0714 50.2552 27.0084 49.4166L27 49.1666V32.5C26.9998 31.659 27.3174 30.849 27.8892 30.2324C28.461 29.6157 29.2448 29.238 30.0834 29.175L30.3334 29.1666H53.6667ZM53.6667 32.5H30.3334V49.1666H53.6667V32.5Z" fill="black"/>
</svg>
