<svg width="161" height="41" viewBox="0 0 161 41" fill="none" xmlns="http://www.w3.org/2000/svg">
<path d="M152.134 21.589V14.6566H154.826L155.947 18.1228L156.294 19.4175L156.64 18.1228L157.762 14.6566H160.392V21.589H158.312L158.445 16.9912L157.904 18.8772L157.018 21.589H155.509L154.601 18.8364L154.081 17.0116L154.214 21.589H152.134Z" fill="url(#paint0_linear_1955_636)"/>
<path d="M146.019 21.589V14.6566H151.168V16.2877H148.099V17.2766H150.76V18.8568H148.099V19.9578H151.168V21.589H146.019Z" fill="url(#paint1_linear_1955_636)"/>
<path d="M141.118 21.589V16.3387H139.11V14.6566H145.207V16.3387H143.198V21.589H141.118Z" fill="url(#paint2_linear_1955_636)"/>
<path d="M134.929 16.4915C134.929 17.6741 138.905 16.5935 138.905 19.4174C138.905 20.9058 137.651 21.7825 135.938 21.7825C134.205 21.7825 132.93 20.9772 132.727 19.2848H134.918C134.99 19.8761 135.387 20.2024 135.958 20.2024C136.499 20.2024 136.774 20.0087 136.774 19.6722C136.774 18.4795 132.798 19.4072 132.798 16.7158C132.798 15.4415 133.838 14.4628 135.663 14.4628C137.161 14.4628 138.517 15.1764 138.701 16.8585H136.478C136.386 16.3182 136.101 16.0429 135.571 16.0429C135.194 16.0429 134.929 16.2163 134.929 16.4915Z" fill="url(#paint3_linear_1955_636)"/>
<path d="M128.124 21.589V19.285L125.81 14.6566H128.135L128.95 16.6446L129.226 17.5009L129.501 16.6446L130.316 14.6566H132.518L130.204 19.285V21.589H128.124Z" fill="url(#paint4_linear_1955_636)"/>
<path d="M121.982 16.4915C121.982 17.6741 125.958 16.5935 125.958 19.4174C125.958 20.9058 124.704 21.7825 122.991 21.7825C121.258 21.7825 119.983 20.9772 119.78 19.2848H121.971C122.043 19.8761 122.44 20.2024 123.011 20.2024C123.552 20.2024 123.827 20.0087 123.827 19.6722C123.827 18.4795 119.851 19.4072 119.851 16.7158C119.851 15.4415 120.891 14.4628 122.716 14.4628C124.214 14.4628 125.57 15.1764 125.754 16.8585H123.531C123.439 16.3182 123.154 16.0429 122.624 16.0429C122.247 16.0429 121.982 16.2163 121.982 16.4915Z" fill="url(#paint5_linear_1955_636)"/>
<path d="M115.573 21.7825C113.35 21.7825 111.974 20.3859 111.974 18.1328C111.974 15.8696 113.35 14.4628 115.573 14.4628C117.795 14.4628 119.171 15.8696 119.171 18.1328C119.171 20.3859 117.795 21.7825 115.573 21.7825ZM115.573 20.1004C116.511 20.1004 117.041 19.3664 117.041 18.1328C117.041 16.8891 116.511 16.1449 115.573 16.1449C114.635 16.1449 114.105 16.8891 114.105 18.1328C114.105 19.3664 114.635 20.1004 115.573 20.1004Z" fill="url(#paint6_linear_1955_636)"/>
<path d="M111.362 17.0216H109.191C109.038 16.4405 108.681 16.1449 108.11 16.1449C107.264 16.1449 106.795 16.8891 106.795 18.1328C106.795 19.3766 107.254 20.1004 108.11 20.1004C108.64 20.1004 109.028 19.815 109.171 19.2848H111.362C111.036 20.9466 109.741 21.7825 108.161 21.7825C106 21.7825 104.665 20.3961 104.665 18.1328C104.665 15.8696 106 14.4628 108.161 14.4628C109.752 14.4628 111.087 15.3191 111.362 17.0216Z" fill="url(#paint7_linear_1955_636)"/>
<path d="M98.7527 21.589V14.6566H103.901V16.2877H100.832V17.2766H103.493V18.8568H100.832V19.9578H103.901V21.589H98.7527Z" fill="url(#paint8_linear_1955_636)"/>
<path d="M89.3894 21.589V14.6566H91.4691V17.2155H93.6202V14.6566H95.6999V21.589H93.6202V18.8976H91.4691V21.589H89.3894Z" fill="url(#paint9_linear_1955_636)"/>
<path d="M88.5734 17.0216H86.4019C86.249 16.4405 85.8922 16.1449 85.3213 16.1449C84.4751 16.1449 84.0062 16.8891 84.0062 18.1328C84.0062 19.3766 84.4649 20.1004 85.3213 20.1004C85.8514 20.1004 86.2388 19.815 86.3815 19.2848H88.5734C88.2472 20.9466 86.9524 21.7825 85.3723 21.7825C83.211 21.7825 81.8755 20.3961 81.8755 18.1328C81.8755 15.8696 83.211 14.4628 85.3723 14.4628C86.9626 14.4628 88.2981 15.3191 88.5734 17.0216Z" fill="url(#paint10_linear_1955_636)"/>
<path d="M75.9646 21.589V14.6566H81.1129V16.2877H78.0443V17.2766H80.7051V18.8568H78.0443V19.9578H81.1129V21.589H75.9646Z" fill="url(#paint11_linear_1955_636)"/>
<path d="M71.0638 21.589V16.3387H69.0554V14.6566H75.1518V16.3387H73.1435V21.589H71.0638Z" fill="url(#paint12_linear_1955_636)"/>
<path d="M66.2399 21.589L65.3631 20.1923L65.0675 19.6622L64.7718 20.1923L63.8849 21.589H61.7236L63.997 18.0208L61.8766 14.6566H64.2825L64.9859 15.7678L65.302 16.3795L65.6282 15.7678L66.3418 14.6566H68.4929L66.3724 17.9801L68.6458 21.589H66.2399Z" fill="url(#paint13_linear_1955_636)"/>
<path d="M56.0159 21.589V14.6566H61.1642V16.2877H58.0956V17.2766H60.7564V18.8568H58.0956V19.9578H61.1642V21.589H56.0159Z" fill="url(#paint14_linear_1955_636)"/>
<path d="M50.3586 21.589V14.6566H52.4384V19.9068H55.2011V21.589H50.3586Z" fill="url(#paint15_linear_1955_636)"/>
<path d="M92.6428 28.4848V25.2225H94.0149C95.0608 25.2225 95.7084 25.8462 95.7084 26.8584C95.7084 27.8707 95.0608 28.4848 94.0149 28.4848H92.6428ZM94.0149 27.6932C94.4563 27.6932 94.7057 27.391 94.7057 26.8584C94.7057 26.3259 94.4563 26.0141 94.0149 26.0141H93.6215V27.6932H94.0149Z" fill="#002A7F"/>
<path d="M85.3521 28.4848V25.2225H87.7748V25.9901H86.3307V26.4554H87.5829V27.1991H86.3307V27.7172H87.7748V28.4848H85.3521Z" fill="#002A7F"/>
<path d="M78.6319 28.4848V26.0141H77.6868V25.2225H80.5557V26.0141H79.6106V28.4848H78.6319Z" fill="#002A7F"/>
<path d="M71.9121 28.4848V25.2225H72.8908V28.4848H71.9121Z" fill="#002A7F"/>
<path d="M63.0837 28.4848V25.2225H64.3503L64.878 26.8536L65.0411 27.4629L65.2042 26.8536L65.732 25.2225H66.9697V28.4848H65.991L66.0534 26.3211L65.7991 27.2086L65.3817 28.4848H64.6717L64.2447 27.1895L64.0001 26.3307L64.0624 28.4848H63.0837Z" fill="#002A7F"/>
<path d="M57.1655 28.4848V25.2225H58.1442V28.4848H57.1655Z" fill="#002A7F"/>
<path d="M50.0891 28.4848V25.2225H51.0678V27.6932H52.3679V28.4848H50.0891Z" fill="#002A7F"/>
<path d="M25.3688 5.50837C31.7811 4.32575 38.8669 12.8178 41.4831 17.0884C40.2307 13.3108 40.2307 11.0933 35.3046 5.75494C32.3683 2.57289 24.1164 1.89485 18.3554 3.70163C13.7465 5.14706 13.8746 9.06722 14.5147 10.8466C15.4609 9.55997 18.9565 6.69099 25.3688 5.50837Z" fill="url(#paint16_linear_1955_636)"/>
<path d="M25.3707 2.72835C30.8796 2.46279 35.7839 6.15857 37.5474 8.03966C37.6033 8.09495 37.4634 7.90678 36.4556 6.71174C35.4479 5.5167 33.0126 3.47516 31.2491 2.47942C29.8215 1.48355 25.3707 -0.392003 18.9885 0.0727364C11.0107 0.65366 5.21634 5.96497 3.2009 8.7866C1.18545 11.6082 1.68932 14.4299 3.2009 15.5917C4.71248 16.7536 7.65166 17.3345 11.7665 13.7659C15.8814 10.1974 18.4847 3.06031 25.3707 2.72835Z" fill="url(#paint17_linear_1955_636)"/>
<path d="M16.124 35.5803C9.70769 36.7834 2.61744 28.1446 -0.000320435 23.8002C1.25283 27.6431 1.25283 29.8989 6.18201 35.3295C9.12016 38.5665 17.3772 39.2563 23.1418 37.4183C27.7535 35.9479 27.6254 31.96 26.9849 30.1498C26.038 31.4587 22.5403 34.3773 16.124 35.5803Z" fill="url(#paint18_linear_1955_636)"/>
<path d="M16.2077 38.2534C10.7271 38.5207 5.84807 34.8001 4.09362 32.9064C4.03793 32.8508 4.1772 33.0402 5.17975 34.2433C6.18229 35.4463 8.60511 37.5015 10.3596 38.504C11.7798 39.5065 16.2077 41.3946 22.5572 40.9268C30.494 40.342 36.2586 34.995 38.2637 32.1545C40.2688 29.314 39.7675 26.4734 38.2637 25.3038C36.7599 24.1341 33.8358 23.5493 29.7421 27.1418C25.6483 30.7342 23.0584 37.9192 16.2077 38.2534Z" fill="url(#paint19_linear_1955_636)"/>
<path fill-rule="evenodd" clip-rule="evenodd" d="M26.135 16.76H13.5862V14.975H26.135C27.4749 14.975 28.5611 16.0285 28.5611 17.328V22.7644H26.7206V17.328C26.7206 17.0143 26.4585 16.76 26.135 16.76Z" fill="#002A80"/>
<path fill-rule="evenodd" clip-rule="evenodd" d="M16.0127 24.9042H28.5615V26.6893H16.0127C14.6728 26.6893 13.5866 25.6358 13.5866 24.3362V18.8999H15.4271V24.3362C15.4271 24.6499 15.6892 24.9042 16.0127 24.9042Z" fill="#002A80"/>
<path fill-rule="evenodd" clip-rule="evenodd" d="M24.3339 23.0663H16.8464V21.3152H24.3339V23.0663Z" fill="#002A80"/>
<path fill-rule="evenodd" clip-rule="evenodd" d="M24.3339 20.7113H16.8464V18.5979H24.3339V20.7113Z" fill="#002A80"/>
<defs>
<linearGradient id="paint0_linear_1955_636" x1="49.8488" y1="17.8409" x2="161.091" y2="17.8409" gradientUnits="userSpaceOnUse">
<stop stop-color="#2161B3"/>
<stop offset="1" stop-color="#002A7F"/>
</linearGradient>
<linearGradient id="paint1_linear_1955_636" x1="49.849" y1="17.8409" x2="161.091" y2="17.8409" gradientUnits="userSpaceOnUse">
<stop stop-color="#2161B3"/>
<stop offset="1" stop-color="#002A7F"/>
</linearGradient>
<linearGradient id="paint2_linear_1955_636" x1="49.8487" y1="17.8409" x2="161.09" y2="17.8409" gradientUnits="userSpaceOnUse">
<stop stop-color="#2161B3"/>
<stop offset="1" stop-color="#002A7F"/>
</linearGradient>
<linearGradient id="paint3_linear_1955_636" x1="49.8492" y1="17.8408" x2="161.091" y2="17.8408" gradientUnits="userSpaceOnUse">
<stop stop-color="#2161B3"/>
<stop offset="1" stop-color="#002A7F"/>
</linearGradient>
<linearGradient id="paint4_linear_1955_636" x1="49.8493" y1="17.8409" x2="161.091" y2="17.8409" gradientUnits="userSpaceOnUse">
<stop stop-color="#2161B3"/>
<stop offset="1" stop-color="#002A7F"/>
</linearGradient>
<linearGradient id="paint5_linear_1955_636" x1="49.8493" y1="17.8408" x2="161.091" y2="17.8408" gradientUnits="userSpaceOnUse">
<stop stop-color="#2161B3"/>
<stop offset="1" stop-color="#002A7F"/>
</linearGradient>
<linearGradient id="paint6_linear_1955_636" x1="49.849" y1="17.8408" x2="161.091" y2="17.8408" gradientUnits="userSpaceOnUse">
<stop stop-color="#2161B3"/>
<stop offset="1" stop-color="#002A7F"/>
</linearGradient>
<linearGradient id="paint7_linear_1955_636" x1="49.8495" y1="17.8408" x2="161.091" y2="17.8408" gradientUnits="userSpaceOnUse">
<stop stop-color="#2161B3"/>
<stop offset="1" stop-color="#002A7F"/>
</linearGradient>
<linearGradient id="paint8_linear_1955_636" x1="49.849" y1="17.8409" x2="161.091" y2="17.8409" gradientUnits="userSpaceOnUse">
<stop stop-color="#2161B3"/>
<stop offset="1" stop-color="#002A7F"/>
</linearGradient>
<linearGradient id="paint9_linear_1955_636" x1="49.8489" y1="17.8409" x2="161.091" y2="17.8409" gradientUnits="userSpaceOnUse">
<stop stop-color="#2161B3"/>
<stop offset="1" stop-color="#002A7F"/>
</linearGradient>
<linearGradient id="paint10_linear_1955_636" x1="49.8487" y1="17.8408" x2="161.09" y2="17.8408" gradientUnits="userSpaceOnUse">
<stop stop-color="#2161B3"/>
<stop offset="1" stop-color="#002A7F"/>
</linearGradient>
<linearGradient id="paint11_linear_1955_636" x1="49.8491" y1="17.8409" x2="161.091" y2="17.8409" gradientUnits="userSpaceOnUse">
<stop stop-color="#2161B3"/>
<stop offset="1" stop-color="#002A7F"/>
</linearGradient>
<linearGradient id="paint12_linear_1955_636" x1="49.8489" y1="17.8409" x2="161.091" y2="17.8409" gradientUnits="userSpaceOnUse">
<stop stop-color="#2161B3"/>
<stop offset="1" stop-color="#002A7F"/>
</linearGradient>
<linearGradient id="paint13_linear_1955_636" x1="49.8492" y1="17.8409" x2="161.091" y2="17.8409" gradientUnits="userSpaceOnUse">
<stop stop-color="#2161B3"/>
<stop offset="1" stop-color="#002A7F"/>
</linearGradient>
<linearGradient id="paint14_linear_1955_636" x1="49.8489" y1="17.8409" x2="161.091" y2="17.8409" gradientUnits="userSpaceOnUse">
<stop stop-color="#2161B3"/>
<stop offset="1" stop-color="#002A7F"/>
</linearGradient>
<linearGradient id="paint15_linear_1955_636" x1="49.8489" y1="17.8409" x2="161.091" y2="17.8409" gradientUnits="userSpaceOnUse">
<stop stop-color="#2161B3"/>
<stop offset="1" stop-color="#002A7F"/>
</linearGradient>
<linearGradient id="paint16_linear_1955_636" x1="33.6347" y1="7.23322" x2="17.024" y2="8.76069" gradientUnits="userSpaceOnUse">
<stop stop-color="#00009E"/>
<stop offset="1" stop-color="#000052"/>
</linearGradient>
<linearGradient id="paint17_linear_1955_636" x1="26.2944" y1="0.985489" x2="3.36423" y2="16.0886" gradientUnits="userSpaceOnUse">
<stop offset="0.132958" stop-color="#0054FF"/>
<stop offset="0.796046" stop-color="#4FAFFF"/>
</linearGradient>
<linearGradient id="paint18_linear_1955_636" x1="7.85295" y1="33.8257" x2="24.4785" y2="32.3218" gradientUnits="userSpaceOnUse">
<stop stop-color="#00009E"/>
<stop offset="1" stop-color="#000052"/>
</linearGradient>
<linearGradient id="paint19_linear_1955_636" x1="15.2887" y1="40.0079" x2="38.2637" y2="25.0533" gradientUnits="userSpaceOnUse">
<stop offset="0.132958" stop-color="#0054FF"/>
<stop offset="0.796046" stop-color="#4FAFFF"/>
</linearGradient>
</defs>
</svg>
