<svg width="86" height="85" viewBox="0 0 86 85" fill="none" xmlns="http://www.w3.org/2000/svg">
<rect x="0.5" width="85" height="85" rx="42.5" fill="#F0E3FF"/>
<path d="M30.8335 49.1667L39.1668 44.1667M45.8335 40.8334L54.1668 35.8334M42.5002 30.8334V39.1667M42.5002 45.8334V54.1667M30.8335 35.8334L39.1668 40.8334M45.8335 44.1667L54.1668 49.1667M56.6668 37.5V46.6667M45.0002 56.6667L54.1668 51.6667M30.0002 51.6667L40.0002 56.6667M28.3335 47.5V37.5M30.0002 33.3334L40.0002 28.3334M55.0002 33.3334L45.0002 28.3334" stroke="black" stroke-width="2.5" stroke-linecap="round" stroke-linejoin="round"/>
<path d="M42.5 30.8334C43.8807 30.8334 45 29.7141 45 28.3334C45 26.9527 43.8807 25.8334 42.5 25.8334C41.1193 25.8334 40 26.9527 40 28.3334C40 29.7141 41.1193 30.8334 42.5 30.8334Z" stroke="black" stroke-width="2.5" stroke-linecap="round" stroke-linejoin="round"/>
<path d="M42.5 59.1667C43.8807 59.1667 45 58.0475 45 56.6667C45 55.286 43.8807 54.1667 42.5 54.1667C41.1193 54.1667 40 55.286 40 56.6667C40 58.0475 41.1193 59.1667 42.5 59.1667Z" stroke="black" stroke-width="2.5" stroke-linecap="round" stroke-linejoin="round"/>
<path d="M28.3335 37.5C29.7142 37.5 30.8335 36.3807 30.8335 35C30.8335 33.6193 29.7142 32.5 28.3335 32.5C26.9528 32.5 25.8335 33.6193 25.8335 35C25.8335 36.3807 26.9528 37.5 28.3335 37.5Z" stroke="black" stroke-width="2.5" stroke-linecap="round" stroke-linejoin="round"/>
<path d="M56.667 37.5C58.0477 37.5 59.167 36.3807 59.167 35C59.167 33.6193 58.0477 32.5 56.667 32.5C55.2863 32.5 54.167 33.6193 54.167 35C54.167 36.3807 55.2863 37.5 56.667 37.5Z" stroke="black" stroke-width="2.5" stroke-linecap="round" stroke-linejoin="round"/>
<path d="M56.667 52.5C58.0477 52.5 59.167 51.3807 59.167 50C59.167 48.6193 58.0477 47.5 56.667 47.5C55.2863 47.5 54.167 48.6193 54.167 50C54.167 51.3807 55.2863 52.5 56.667 52.5Z" stroke="black" stroke-width="2.5" stroke-linecap="round" stroke-linejoin="round"/>
<path d="M28.3335 52.5C29.7142 52.5 30.8335 51.3807 30.8335 50C30.8335 48.6193 29.7142 47.5 28.3335 47.5C26.9528 47.5 25.8335 48.6193 25.8335 50C25.8335 51.3807 26.9528 52.5 28.3335 52.5Z" stroke="black" stroke-width="2.5" stroke-linecap="round" stroke-linejoin="round"/>
<path d="M42.5003 38.75L45.8337 40.625V44.375L42.5003 46.25L39.167 44.375V40.625L42.5003 38.75Z" stroke="black" stroke-width="2.5" stroke-linecap="round" stroke-linejoin="round"/>
</svg>
