<svg width="130" height="65" viewBox="0 0 130 65" fill="none" xmlns="http://www.w3.org/2000/svg">
<path d="M27.995 35.0681C27.455 35.4381 26.962 35.8221 26.425 36.1301C25.415 36.7101 24.329 36.8851 23.2 36.5321C22.136 36.1991 21.526 35.4231 21.284 34.3661C20.791 32.2041 21.642 29.1311 23.763 27.6481C25.051 26.7471 26.393 26.7101 27.785 27.3841C27.917 27.4481 27.935 27.5201 27.918 27.6461C27.868 28.0151 27.829 28.3851 27.781 28.7931C28.109 28.8671 28.432 28.9461 28.758 29.0091C28.796 29.0161 28.874 28.9491 28.895 28.9001C29.352 27.8481 29.805 26.7941 30.259 25.7341C29.711 25.4271 28.894 25.2911 26.689 25.1651L33.234 23.0001C33.24 23.1121 33.248 23.1941 33.248 23.2751C33.248 27.0141 33.248 30.7531 33.253 34.4921C33.253 34.6871 33.205 34.7791 33.011 34.8401C31.727 35.2511 30.446 35.6701 29.169 36.1021C28.953 36.1751 28.832 36.1481 28.699 35.9621C28.475 35.6451 28.22 35.3511 27.994 35.0671L27.995 35.0681ZM20.649 38.8241C20.5694 38.7897 20.4894 38.7563 20.409 38.7241C19.179 38.2281 18.237 37.4081 17.687 36.1931C16.853 34.3471 17.03 32.5181 17.903 30.7381C18.619 29.2771 19.728 28.1471 21.029 27.1941C21.103 27.1391 21.175 27.0801 21.248 27.0241L21.214 26.9771C18.668 27.8181 16.122 28.6611 13.581 29.5021V41.2021L20.697 38.8701C20.673 38.8461 20.664 38.8301 20.65 38.8231L20.649 38.8241ZM18.849 41.8781H33.302V36.9201L18.835 41.8461L18.849 41.8761V41.8781ZM28.029 22.2791H13.578V27.2311L28.031 22.3111V22.2801L28.029 22.2791ZM46.016 31.3901L46.573 32.0581C45.648 33.0561 44.546 33.6561 43.19 33.7381C42.268 33.7931 41.372 33.6781 40.552 33.2261C39.102 32.4261 38.529 31.1331 38.56 29.5361C38.587 28.1701 39.2 27.0961 40.345 26.3761C42.21 25.2041 44.182 25.3441 46.191 25.9741L45.81 27.9151L45.223 27.8671C45.208 27.7691 45.177 27.6771 45.183 27.5871C45.209 27.2311 45 27.0731 44.706 26.9481C44.036 26.6631 43.351 26.5361 42.63 26.6911C41.574 26.9201 40.868 27.7411 40.72 28.9111C40.544 30.3101 41.151 31.5711 42.283 32.0791C43.278 32.5251 44.259 32.3941 45.203 31.9011C45.476 31.7581 45.728 31.5721 46.017 31.3891L46.016 31.3901ZM67.693 32.9881C67.445 32.9831 67.393 32.8401 67.39 32.6361C67.378 31.8411 67.36 31.0461 67.353 30.2511C67.348 29.6461 67.368 29.0391 67.175 28.4521C66.92 27.6771 66.338 27.2631 65.522 27.2451C64.854 27.2301 64.267 27.4481 63.72 27.8031C63.541 27.9191 63.373 28.0491 63.164 28.1991L63.258 27.2591C62.305 27.1631 61.452 27.6321 60.535 27.5941V28.1111C60.714 28.1491 60.874 28.2051 61.035 28.2111C61.279 28.2211 61.335 28.3521 61.332 28.5611C61.322 29.9711 61.315 31.3791 61.296 32.7891C61.296 32.8481 61.199 32.9341 61.13 32.9581C60.97 33.0131 60.8 33.0381 60.644 33.0741V33.5481H63.928V33.0761C63.801 33.0491 63.677 33.0081 63.55 32.9981C63.323 32.9811 63.247 32.8641 63.247 32.6481C63.247 31.8351 63.217 31.0231 63.243 30.2121C63.254 29.8641 63.338 29.5061 63.453 29.1761C63.618 28.7011 64.046 28.4641 64.536 28.5091C65.026 28.5521 65.276 28.7871 65.4 29.3271C65.43 29.4531 65.457 29.5821 65.458 29.7101C65.466 30.5831 65.468 31.4561 65.471 32.3281V33.5461H68.094V33.0781C67.959 33.0461 67.826 32.9901 67.693 32.9881ZM104.331 33.0011C104.112 32.9771 104.003 32.8861 104.003 32.6431C104.004 32.0381 103.949 31.4311 103.978 30.8271C104.004 30.2971 104.07 29.7591 104.199 29.2451C104.333 28.7121 104.776 28.4611 105.305 28.5081C105.803 28.5531 106.108 28.8161 106.165 29.3831C106.236 30.1031 106.244 30.8311 106.259 31.5561C106.274 32.2181 106.262 32.8821 106.262 33.5461H108.853V33.0761C108.757 33.0531 108.674 33.0301 108.589 33.0131C108.17 32.9311 108.159 32.9331 108.15 32.5101C108.129 31.5331 108.128 30.5551 108.1 29.5791C108.095 29.242 108.052 28.9066 107.973 28.5791C107.792 27.8811 107.371 27.3971 106.623 27.2771C105.808 27.1451 105.085 27.3911 104.419 27.8431C104.265 27.9471 104.119 28.0611 103.927 28.2011L104.027 27.2061C103.646 27.2561 103.282 27.2931 102.92 27.3531C102.378 27.4411 101.839 27.5451 101.299 27.6431V28.1091C101.463 28.1431 101.613 28.1891 101.766 28.2021C102.007 28.2231 102.103 28.3351 102.1 28.5821C102.084 29.9741 102.081 31.3661 102.063 32.7581C102.062 32.8281 101.967 32.9281 101.893 32.9561C101.737 33.0161 101.565 33.0391 101.413 33.0741V33.5471H104.678V33.0731C104.564 33.0481 104.448 33.0141 104.33 33.0011H104.331ZM51.945 33.4741C53.193 33.0601 53.957 32.1941 54.133 30.8741C54.313 29.5261 53.824 28.4641 52.663 27.7441C51.403 26.9621 49.403 27.0831 48.227 27.9891C46.677 29.1851 46.58 31.6471 48.04 32.9071C48.736 33.5071 49.575 33.7021 50.48 33.7691C50.97 33.6741 51.475 33.6291 51.945 33.4741ZM51.775 32.1391C51.24 32.9961 50.144 33.0361 49.542 32.2231C48.927 31.3911 48.855 29.7201 49.396 28.8381C50 27.8541 51.225 27.8841 51.78 28.8981C52.057 29.4041 52.127 29.9581 52.156 30.5601C52.141 31.0871 52.084 31.6441 51.775 32.1391ZM98.789 33.3291C100.811 32.3981 101.278 29.6371 99.657 28.1431C98.817 27.3701 97.797 27.1561 96.695 27.2511C94.954 27.4011 93.575 28.5141 93.47 30.3031C93.397 31.5481 93.913 32.7661 95.21 33.3671C95.753 33.6171 96.33 33.7091 96.98 33.7131C97.57 33.7051 98.196 33.6031 98.788 33.3301L98.789 33.3291ZM98.296 32.0191C97.782 33.0141 96.549 33.0861 95.943 32.1451C95.533 31.5091 95.453 30.7921 95.501 30.0551C95.536 29.5181 95.668 29.0151 96.029 28.5951C96.599 27.9331 97.572 27.9691 98.087 28.6741C98.499 29.2381 98.591 29.8911 98.602 30.5641C98.606 31.0721 98.532 31.5631 98.297 32.0201L98.296 32.0191ZM115.808 29.6591C115.775 28.4091 115.12 27.5681 113.927 27.3391C113.468 27.2601 113 27.2483 112.537 27.3041C110.937 27.4741 109.634 28.5981 109.413 30.2431C109.224 31.6501 109.923 32.9401 111.217 33.4331C112.19 33.8031 113.179 33.8241 114.159 33.4671C114.888 33.2021 115.482 32.7391 115.977 32.1201L115.336 31.5271C115.257 31.5961 115.194 31.6531 115.128 31.7081C114.648 32.1161 114.103 32.3701 113.466 32.4141C112.175 32.5021 111.192 31.4511 111.432 30.1981H115.809C115.809 30.0021 115.812 29.8311 115.808 29.6591ZM112.934 28.0811C113.073 28.0781 113.21 28.1052 113.338 28.1605C113.465 28.2157 113.579 28.2978 113.671 28.4012C113.764 28.5045 113.833 28.6267 113.874 28.7592C113.914 28.8917 113.926 29.0315 113.908 29.1691C113.901 29.2251 113.829 29.3141 113.782 29.3171C113.027 29.3641 112.27 29.3981 111.51 29.4371C111.576 28.6551 112.188 28.0821 112.934 28.0811ZM75.056 29.7871C75.036 28.5051 74.45 27.6711 73.338 27.3751C73.0453 27.2975 72.7438 27.2582 72.441 27.2581C71.074 27.2611 69.908 27.7021 69.131 28.8931C68.281 30.1941 68.39 32.4691 70.201 33.3171C71.467 33.9101 72.749 33.8741 73.984 33.1841C74.461 32.9171 74.87 32.5641 75.207 32.1151L74.577 31.5341C74.421 31.6591 74.28 31.7871 74.125 31.8941C73.328 32.4341 72.486 32.6081 71.579 32.1861C70.947 31.8911 70.489 30.9991 70.687 30.1911H75.037C75.043 30.0591 75.057 29.9231 75.056 29.7871ZM70.738 29.4391C70.804 28.9251 71.02 28.5331 71.443 28.2841C71.841 28.0511 72.273 27.9761 72.695 28.2261C73.094 28.4621 73.166 28.8531 73.143 29.3131L70.738 29.4391ZM81.678 33.0061C81.705 33.0231 81.738 33.0501 81.776 33.0691C82.7979 33.5944 83.9523 33.8056 85.094 33.6761C85.774 33.6011 86.409 33.3971 86.943 32.9371C87.692 32.2921 88.006 30.7411 86.635 30.1171C86.055 29.8531 85.439 29.6701 84.844 29.4401C84.58 29.3381 84.304 29.2421 84.072 29.0871C83.756 28.8761 83.812 28.4821 84.158 28.3231C84.266 28.2731 84.388 28.2451 84.506 28.2311C85.052 28.1701 85.57 28.2761 86.074 28.4891C86.23 28.5551 86.321 28.6331 86.292 28.8131C86.266 28.9761 86.316 29.0781 86.507 29.0791C86.616 29.0791 86.724 29.1121 86.825 29.1291L87.341 27.6651C86.325 27.2881 85.293 27.1511 84.227 27.3321C83.673 27.4261 83.163 27.6201 82.727 27.9901C82.03 28.5801 81.795 29.9031 82.933 30.5211C83.257 30.6981 83.597 30.8511 83.938 30.9931C84.377 31.1751 84.829 31.3241 85.266 31.5111C85.608 31.6591 85.743 31.9111 85.656 32.2111C85.551 32.5631 85.26 32.7041 84.93 32.7531C84.3078 32.8442 83.6736 32.7048 83.147 32.3611C83.08 32.3191 83.023 32.1711 83.045 32.0961C83.122 31.8261 83.039 31.6721 82.772 31.6031C82.723 31.5911 82.678 31.5631 82.621 31.5391L81.679 33.0071L81.678 33.0061ZM89.308 29.6411C89.304 30.4531 89.265 31.2671 89.304 32.0771C89.339 32.7651 89.64 33.3501 90.341 33.5781C90.675 33.6861 91.058 33.7121 91.409 33.6761C92.079 33.6071 92.606 33.2461 93.039 32.7311L92.539 32.1631C92.488 32.1921 92.449 32.2101 92.414 32.2331C91.704 32.6791 91.251 32.5001 91.201 31.6601C91.133 30.5401 91.171 29.4131 91.166 28.2901C91.166 28.2751 91.182 28.2611 91.192 28.2461H92.42L92.79 27.3421H91.178V25.8421C90.716 25.9321 90.269 26.0261 89.818 26.1021C89.305 26.1901 89.304 26.1831 89.304 26.7101C89.304 27.3331 89.306 27.3381 88.719 27.5621C88.582 27.6151 88.528 27.6831 88.54 27.8271C88.551 27.9531 88.542 28.0811 88.542 28.2291H89.307C89.307 28.7261 89.309 29.1831 89.307 29.6391L89.308 29.6411ZM79.508 33.0741C79.313 33.0381 79.121 32.9921 78.925 32.9711C78.768 32.9551 78.699 32.8951 78.693 32.7311C78.666 32.0321 78.61 31.3341 78.604 30.6351C78.5928 30.1223 78.7159 29.6156 78.961 29.1651C79.116 28.8871 79.319 28.6531 79.631 28.5461C80.035 28.4091 80.157 28.4881 80.203 28.9031C80.207 28.9371 80.218 28.9691 80.227 29.0131L80.645 29.0771L81.236 27.3631C79.96 26.9011 79.148 27.5611 78.42 28.5001L78.546 27.1981L75.897 27.6381V27.9711C75.898 28.0131 75.905 28.0551 75.911 28.1091C76.035 28.1351 76.151 28.1621 76.269 28.1841C76.7 28.2661 76.716 28.2661 76.717 28.7001C76.719 29.9271 76.714 31.1551 76.698 32.3821C76.692 32.9141 76.676 32.9131 76.149 33.0421C76.102 33.0531 76.055 33.0681 76.018 33.0791V33.5491H79.508V33.0741ZM55.228 28.1901C55.271 28.1991 55.313 28.2191 55.355 28.2201C55.575 28.2231 55.646 28.3381 55.645 28.5501C55.635 29.8721 55.641 31.1951 55.63 32.5171C55.626 32.9341 55.61 32.9331 55.198 33.0161C55.115 33.0331 55.034 33.0581 54.958 33.0781V33.5481H58.442V33.0721C58.228 33.0331 58.022 33.0101 57.824 32.9531C57.747 32.9311 57.64 32.8331 57.638 32.7671C57.605 31.9131 57.559 31.0581 57.581 30.2051C57.5935 29.7237 57.7695 29.261 58.08 28.8931C58.284 28.6481 58.542 28.5071 58.865 28.4971C59.011 28.4931 59.105 28.5421 59.122 28.7161C59.154 29.0501 59.235 29.0971 59.593 29.0441L60.163 27.3801C59.631 27.1201 59.103 27.1541 58.577 27.4061C58.062 27.6531 57.712 28.0841 57.343 28.5981L57.477 27.1931L54.838 27.6381C54.806 27.9491 54.936 28.1331 55.228 28.1901ZM81.238 36.7061C81.29 36.7521 81.34 36.8321 81.395 36.8361C81.565 36.8501 81.61 36.9361 81.609 37.0911C81.6049 37.956 81.6043 38.8211 81.607 39.6861C81.607 39.8281 81.568 39.9101 81.409 39.9251C81.347 39.9311 81.292 40.0051 81.233 40.0471L81.272 40.1101H82.634L82.677 40.0531L82.512 39.9191C82.45 39.8661 82.338 39.8171 82.333 39.7591C82.3 39.3581 82.289 38.9541 82.271 38.5591C82.525 38.4851 82.677 38.5371 82.813 38.7321C83.125 39.1781 83.459 39.6081 83.795 40.0371C83.849 40.1061 83.958 40.1711 84.041 40.1711C84.281 40.1691 84.521 40.1311 84.864 40.0981C84.199 39.6271 83.77 39.0361 83.328 38.4421C83.458 38.4001 83.559 38.3741 83.654 38.3341C84.115 38.1411 84.322 37.7891 84.26 37.3091C84.212 36.9451 83.896 36.6631 83.416 36.6451C82.702 36.6181 81.986 36.6381 81.27 36.6381L81.237 36.7071H81.239L81.238 36.7061ZM82.304 37.0101C82.6 37.0101 82.879 36.9891 83.154 37.0161C83.2631 37.0214 83.3669 37.0649 83.4473 37.1389C83.5277 37.2129 83.5796 37.3127 83.594 37.4211C83.6213 37.5354 83.6107 37.6556 83.5638 37.7634C83.5169 37.8713 83.4362 37.961 83.334 38.0191C83.012 38.2181 82.657 38.2231 82.304 38.1791V37.0101ZM60.554 40.1281C61.217 40.1281 61.882 40.1561 62.543 40.1201C63.141 40.0871 63.613 39.7781 63.914 39.2601C64.272 38.6441 64.328 37.9891 63.996 37.3521C63.68 36.7461 63.1 36.6171 62.47 36.6251C61.865 36.6331 61.26 36.6351 60.655 36.6431C60.617 36.6431 60.578 36.6601 60.481 36.6831C60.558 36.7551 60.601 36.8291 60.641 36.8291C60.901 36.8231 60.897 36.9971 60.896 37.1751C60.893 38.0051 60.888 38.8351 60.89 39.6651C60.89 39.816 60.86 39.9101 60.684 39.9251C60.624 39.9311 60.57 40.0061 60.513 40.0501L60.554 40.1281ZM61.568 37.2971C61.563 37.1091 61.638 37.0281 61.818 37.0181C61.938 37.0111 62.057 36.9891 62.178 36.9821C62.881 36.9441 63.358 37.3001 63.438 37.9961C63.476 38.3271 63.448 38.6931 63.346 39.0091C63.111 39.7361 62.394 39.9311 61.687 39.6991C61.631 39.6811 61.582 39.5521 61.58 39.4731C61.568 39.1021 61.575 38.7301 61.575 38.3591H61.572C61.572 38.0051 61.58 37.6511 61.569 37.2961L61.568 37.2971ZM54.706 36.9841C54.706 37.8651 54.705 38.7461 54.708 39.6271C54.708 39.8041 54.679 39.9321 54.463 39.9331C54.428 39.9331 54.393 40.0061 54.358 40.0461C54.388 40.0701 54.418 40.1131 54.45 40.1141C54.799 40.1191 55.147 40.1171 55.496 40.1171L55.526 40.0441C55.472 40.0031 55.419 39.9301 55.363 39.9271C55.194 39.9171 55.173 39.823 55.169 39.6861C55.154 39.1331 55.132 38.5811 55.115 38.0281C55.11 37.8721 55.115 37.7161 55.115 37.5591C55.677 38.3091 56.204 39.0471 56.677 39.8181C56.881 40.1521 57.117 40.2231 57.475 40.1391V39.9651C57.475 39.0231 57.473 38.0811 57.474 37.1391C57.474 36.9911 57.472 36.8401 57.693 36.8351C57.738 36.8351 57.781 36.7431 57.855 36.6601H56.607C56.702 36.7531 56.747 36.8351 56.792 36.8361C56.999 36.8411 56.992 36.9761 56.997 37.1201C57.013 37.6391 57.036 38.1561 57.053 38.6751C57.059 38.8501 57.054 39.0261 57.054 39.2591C56.961 39.1291 56.9 39.049 56.844 38.9641C56.369 38.2541 55.897 37.5411 55.421 36.8311C55.375 36.7631 55.313 36.6581 55.253 36.6541C54.966 36.6351 54.678 36.6461 54.39 36.6461L54.359 36.7521L54.695 36.9041C54.697 36.9171 54.706 36.9511 54.706 36.9841ZM72.149 36.6231C71.595 36.5401 71.04 36.5151 70.542 36.8371C69.975 37.2041 69.987 37.9281 70.572 38.2521C70.818 38.3891 71.094 38.4731 71.357 38.5801C71.532 38.6521 71.717 38.7031 71.882 38.7941C72.086 38.9051 72.2 39.0861 72.159 39.3321C72.119 39.5751 71.959 39.7041 71.734 39.7671C71.39 39.8651 71.066 39.7871 70.752 39.6471C70.58 39.5691 70.392 39.4971 70.457 39.2361C70.467 39.1981 70.399 39.1281 70.351 39.0981C70.334 39.0881 70.249 39.1461 70.231 39.1881C70.137 39.4081 70.055 39.6321 69.958 39.8811C70.173 39.9581 70.369 40.0491 70.576 40.0981C71.206 40.2461 71.826 40.2621 72.399 39.8871C72.899 39.5601 73.119 38.6481 72.297 38.2701C72.126 38.1901 71.947 38.1251 71.77 38.0551C71.53 37.9601 71.27 37.8961 71.055 37.7611C70.933 37.6841 70.835 37.4991 70.812 37.3511C70.784 37.1561 70.952 37.0131 71.13 37.0071C71.433 36.9951 71.74 37.0251 72.04 37.0701C72.188 37.0921 72.338 37.1721 72.311 37.3841C72.307 37.4191 72.376 37.4631 72.411 37.5021C72.449 37.4671 72.505 37.4391 72.523 37.3951C72.6 37.2051 72.667 37.0111 72.749 36.7851C72.542 36.7281 72.349 36.6521 72.149 36.6231ZM110.85 39.9141C111.188 39.7201 111.356 39.4051 111.338 39.0021C111.322 38.6221 111.091 38.4081 110.776 38.2621C110.572 38.1691 110.36 38.0921 110.152 38.0081C109.945 37.9241 109.718 37.8681 109.538 37.7461C109.422 37.6661 109.295 37.4761 109.315 37.3591C109.337 37.2241 109.506 37.0291 109.629 37.0141C109.919 36.9801 110.222 37.0211 110.516 37.0611C110.724 37.0901 110.865 37.2121 110.798 37.4551C111.011 37.5051 111.12 37.3281 111.227 36.7681C111.02 36.7161 110.815 36.6481 110.604 36.6171C110.111 36.5431 109.618 36.5371 109.158 36.7691C108.844 36.9281 108.639 37.1791 108.628 37.5431C108.618 37.8931 108.822 38.1221 109.112 38.2831C109.211 38.3361 109.313 38.3831 109.418 38.4231C109.71 38.5311 110.008 38.6211 110.295 38.7401C110.558 38.8501 110.701 39.0801 110.667 39.3051C110.626 39.5791 110.449 39.7231 110.186 39.7811C109.83 39.8581 109.504 39.7681 109.186 39.6141C109.034 39.5411 108.924 39.4611 108.963 39.2621C108.973 39.2141 108.898 39.1481 108.863 39.0921C108.813 39.1371 108.743 39.1731 108.717 39.2301C108.629 39.4261 108.556 39.6301 108.462 39.8701C109.259 40.2261 110.052 40.3731 110.85 39.9141ZM48.234 36.7111C48.272 36.7531 48.312 36.8311 48.349 36.8311C48.612 36.8251 48.579 37.0081 48.579 37.1701C48.577 37.7841 48.568 38.3971 48.573 39.0101C48.576 39.4501 48.706 39.8531 49.134 40.0421C49.652 40.2701 50.202 40.2761 50.714 40.0241C50.901 39.9321 51.068 39.7441 51.174 39.5591C51.403 39.1651 51.382 38.7131 51.38 38.2721C51.377 37.8081 51.38 37.3431 51.38 36.9421L51.72 36.7241L51.68 36.6571H50.515C50.581 36.7391 50.615 36.8231 50.652 36.8231C50.922 36.8281 50.912 37.0131 50.915 37.1981C50.918 37.3441 50.945 37.4911 50.94 37.6381C50.925 38.1531 50.943 38.6751 50.87 39.1831C50.81 39.5961 50.492 39.7751 50.046 39.7651C49.643 39.7551 49.376 39.5551 49.304 39.1421C49.171 38.3871 49.274 37.6321 49.316 36.9421C49.457 36.8441 49.546 36.7821 49.634 36.7191L49.591 36.6531H48.277L48.234 36.7111ZM105.017 37.0471C105.264 37.0561 105.483 37.1041 105.557 37.3801C105.762 37.3001 105.755 37.0981 105.549 36.6271C104.776 36.6271 103.999 36.6241 103.222 36.6311C103.132 36.6311 103.042 36.6801 102.952 36.7061L103.198 36.8661L103.241 36.8991C103.246 36.9211 103.257 36.9451 103.257 36.9701C103.26 37.8851 103.267 38.8011 103.257 39.7161C103.257 39.7841 103.15 39.8531 103.087 39.9171C103.037 39.9681 102.978 40.0121 102.923 40.0581C103.7 40.1201 104.433 40.1201 105.167 40.1201C105.757 40.1201 105.76 40.121 105.9 39.5541C105.918 39.4781 105.88 39.3881 105.869 39.3061C105.803 39.3551 105.735 39.3991 105.674 39.4531C105.595 39.5211 105.528 39.6531 105.446 39.6611C105.01 39.7071 104.57 39.7291 104.131 39.7431C104.073 39.7451 103.962 39.6581 103.96 39.6101C103.946 39.2071 103.953 38.8041 103.953 38.3771C104.251 38.3771 104.526 38.3751 104.8 38.3771C104.923 38.3781 105.04 38.3881 105.079 38.5451C105.088 38.5811 105.162 38.6131 105.211 38.6221C105.227 38.6251 105.278 38.5511 105.279 38.5121C105.285 38.2821 105.282 38.0511 105.282 37.8201L105.243 37.7601C104.876 38.2261 104.401 38.0161 103.955 38.0581V36.9981C104.33 37.0171 104.673 37.0361 105.017 37.0481V37.0471ZM77.643 37.0381C77.875 37.0541 78.143 37.0351 78.251 37.3321C78.26 37.3541 78.35 37.3711 78.381 37.3531C78.413 37.3351 78.439 37.2681 78.432 37.2281C78.415 37.1181 78.361 37.0111 78.356 36.9011C78.346 36.6571 78.218 36.6211 77.999 36.6251C77.334 36.6401 76.668 36.6271 76.003 36.6331C75.886 36.6331 75.769 36.6781 75.653 36.7031L75.968 36.9551C75.968 37.8401 75.971 38.7891 75.96 39.7371C75.96 39.7971 75.859 39.8591 75.8 39.9151C75.748 39.9671 75.691 40.0131 75.636 40.0621L75.682 40.1151H78.472C78.528 39.8921 78.585 39.6841 78.626 39.4731C78.636 39.4231 78.592 39.3621 78.573 39.3061C78.519 39.3341 78.453 39.3501 78.414 39.3931C78.342 39.4731 78.3 39.6291 78.221 39.6471C77.7161 39.7646 77.1944 39.7917 76.68 39.7271C76.668 39.4611 76.646 39.2201 76.648 38.9791C76.654 38.2421 76.544 38.3811 77.237 38.3761C77.449 38.3741 77.717 38.2801 77.818 38.6011C77.824 38.6211 77.908 38.6171 77.967 38.6251V37.7231C77.584 38.2261 77.11 38.0121 76.667 38.0601V37.0331C77.005 37.0331 77.326 37.0171 77.643 37.0381ZM99.929 39.4431C99.114 40.0511 98.036 39.6931 97.797 38.7131C97.664 38.1711 97.701 37.6261 98.171 37.2391C98.603 36.8831 99.102 36.8731 99.611 37.0901C99.751 37.1501 99.84 37.2301 99.841 37.3961C99.841 37.4441 99.905 37.4911 99.941 37.5381C99.985 37.5001 100.059 37.4681 100.071 37.4221C100.126 37.2151 100.162 37.0041 100.208 36.7821C99.698 36.5591 99.175 36.5261 98.651 36.6071C97.922 36.7191 97.362 37.0971 97.15 37.8251C96.939 38.5471 97.035 39.2371 97.619 39.7811C98.254 40.3741 99.647 40.3981 100.361 39.4631L100.178 39.2431C100.089 39.3151 100.012 39.3831 99.929 39.4431ZM86.929 36.8301C87.156 36.8291 87.211 36.9901 87.271 37.1541C87.599 38.0541 87.955 38.9461 88.241 39.8591C88.361 40.2371 88.607 40.0961 88.825 40.1331C89.053 40.1721 89.04 39.9831 89.087 39.8581C89.441 38.9311 89.787 38.0011 90.15 37.0781C90.188 36.9811 90.32 36.9221 90.41 36.8451L90.613 36.6621H89.419L89.387 36.7361L89.704 36.9341L88.852 39.4891L88.779 39.4751L87.929 36.9281C88.052 36.8451 88.141 36.7841 88.231 36.7251C88.2178 36.7017 88.2044 36.6783 88.191 36.6551H86.755C86.84 36.7451 86.885 36.8291 86.928 36.8291L86.929 36.8301ZM43.309 39.7361C43.309 39.7971 43.206 39.8591 43.147 39.9171C43.095 39.9671 43.037 40.0101 42.983 40.0551L43.026 40.1051H44.484L44.514 40.0221C44.434 39.9881 44.352 39.9571 44.276 39.9161C44.188 39.8701 44.034 39.8181 44.031 39.7631C44.011 39.3261 44.02 38.8881 44.02 38.4231C44.284 38.4231 44.533 38.4201 44.782 38.4251C44.932 38.4271 45.098 38.4031 45.149 38.6171C45.157 38.6511 45.261 38.6621 45.336 38.6871V37.7951C44.94 38.2471 44.474 38.0791 44.021 38.1001V36.9901C44.385 37.0071 44.727 37.0201 45.07 37.0411C45.253 37.0521 45.43 37.0841 45.514 37.2891C45.528 37.3231 45.606 37.3301 45.654 37.3501C45.672 37.3001 45.714 37.2471 45.704 37.2031C45.668 37.0181 45.617 36.8361 45.572 36.6541H43.023L42.986 36.7301L43.316 36.9261C43.316 37.8361 43.319 38.7861 43.309 39.7361ZM92.909 36.7181C92.97 36.7621 93.027 36.8361 93.091 36.8421C93.243 36.8561 93.275 36.9401 93.275 37.0671L93.278 39.6821C93.278 39.8361 93.222 39.9201 93.052 39.9281C93.002 39.9311 92.959 40.0241 92.88 40.1111H94.377C94.327 40.0311 94.297 39.9361 94.267 39.9361C93.97 39.9381 94.008 39.7201 93.995 39.5381C93.981 39.3574 93.974 39.1763 93.974 38.9951C93.98 38.2901 93.99 37.5851 93.998 36.9221C94.144 36.8141 94.371 36.9041 94.328 36.6541H92.948C92.9354 36.6754 92.9217 36.6967 92.909 36.7181Z" fill="#F5F8FF"/>
</svg>
