<svg width="71" height="70" viewBox="0 0 71 70" fill="none" xmlns="http://www.w3.org/2000/svg">
<rect x="0.5" width="70" height="70" rx="35" fill="#E6F8DF"/>
<path d="M35.4997 26.6667C36.4201 26.6667 37.1663 25.9205 37.1663 25C37.1663 24.0796 36.4201 23.3334 35.4997 23.3334C34.5792 23.3334 33.833 24.0796 33.833 25C33.833 25.9205 34.5792 26.6667 35.4997 26.6667Z" fill="black"/>
<path d="M25.5 43.3334H45.5V46.6667H25.5V43.3334ZM32.1667 34.7167L36.82 39.3734L43.3733 32.815L45.5 35V28.3334H38.8333L41.0167 30.4584L36.8183 34.6567L32.1667 30L25.5 36.6667L27.8567 39.0234L32.1667 34.7167Z" fill="black"/>
<path d="M47.1663 20H41.6697C41.5046 19.7545 41.3266 19.5181 41.1363 19.2916L41.1197 19.2716C39.8947 17.8459 38.1721 16.9411 36.303 16.7416C35.7721 16.6415 35.2272 16.6415 34.6963 16.7416C32.8273 16.9411 31.1046 17.8459 29.8797 19.2716L29.863 19.2916C29.6728 19.5176 29.4948 19.7534 29.3297 19.9983V20H23.833C22.5073 20.0013 21.2363 20.5285 20.2989 21.4659C19.3615 22.4033 18.8343 23.6743 18.833 25V48.3333C18.8343 49.659 19.3615 50.93 20.2989 51.8674C21.2363 52.8047 22.5073 53.332 23.833 53.3333H47.1663C48.492 53.332 49.763 52.8047 50.7004 51.8674C51.6378 50.93 52.165 49.659 52.1663 48.3333V25C52.165 23.6743 51.6378 22.4033 50.7004 21.4659C49.763 20.5285 48.492 20.0013 47.1663 20ZM48.833 48.3333C48.833 48.7753 48.6574 49.1992 48.3449 49.5118C48.0323 49.8244 47.6084 49.9999 47.1663 49.9999H23.833C23.391 49.9999 22.9671 49.8244 22.6545 49.5118C22.3419 49.1992 22.1663 48.7753 22.1663 48.3333V25C22.1663 24.5579 22.3419 24.134 22.6545 23.8214C22.9671 23.5089 23.391 23.3333 23.833 23.3333H31.4163C31.6076 22.3914 32.1186 21.5446 32.8628 20.9363C33.607 20.3281 34.5385 19.9958 35.4997 19.9958C36.4608 19.9958 37.3924 20.3281 38.1366 20.9363C38.8807 21.5446 39.3917 22.3914 39.583 23.3333H47.1663C47.6084 23.3333 48.0323 23.5089 48.3449 23.8214C48.6574 24.134 48.833 24.5579 48.833 25V48.3333Z" fill="black"/>
</svg>
