<svg width="128" height="64" viewBox="0 0 128 64" fill="none" xmlns="http://www.w3.org/2000/svg">
<path d="M56.11 34.0291V26.46C55.738 26.46 55.37 26.4741 55.001 26.4511C54.901 26.4461 54.807 26.331 54.711 26.266C54.806 26.216 54.901 26.1261 54.996 26.1241C55.895 26.1141 56.792 26.1171 57.748 26.1171V27.8471C57.779 27.8541 57.81 27.861 57.839 27.866L58.079 27.4511C58.999 25.9231 61.098 25.3941 62.629 26.2911C63.461 26.7771 63.707 27.56 63.713 28.453C63.727 30.143 63.717 31.832 63.717 33.519V34.0031H65.065C65.186 34.2651 65.145 34.3861 64.863 34.3861C63.535 34.3811 62.208 34.3861 60.882 34.3771C60.794 34.3771 60.706 34.267 60.617 34.207C60.712 34.143 60.804 34.0291 60.903 34.0221C61.271 33.9991 61.641 34.013 62.033 34.013C62.042 33.831 62.054 33.6941 62.054 33.5581C62.054 31.7281 62.061 29.9 62.05 28.071C62.047 27.401 61.986 26.6911 61.278 26.3991C60.46 26.0611 59.696 26.3451 59.046 26.8891C58.284 27.5251 57.864 28.3741 57.84 29.3651C57.802 30.897 57.83 32.4291 57.83 34.0081H59.18C59.292 34.2901 59.209 34.3841 58.961 34.3841C57.634 34.3811 56.305 34.4191 54.981 34.3581C54.643 34.3421 54.384 34.412 54.085 34.5C53.157 34.771 51.935 34.8131 51.415 33.2941C51.096 33.9691 50.603 34.4401 49.902 34.5231C49.255 34.5981 48.576 34.6101 47.94 34.4951C47.063 34.3351 46.646 33.7991 46.57 32.942C46.496 32.1101 46.752 31.3901 47.525 31.0141C48.165 30.7021 48.863 30.508 49.533 30.2611C49.637 30.2231 49.744 30.1931 49.846 30.1531C50.376 29.9371 51.023 29.8731 51.271 29.2531C51.57 28.5031 51.507 27.721 51.286 26.956C51.176 26.576 50.915 26.313 50.519 26.29C50.126 26.266 49.719 26.2661 49.338 26.3501C48.861 26.4551 48.688 26.7441 48.708 27.2431C48.721 27.5471 48.787 27.8521 48.797 28.1571C48.814 28.6311 48.574 28.873 48.1 28.894C47.449 28.924 47.169 28.72 47.129 28.2021C47.07 27.4321 47.392 26.847 48 26.418C49.015 25.702 50.996 25.6851 52.03 26.3741C52.858 26.9261 53.086 27.7641 53.09 28.6981C53.1 30.2191 53.09 31.741 53.094 33.262C53.094 34.1521 53.468 34.386 54.27 34.027C54.4 33.969 54.58 34.027 54.735 34.027H56.111L56.11 34.0291ZM51.406 29.9271C50.673 30.2421 50.031 30.5241 49.386 30.7951C48.19 31.2991 48.022 32.5021 48.405 33.4881C48.574 33.9241 48.942 34.144 49.409 34.172C50.405 34.232 51.139 33.638 51.267 32.569C51.369 31.704 51.364 30.8271 51.406 29.9271ZM87.593 34.0111C87.208 34.0111 86.85 34.0181 86.493 34.0101C86.229 34.0031 86.134 34.0921 86.259 34.3831C87.662 34.3831 89.071 34.3881 90.479 34.3721C90.563 34.3721 90.644 34.2081 90.727 34.1201L90.649 34.0031H89.279C89.279 32.5921 89.273 31.2241 89.282 29.8581C89.284 29.5401 89.299 29.2141 89.368 28.904C89.647 27.6521 90.298 26.7041 91.584 26.3431C92.613 26.0531 93.303 26.481 93.489 27.491C93.51 27.6 93.51 27.714 93.51 27.824C93.514 29.7921 93.515 31.76 93.514 33.728C93.514 33.818 93.488 33.9101 93.47 34.0251H92.13C92.063 34.2711 92.096 34.395 92.366 34.388C92.877 34.374 93.389 34.3841 93.901 34.3841H96.539C96.635 34.1301 96.608 34.0031 96.333 34.0101C95.965 34.0201 95.595 34.013 95.18 34.013V33.5181C95.177 31.732 95.189 29.944 95.161 28.158C95.147 27.287 94.756 26.612 93.958 26.21C92.678 25.567 91.008 25.828 90.008 26.856C89.748 27.122 89.539 27.4411 89.263 27.7921V20.5281H86.245C86.134 20.8401 86.248 20.924 86.504 20.915C86.86 20.905 87.216 20.9121 87.59 20.9121V34.013L87.593 34.0111ZM71.584 27.3581V20.9121C71.192 20.9121 70.822 20.9221 70.454 20.9031C70.364 20.8981 70.277 20.7931 70.189 20.7351C70.281 20.6671 70.372 20.5391 70.466 20.5371C71.376 20.5211 72.288 20.5281 73.249 20.5281V34.006H74.645L74.723 34.123C74.638 34.2111 74.555 34.3701 74.471 34.3721C73.548 34.39 72.623 34.382 71.655 34.382V33.11C71.585 33.11 71.548 33.103 71.542 33.11C70.884 34.549 69.465 34.934 68.002 34.43C66.522 33.919 64.962 32.166 65.122 29.811C65.243 28.041 66.55 26.3451 68.277 25.9451C69.608 25.6371 70.699 25.9491 71.434 27.1551C71.461 27.1991 71.496 27.2391 71.586 27.3581H71.584ZM66.969 30.137C67.057 31.049 67.088 31.86 67.224 32.651C67.389 33.603 67.957 34.153 68.737 34.255C69.873 34.4021 70.656 34.05 71.11 33.152C71.259 32.859 71.402 32.534 71.43 32.213C71.513 31.2591 71.577 30.3 71.568 29.342C71.563 28.636 71.466 27.924 71.084 27.293C70.571 26.448 69.794 26.147 68.86 26.238C67.96 26.325 67.435 26.8981 67.273 27.7561C67.119 28.5721 67.058 29.4051 66.968 30.1361L66.969 30.137ZM31.396 34.2021C31.557 34.1181 31.726 33.982 31.889 33.9831C32.143 33.9871 32.406 34.063 32.649 34.153C33.959 34.631 35.294 34.796 36.679 34.596C39.159 34.239 40.951 31.6691 40.373 29.2251C40.081 27.9891 39.222 27.2601 38.074 26.8541C37.269 26.5691 36.442 26.3431 35.644 26.0421C34.848 25.7421 34.017 25.4721 33.304 25.0241C32.231 24.3491 32.084 22.8391 32.845 21.8171C33.794 20.5421 36.501 20.115 37.872 21.894C38.33 22.489 38.61 23.162 38.764 23.894C38.831 24.212 38.84 24.2081 39.154 24.1561V20.6491C38.989 20.7161 38.809 20.7281 38.75 20.8191C38.525 21.1761 38.232 21.1411 37.915 21.0221C37.671 20.9291 37.436 20.81 37.196 20.707C35.516 19.986 33.561 20.3601 32.34 21.6351C30.58 23.4771 31.073 26.348 33.357 27.415C34.003 27.717 34.705 27.8971 35.377 28.1431C36.114 28.4131 36.892 28.608 37.575 28.981C39.732 30.16 39.039 33.076 37.578 33.873C36.664 34.372 35.706 34.3791 34.718 34.2741C33.547 34.1511 32.643 33.581 32.105 32.534C31.766 31.874 31.565 31.1421 31.293 30.4471C31.253 30.3451 31.173 30.2611 31.111 30.1701C31.059 30.2791 30.961 30.3851 30.961 30.4961C30.951 31.7661 30.954 33.034 30.954 34.4761C31.16 34.3481 31.274 34.2671 31.396 34.2041V34.2021ZM45.568 33.824C45.251 34.272 44.762 34.3581 44.265 34.2371C43.798 34.1251 43.649 33.7121 43.568 33.2881C43.5315 33.0677 43.5158 32.8444 43.521 32.6211C43.518 30.7091 43.519 28.7971 43.521 26.8851C43.521 26.7521 43.538 26.619 43.551 26.46C44.334 26.46 45.077 26.462 45.822 26.46C46.114 26.46 46.114 26.4511 46.078 26.1081H43.51V23.6661L41.842 23.7991V26.127H40.424C40.431 26.245 40.428 26.3711 40.44 26.3721C40.893 26.4251 41.349 26.467 41.843 26.512V27.005C41.843 28.818 41.838 30.6341 41.843 32.4481C41.847 33.6861 42.378 34.3811 43.46 34.5771C43.69 34.6191 43.926 34.626 44.162 34.6431C45.401 34.7351 46.208 34.081 46.417 32.8031C46.326 32.7681 46.229 32.7331 46.182 32.7161C45.966 33.1131 45.802 33.4961 45.567 33.8291L45.568 33.824ZM83.828 25.9211C83.6388 25.8821 83.4469 25.858 83.254 25.849C81.876 25.759 80.716 26.605 80.462 27.936C80.219 29.212 80.71 30.291 82.17 30.751C82.851 30.967 83.529 31.2171 84.174 31.5271C84.815 31.8351 85.017 32.434 84.843 33.192C84.694 33.8361 84.223 34.225 83.543 34.271C82.381 34.346 81.55 33.8141 80.998 32.8161C80.818 32.4901 80.715 32.1221 80.566 31.779C80.538 31.7161 80.461 31.6411 80.404 31.6391C80.352 31.6371 80.251 31.7271 80.25 31.7771C80.24 32.6351 80.243 33.4951 80.243 34.3841C80.383 34.3611 80.497 34.377 80.533 34.332C80.789 34.002 81.093 34.1121 81.401 34.2091C81.769 34.3251 82.132 34.465 82.507 34.547C83.434 34.752 84.319 34.6431 85.123 34.0991C86.71 33.0221 86.63 30.8411 84.962 29.918C84.698 29.773 84.409 29.671 84.125 29.561C83.406 29.282 82.673 29.0371 81.965 28.7331C81.073 28.3461 81.183 27.2231 81.675 26.7231C82.423 25.9651 83.945 26.0771 84.528 26.9681C84.76 27.3231 84.891 27.7451 85.085 28.1281C85.14 28.2411 85.252 28.3231 85.339 28.418L85.437 28.342V26.057C84.825 26.434 84.345 26.035 83.825 25.9211H83.828ZM78.25 26.1431H75.192C75.192 26.238 75.185 26.363 75.192 26.366C75.642 26.42 76.098 26.464 76.569 26.509V34.013C76.177 34.013 75.807 34.0201 75.437 34.0111C75.169 34.0041 75.133 34.1321 75.223 34.3841C76.637 34.3841 78.06 34.3881 79.48 34.3761C79.551 34.3761 79.622 34.2581 79.693 34.1971C79.623 34.1361 79.553 34.0251 79.48 34.0221C79.095 34.0041 78.708 34.013 78.25 34.013V26.1431ZM72.457 38.8801L72.017 43.2141H72.72C72.815 42.3341 72.91 41.4741 73.014 40.5261L74.44 42.6381L75.866 40.542C75.966 41.498 76.056 42.351 76.148 43.208H76.893C76.743 41.736 76.593 40.2951 76.445 38.8561L76.336 38.8381C75.716 39.7351 75.095 40.629 74.462 41.542L72.572 38.8441C72.5335 38.8562 72.4952 38.8689 72.457 38.882V38.8801ZM35.179 40.5401L35.461 43.2051H36.207C36.055 41.7311 35.907 40.2921 35.757 38.8511C35.7221 38.8456 35.6871 38.8409 35.652 38.8371C35.034 39.7271 34.415 40.6211 33.777 41.5381L31.877 38.8301C31.8428 38.8386 31.8088 38.8479 31.775 38.8581L31.332 43.2101H32.038C32.135 42.3281 32.228 41.4701 32.33 40.5231L33.032 41.5731C33.256 41.9061 33.485 42.2351 33.758 42.6381L35.177 40.542L35.179 40.5401ZM59.749 39.1061C59.2511 39.3536 58.8654 39.7805 58.6695 40.3009C58.4735 40.8213 58.4819 41.3966 58.693 41.9111C59.152 43.0411 60.591 43.6081 61.897 43.1771C62.83 42.8691 63.433 41.9171 63.233 41.0671H61.095V41.6431H62.469C62.275 42.3211 61.786 42.6571 61.039 42.6761C60.244 42.6961 59.629 42.2911 59.394 41.5981C59.164 40.9181 59.369 40.1411 59.957 39.7861C60.261 39.6021 60.645 39.5001 61.003 39.4661C61.539 39.4181 61.974 39.7021 62.325 40.1081C62.519 39.9731 62.687 39.8591 62.853 39.7451C62.299 38.8281 60.852 38.5421 59.749 39.1061ZM89.007 41.7961C87.979 40.7701 86.998 39.7941 85.944 38.7441V43.2101H86.611V40.3371L89.669 43.3841V38.9001H89.009V41.7961L89.007 41.7941V41.7961ZM45.784 38.8701V43.2051H46.482V40.41L46.679 40.2561C47.622 41.2591 48.564 42.26 49.504 43.2621V38.9061H48.845V41.7401C48.8137 41.7635 48.782 41.7865 48.75 41.8091L45.893 38.8091L45.786 38.8691L45.784 38.8701ZM66.861 39.486H69.039V38.9121H66.111V43.2121H69.159V42.6291H66.866V41.7741H68.797V41.1781H66.861V39.486ZM79.92 43.2061H82.945V42.618H80.672V41.7681H82.599V41.1651H80.672V39.4881H82.872V38.903H79.922V43.2071L79.92 43.2061ZM43.025 43.2031C42.564 43.2631 42.175 43.3421 42.043 42.7951C42.026 42.7231 41.855 42.646 41.755 42.6451C41.2024 42.631 40.6496 42.631 40.097 42.6451C39.997 42.646 39.829 42.7181 39.81 42.7901C39.678 43.2851 39.336 43.285 38.883 43.2001C39.553 41.729 40.218 40.2781 40.926 38.7251C41.653 40.2751 42.326 41.7151 43.025 43.2031ZM40.135 42.0321H41.701L40.914 40.1851C40.638 40.8381 40.395 41.4191 40.135 42.0321ZM56.415 43.2031C55.965 43.2681 55.566 43.3421 55.43 42.7811C55.414 42.7171 55.264 42.6451 55.176 42.6431C54.6101 42.6299 54.0439 42.6299 53.478 42.6431C53.38 42.6461 53.215 42.7271 53.196 42.8041C53.065 43.3141 52.709 43.2821 52.278 43.2001L54.324 38.7231C55.053 40.2851 55.731 41.7341 56.419 43.201L56.415 43.2031ZM54.31 40.1861L53.528 42.028H55.096L54.31 40.1861ZM94.266 39.4831H95.6V38.9071H92.112V39.5H93.495V43.2171H94.265L94.266 39.4831ZM77.403 20.672C76.817 20.67 76.384 21.1041 76.381 21.6981C76.379 22.2791 76.831 22.7501 77.394 22.7541C77.956 22.7571 78.407 22.2911 78.41 21.7081C78.412 21.1081 77.99 20.6751 77.403 20.6741V20.672Z" fill="#002A7F"/>
</svg>
