<svg width="70" height="70" viewBox="0 0 70 70" fill="none" xmlns="http://www.w3.org/2000/svg">
<rect x="0.5" width="69" height="70" rx="34.5" fill="#E0F9FF"/>
<path d="M27.4999 33.3333C23.3333 33.3333 19.9999 36.6667 19.9999 40.8333C19.9999 42.3 20.4166 43.6833 21.1499 44.8333L16.0166 50L18.3333 52.3167L23.5333 47.2C24.6833 47.9167 26.0499 48.3333 27.4999 48.3333C31.6666 48.3333 34.9999 45 34.9999 40.8333C34.9999 36.6667 31.6666 33.3333 27.4999 33.3333ZM27.4999 45C26.3949 45 25.3351 44.561 24.5537 43.7796C23.7723 42.9982 23.3333 41.9384 23.3333 40.8333C23.3333 39.7283 23.7723 38.6685 24.5537 37.8871C25.3351 37.1057 26.3949 36.6667 27.4999 36.6667C28.605 36.6667 29.6648 37.1057 30.4462 37.8871C31.2276 38.6685 31.6666 39.7283 31.6666 40.8333C31.6666 41.9384 31.2276 42.9982 30.4462 43.7796C29.6648 44.561 28.605 45 27.4999 45ZM53.3333 23.3333V46.6667C53.3333 48.5167 51.8499 50 49.9999 50H33.2499C34.5999 49.1667 35.7499 48.0167 36.6166 46.6667H49.9999V30H36.6666V23.3333H19.9999V33.0333C17.9499 35 16.6666 37.7667 16.6666 40.8333V23.3333C16.6666 21.5 18.1666 20 19.9999 20H49.9999C50.884 20 51.7318 20.3512 52.357 20.9763C52.9821 21.6014 53.3333 22.4493 53.3333 23.3333Z" fill="black"/>
</svg>
