<svg width="130" height="64" viewBox="0 0 130 64" fill="none" xmlns="http://www.w3.org/2000/svg">
<path d="M27.995 34.778C27.455 35.148 26.962 35.532 26.425 35.84C25.415 36.42 24.329 36.595 23.2 36.242C22.136 35.909 21.526 35.133 21.284 34.076C20.791 31.914 21.642 28.841 23.763 27.358C25.051 26.457 26.393 26.42 27.785 27.094C27.917 27.158 27.935 27.23 27.918 27.356C27.868 27.725 27.829 28.095 27.781 28.503C28.109 28.577 28.432 28.656 28.758 28.719C28.796 28.726 28.874 28.659 28.895 28.61C29.352 27.558 29.805 26.504 30.259 25.444C29.711 25.137 28.894 25.001 26.689 24.875L33.234 22.71C33.24 22.822 33.248 22.904 33.248 22.985C33.248 26.724 33.248 30.463 33.253 34.202C33.253 34.397 33.205 34.489 33.011 34.55C31.727 34.961 30.446 35.38 29.169 35.812C28.953 35.885 28.832 35.858 28.699 35.672C28.475 35.355 28.22 35.061 27.994 34.777L27.995 34.778ZM20.649 38.534C20.5694 38.4996 20.4894 38.4663 20.409 38.434C19.179 37.938 18.237 37.118 17.687 35.903C16.853 34.057 17.03 32.228 17.903 30.448C18.619 28.987 19.728 27.857 21.029 26.904C21.103 26.849 21.175 26.79 21.248 26.734L21.214 26.687C18.668 27.528 16.122 28.371 13.581 29.212V40.912L20.697 38.58C20.673 38.556 20.664 38.54 20.65 38.533L20.649 38.534ZM18.849 41.588H33.302V36.63L18.835 41.556L18.849 41.586V41.588ZM28.029 21.989H13.578V26.941L28.031 22.021V21.99L28.029 21.989ZM46.016 31.1L46.573 31.768C45.648 32.766 44.546 33.366 43.19 33.448C42.268 33.503 41.372 33.388 40.552 32.936C39.102 32.136 38.529 30.843 38.56 29.246C38.587 27.88 39.2 26.806 40.345 26.086C42.21 24.914 44.182 25.054 46.191 25.684L45.81 27.625L45.223 27.577C45.208 27.479 45.177 27.387 45.183 27.297C45.209 26.941 45 26.783 44.706 26.658C44.036 26.373 43.351 26.246 42.63 26.401C41.574 26.63 40.868 27.451 40.72 28.621C40.544 30.02 41.151 31.281 42.283 31.789C43.278 32.235 44.259 32.104 45.203 31.611C45.476 31.468 45.728 31.282 46.017 31.099L46.016 31.1ZM67.693 32.698C67.445 32.693 67.393 32.55 67.39 32.346C67.378 31.551 67.36 30.756 67.353 29.961C67.348 29.356 67.368 28.749 67.175 28.162C66.92 27.387 66.338 26.973 65.522 26.955C64.854 26.94 64.267 27.158 63.72 27.513C63.541 27.629 63.373 27.759 63.164 27.909L63.258 26.969C62.305 26.873 61.452 27.342 60.535 27.304V27.821C60.714 27.859 60.874 27.915 61.035 27.921C61.279 27.931 61.335 28.062 61.332 28.271C61.322 29.681 61.315 31.089 61.296 32.499C61.296 32.558 61.199 32.644 61.13 32.668C60.97 32.723 60.8 32.748 60.644 32.784V33.258H63.928V32.786C63.801 32.759 63.677 32.718 63.55 32.708C63.323 32.691 63.247 32.574 63.247 32.358C63.247 31.545 63.217 30.733 63.243 29.922C63.254 29.574 63.338 29.216 63.453 28.886C63.618 28.411 64.046 28.174 64.536 28.219C65.026 28.262 65.276 28.497 65.4 29.037C65.43 29.163 65.457 29.292 65.458 29.42C65.466 30.293 65.468 31.166 65.471 32.038V33.256H68.094V32.788C67.959 32.756 67.826 32.7 67.693 32.698ZM104.331 32.711C104.112 32.687 104.003 32.596 104.003 32.353C104.004 31.748 103.949 31.141 103.978 30.537C104.004 30.007 104.07 29.469 104.199 28.955C104.333 28.422 104.776 28.171 105.305 28.218C105.803 28.263 106.108 28.526 106.165 29.093C106.236 29.813 106.244 30.541 106.259 31.266C106.274 31.928 106.262 32.592 106.262 33.256H108.853V32.786C108.757 32.763 108.674 32.74 108.589 32.723C108.17 32.641 108.159 32.643 108.15 32.22C108.129 31.243 108.128 30.265 108.1 29.289C108.095 28.952 108.052 28.6166 107.973 28.289C107.792 27.591 107.371 27.107 106.623 26.987C105.808 26.855 105.085 27.101 104.419 27.553C104.265 27.657 104.119 27.771 103.927 27.911L104.027 26.916C103.646 26.966 103.282 27.003 102.92 27.063C102.378 27.151 101.839 27.255 101.299 27.353V27.819C101.463 27.853 101.613 27.899 101.766 27.912C102.007 27.933 102.103 28.045 102.1 28.292C102.084 29.684 102.081 31.076 102.063 32.468C102.062 32.538 101.967 32.638 101.893 32.666C101.737 32.726 101.565 32.749 101.413 32.784V33.257H104.678V32.783C104.564 32.758 104.448 32.724 104.33 32.711H104.331ZM51.945 33.184C53.193 32.77 53.957 31.904 54.133 30.584C54.313 29.236 53.824 28.174 52.663 27.454C51.403 26.672 49.403 26.793 48.227 27.699C46.677 28.895 46.58 31.357 48.04 32.617C48.736 33.217 49.575 33.412 50.48 33.479C50.97 33.384 51.475 33.339 51.945 33.184ZM51.775 31.849C51.24 32.706 50.144 32.746 49.542 31.933C48.927 31.101 48.855 29.43 49.396 28.548C50 27.564 51.225 27.594 51.78 28.608C52.057 29.114 52.127 29.668 52.156 30.27C52.141 30.797 52.084 31.354 51.775 31.849ZM98.789 33.039C100.811 32.108 101.278 29.347 99.657 27.853C98.817 27.08 97.797 26.866 96.695 26.961C94.954 27.111 93.575 28.224 93.47 30.013C93.397 31.258 93.913 32.476 95.21 33.077C95.753 33.327 96.33 33.419 96.98 33.423C97.57 33.415 98.196 33.313 98.788 33.04L98.789 33.039ZM98.296 31.729C97.782 32.724 96.549 32.796 95.943 31.855C95.533 31.219 95.453 30.502 95.501 29.765C95.536 29.228 95.668 28.725 96.029 28.305C96.599 27.643 97.572 27.679 98.087 28.384C98.499 28.948 98.591 29.601 98.602 30.274C98.606 30.782 98.532 31.273 98.297 31.73L98.296 31.729ZM115.808 29.369C115.775 28.119 115.12 27.278 113.927 27.049C113.468 26.97 113 26.9583 112.537 27.014C110.937 27.184 109.634 28.308 109.413 29.953C109.224 31.36 109.923 32.65 111.217 33.143C112.19 33.513 113.179 33.534 114.159 33.177C114.888 32.912 115.482 32.449 115.977 31.83L115.336 31.237C115.257 31.306 115.194 31.363 115.128 31.418C114.648 31.826 114.103 32.08 113.466 32.124C112.175 32.212 111.192 31.161 111.432 29.908H115.809C115.809 29.712 115.812 29.541 115.808 29.369ZM112.934 27.791C113.073 27.7881 113.21 27.8152 113.338 27.8704C113.465 27.9257 113.579 28.0078 113.671 28.1111C113.764 28.2145 113.833 28.3366 113.874 28.4692C113.914 28.6017 113.926 28.7415 113.908 28.879C113.901 28.935 113.829 29.024 113.782 29.027C113.027 29.074 112.27 29.108 111.51 29.147C111.576 28.365 112.188 27.792 112.934 27.791ZM75.056 29.497C75.036 28.215 74.45 27.381 73.338 27.085C73.0453 27.0074 72.7438 26.9681 72.441 26.968C71.074 26.971 69.908 27.412 69.131 28.603C68.281 29.904 68.39 32.179 70.201 33.027C71.467 33.62 72.749 33.584 73.984 32.894C74.461 32.627 74.87 32.274 75.207 31.825L74.577 31.244C74.421 31.369 74.28 31.497 74.125 31.604C73.328 32.144 72.486 32.318 71.579 31.896C70.947 31.601 70.489 30.709 70.687 29.901H75.037C75.043 29.769 75.057 29.633 75.056 29.497ZM70.738 29.149C70.804 28.635 71.02 28.243 71.443 27.994C71.841 27.761 72.273 27.686 72.695 27.936C73.094 28.172 73.166 28.563 73.143 29.023L70.738 29.149ZM81.678 32.716C81.705 32.733 81.738 32.76 81.776 32.779C82.7979 33.3043 83.9523 33.5155 85.094 33.386C85.774 33.311 86.409 33.107 86.943 32.647C87.692 32.002 88.006 30.451 86.635 29.827C86.055 29.563 85.439 29.38 84.844 29.15C84.58 29.048 84.304 28.952 84.072 28.797C83.756 28.586 83.812 28.192 84.158 28.033C84.266 27.983 84.388 27.955 84.506 27.941C85.052 27.88 85.57 27.986 86.074 28.199C86.23 28.265 86.321 28.343 86.292 28.523C86.266 28.686 86.316 28.788 86.507 28.789C86.616 28.789 86.724 28.822 86.825 28.839L87.341 27.375C86.325 26.998 85.293 26.861 84.227 27.042C83.673 27.136 83.163 27.33 82.727 27.7C82.03 28.29 81.795 29.613 82.933 30.231C83.257 30.408 83.597 30.561 83.938 30.703C84.377 30.885 84.829 31.034 85.266 31.221C85.608 31.369 85.743 31.621 85.656 31.921C85.551 32.273 85.26 32.414 84.93 32.463C84.3077 32.5542 83.6736 32.4148 83.147 32.071C83.08 32.029 83.023 31.881 83.045 31.806C83.122 31.536 83.039 31.382 82.772 31.313C82.723 31.301 82.678 31.273 82.621 31.249L81.679 32.717L81.678 32.716ZM89.308 29.351C89.304 30.163 89.265 30.977 89.304 31.787C89.339 32.475 89.64 33.06 90.341 33.288C90.675 33.396 91.058 33.422 91.409 33.386C92.079 33.317 92.606 32.956 93.039 32.441L92.539 31.873C92.488 31.902 92.449 31.92 92.414 31.943C91.704 32.389 91.251 32.21 91.201 31.37C91.133 30.25 91.171 29.123 91.166 28C91.166 27.985 91.182 27.971 91.192 27.956H92.42L92.79 27.052H91.178V25.552C90.716 25.642 90.269 25.736 89.818 25.812C89.305 25.9 89.304 25.893 89.304 26.42C89.304 27.043 89.306 27.048 88.719 27.272C88.582 27.325 88.528 27.393 88.54 27.537C88.551 27.663 88.542 27.791 88.542 27.939H89.307C89.307 28.436 89.309 28.893 89.307 29.349L89.308 29.351ZM79.508 32.784C79.313 32.748 79.121 32.702 78.925 32.681C78.768 32.665 78.699 32.605 78.693 32.441C78.666 31.742 78.61 31.044 78.604 30.345C78.5928 29.8323 78.7159 29.3255 78.961 28.875C79.116 28.597 79.319 28.363 79.631 28.256C80.035 28.119 80.157 28.198 80.203 28.613C80.207 28.647 80.218 28.679 80.227 28.723L80.645 28.787L81.236 27.073C79.96 26.611 79.148 27.271 78.42 28.21L78.546 26.908L75.897 27.348V27.681C75.898 27.723 75.905 27.765 75.911 27.819C76.035 27.845 76.151 27.872 76.269 27.894C76.7 27.976 76.716 27.976 76.717 28.41C76.719 29.637 76.714 30.865 76.698 32.092C76.692 32.624 76.676 32.623 76.149 32.752C76.102 32.763 76.055 32.778 76.018 32.789V33.259H79.508V32.784ZM55.228 27.9C55.271 27.909 55.313 27.929 55.355 27.93C55.575 27.933 55.646 28.048 55.645 28.26C55.635 29.582 55.641 30.905 55.63 32.227C55.626 32.644 55.61 32.643 55.198 32.726C55.115 32.743 55.034 32.768 54.958 32.788V33.258H58.442V32.782C58.228 32.743 58.022 32.72 57.824 32.663C57.747 32.641 57.64 32.543 57.638 32.477C57.605 31.623 57.559 30.768 57.581 29.915C57.5935 29.4337 57.7695 28.971 58.08 28.603C58.284 28.358 58.542 28.217 58.865 28.207C59.011 28.203 59.105 28.252 59.122 28.426C59.154 28.76 59.235 28.807 59.593 28.754L60.163 27.09C59.631 26.83 59.103 26.864 58.577 27.116C58.062 27.363 57.712 27.794 57.343 28.308L57.477 26.903L54.838 27.348C54.806 27.659 54.936 27.843 55.228 27.9ZM81.238 36.416C81.29 36.462 81.34 36.542 81.395 36.546C81.565 36.56 81.61 36.646 81.609 36.801C81.6049 37.666 81.6042 38.531 81.607 39.396C81.607 39.538 81.568 39.62 81.409 39.635C81.347 39.641 81.292 39.715 81.233 39.757L81.272 39.82H82.634L82.677 39.763L82.512 39.629C82.45 39.576 82.338 39.527 82.333 39.469C82.3 39.068 82.289 38.664 82.271 38.269C82.525 38.195 82.677 38.247 82.813 38.442C83.125 38.888 83.459 39.318 83.795 39.747C83.849 39.816 83.958 39.881 84.041 39.881C84.281 39.879 84.521 39.841 84.864 39.808C84.199 39.337 83.77 38.746 83.328 38.152C83.458 38.11 83.559 38.084 83.654 38.044C84.115 37.851 84.322 37.499 84.26 37.019C84.212 36.655 83.896 36.373 83.416 36.355C82.702 36.328 81.986 36.348 81.27 36.348L81.237 36.417H81.239L81.238 36.416ZM82.304 36.72C82.6 36.72 82.879 36.699 83.154 36.726C83.2631 36.7314 83.3669 36.7748 83.4473 36.8488C83.5277 36.9228 83.5796 37.0227 83.594 37.131C83.6212 37.2454 83.6106 37.3655 83.5638 37.4734C83.5169 37.5812 83.4362 37.6709 83.334 37.729C83.012 37.928 82.657 37.933 82.304 37.889V36.72ZM60.554 39.838C61.217 39.838 61.882 39.866 62.543 39.83C63.141 39.797 63.613 39.488 63.914 38.97C64.272 38.354 64.328 37.699 63.996 37.062C63.68 36.456 63.1 36.327 62.47 36.335C61.865 36.343 61.26 36.345 60.655 36.353C60.617 36.353 60.578 36.37 60.481 36.393C60.558 36.465 60.601 36.539 60.641 36.539C60.901 36.533 60.897 36.707 60.896 36.885C60.893 37.715 60.888 38.545 60.89 39.375C60.89 39.526 60.86 39.62 60.684 39.635C60.624 39.641 60.57 39.716 60.513 39.76L60.554 39.838ZM61.568 37.007C61.563 36.819 61.638 36.738 61.818 36.728C61.938 36.721 62.057 36.699 62.178 36.692C62.881 36.654 63.358 37.01 63.438 37.706C63.476 38.037 63.448 38.403 63.346 38.719C63.111 39.446 62.394 39.641 61.687 39.409C61.631 39.391 61.582 39.262 61.58 39.183C61.568 38.812 61.575 38.44 61.575 38.069H61.572C61.572 37.715 61.58 37.361 61.569 37.006L61.568 37.007ZM54.706 36.694C54.706 37.575 54.705 38.456 54.708 39.337C54.708 39.514 54.679 39.642 54.463 39.643C54.428 39.643 54.393 39.716 54.358 39.756C54.388 39.78 54.418 39.823 54.45 39.824C54.799 39.829 55.147 39.827 55.496 39.827L55.526 39.754C55.472 39.713 55.419 39.64 55.363 39.637C55.194 39.627 55.173 39.533 55.169 39.396C55.154 38.843 55.132 38.291 55.115 37.738C55.11 37.582 55.115 37.426 55.115 37.269C55.677 38.019 56.204 38.757 56.677 39.528C56.881 39.862 57.117 39.933 57.475 39.849V39.675C57.475 38.733 57.473 37.791 57.474 36.849C57.474 36.701 57.472 36.55 57.693 36.545C57.738 36.545 57.781 36.453 57.855 36.37H56.607C56.702 36.463 56.747 36.545 56.792 36.546C56.999 36.551 56.992 36.686 56.997 36.83C57.013 37.349 57.036 37.866 57.053 38.385C57.059 38.56 57.054 38.736 57.054 38.969C56.961 38.839 56.9 38.759 56.844 38.674C56.369 37.964 55.897 37.251 55.421 36.541C55.375 36.473 55.313 36.368 55.253 36.364C54.966 36.345 54.678 36.356 54.39 36.356L54.359 36.462L54.695 36.614C54.697 36.627 54.706 36.661 54.706 36.694ZM72.149 36.333C71.595 36.25 71.04 36.225 70.542 36.547C69.975 36.914 69.987 37.638 70.572 37.962C70.818 38.099 71.094 38.183 71.357 38.29C71.532 38.362 71.717 38.413 71.882 38.504C72.086 38.615 72.2 38.796 72.159 39.042C72.119 39.285 71.959 39.414 71.734 39.477C71.39 39.575 71.066 39.497 70.752 39.357C70.58 39.279 70.392 39.207 70.457 38.946C70.467 38.908 70.399 38.838 70.351 38.808C70.334 38.798 70.249 38.856 70.231 38.898C70.137 39.118 70.055 39.342 69.958 39.591C70.173 39.668 70.369 39.759 70.576 39.808C71.206 39.956 71.826 39.972 72.399 39.597C72.899 39.27 73.119 38.358 72.297 37.98C72.126 37.9 71.947 37.835 71.77 37.765C71.53 37.67 71.27 37.606 71.055 37.471C70.933 37.394 70.835 37.209 70.812 37.061C70.784 36.866 70.952 36.723 71.13 36.717C71.433 36.705 71.74 36.735 72.04 36.78C72.188 36.802 72.338 36.882 72.311 37.094C72.307 37.129 72.376 37.173 72.411 37.212C72.449 37.177 72.505 37.149 72.523 37.105C72.6 36.915 72.667 36.721 72.749 36.495C72.542 36.438 72.349 36.362 72.149 36.333ZM110.85 39.624C111.188 39.43 111.356 39.115 111.338 38.712C111.322 38.332 111.091 38.118 110.776 37.972C110.572 37.879 110.36 37.802 110.152 37.718C109.945 37.634 109.718 37.578 109.538 37.456C109.422 37.376 109.295 37.186 109.315 37.069C109.337 36.934 109.506 36.739 109.629 36.724C109.919 36.69 110.222 36.731 110.516 36.771C110.724 36.8 110.865 36.922 110.798 37.165C111.011 37.215 111.12 37.038 111.227 36.478C111.02 36.426 110.815 36.358 110.604 36.327C110.111 36.253 109.618 36.247 109.158 36.479C108.844 36.638 108.639 36.889 108.628 37.253C108.618 37.603 108.822 37.832 109.112 37.993C109.211 38.046 109.313 38.093 109.418 38.133C109.71 38.241 110.008 38.331 110.295 38.45C110.558 38.56 110.701 38.79 110.667 39.015C110.626 39.289 110.449 39.433 110.186 39.491C109.83 39.568 109.504 39.478 109.186 39.324C109.034 39.251 108.924 39.171 108.963 38.972C108.973 38.924 108.898 38.858 108.863 38.802C108.813 38.847 108.743 38.883 108.717 38.94C108.629 39.136 108.556 39.34 108.462 39.58C109.259 39.936 110.052 40.083 110.85 39.624ZM48.234 36.421C48.272 36.463 48.312 36.541 48.349 36.541C48.612 36.535 48.579 36.718 48.579 36.88C48.577 37.494 48.568 38.107 48.573 38.72C48.576 39.16 48.706 39.563 49.134 39.752C49.652 39.98 50.202 39.986 50.714 39.734C50.901 39.642 51.068 39.454 51.174 39.269C51.403 38.875 51.382 38.423 51.38 37.982C51.377 37.518 51.38 37.053 51.38 36.652L51.72 36.434L51.68 36.367H50.515C50.581 36.449 50.615 36.533 50.652 36.533C50.922 36.538 50.912 36.723 50.915 36.908C50.918 37.054 50.945 37.201 50.94 37.348C50.925 37.863 50.943 38.385 50.87 38.893C50.81 39.306 50.492 39.485 50.046 39.475C49.643 39.465 49.376 39.265 49.304 38.852C49.171 38.097 49.274 37.342 49.316 36.652C49.457 36.554 49.546 36.492 49.634 36.429L49.591 36.363H48.277L48.234 36.421ZM105.017 36.757C105.264 36.766 105.483 36.814 105.557 37.09C105.762 37.01 105.755 36.808 105.549 36.337C104.776 36.337 103.999 36.334 103.222 36.341C103.132 36.341 103.042 36.39 102.952 36.416L103.198 36.576L103.241 36.609C103.246 36.631 103.257 36.655 103.257 36.68C103.26 37.595 103.267 38.511 103.257 39.426C103.257 39.494 103.15 39.563 103.087 39.627C103.037 39.678 102.978 39.722 102.923 39.768C103.7 39.83 104.433 39.83 105.167 39.83C105.757 39.83 105.76 39.831 105.9 39.264C105.918 39.188 105.88 39.098 105.869 39.016C105.803 39.065 105.735 39.109 105.674 39.163C105.595 39.231 105.528 39.363 105.446 39.371C105.01 39.417 104.57 39.439 104.131 39.453C104.073 39.455 103.962 39.368 103.96 39.32C103.946 38.917 103.953 38.514 103.953 38.087C104.251 38.087 104.526 38.085 104.8 38.087C104.923 38.088 105.04 38.098 105.079 38.255C105.088 38.291 105.162 38.323 105.211 38.332C105.227 38.335 105.278 38.261 105.279 38.222C105.285 37.992 105.282 37.761 105.282 37.53L105.243 37.47C104.876 37.936 104.401 37.726 103.955 37.768V36.708C104.33 36.727 104.673 36.746 105.017 36.758V36.757ZM77.643 36.748C77.875 36.764 78.143 36.745 78.251 37.042C78.26 37.064 78.35 37.081 78.381 37.063C78.413 37.045 78.439 36.978 78.432 36.938C78.415 36.828 78.361 36.721 78.356 36.611C78.346 36.367 78.218 36.331 77.999 36.335C77.334 36.35 76.668 36.337 76.003 36.343C75.886 36.343 75.769 36.388 75.653 36.413L75.968 36.665C75.968 37.55 75.971 38.499 75.96 39.447C75.96 39.507 75.859 39.569 75.8 39.625C75.748 39.677 75.691 39.723 75.636 39.772L75.682 39.825H78.472C78.528 39.602 78.585 39.394 78.626 39.183C78.636 39.133 78.592 39.072 78.573 39.016C78.519 39.044 78.453 39.06 78.414 39.103C78.342 39.183 78.3 39.339 78.221 39.357C77.7161 39.4746 77.1943 39.5017 76.68 39.437C76.668 39.171 76.646 38.93 76.648 38.689C76.654 37.952 76.544 38.091 77.237 38.086C77.449 38.084 77.717 37.99 77.818 38.311C77.824 38.331 77.908 38.327 77.967 38.335V37.433C77.584 37.936 77.11 37.722 76.667 37.77V36.743C77.005 36.743 77.326 36.727 77.643 36.748ZM99.929 39.153C99.114 39.761 98.036 39.403 97.797 38.423C97.664 37.881 97.701 37.336 98.171 36.949C98.603 36.593 99.102 36.583 99.611 36.8C99.751 36.86 99.84 36.94 99.841 37.106C99.841 37.154 99.905 37.201 99.941 37.248C99.985 37.21 100.059 37.178 100.071 37.132C100.126 36.925 100.162 36.714 100.208 36.492C99.698 36.269 99.175 36.236 98.651 36.317C97.922 36.429 97.362 36.807 97.15 37.535C96.939 38.257 97.035 38.947 97.619 39.491C98.254 40.084 99.647 40.108 100.361 39.173L100.178 38.953C100.089 39.025 100.012 39.093 99.929 39.153ZM86.929 36.54C87.156 36.539 87.211 36.7 87.271 36.864C87.599 37.764 87.955 38.656 88.241 39.569C88.361 39.947 88.607 39.806 88.825 39.843C89.053 39.882 89.04 39.693 89.087 39.568C89.441 38.641 89.787 37.711 90.15 36.788C90.188 36.691 90.32 36.632 90.41 36.555L90.613 36.372H89.419L89.387 36.446L89.704 36.644L88.852 39.199L88.779 39.185L87.929 36.638C88.052 36.555 88.141 36.494 88.231 36.435C88.2177 36.4116 88.2044 36.3883 88.191 36.365H86.755C86.84 36.455 86.885 36.539 86.928 36.539L86.929 36.54ZM43.309 39.446C43.309 39.507 43.206 39.569 43.147 39.627C43.095 39.677 43.037 39.72 42.983 39.765L43.026 39.815H44.484L44.514 39.732C44.434 39.698 44.352 39.667 44.276 39.626C44.188 39.58 44.034 39.528 44.031 39.473C44.011 39.036 44.02 38.598 44.02 38.133C44.284 38.133 44.533 38.13 44.782 38.135C44.932 38.137 45.098 38.113 45.149 38.327C45.157 38.361 45.261 38.372 45.336 38.397V37.505C44.94 37.957 44.474 37.789 44.021 37.81V36.7C44.385 36.717 44.727 36.73 45.07 36.751C45.253 36.762 45.43 36.794 45.514 36.999C45.528 37.033 45.606 37.04 45.654 37.06C45.672 37.01 45.714 36.957 45.704 36.913C45.668 36.728 45.617 36.546 45.572 36.364H43.023L42.986 36.44L43.316 36.636C43.316 37.546 43.319 38.496 43.309 39.446ZM92.909 36.428C92.97 36.472 93.027 36.546 93.091 36.552C93.243 36.566 93.275 36.65 93.275 36.777L93.278 39.392C93.278 39.546 93.222 39.63 93.052 39.638C93.002 39.641 92.959 39.734 92.88 39.821H94.377C94.327 39.741 94.297 39.646 94.267 39.646C93.97 39.648 94.008 39.43 93.995 39.248C93.9809 39.0674 93.9739 38.8862 93.974 38.705C93.98 38 93.99 37.295 93.998 36.632C94.144 36.524 94.371 36.614 94.328 36.364H92.948C92.9353 36.3854 92.9217 36.4067 92.909 36.428Z" fill="#002A7F"/>
</svg>
